G04 #@! TF.GenerationSoftware,KiCad,Pcbnew,(5.0.0)*
G04 #@! TF.CreationDate,2019-12-04T17:10:26-05:00*
G04 #@! TF.ProjectId,Audio Amp,417564696F20416D702E6B696361645F,rev?*
G04 #@! TF.SameCoordinates,Original*
G04 #@! TF.FileFunction,Copper,L1,Top,Signal*
G04 #@! TF.FilePolarity,Positive*
%FSLAX46Y46*%
G04 Gerber Fmt 4.6, Leading zero omitted, Abs format (unit mm)*
G04 Created by KiCad (PCBNEW (5.0.0)) date 12/04/19 17:10:26*
%MOMM*%
%LPD*%
G01*
G04 APERTURE LIST*
G04 #@! TA.AperFunction,SMDPad,CuDef*
%ADD10R,1.250000X1.000000*%
G04 #@! TD*
G04 #@! TA.AperFunction,SMDPad,CuDef*
%ADD11R,4.000000X2.500000*%
G04 #@! TD*
G04 #@! TA.AperFunction,SMDPad,CuDef*
%ADD12R,1.000000X1.250000*%
G04 #@! TD*
G04 #@! TA.AperFunction,SMDPad,CuDef*
%ADD13R,2.500000X4.000000*%
G04 #@! TD*
G04 #@! TA.AperFunction,SMDPad,CuDef*
%ADD14R,0.900000X0.800000*%
G04 #@! TD*
G04 #@! TA.AperFunction,ComponentPad*
%ADD15O,1.800000X1.800000*%
G04 #@! TD*
G04 #@! TA.AperFunction,ComponentPad*
%ADD16R,1.800000X1.800000*%
G04 #@! TD*
G04 #@! TA.AperFunction,ComponentPad*
%ADD17C,5.000000*%
G04 #@! TD*
G04 #@! TA.AperFunction,SMDPad,CuDef*
%ADD18R,10.000000X15.000000*%
G04 #@! TD*
G04 #@! TA.AperFunction,SMDPad,CuDef*
%ADD19R,0.800000X0.900000*%
G04 #@! TD*
G04 #@! TA.AperFunction,SMDPad,CuDef*
%ADD20R,0.700000X1.300000*%
G04 #@! TD*
G04 #@! TA.AperFunction,SMDPad,CuDef*
%ADD21R,1.300000X0.700000*%
G04 #@! TD*
G04 #@! TA.AperFunction,ComponentPad*
%ADD22C,2.400000*%
G04 #@! TD*
G04 #@! TA.AperFunction,ComponentPad*
%ADD23O,2.400000X2.400000*%
G04 #@! TD*
G04 #@! TA.AperFunction,ComponentPad*
%ADD24C,2.000000*%
G04 #@! TD*
G04 #@! TA.AperFunction,SMDPad,CuDef*
%ADD25R,1.550000X0.600000*%
G04 #@! TD*
G04 #@! TA.AperFunction,ComponentPad*
%ADD26C,3.000000*%
G04 #@! TD*
G04 #@! TA.AperFunction,SMDPad,CuDef*
%ADD27R,1.600000X3.500000*%
G04 #@! TD*
G04 #@! TA.AperFunction,SMDPad,CuDef*
%ADD28R,1.200000X1.200000*%
G04 #@! TD*
G04 #@! TA.AperFunction,ComponentPad*
%ADD29O,3.000000X3.800000*%
G04 #@! TD*
G04 #@! TA.AperFunction,ComponentPad*
%ADD30C,1.200000*%
G04 #@! TD*
G04 #@! TA.AperFunction,ComponentPad*
%ADD31C,2.500000*%
G04 #@! TD*
G04 #@! TA.AperFunction,ComponentPad*
%ADD32O,1.200000X1.700000*%
G04 #@! TD*
G04 #@! TA.AperFunction,ComponentPad*
%ADD33R,1.200000X1.700000*%
G04 #@! TD*
G04 #@! TA.AperFunction,ComponentPad*
%ADD34O,3.000000X3.000000*%
G04 #@! TD*
G04 #@! TA.AperFunction,ComponentPad*
%ADD35O,3.300000X1.900000*%
G04 #@! TD*
G04 #@! TA.AperFunction,ComponentPad*
%ADD36O,1.900000X3.300000*%
G04 #@! TD*
G04 #@! TA.AperFunction,SMDPad,CuDef*
%ADD37R,1.000000X1.600000*%
G04 #@! TD*
G04 #@! TA.AperFunction,SMDPad,CuDef*
%ADD38R,2.000000X3.800000*%
G04 #@! TD*
G04 #@! TA.AperFunction,SMDPad,CuDef*
%ADD39R,2.000000X1.500000*%
G04 #@! TD*
G04 #@! TA.AperFunction,ComponentPad*
%ADD40R,3.500000X3.500000*%
G04 #@! TD*
G04 #@! TA.AperFunction,ComponentPad*
%ADD41C,1.440000*%
G04 #@! TD*
G04 #@! TA.AperFunction,ComponentPad*
%ADD42O,1.700000X1.700000*%
G04 #@! TD*
G04 #@! TA.AperFunction,ComponentPad*
%ADD43R,1.700000X1.700000*%
G04 #@! TD*
G04 #@! TA.AperFunction,ViaPad*
%ADD44C,0.800000*%
G04 #@! TD*
G04 #@! TA.AperFunction,Conductor*
%ADD45C,0.250000*%
G04 #@! TD*
G04 #@! TA.AperFunction,Conductor*
%ADD46C,1.500000*%
G04 #@! TD*
G04 #@! TA.AperFunction,Conductor*
%ADD47C,2.000000*%
G04 #@! TD*
G04 #@! TA.AperFunction,Conductor*
%ADD48C,1.300000*%
G04 #@! TD*
G04 #@! TA.AperFunction,Conductor*
%ADD49C,0.750000*%
G04 #@! TD*
G04 #@! TA.AperFunction,Conductor*
%ADD50C,0.500000*%
G04 #@! TD*
G04 APERTURE END LIST*
D10*
G04 #@! TO.P,C1,1*
G04 #@! TO.N,+12V*
X96000000Y-100000000D03*
G04 #@! TO.P,C1,2*
G04 #@! TO.N,GND*
X96000000Y-102000000D03*
G04 #@! TD*
G04 #@! TO.P,C2,1*
G04 #@! TO.N,+12V*
X103500000Y-89500000D03*
G04 #@! TO.P,C2,2*
G04 #@! TO.N,GND*
X103500000Y-91500000D03*
G04 #@! TD*
D11*
G04 #@! TO.P,C3,1*
G04 #@! TO.N,+12V*
X138000000Y-129000000D03*
G04 #@! TO.P,C3,2*
G04 #@! TO.N,GND*
X130000000Y-129000000D03*
G04 #@! TD*
D12*
G04 #@! TO.P,C4,1*
G04 #@! TO.N,Net-(C4-Pad1)*
X111000000Y-98000000D03*
G04 #@! TO.P,C4,2*
G04 #@! TO.N,GND*
X113000000Y-98000000D03*
G04 #@! TD*
G04 #@! TO.P,C5,1*
G04 #@! TO.N,Net-(C5-Pad1)*
X106500000Y-93000000D03*
G04 #@! TO.P,C5,2*
G04 #@! TO.N,CHANNEL_A*
X108500000Y-93000000D03*
G04 #@! TD*
D13*
G04 #@! TO.P,C6,1*
G04 #@! TO.N,Net-(C14-Pad1)*
X86000000Y-171500000D03*
G04 #@! TO.P,C6,2*
G04 #@! TO.N,OUTPUT_A*
X86000000Y-163500000D03*
G04 #@! TD*
D12*
G04 #@! TO.P,C7,1*
G04 #@! TO.N,Net-(C7-Pad1)*
X87000000Y-94000000D03*
G04 #@! TO.P,C7,2*
G04 #@! TO.N,GND*
X85000000Y-94000000D03*
G04 #@! TD*
G04 #@! TO.P,C8,1*
G04 #@! TO.N,Net-(C8-Pad1)*
X92000000Y-96500000D03*
G04 #@! TO.P,C8,2*
G04 #@! TO.N,CHANNEL_B*
X90000000Y-96500000D03*
G04 #@! TD*
D13*
G04 #@! TO.P,C9,1*
G04 #@! TO.N,Net-(C12-Pad1)*
X73500000Y-171500000D03*
G04 #@! TO.P,C9,2*
G04 #@! TO.N,OUTPUT_B*
X73500000Y-163500000D03*
G04 #@! TD*
D14*
G04 #@! TO.P,Q1,1*
G04 #@! TO.N,Net-(Q1-Pad1)*
X107804999Y-102564999D03*
G04 #@! TO.P,Q1,2*
G04 #@! TO.N,Net-(Q1-Pad2)*
X107804999Y-100664999D03*
G04 #@! TO.P,Q1,3*
G04 #@! TO.N,Net-(Q1-Pad3)*
X105804999Y-101614999D03*
G04 #@! TD*
D15*
G04 #@! TO.P,Q2,3*
G04 #@! TO.N,Net-(Q2-Pad3)*
X104460000Y-110340000D03*
G04 #@! TO.P,Q2,2*
G04 #@! TO.N,+12V*
X107000000Y-110340000D03*
D16*
G04 #@! TO.P,Q2,1*
G04 #@! TO.N,Net-(Q1-Pad3)*
X109540000Y-110340000D03*
D17*
G04 #@! TO.P,Q2,2*
G04 #@! TO.N,+12V*
X107040000Y-127040000D03*
D18*
X106940000Y-122240000D03*
G04 #@! TD*
D15*
G04 #@! TO.P,Q3,3*
G04 #@! TO.N,Net-(Q3-Pad3)*
X109540000Y-153360000D03*
G04 #@! TO.P,Q3,2*
G04 #@! TO.N,GND*
X107000000Y-153360000D03*
D16*
G04 #@! TO.P,Q3,1*
G04 #@! TO.N,Net-(Q1-Pad2)*
X104460000Y-153360000D03*
D17*
G04 #@! TO.P,Q3,2*
G04 #@! TO.N,GND*
X106960000Y-136660000D03*
D18*
X107060000Y-141460000D03*
G04 #@! TD*
D19*
G04 #@! TO.P,Q4,1*
G04 #@! TO.N,Net-(Q4-Pad1)*
X84950000Y-102500000D03*
G04 #@! TO.P,Q4,2*
G04 #@! TO.N,Net-(Q4-Pad2)*
X83050000Y-102500000D03*
G04 #@! TO.P,Q4,3*
G04 #@! TO.N,Net-(Q4-Pad3)*
X84000000Y-104500000D03*
G04 #@! TD*
D15*
G04 #@! TO.P,Q5,3*
G04 #@! TO.N,Net-(Q5-Pad3)*
X86460000Y-110340000D03*
G04 #@! TO.P,Q5,2*
G04 #@! TO.N,+12V*
X89000000Y-110340000D03*
D16*
G04 #@! TO.P,Q5,1*
G04 #@! TO.N,Net-(Q4-Pad3)*
X91540000Y-110340000D03*
D17*
G04 #@! TO.P,Q5,2*
G04 #@! TO.N,+12V*
X89040000Y-127040000D03*
D18*
X88940000Y-122240000D03*
G04 #@! TD*
D15*
G04 #@! TO.P,Q6,3*
G04 #@! TO.N,Net-(Q6-Pad3)*
X91540000Y-153210000D03*
G04 #@! TO.P,Q6,2*
G04 #@! TO.N,GND*
X89000000Y-153210000D03*
D16*
G04 #@! TO.P,Q6,1*
G04 #@! TO.N,Net-(Q4-Pad2)*
X86460000Y-153210000D03*
D17*
G04 #@! TO.P,Q6,2*
G04 #@! TO.N,GND*
X88960000Y-136510000D03*
D18*
X89060000Y-141310000D03*
G04 #@! TD*
D20*
G04 #@! TO.P,R1,1*
G04 #@! TO.N,+12V*
X112950000Y-93000000D03*
G04 #@! TO.P,R1,2*
G04 #@! TO.N,Net-(R1-Pad2)*
X111050000Y-93000000D03*
G04 #@! TD*
G04 #@! TO.P,R2,1*
G04 #@! TO.N,Net-(R1-Pad2)*
X111050000Y-95500000D03*
G04 #@! TO.P,R2,2*
G04 #@! TO.N,GND*
X112950000Y-95500000D03*
G04 #@! TD*
G04 #@! TO.P,R3,1*
G04 #@! TO.N,Net-(R3-Pad1)*
X106600000Y-98000000D03*
G04 #@! TO.P,R3,2*
G04 #@! TO.N,Net-(C4-Pad1)*
X108500000Y-98000000D03*
G04 #@! TD*
G04 #@! TO.P,R4,1*
G04 #@! TO.N,Net-(R1-Pad2)*
X108400000Y-95500000D03*
G04 #@! TO.P,R4,2*
G04 #@! TO.N,Net-(C5-Pad1)*
X106500000Y-95500000D03*
G04 #@! TD*
G04 #@! TO.P,R5,1*
G04 #@! TO.N,Net-(Q1-Pad3)*
X103450000Y-101500000D03*
G04 #@! TO.P,R5,2*
G04 #@! TO.N,Net-(R5-Pad2)*
X101550000Y-101500000D03*
G04 #@! TD*
G04 #@! TO.P,R6,1*
G04 #@! TO.N,Net-(R5-Pad2)*
X101550000Y-104500000D03*
G04 #@! TO.P,R6,2*
G04 #@! TO.N,Net-(Q1-Pad1)*
X103450000Y-104500000D03*
G04 #@! TD*
D21*
G04 #@! TO.P,R7,1*
G04 #@! TO.N,Net-(Q1-Pad1)*
X111000000Y-102900000D03*
G04 #@! TO.P,R7,2*
G04 #@! TO.N,Net-(Q1-Pad2)*
X111000000Y-101000000D03*
G04 #@! TD*
G04 #@! TO.P,R8,1*
G04 #@! TO.N,Net-(Q1-Pad2)*
X114500000Y-101050000D03*
G04 #@! TO.P,R8,2*
G04 #@! TO.N,GND*
X114500000Y-102950000D03*
G04 #@! TD*
D22*
G04 #@! TO.P,R9,1*
G04 #@! TO.N,Net-(Q2-Pad3)*
X109500000Y-161000000D03*
D23*
G04 #@! TO.P,R9,2*
G04 #@! TO.N,Net-(C14-Pad1)*
X109500000Y-176240000D03*
G04 #@! TD*
D22*
G04 #@! TO.P,R10,1*
G04 #@! TO.N,Net-(C14-Pad1)*
X99500000Y-176240000D03*
D23*
G04 #@! TO.P,R10,2*
G04 #@! TO.N,Net-(Q3-Pad3)*
X99500000Y-161000000D03*
G04 #@! TD*
D20*
G04 #@! TO.P,R11,1*
G04 #@! TO.N,+12V*
X102950000Y-86500000D03*
G04 #@! TO.P,R11,2*
G04 #@! TO.N,Net-(R11-Pad2)*
X101050000Y-86500000D03*
G04 #@! TD*
G04 #@! TO.P,R12,1*
G04 #@! TO.N,Net-(R11-Pad2)*
X97400000Y-86500000D03*
G04 #@! TO.P,R12,2*
G04 #@! TO.N,GND*
X95500000Y-86500000D03*
G04 #@! TD*
G04 #@! TO.P,R13,1*
G04 #@! TO.N,Net-(R13-Pad1)*
X91950000Y-94000000D03*
G04 #@! TO.P,R13,2*
G04 #@! TO.N,Net-(C7-Pad1)*
X90050000Y-94000000D03*
G04 #@! TD*
D21*
G04 #@! TO.P,R14,1*
G04 #@! TO.N,Net-(R11-Pad2)*
X99000000Y-88600000D03*
G04 #@! TO.P,R14,2*
G04 #@! TO.N,Net-(C8-Pad1)*
X99000000Y-90500000D03*
G04 #@! TD*
D20*
G04 #@! TO.P,R15,1*
G04 #@! TO.N,Net-(Q4-Pad3)*
X91900000Y-99000000D03*
G04 #@! TO.P,R15,2*
G04 #@! TO.N,Net-(R15-Pad2)*
X90000000Y-99000000D03*
G04 #@! TD*
G04 #@! TO.P,R16,1*
G04 #@! TO.N,Net-(R15-Pad2)*
X87950000Y-99000000D03*
G04 #@! TO.P,R16,2*
G04 #@! TO.N,Net-(Q4-Pad1)*
X86050000Y-99000000D03*
G04 #@! TD*
G04 #@! TO.P,R17,1*
G04 #@! TO.N,Net-(Q4-Pad1)*
X84000000Y-99000000D03*
G04 #@! TO.P,R17,2*
G04 #@! TO.N,Net-(Q4-Pad2)*
X82100000Y-99000000D03*
G04 #@! TD*
G04 #@! TO.P,R18,1*
G04 #@! TO.N,Net-(Q4-Pad2)*
X80000000Y-99000000D03*
G04 #@! TO.P,R18,2*
G04 #@! TO.N,GND*
X78100000Y-99000000D03*
G04 #@! TD*
D22*
G04 #@! TO.P,R19,1*
G04 #@! TO.N,Net-(Q5-Pad3)*
X104500000Y-161000000D03*
D23*
G04 #@! TO.P,R19,2*
G04 #@! TO.N,Net-(C12-Pad1)*
X104500000Y-176240000D03*
G04 #@! TD*
D22*
G04 #@! TO.P,R20,1*
G04 #@! TO.N,Net-(C12-Pad1)*
X94500000Y-176240000D03*
D23*
G04 #@! TO.P,R20,2*
G04 #@! TO.N,Net-(Q6-Pad3)*
X94500000Y-161000000D03*
G04 #@! TD*
D24*
G04 #@! TO.P,SW1,2*
G04 #@! TO.N,+12V*
X132000000Y-115500000D03*
G04 #@! TO.P,SW1,1*
G04 #@! TO.N,Net-(F1-Pad1)*
X132000000Y-111000000D03*
G04 #@! TO.P,SW1,2*
G04 #@! TO.N,+12V*
X138500000Y-115500000D03*
G04 #@! TO.P,SW1,1*
G04 #@! TO.N,Net-(F1-Pad1)*
X138500000Y-111000000D03*
G04 #@! TD*
D25*
G04 #@! TO.P,U1,1*
G04 #@! TO.N,Net-(Q1-Pad3)*
X101900000Y-98000000D03*
G04 #@! TO.P,U1,2*
G04 #@! TO.N,Net-(R3-Pad1)*
X101900000Y-96730000D03*
G04 #@! TO.P,U1,3*
G04 #@! TO.N,Net-(C5-Pad1)*
X101900000Y-95460000D03*
G04 #@! TO.P,U1,4*
G04 #@! TO.N,GND*
X101900000Y-94190000D03*
G04 #@! TO.P,U1,5*
G04 #@! TO.N,Net-(C8-Pad1)*
X96500000Y-94190000D03*
G04 #@! TO.P,U1,6*
G04 #@! TO.N,Net-(R13-Pad1)*
X96500000Y-95460000D03*
G04 #@! TO.P,U1,7*
G04 #@! TO.N,Net-(Q4-Pad3)*
X96500000Y-96730000D03*
G04 #@! TO.P,U1,8*
G04 #@! TO.N,+12V*
X96500000Y-98000000D03*
G04 #@! TD*
D26*
G04 #@! TO.P,J3,S*
G04 #@! TO.N,GND*
X135280000Y-164045000D03*
G04 #@! TO.P,J3,R*
G04 #@! TO.N,CHANNEL_B*
X127660000Y-164045000D03*
G04 #@! TO.P,J3,T*
G04 #@! TO.N,CHANNEL_A*
X117500000Y-164045000D03*
G04 #@! TD*
G04 #@! TO.P,J4,S*
G04 #@! TO.N,GND*
X49800000Y-98955000D03*
G04 #@! TO.P,J4,R*
G04 #@! TO.N,OUTPUT_B*
X57420000Y-98955000D03*
G04 #@! TO.P,J4,T*
G04 #@! TO.N,OUTPUT_A*
X67580000Y-98955000D03*
G04 #@! TD*
D27*
G04 #@! TO.P,F1,1*
G04 #@! TO.N,Net-(F1-Pad1)*
X61880000Y-116000000D03*
G04 #@! TO.P,F1,2*
G04 #@! TO.N,Net-(F1-Pad2)*
X57000000Y-116000000D03*
G04 #@! TD*
D28*
G04 #@! TO.P,D1,2*
G04 #@! TO.N,+12V*
X138100000Y-144000000D03*
G04 #@! TO.P,D1,1*
G04 #@! TO.N,Net-(D1-Pad1)*
X135900000Y-144000000D03*
G04 #@! TD*
D20*
G04 #@! TO.P,R21,1*
G04 #@! TO.N,Net-(D1-Pad1)*
X134000000Y-144000000D03*
G04 #@! TO.P,R21,2*
G04 #@! TO.N,GND*
X132100000Y-144000000D03*
G04 #@! TD*
D29*
G04 #@! TO.P,RV2,GND*
G04 #@! TO.N,N/C*
X128000000Y-92000000D03*
X140000000Y-92000000D03*
D30*
G04 #@! TO.P,RV2,2*
G04 #@! TO.N,Net-(C12-Pad1)*
X129000000Y-102000000D03*
G04 #@! TO.P,RV2,1*
G04 #@! TO.N,Net-(R13-Pad1)*
X131000000Y-102000000D03*
G04 #@! TO.P,RV2,3*
G04 #@! TO.N,N/C*
X139000000Y-102000000D03*
G04 #@! TO.P,RV2,6*
X137000000Y-102000000D03*
G04 #@! TO.P,RV2,5*
G04 #@! TO.N,Net-(C14-Pad1)*
X135000000Y-102000000D03*
G04 #@! TO.P,RV2,4*
G04 #@! TO.N,Net-(R3-Pad1)*
X133000000Y-102000000D03*
G04 #@! TD*
D31*
G04 #@! TO.P,BANANA1,1*
G04 #@! TO.N,OUTPUT_B*
X60000000Y-173000000D03*
X65080000Y-173000000D03*
X65080000Y-167920000D03*
X60000000Y-167920000D03*
G04 #@! TD*
G04 #@! TO.P,BANANA2,1*
G04 #@! TO.N,OUTPUT_A*
X59920000Y-129580000D03*
X65000000Y-129580000D03*
X65000000Y-124500000D03*
X59920000Y-124500000D03*
G04 #@! TD*
G04 #@! TO.P,BANANA3,1*
G04 #@! TO.N,GND*
X60000000Y-158580000D03*
X65080000Y-158580000D03*
X65080000Y-153500000D03*
X60000000Y-153500000D03*
G04 #@! TD*
G04 #@! TO.P,BANANA4,1*
G04 #@! TO.N,GND*
X59960000Y-144040000D03*
X65040000Y-144040000D03*
X65040000Y-138960000D03*
X59960000Y-138960000D03*
G04 #@! TD*
D17*
G04 #@! TO.P,HEATSINK1,3*
G04 #@! TO.N,GND*
X120500000Y-153500000D03*
X75500000Y-153500000D03*
X75500000Y-108500000D03*
X120500000Y-108500000D03*
G04 #@! TO.P,HEATSINK1,2*
X72000000Y-120500000D03*
G04 #@! TO.P,HEATSINK1,1*
X124000000Y-141500000D03*
G04 #@! TD*
D32*
G04 #@! TO.P,J5,2*
G04 #@! TO.N,GND*
X60000000Y-109000000D03*
D33*
G04 #@! TO.P,J5,1*
G04 #@! TO.N,Net-(C10-Pad2)*
X61500000Y-109000000D03*
G04 #@! TD*
D34*
G04 #@! TO.P,J2,1*
G04 #@! TO.N,GND*
X140000000Y-153000000D03*
D35*
G04 #@! TO.P,J2,2*
G04 #@! TO.N,CHANNEL_B*
X133200000Y-150600000D03*
X132400000Y-147800000D03*
D36*
G04 #@! TO.P,J2,3*
G04 #@! TO.N,CHANNEL_A*
X129000000Y-157000000D03*
D35*
X135600000Y-157600000D03*
G04 #@! TD*
D12*
G04 #@! TO.P,C10,1*
G04 #@! TO.N,GND*
X60000000Y-104000000D03*
G04 #@! TO.P,C10,2*
G04 #@! TO.N,Net-(C10-Pad2)*
X62000000Y-104000000D03*
G04 #@! TD*
G04 #@! TO.P,C11,1*
G04 #@! TO.N,GND*
X76500000Y-120000000D03*
G04 #@! TO.P,C11,2*
G04 #@! TO.N,+12V*
X78500000Y-120000000D03*
G04 #@! TD*
D37*
G04 #@! TO.P,C12,1*
G04 #@! TO.N,Net-(C12-Pad1)*
X68500000Y-160000000D03*
G04 #@! TO.P,C12,2*
G04 #@! TO.N,OUTPUT_B*
X71500000Y-160000000D03*
G04 #@! TD*
D12*
G04 #@! TO.P,C13,1*
G04 #@! TO.N,Net-(C12-Pad1)*
X78000000Y-160000000D03*
G04 #@! TO.P,C13,2*
G04 #@! TO.N,OUTPUT_B*
X76000000Y-160000000D03*
G04 #@! TD*
D37*
G04 #@! TO.P,C14,1*
G04 #@! TO.N,Net-(C14-Pad1)*
X91000000Y-160000000D03*
G04 #@! TO.P,C14,2*
G04 #@! TO.N,OUTPUT_A*
X88000000Y-160000000D03*
G04 #@! TD*
D12*
G04 #@! TO.P,C15,1*
G04 #@! TO.N,Net-(C14-Pad1)*
X81000000Y-160000000D03*
G04 #@! TO.P,C15,2*
G04 #@! TO.N,OUTPUT_A*
X83000000Y-160000000D03*
G04 #@! TD*
D38*
G04 #@! TO.P,U2,2*
G04 #@! TO.N,GND*
X73850000Y-115000000D03*
D39*
X80150000Y-115000000D03*
G04 #@! TO.P,U2,3*
G04 #@! TO.N,Net-(C10-Pad2)*
X80150000Y-112700000D03*
G04 #@! TO.P,U2,1*
G04 #@! TO.N,+12V*
X80150000Y-117300000D03*
G04 #@! TD*
D40*
G04 #@! TO.P,J1,3*
G04 #@! TO.N,N/C*
X49000000Y-115700000D03*
G04 #@! TO.P,J1,2*
G04 #@! TO.N,GND*
X46000000Y-111000000D03*
G04 #@! TO.P,J1,1*
G04 #@! TO.N,Net-(F1-Pad2)*
X52000000Y-111000000D03*
G04 #@! TD*
D41*
G04 #@! TO.P,RV1,1*
G04 #@! TO.N,Net-(C4-Pad1)*
X120000000Y-91250000D03*
G04 #@! TO.P,RV1,2*
G04 #@! TO.N,Net-(R3-Pad1)*
X122540000Y-88710000D03*
G04 #@! TO.P,RV1,3*
G04 #@! TO.N,N/C*
X120000000Y-86170000D03*
G04 #@! TD*
G04 #@! TO.P,RV3,1*
G04 #@! TO.N,Net-(C7-Pad1)*
X80710000Y-91040000D03*
G04 #@! TO.P,RV3,2*
G04 #@! TO.N,Net-(R13-Pad1)*
X83250000Y-88500000D03*
G04 #@! TO.P,RV3,3*
G04 #@! TO.N,N/C*
X80710000Y-85960000D03*
G04 #@! TD*
D17*
G04 #@! TO.P,MNT1,1*
G04 #@! TO.N,GND*
X48000000Y-123000000D03*
G04 #@! TD*
G04 #@! TO.P,MNT2,1*
G04 #@! TO.N,GND*
X75000000Y-95000000D03*
G04 #@! TD*
G04 #@! TO.P,MNT3,1*
G04 #@! TO.N,GND*
X48000000Y-174000000D03*
G04 #@! TD*
D42*
G04 #@! TO.P,POWERIN1,2*
G04 #@! TO.N,GND*
X51190000Y-104250000D03*
D43*
G04 #@! TO.P,POWERIN1,1*
G04 #@! TO.N,Net-(F1-Pad2)*
X48650000Y-104250000D03*
G04 #@! TD*
D44*
G04 #@! TO.N,+12V*
X92500000Y-125000000D03*
X92500000Y-122500000D03*
X92500000Y-120000000D03*
X92500000Y-117500000D03*
X92500000Y-115000000D03*
X102500000Y-125000000D03*
X102500000Y-122500000D03*
X102500000Y-120000000D03*
X102500000Y-117500000D03*
X102500000Y-115000000D03*
X102950000Y-88000000D03*
X94275000Y-99500000D03*
X107000000Y-89500000D03*
X114000000Y-93000000D03*
X114000000Y-90000000D03*
X138100000Y-131500000D03*
X138000000Y-126500000D03*
X141000000Y-129000000D03*
X139000000Y-126500000D03*
X140000000Y-126500000D03*
X141000000Y-127000000D03*
X141000000Y-128000000D03*
X139000000Y-131500000D03*
X140000000Y-131500000D03*
X141000000Y-130000000D03*
X141000000Y-131000000D03*
X117500000Y-117500000D03*
X117500000Y-120000000D03*
X117500000Y-122500000D03*
X117500000Y-125000000D03*
X120000000Y-125000000D03*
X120000000Y-122500000D03*
X120000000Y-120000000D03*
X120000000Y-117500000D03*
X130000000Y-121000000D03*
X130000000Y-120000000D03*
X130000000Y-119000000D03*
X130000000Y-118000000D03*
X130000000Y-117000000D03*
X139000000Y-121000000D03*
X139000000Y-120000000D03*
X139000000Y-119000000D03*
X139000000Y-118000000D03*
G04 #@! TO.N,GND*
X103500000Y-93000000D03*
X116500000Y-99500000D03*
X94000000Y-86500000D03*
X86494999Y-87005001D03*
G04 #@! TO.N,Net-(C4-Pad1)*
X109500000Y-98000000D03*
G04 #@! TO.N,CHANNEL_A*
X128500000Y-107500000D03*
X123000000Y-102000000D03*
G04 #@! TO.N,CHANNEL_B*
X135000000Y-106500000D03*
X86500000Y-96500000D03*
G04 #@! TO.N,Net-(Q4-Pad2)*
X82500000Y-111000000D03*
G04 #@! TO.N,Net-(R3-Pad1)*
X105000000Y-97500000D03*
G04 #@! TO.N,Net-(R13-Pad1)*
X91950000Y-92600000D03*
X98600000Y-95500000D03*
G04 #@! TO.N,Net-(F1-Pad1)*
X65000000Y-116000000D03*
G04 #@! TO.N,Net-(C12-Pad1)*
X106000000Y-168000000D03*
G04 #@! TO.N,Net-(C10-Pad2)*
X80150000Y-109850000D03*
G04 #@! TD*
D45*
G04 #@! TO.N,+12V*
X96500000Y-99500000D02*
X96000000Y-100000000D01*
X96500000Y-98000000D02*
X96500000Y-99500000D01*
X102950000Y-88950000D02*
X103500000Y-89500000D01*
X102950000Y-86500000D02*
X102950000Y-88000000D01*
X104375000Y-89500000D02*
X103500000Y-89500000D01*
X112950000Y-93000000D02*
X112950000Y-92700000D01*
X102950000Y-88000000D02*
X102950000Y-88950000D01*
X96000000Y-100000000D02*
X95125000Y-100000000D01*
D46*
X89000000Y-110340000D02*
X89000000Y-127000000D01*
X107000000Y-110340000D02*
X107000000Y-127000000D01*
X78500000Y-118950000D02*
X80150000Y-117300000D01*
X78500000Y-120000000D02*
X78500000Y-118950000D01*
X81700000Y-120000000D02*
X88940000Y-127240000D01*
X78500000Y-120000000D02*
X81700000Y-120000000D01*
D45*
X138100000Y-129100000D02*
X138000000Y-129000000D01*
X138100000Y-144000000D02*
X138100000Y-132000000D01*
X138000000Y-116000000D02*
X138500000Y-115500000D01*
X138000000Y-129000000D02*
X138000000Y-126500000D01*
X94775000Y-100000000D02*
X94275000Y-99500000D01*
X96000000Y-100000000D02*
X94775000Y-100000000D01*
X107000000Y-89500000D02*
X104375000Y-89500000D01*
X112950000Y-93000000D02*
X114000000Y-93000000D01*
X107000000Y-89500000D02*
X113500000Y-89500000D01*
X113500000Y-89500000D02*
X114000000Y-90000000D01*
X138100000Y-132000000D02*
X138100000Y-129100000D01*
X138000000Y-126500000D02*
X138000000Y-116000000D01*
X94275000Y-99500000D02*
X94275000Y-113225000D01*
X94275000Y-113225000D02*
X92500000Y-115000000D01*
G04 #@! TO.N,GND*
X112950000Y-97950000D02*
X113000000Y-98000000D01*
X112950000Y-95500000D02*
X112950000Y-97950000D01*
X114500000Y-102950000D02*
X116050000Y-102950000D01*
X116050000Y-102950000D02*
X116500000Y-102500000D01*
X116500000Y-102500000D02*
X116500000Y-99000000D01*
X113750000Y-98000000D02*
X113000000Y-98000000D01*
X115500000Y-98000000D02*
X113750000Y-98000000D01*
X116500000Y-99000000D02*
X115500000Y-98000000D01*
X102375000Y-94190000D02*
X101900000Y-94190000D01*
X103500000Y-93065000D02*
X102375000Y-94190000D01*
X103500000Y-91500000D02*
X103500000Y-93065000D01*
X101900000Y-94190000D02*
X100310000Y-94190000D01*
X100310000Y-94190000D02*
X100000000Y-94500000D01*
X100000000Y-94500000D02*
X100000000Y-99000000D01*
X97000000Y-102000000D02*
X96000000Y-102000000D01*
X100000000Y-99000000D02*
X97000000Y-102000000D01*
X103500000Y-93065000D02*
X103500000Y-93000000D01*
X85000000Y-94000000D02*
X78100000Y-94000000D01*
X78100000Y-94000000D02*
X78100000Y-99000000D01*
X94000000Y-86500000D02*
X95500000Y-86500000D01*
X78100000Y-89500000D02*
X78100000Y-94000000D01*
X86494999Y-87005001D02*
X86494999Y-87005001D01*
X80150000Y-88850000D02*
X78750000Y-88850000D01*
X81994999Y-87005001D02*
X80150000Y-88850000D01*
X78750000Y-88850000D02*
X78100000Y-89500000D01*
D46*
X89000000Y-136550000D02*
X89000000Y-153210000D01*
X80150000Y-115000000D02*
X73850000Y-115000000D01*
D45*
X86494999Y-87005001D02*
X81994999Y-87005001D01*
X140000000Y-153000000D02*
X140000000Y-150500000D01*
X140000000Y-150500000D02*
X135500000Y-146000000D01*
X132100000Y-144300000D02*
X132100000Y-144000000D01*
X133800000Y-146000000D02*
X132100000Y-144300000D01*
X135500000Y-146000000D02*
X133800000Y-146000000D01*
X130000000Y-130500000D02*
X130000000Y-129000000D01*
X126499999Y-134000001D02*
X130000000Y-130500000D01*
X126499999Y-139000001D02*
X126499999Y-134000001D01*
X124000000Y-141500000D02*
X126499999Y-139000001D01*
X72500000Y-120000000D02*
X72000000Y-120500000D01*
X76500000Y-120000000D02*
X72500000Y-120000000D01*
G04 #@! TO.N,Net-(C4-Pad1)*
X108500000Y-98000000D02*
X109500000Y-98000000D01*
X109500000Y-98000000D02*
X111000000Y-98000000D01*
G04 #@! TO.N,Net-(C5-Pad1)*
X101940000Y-95500000D02*
X101900000Y-95460000D01*
X106500000Y-95500000D02*
X101940000Y-95500000D01*
X106500000Y-93000000D02*
X106500000Y-95500000D01*
D46*
G04 #@! TO.N,CHANNEL_A*
X121955000Y-164045000D02*
X129000000Y-157000000D01*
X117500000Y-164045000D02*
X121955000Y-164045000D01*
X129600000Y-157600000D02*
X129000000Y-157000000D01*
X135600000Y-157600000D02*
X129600000Y-157600000D01*
D45*
X129000000Y-135000000D02*
X129000000Y-157000000D01*
X134000000Y-130000000D02*
X129000000Y-135000000D01*
X134000000Y-108500000D02*
X134000000Y-130000000D01*
X133000000Y-107500000D02*
X134000000Y-108500000D01*
X128500000Y-107500000D02*
X133000000Y-107500000D01*
X123000000Y-102000000D02*
X123000000Y-99500000D01*
X108500000Y-92000000D02*
X108500000Y-93000000D01*
X109500000Y-91000000D02*
X114500000Y-91000000D01*
X123000000Y-99500000D02*
X114500000Y-91000000D01*
X109500000Y-91000000D02*
X108500000Y-92000000D01*
D46*
G04 #@! TO.N,OUTPUT_A*
X86000000Y-163500000D02*
X86000000Y-160000000D01*
X86000000Y-160000000D02*
X80000000Y-154000000D01*
X73000000Y-130000000D02*
X80000000Y-137000000D01*
X73000000Y-129580000D02*
X73000000Y-130000000D01*
X80000000Y-154000000D02*
X80000000Y-137000000D01*
X73000000Y-129580000D02*
X65000000Y-129580000D01*
D47*
X65000000Y-129580000D02*
X59920000Y-129580000D01*
X59920000Y-129580000D02*
X59920000Y-124500000D01*
X59920000Y-124500000D02*
X65000000Y-124500000D01*
X65000000Y-124500000D02*
X65000000Y-129580000D01*
D46*
X65000000Y-124500000D02*
X65000000Y-121000000D01*
X67580000Y-118420000D02*
X67580000Y-98955000D01*
X65000000Y-121000000D02*
X67580000Y-118420000D01*
X83000000Y-160000000D02*
X88000000Y-160000000D01*
D45*
G04 #@! TO.N,Net-(C7-Pad1)*
X87000000Y-94000000D02*
X90050000Y-94000000D01*
X87000000Y-92500000D02*
X87000000Y-94000000D01*
X82188233Y-91500000D02*
X86000000Y-91500000D01*
X81728233Y-91040000D02*
X82188233Y-91500000D01*
X80710000Y-91040000D02*
X81728233Y-91040000D01*
X86000000Y-91500000D02*
X87000000Y-92500000D01*
G04 #@! TO.N,CHANNEL_B*
X131700000Y-147800000D02*
X130000000Y-146100000D01*
X132400000Y-147800000D02*
X131700000Y-147800000D01*
X130000000Y-146100000D02*
X130000000Y-136000000D01*
X130000000Y-136000000D02*
X135000000Y-131000000D01*
X135000000Y-131000000D02*
X135000000Y-113000000D01*
X135000000Y-113000000D02*
X135000000Y-106500000D01*
X86500000Y-96500000D02*
X90000000Y-96500000D01*
D46*
G04 #@! TO.N,OUTPUT_B*
X73500000Y-163500000D02*
X69500000Y-163500000D01*
X69500000Y-163500000D02*
X65080000Y-167920000D01*
X73500000Y-163500000D02*
X73500000Y-160000000D01*
X76000000Y-160000000D02*
X73500000Y-160000000D01*
X73500000Y-160000000D02*
X71500000Y-160000000D01*
G04 #@! TO.N,Net-(F1-Pad2)*
X52000000Y-111000000D02*
X57000000Y-116000000D01*
D45*
G04 #@! TO.N,Net-(Q1-Pad1)*
X107804999Y-102564999D02*
X109064999Y-102564999D01*
X109400000Y-102900000D02*
X111000000Y-102900000D01*
X109064999Y-102564999D02*
X109400000Y-102900000D01*
X103450000Y-104500000D02*
X107500000Y-104500000D01*
X107804999Y-104195001D02*
X107804999Y-102564999D01*
X107500000Y-104500000D02*
X107804999Y-104195001D01*
G04 #@! TO.N,Net-(Q1-Pad2)*
X114450000Y-101000000D02*
X114500000Y-101050000D01*
X111000000Y-101000000D02*
X110000000Y-101000000D01*
X109664999Y-100664999D02*
X107804999Y-100664999D01*
X110000000Y-101000000D02*
X109664999Y-100664999D01*
X112500000Y-101000000D02*
X114450000Y-101000000D01*
X111000000Y-101000000D02*
X112500000Y-101000000D01*
X102360000Y-153360000D02*
X104460000Y-153360000D01*
X100000000Y-133000000D02*
X100000000Y-151000000D01*
X112500000Y-113000000D02*
X113500000Y-114000000D01*
X100000000Y-151000000D02*
X102360000Y-153360000D01*
X112500000Y-101000000D02*
X112500000Y-113000000D01*
X113500000Y-114000000D02*
X113500000Y-130500000D01*
X113500000Y-130500000D02*
X111500000Y-132500000D01*
X111500000Y-132500000D02*
X100500000Y-132500000D01*
X100500000Y-132500000D02*
X100000000Y-133000000D01*
G04 #@! TO.N,Net-(Q1-Pad3)*
X103564999Y-101614999D02*
X103450000Y-101500000D01*
X105804999Y-101614999D02*
X103564999Y-101614999D01*
X103450000Y-100600000D02*
X103450000Y-101500000D01*
X103450000Y-98525000D02*
X103450000Y-100600000D01*
X102925000Y-98000000D02*
X103450000Y-98525000D01*
X101900000Y-98000000D02*
X102925000Y-98000000D01*
X101900000Y-99100000D02*
X101900000Y-98000000D01*
X100000000Y-101000000D02*
X101900000Y-99100000D01*
X109540000Y-110340000D02*
X109540000Y-109190000D01*
X109540000Y-109190000D02*
X106850000Y-106500000D01*
X101000000Y-106500000D02*
X100000000Y-105500000D01*
X100000000Y-105500000D02*
X100000000Y-101000000D01*
X106850000Y-106500000D02*
X101000000Y-106500000D01*
D46*
G04 #@! TO.N,Net-(Q3-Pad3)*
X109540000Y-153360000D02*
X109540000Y-155460000D01*
X109540000Y-155460000D02*
X108000000Y-157000000D01*
X108000000Y-157000000D02*
X101500000Y-157000000D01*
X99500000Y-159000000D02*
X101500000Y-157000000D01*
X99500000Y-161000000D02*
X99500000Y-159000000D01*
D45*
G04 #@! TO.N,Net-(Q4-Pad3)*
X92500000Y-99000000D02*
X91900000Y-99000000D01*
X96500000Y-96730000D02*
X94770000Y-96730000D01*
X94770000Y-96730000D02*
X92500000Y-99000000D01*
X84000000Y-104500000D02*
X89500000Y-104500000D01*
X91900000Y-102100000D02*
X91900000Y-99000000D01*
X89500000Y-104500000D02*
X91900000Y-102100000D01*
X89500000Y-107150000D02*
X89500000Y-104500000D01*
X91540000Y-109190000D02*
X89500000Y-107150000D01*
X91540000Y-110340000D02*
X91540000Y-109190000D01*
G04 #@! TO.N,Net-(Q4-Pad2)*
X82100000Y-100100000D02*
X82100000Y-99000000D01*
X83050000Y-102500000D02*
X83050000Y-101050000D01*
X83050000Y-101050000D02*
X82100000Y-100100000D01*
X82100000Y-99000000D02*
X80000000Y-99000000D01*
X83050000Y-103200000D02*
X82500000Y-103750000D01*
X83050000Y-102500000D02*
X83050000Y-103200000D01*
X82500000Y-103750000D02*
X82500000Y-111000000D01*
G04 #@! TO.N,Net-(Q4-Pad1)*
X86050000Y-99000000D02*
X85000000Y-99000000D01*
X84950000Y-99050000D02*
X85000000Y-99000000D01*
X84950000Y-102500000D02*
X84950000Y-99050000D01*
X85000000Y-99000000D02*
X84000000Y-99000000D01*
D46*
G04 #@! TO.N,Net-(Q6-Pad3)*
X94500000Y-156170000D02*
X91540000Y-153210000D01*
X94500000Y-161000000D02*
X94500000Y-156170000D01*
D45*
G04 #@! TO.N,Net-(R1-Pad2)*
X111050000Y-93000000D02*
X111050000Y-93300000D01*
X111050000Y-93300000D02*
X111050000Y-94000000D01*
X111050000Y-94000000D02*
X111050000Y-95500000D01*
X108400000Y-95500000D02*
X111050000Y-95500000D01*
G04 #@! TO.N,Net-(R3-Pad1)*
X105500000Y-98000000D02*
X106600000Y-98000000D01*
X101900000Y-96730000D02*
X104230000Y-96730000D01*
X104230000Y-96730000D02*
X105000000Y-97500000D01*
X105000000Y-97500000D02*
X105500000Y-98000000D01*
X122540000Y-89728233D02*
X122540000Y-88710000D01*
X122540000Y-90691472D02*
X122540000Y-89728233D01*
X133000000Y-101151472D02*
X122540000Y-90691472D01*
X133000000Y-102000000D02*
X133000000Y-101151472D01*
G04 #@! TO.N,Net-(R5-Pad2)*
X101550000Y-101500000D02*
X101550000Y-104500000D01*
G04 #@! TO.N,Net-(R11-Pad2)*
X99000000Y-88600000D02*
X99000000Y-86500000D01*
X99000000Y-86500000D02*
X97400000Y-86500000D01*
X99000000Y-86500000D02*
X101050000Y-86500000D01*
G04 #@! TO.N,Net-(C8-Pad1)*
X96310000Y-94000000D02*
X96500000Y-94190000D01*
X92750000Y-96500000D02*
X92000000Y-96500000D01*
X93165000Y-96500000D02*
X92750000Y-96500000D01*
X95475000Y-94190000D02*
X93165000Y-96500000D01*
X96500000Y-94190000D02*
X95475000Y-94190000D01*
X96500000Y-94190000D02*
X98160000Y-94190000D01*
X99000000Y-93350000D02*
X99000000Y-90500000D01*
X98160000Y-94190000D02*
X99000000Y-93350000D01*
D48*
G04 #@! TO.N,Net-(F1-Pad2)*
X52000000Y-109000000D02*
X50300000Y-107300000D01*
X52000000Y-111000000D02*
X52000000Y-109000000D01*
X50300000Y-107300000D02*
X49450000Y-107300000D01*
X48650000Y-106500000D02*
X48650000Y-104250000D01*
X49450000Y-107300000D02*
X48650000Y-106500000D01*
D45*
G04 #@! TO.N,Net-(R13-Pad1)*
X91950000Y-90950000D02*
X91950000Y-92600000D01*
X89500000Y-88500000D02*
X91950000Y-90950000D01*
X83250000Y-88500000D02*
X89500000Y-88500000D01*
X124000000Y-94000000D02*
X131000000Y-101000000D01*
X120000000Y-94000000D02*
X124000000Y-94000000D01*
X114000000Y-88000000D02*
X120000000Y-94000000D01*
X131000000Y-101000000D02*
X131000000Y-102000000D01*
X89500000Y-88500000D02*
X93000000Y-85000000D01*
X93000000Y-85000000D02*
X104500000Y-85000000D01*
X104500000Y-85000000D02*
X105500000Y-86000000D01*
X105500000Y-86000000D02*
X105500000Y-87500000D01*
X105500000Y-87500000D02*
X106000000Y-88000000D01*
X106000000Y-88000000D02*
X114000000Y-88000000D01*
X91950000Y-92600000D02*
X91950000Y-94000000D01*
X96540000Y-95500000D02*
X96500000Y-95460000D01*
X98600000Y-95500000D02*
X96540000Y-95500000D01*
G04 #@! TO.N,Net-(R15-Pad2)*
X90000000Y-99000000D02*
X87950000Y-99000000D01*
D46*
G04 #@! TO.N,Net-(F1-Pad1)*
X65000000Y-116000000D02*
X61880000Y-116000000D01*
D45*
G04 #@! TO.N,Net-(D1-Pad1)*
X134000000Y-144000000D02*
X135900000Y-144000000D01*
D46*
G04 #@! TO.N,Net-(C14-Pad1)*
X96500000Y-173240000D02*
X99500000Y-176240000D01*
X96500000Y-171500000D02*
X96500000Y-173240000D01*
X109500000Y-176240000D02*
X109500000Y-173500000D01*
X107500000Y-171500000D02*
X95000000Y-171500000D01*
X109500000Y-173500000D02*
X107500000Y-171500000D01*
X86000000Y-171500000D02*
X95000000Y-171500000D01*
X95000000Y-171500000D02*
X96500000Y-171500000D01*
D49*
X81000000Y-165750000D02*
X86000000Y-170750000D01*
X81000000Y-160000000D02*
X81000000Y-165750000D01*
X86000000Y-170750000D02*
X86000000Y-171500000D01*
X90250000Y-166500000D02*
X86000000Y-170750000D01*
X91000000Y-165750000D02*
X90250000Y-166500000D01*
X91000000Y-160000000D02*
X91000000Y-165750000D01*
D45*
X128500000Y-105000000D02*
X134000000Y-105000000D01*
X109500000Y-168500000D02*
X115500000Y-162500000D01*
X109500000Y-176240000D02*
X109500000Y-168500000D01*
X115500000Y-162500000D02*
X115500000Y-139500000D01*
X126000000Y-107500000D02*
X128500000Y-105000000D01*
X135000000Y-102000000D02*
X135000000Y-104000000D01*
X135000000Y-104000000D02*
X134000000Y-105000000D01*
X124500000Y-128000000D02*
X126000000Y-126500000D01*
X124500000Y-130500000D02*
X124500000Y-128000000D01*
X126000000Y-126500000D02*
X126000000Y-107500000D01*
X115500000Y-139500000D02*
X124500000Y-130500000D01*
D46*
G04 #@! TO.N,Net-(C12-Pad1)*
X73500000Y-172250000D02*
X73500000Y-171500000D01*
X77490000Y-176240000D02*
X73500000Y-172250000D01*
X94500000Y-176240000D02*
X77490000Y-176240000D01*
D49*
X75500000Y-171500000D02*
X73500000Y-171500000D01*
X78000000Y-169000000D02*
X75500000Y-171500000D01*
X78000000Y-160000000D02*
X78000000Y-169000000D01*
X68500000Y-160000000D02*
X68500000Y-157500000D01*
X68500000Y-157500000D02*
X78000000Y-157500000D01*
X78000000Y-157500000D02*
X78000000Y-160000000D01*
D45*
X127674999Y-103325001D02*
X129000000Y-102000000D01*
X124500000Y-106500000D02*
X127674999Y-103325001D01*
X114000000Y-160000000D02*
X114000000Y-138500000D01*
X114000000Y-138500000D02*
X122500000Y-130000000D01*
X106000000Y-168000000D02*
X114000000Y-160000000D01*
X122500000Y-128000000D02*
X124500000Y-126000000D01*
X122500000Y-130000000D02*
X122500000Y-128000000D01*
X124500000Y-126000000D02*
X124500000Y-106500000D01*
D46*
G04 #@! TO.N,Net-(C10-Pad2)*
X80150000Y-112700000D02*
X80150000Y-109850000D01*
D49*
X62000000Y-108500000D02*
X61500000Y-109000000D01*
X62000000Y-104000000D02*
X62000000Y-108500000D01*
G04 #@! TD*
D50*
G04 #@! TO.N,GND*
G36*
X141675000Y-151549274D02*
X141323981Y-151170891D01*
X140523229Y-150803458D01*
X140357179Y-150770429D01*
X140004000Y-150931504D01*
X140004000Y-152996000D01*
X140024000Y-152996000D01*
X140024000Y-153004000D01*
X140004000Y-153004000D01*
X140004000Y-155068496D01*
X140357179Y-155229571D01*
X140523229Y-155196542D01*
X141323981Y-154829109D01*
X141675000Y-154450726D01*
X141675000Y-177675000D01*
X111487753Y-177675000D01*
X111807849Y-177195942D01*
X111997998Y-176240000D01*
X111807849Y-175284058D01*
X111500000Y-174823329D01*
X111500000Y-173696976D01*
X111539181Y-173499999D01*
X111500000Y-173303022D01*
X111500000Y-173303018D01*
X111383959Y-172719639D01*
X111077465Y-172260939D01*
X111053500Y-172225073D01*
X111053499Y-172225072D01*
X110941919Y-172058081D01*
X110875000Y-172013367D01*
X110875000Y-169069543D01*
X114926478Y-165018066D01*
X115168662Y-165602750D01*
X115942250Y-166376338D01*
X116131796Y-166454850D01*
X115871443Y-166562692D01*
X115062692Y-167371443D01*
X114625000Y-168428127D01*
X114625000Y-169571873D01*
X115062692Y-170628557D01*
X115871443Y-171437308D01*
X116928127Y-171875000D01*
X118071873Y-171875000D01*
X119128557Y-171437308D01*
X119937308Y-170628557D01*
X120040000Y-170380636D01*
X120142692Y-170628557D01*
X120951443Y-171437308D01*
X122008127Y-171875000D01*
X123151873Y-171875000D01*
X124208557Y-171437308D01*
X125017308Y-170628557D01*
X125455000Y-169571873D01*
X125455000Y-168428127D01*
X132405000Y-168428127D01*
X132405000Y-169571873D01*
X132842692Y-170628557D01*
X133651443Y-171437308D01*
X134708127Y-171875000D01*
X135851873Y-171875000D01*
X136908557Y-171437308D01*
X137717308Y-170628557D01*
X138155000Y-169571873D01*
X138155000Y-168428127D01*
X137717308Y-167371443D01*
X136908557Y-166562692D01*
X135999879Y-166186306D01*
X136486324Y-166005886D01*
X136629984Y-165909897D01*
X136771099Y-165541756D01*
X135280000Y-164050657D01*
X133788901Y-165541756D01*
X133930016Y-165909897D01*
X134545522Y-166192353D01*
X133651443Y-166562692D01*
X132842692Y-167371443D01*
X132405000Y-168428127D01*
X125455000Y-168428127D01*
X125017308Y-167371443D01*
X124208557Y-166562692D01*
X123151873Y-166125000D01*
X122008127Y-166125000D01*
X120951443Y-166562692D01*
X120142692Y-167371443D01*
X120040000Y-167619364D01*
X119937308Y-167371443D01*
X119128557Y-166562692D01*
X118868204Y-166454850D01*
X119057750Y-166376338D01*
X119389088Y-166045000D01*
X121758023Y-166045000D01*
X121955000Y-166084181D01*
X122151977Y-166045000D01*
X122151982Y-166045000D01*
X122735361Y-165928959D01*
X123396919Y-165486919D01*
X123508501Y-165319925D01*
X124910000Y-163918426D01*
X124910000Y-164592009D01*
X125328662Y-165602750D01*
X126102250Y-166376338D01*
X127112991Y-166795000D01*
X128207009Y-166795000D01*
X129217750Y-166376338D01*
X129991338Y-165602750D01*
X130410000Y-164592009D01*
X130410000Y-164409099D01*
X133006737Y-164409099D01*
X133319114Y-165251324D01*
X133415103Y-165394984D01*
X133783244Y-165536099D01*
X135274343Y-164045000D01*
X135285657Y-164045000D01*
X136776756Y-165536099D01*
X137144897Y-165394984D01*
X137519556Y-164578557D01*
X137553263Y-163680901D01*
X137240886Y-162838676D01*
X137144897Y-162695016D01*
X136776756Y-162553901D01*
X135285657Y-164045000D01*
X135274343Y-164045000D01*
X133783244Y-162553901D01*
X133415103Y-162695016D01*
X133040444Y-163511443D01*
X133006737Y-164409099D01*
X130410000Y-164409099D01*
X130410000Y-163497991D01*
X130016603Y-162548244D01*
X133788901Y-162548244D01*
X135280000Y-164039343D01*
X136771099Y-162548244D01*
X136629984Y-162180103D01*
X135813557Y-161805444D01*
X134915901Y-161771737D01*
X134073676Y-162084114D01*
X133930016Y-162180103D01*
X133788901Y-162548244D01*
X130016603Y-162548244D01*
X129991338Y-162487250D01*
X129217750Y-161713662D01*
X128207009Y-161295000D01*
X127533427Y-161295000D01*
X128904352Y-159924074D01*
X129000000Y-159943100D01*
X129858396Y-159772354D01*
X130116342Y-159600000D01*
X133933318Y-159600000D01*
X134041603Y-159672354D01*
X134683322Y-159800000D01*
X136516678Y-159800000D01*
X137158397Y-159672354D01*
X137886111Y-159186111D01*
X138372354Y-158458397D01*
X138543100Y-157600000D01*
X138372354Y-156741603D01*
X137886111Y-156013889D01*
X137158397Y-155527646D01*
X136516678Y-155400000D01*
X134683322Y-155400000D01*
X134041603Y-155527646D01*
X133933318Y-155600000D01*
X131103861Y-155600000D01*
X131072354Y-155441603D01*
X130586111Y-154713889D01*
X130375000Y-154572829D01*
X130375000Y-153357179D01*
X137770428Y-153357179D01*
X138076831Y-154183211D01*
X138676019Y-154829109D01*
X139476771Y-155196542D01*
X139642821Y-155229571D01*
X139996000Y-155068496D01*
X139996000Y-153004000D01*
X137931503Y-153004000D01*
X137770428Y-153357179D01*
X130375000Y-153357179D01*
X130375000Y-151193728D01*
X130427646Y-151458397D01*
X130913889Y-152186111D01*
X131641603Y-152672354D01*
X132283322Y-152800000D01*
X134116678Y-152800000D01*
X134758397Y-152672354D01*
X134802596Y-152642821D01*
X137770428Y-152642821D01*
X137931503Y-152996000D01*
X139996000Y-152996000D01*
X139996000Y-150931504D01*
X139642821Y-150770429D01*
X139476771Y-150803458D01*
X138676019Y-151170891D01*
X138076831Y-151816789D01*
X137770428Y-152642821D01*
X134802596Y-152642821D01*
X135486111Y-152186111D01*
X135972354Y-151458397D01*
X136143100Y-150600000D01*
X135972354Y-149741603D01*
X135486111Y-149013889D01*
X135104982Y-148759227D01*
X135172354Y-148658397D01*
X135343100Y-147800000D01*
X135333154Y-147750000D01*
X141675000Y-147750000D01*
X141675000Y-151549274D01*
X141675000Y-151549274D01*
G37*
X141675000Y-151549274D02*
X141323981Y-151170891D01*
X140523229Y-150803458D01*
X140357179Y-150770429D01*
X140004000Y-150931504D01*
X140004000Y-152996000D01*
X140024000Y-152996000D01*
X140024000Y-153004000D01*
X140004000Y-153004000D01*
X140004000Y-155068496D01*
X140357179Y-155229571D01*
X140523229Y-155196542D01*
X141323981Y-154829109D01*
X141675000Y-154450726D01*
X141675000Y-177675000D01*
X111487753Y-177675000D01*
X111807849Y-177195942D01*
X111997998Y-176240000D01*
X111807849Y-175284058D01*
X111500000Y-174823329D01*
X111500000Y-173696976D01*
X111539181Y-173499999D01*
X111500000Y-173303022D01*
X111500000Y-173303018D01*
X111383959Y-172719639D01*
X111077465Y-172260939D01*
X111053500Y-172225073D01*
X111053499Y-172225072D01*
X110941919Y-172058081D01*
X110875000Y-172013367D01*
X110875000Y-169069543D01*
X114926478Y-165018066D01*
X115168662Y-165602750D01*
X115942250Y-166376338D01*
X116131796Y-166454850D01*
X115871443Y-166562692D01*
X115062692Y-167371443D01*
X114625000Y-168428127D01*
X114625000Y-169571873D01*
X115062692Y-170628557D01*
X115871443Y-171437308D01*
X116928127Y-171875000D01*
X118071873Y-171875000D01*
X119128557Y-171437308D01*
X119937308Y-170628557D01*
X120040000Y-170380636D01*
X120142692Y-170628557D01*
X120951443Y-171437308D01*
X122008127Y-171875000D01*
X123151873Y-171875000D01*
X124208557Y-171437308D01*
X125017308Y-170628557D01*
X125455000Y-169571873D01*
X125455000Y-168428127D01*
X132405000Y-168428127D01*
X132405000Y-169571873D01*
X132842692Y-170628557D01*
X133651443Y-171437308D01*
X134708127Y-171875000D01*
X135851873Y-171875000D01*
X136908557Y-171437308D01*
X137717308Y-170628557D01*
X138155000Y-169571873D01*
X138155000Y-168428127D01*
X137717308Y-167371443D01*
X136908557Y-166562692D01*
X135999879Y-166186306D01*
X136486324Y-166005886D01*
X136629984Y-165909897D01*
X136771099Y-165541756D01*
X135280000Y-164050657D01*
X133788901Y-165541756D01*
X133930016Y-165909897D01*
X134545522Y-166192353D01*
X133651443Y-166562692D01*
X132842692Y-167371443D01*
X132405000Y-168428127D01*
X125455000Y-168428127D01*
X125017308Y-167371443D01*
X124208557Y-166562692D01*
X123151873Y-166125000D01*
X122008127Y-166125000D01*
X120951443Y-166562692D01*
X120142692Y-167371443D01*
X120040000Y-167619364D01*
X119937308Y-167371443D01*
X119128557Y-166562692D01*
X118868204Y-166454850D01*
X119057750Y-166376338D01*
X119389088Y-166045000D01*
X121758023Y-166045000D01*
X121955000Y-166084181D01*
X122151977Y-166045000D01*
X122151982Y-166045000D01*
X122735361Y-165928959D01*
X123396919Y-165486919D01*
X123508501Y-165319925D01*
X124910000Y-163918426D01*
X124910000Y-164592009D01*
X125328662Y-165602750D01*
X126102250Y-166376338D01*
X127112991Y-166795000D01*
X128207009Y-166795000D01*
X129217750Y-166376338D01*
X129991338Y-165602750D01*
X130410000Y-164592009D01*
X130410000Y-164409099D01*
X133006737Y-164409099D01*
X133319114Y-165251324D01*
X133415103Y-165394984D01*
X133783244Y-165536099D01*
X135274343Y-164045000D01*
X135285657Y-164045000D01*
X136776756Y-165536099D01*
X137144897Y-165394984D01*
X137519556Y-164578557D01*
X137553263Y-163680901D01*
X137240886Y-162838676D01*
X137144897Y-162695016D01*
X136776756Y-162553901D01*
X135285657Y-164045000D01*
X135274343Y-164045000D01*
X133783244Y-162553901D01*
X133415103Y-162695016D01*
X133040444Y-163511443D01*
X133006737Y-164409099D01*
X130410000Y-164409099D01*
X130410000Y-163497991D01*
X130016603Y-162548244D01*
X133788901Y-162548244D01*
X135280000Y-164039343D01*
X136771099Y-162548244D01*
X136629984Y-162180103D01*
X135813557Y-161805444D01*
X134915901Y-161771737D01*
X134073676Y-162084114D01*
X133930016Y-162180103D01*
X133788901Y-162548244D01*
X130016603Y-162548244D01*
X129991338Y-162487250D01*
X129217750Y-161713662D01*
X128207009Y-161295000D01*
X127533427Y-161295000D01*
X128904352Y-159924074D01*
X129000000Y-159943100D01*
X129858396Y-159772354D01*
X130116342Y-159600000D01*
X133933318Y-159600000D01*
X134041603Y-159672354D01*
X134683322Y-159800000D01*
X136516678Y-159800000D01*
X137158397Y-159672354D01*
X137886111Y-159186111D01*
X138372354Y-158458397D01*
X138543100Y-157600000D01*
X138372354Y-156741603D01*
X137886111Y-156013889D01*
X137158397Y-155527646D01*
X136516678Y-155400000D01*
X134683322Y-155400000D01*
X134041603Y-155527646D01*
X133933318Y-155600000D01*
X131103861Y-155600000D01*
X131072354Y-155441603D01*
X130586111Y-154713889D01*
X130375000Y-154572829D01*
X130375000Y-153357179D01*
X137770428Y-153357179D01*
X138076831Y-154183211D01*
X138676019Y-154829109D01*
X139476771Y-155196542D01*
X139642821Y-155229571D01*
X139996000Y-155068496D01*
X139996000Y-153004000D01*
X137931503Y-153004000D01*
X137770428Y-153357179D01*
X130375000Y-153357179D01*
X130375000Y-151193728D01*
X130427646Y-151458397D01*
X130913889Y-152186111D01*
X131641603Y-152672354D01*
X132283322Y-152800000D01*
X134116678Y-152800000D01*
X134758397Y-152672354D01*
X134802596Y-152642821D01*
X137770428Y-152642821D01*
X137931503Y-152996000D01*
X139996000Y-152996000D01*
X139996000Y-150931504D01*
X139642821Y-150770429D01*
X139476771Y-150803458D01*
X138676019Y-151170891D01*
X138076831Y-151816789D01*
X137770428Y-152642821D01*
X134802596Y-152642821D01*
X135486111Y-152186111D01*
X135972354Y-151458397D01*
X136143100Y-150600000D01*
X135972354Y-149741603D01*
X135486111Y-149013889D01*
X135104982Y-148759227D01*
X135172354Y-148658397D01*
X135343100Y-147800000D01*
X135333154Y-147750000D01*
X141675000Y-147750000D01*
X141675000Y-151549274D01*
G36*
X78740000Y-85568143D02*
X78740000Y-86351857D01*
X79039914Y-87075916D01*
X79594084Y-87630086D01*
X80318143Y-87930000D01*
X81101857Y-87930000D01*
X81405965Y-87804035D01*
X81280000Y-88108143D01*
X81280000Y-88891857D01*
X81405965Y-89195965D01*
X81101857Y-89070000D01*
X80318143Y-89070000D01*
X79594084Y-89369914D01*
X79039914Y-89924084D01*
X78740000Y-90648143D01*
X78740000Y-91431857D01*
X79039914Y-92155916D01*
X79594084Y-92710086D01*
X80318143Y-93010000D01*
X81101857Y-93010000D01*
X81639736Y-92787204D01*
X81651735Y-92795221D01*
X82052811Y-92875000D01*
X82052816Y-92875000D01*
X82188232Y-92901936D01*
X82323649Y-92875000D01*
X83928026Y-92875000D01*
X83857398Y-92945628D01*
X83742000Y-93224225D01*
X83742000Y-93806500D01*
X83931500Y-93996000D01*
X84996000Y-93996000D01*
X84996000Y-93976000D01*
X85004000Y-93976000D01*
X85004000Y-93996000D01*
X85024000Y-93996000D01*
X85024000Y-94004000D01*
X85004000Y-94004000D01*
X85004000Y-95193500D01*
X85193500Y-95383000D01*
X85283548Y-95383000D01*
X85101198Y-95565350D01*
X84850000Y-96171795D01*
X84850000Y-96828205D01*
X85040238Y-97287479D01*
X85025000Y-97297660D01*
X84837725Y-97172527D01*
X84350000Y-97075512D01*
X83650000Y-97075512D01*
X83162275Y-97172527D01*
X83050000Y-97247547D01*
X82937725Y-97172527D01*
X82450000Y-97075512D01*
X81750000Y-97075512D01*
X81262275Y-97172527D01*
X81050000Y-97314364D01*
X80837725Y-97172527D01*
X80350000Y-97075512D01*
X79650000Y-97075512D01*
X79162275Y-97172527D01*
X78748801Y-97448801D01*
X78641772Y-97608981D01*
X78600776Y-97592000D01*
X78293500Y-97592000D01*
X78104000Y-97781500D01*
X78104000Y-98996000D01*
X78124000Y-98996000D01*
X78124000Y-99004000D01*
X78104000Y-99004000D01*
X78104000Y-100218500D01*
X78293500Y-100408000D01*
X78600776Y-100408000D01*
X78641772Y-100391019D01*
X78748801Y-100551199D01*
X79162275Y-100827473D01*
X79650000Y-100924488D01*
X80350000Y-100924488D01*
X80837725Y-100827473D01*
X80903168Y-100783746D01*
X81023278Y-100963503D01*
X81108681Y-101091318D01*
X81223485Y-101168028D01*
X81530688Y-101475231D01*
X81472527Y-101562275D01*
X81375512Y-102050000D01*
X81375512Y-102950000D01*
X81376736Y-102956152D01*
X81370824Y-102964999D01*
X81204779Y-103213503D01*
X81125000Y-103614579D01*
X81125000Y-103614583D01*
X81098064Y-103750000D01*
X81125000Y-103885417D01*
X81125001Y-108096095D01*
X80930361Y-107966041D01*
X80150000Y-107810818D01*
X79369640Y-107966041D01*
X78765319Y-108369836D01*
X78780303Y-107976401D01*
X78330232Y-106760939D01*
X78189765Y-106550716D01*
X77717717Y-106287940D01*
X75505657Y-108500000D01*
X77717717Y-110712060D01*
X78150001Y-110471420D01*
X78150001Y-111196667D01*
X78114364Y-111250000D01*
X77359136Y-111250000D01*
X77449284Y-111189765D01*
X77712060Y-110717717D01*
X75500000Y-108505657D01*
X73287940Y-110717717D01*
X73550716Y-111189765D01*
X74728425Y-111730977D01*
X76006838Y-111779665D01*
X75845151Y-112021646D01*
X75750000Y-112500000D01*
X75750000Y-118658100D01*
X75570627Y-118732399D01*
X75357398Y-118945628D01*
X75242000Y-119224225D01*
X75242000Y-119806500D01*
X75431498Y-119995998D01*
X75279557Y-119995998D01*
X75280303Y-119976401D01*
X74830232Y-118760939D01*
X74689765Y-118550716D01*
X74217717Y-118287940D01*
X72005657Y-120500000D01*
X74217717Y-122712060D01*
X74689765Y-122449284D01*
X75230977Y-121271575D01*
X75249198Y-120793151D01*
X75357398Y-121054372D01*
X75570627Y-121267601D01*
X75750000Y-121341900D01*
X75750000Y-129921574D01*
X74947498Y-129119072D01*
X74883959Y-128799639D01*
X74441919Y-128138081D01*
X73780361Y-127696041D01*
X73196982Y-127580000D01*
X73000000Y-127540818D01*
X72803018Y-127580000D01*
X67250000Y-127580000D01*
X67250000Y-125600835D01*
X67500000Y-124997281D01*
X67500000Y-124002719D01*
X67119398Y-123083864D01*
X67000000Y-122964466D01*
X67000000Y-122717717D01*
X69787940Y-122717717D01*
X70050716Y-123189765D01*
X71228425Y-123730977D01*
X72523599Y-123780303D01*
X73739061Y-123330232D01*
X73949284Y-123189765D01*
X74212060Y-122717717D01*
X72000000Y-120505657D01*
X69787940Y-122717717D01*
X67000000Y-122717717D01*
X67000000Y-121828426D01*
X68755919Y-120072508D01*
X68719697Y-121023599D01*
X69169768Y-122239061D01*
X69310235Y-122449284D01*
X69782283Y-122712060D01*
X71994343Y-120500000D01*
X69782283Y-118287940D01*
X69611791Y-118382848D01*
X69591788Y-118282283D01*
X69787940Y-118282283D01*
X72000000Y-120494343D01*
X74212060Y-118282283D01*
X73949284Y-117810235D01*
X73618012Y-117658000D01*
X73656500Y-117658000D01*
X73846000Y-117468500D01*
X73846000Y-115004000D01*
X73854000Y-115004000D01*
X73854000Y-117468500D01*
X74043500Y-117658000D01*
X75000776Y-117658000D01*
X75279373Y-117542601D01*
X75492602Y-117329372D01*
X75608000Y-117050775D01*
X75608000Y-115193500D01*
X75418500Y-115004000D01*
X73854000Y-115004000D01*
X73846000Y-115004000D01*
X72281500Y-115004000D01*
X72092000Y-115193500D01*
X72092000Y-117050775D01*
X72172958Y-117246225D01*
X71476401Y-117219697D01*
X70260939Y-117669768D01*
X70050716Y-117810235D01*
X69787940Y-118282283D01*
X69591788Y-118282283D01*
X69580000Y-118223023D01*
X69580000Y-112949225D01*
X72092000Y-112949225D01*
X72092000Y-114806500D01*
X72281500Y-114996000D01*
X73846000Y-114996000D01*
X73846000Y-112531500D01*
X73854000Y-112531500D01*
X73854000Y-114996000D01*
X75418500Y-114996000D01*
X75608000Y-114806500D01*
X75608000Y-112949225D01*
X75492602Y-112670628D01*
X75279373Y-112457399D01*
X75000776Y-112342000D01*
X74043500Y-112342000D01*
X73854000Y-112531500D01*
X73846000Y-112531500D01*
X73656500Y-112342000D01*
X72699224Y-112342000D01*
X72420627Y-112457399D01*
X72207398Y-112670628D01*
X72092000Y-112949225D01*
X69580000Y-112949225D01*
X69580000Y-109023599D01*
X72219697Y-109023599D01*
X72669768Y-110239061D01*
X72810235Y-110449284D01*
X73282283Y-110712060D01*
X75494343Y-108500000D01*
X73282283Y-106287940D01*
X72810235Y-106550716D01*
X72269023Y-107728425D01*
X72219697Y-109023599D01*
X69580000Y-109023599D01*
X69580000Y-106282283D01*
X73287940Y-106282283D01*
X75500000Y-108494343D01*
X77712060Y-106282283D01*
X77449284Y-105810235D01*
X76271575Y-105269023D01*
X74976401Y-105219697D01*
X73760939Y-105669768D01*
X73550716Y-105810235D01*
X73287940Y-106282283D01*
X69580000Y-106282283D01*
X69580000Y-100844088D01*
X69911338Y-100512750D01*
X70330000Y-99502009D01*
X70330000Y-99193500D01*
X76992000Y-99193500D01*
X76992000Y-99800775D01*
X77107398Y-100079372D01*
X77320627Y-100292601D01*
X77599224Y-100408000D01*
X77906500Y-100408000D01*
X78096000Y-100218500D01*
X78096000Y-99004000D01*
X77181500Y-99004000D01*
X76992000Y-99193500D01*
X70330000Y-99193500D01*
X70330000Y-98407991D01*
X69911338Y-97397250D01*
X69731805Y-97217717D01*
X72787940Y-97217717D01*
X73050716Y-97689765D01*
X74228425Y-98230977D01*
X75523599Y-98280303D01*
X75742558Y-98199225D01*
X76992000Y-98199225D01*
X76992000Y-98806500D01*
X77181500Y-98996000D01*
X78096000Y-98996000D01*
X78096000Y-97781500D01*
X77906500Y-97592000D01*
X77599224Y-97592000D01*
X77320627Y-97707399D01*
X77107398Y-97920628D01*
X76992000Y-98199225D01*
X75742558Y-98199225D01*
X76739061Y-97830232D01*
X76949284Y-97689765D01*
X77212060Y-97217717D01*
X75000000Y-95005657D01*
X72787940Y-97217717D01*
X69731805Y-97217717D01*
X69137750Y-96623662D01*
X68948204Y-96545150D01*
X69208557Y-96437308D01*
X70017308Y-95628557D01*
X70060782Y-95523599D01*
X71719697Y-95523599D01*
X72169768Y-96739061D01*
X72310235Y-96949284D01*
X72782283Y-97212060D01*
X74994343Y-95000000D01*
X75005657Y-95000000D01*
X77217717Y-97212060D01*
X77689765Y-96949284D01*
X78230977Y-95771575D01*
X78280303Y-94476401D01*
X78175549Y-94193500D01*
X83742000Y-94193500D01*
X83742000Y-94775775D01*
X83857398Y-95054372D01*
X84070627Y-95267601D01*
X84349224Y-95383000D01*
X84806500Y-95383000D01*
X84996000Y-95193500D01*
X84996000Y-94004000D01*
X83931500Y-94004000D01*
X83742000Y-94193500D01*
X78175549Y-94193500D01*
X77830232Y-93260939D01*
X77689765Y-93050716D01*
X77217717Y-92787940D01*
X75005657Y-95000000D01*
X74994343Y-95000000D01*
X72782283Y-92787940D01*
X72310235Y-93050716D01*
X71769023Y-94228425D01*
X71719697Y-95523599D01*
X70060782Y-95523599D01*
X70455000Y-94571873D01*
X70455000Y-93428127D01*
X70187484Y-92782283D01*
X72787940Y-92782283D01*
X75000000Y-94994343D01*
X77212060Y-92782283D01*
X76949284Y-92310235D01*
X75771575Y-91769023D01*
X74476401Y-91719697D01*
X73260939Y-92169768D01*
X73050716Y-92310235D01*
X72787940Y-92782283D01*
X70187484Y-92782283D01*
X70017308Y-92371443D01*
X69208557Y-91562692D01*
X68151873Y-91125000D01*
X67008127Y-91125000D01*
X65951443Y-91562692D01*
X65142692Y-92371443D01*
X65040000Y-92619364D01*
X64937308Y-92371443D01*
X64128557Y-91562692D01*
X63071873Y-91125000D01*
X61928127Y-91125000D01*
X60871443Y-91562692D01*
X60062692Y-92371443D01*
X59625000Y-93428127D01*
X59625000Y-94571873D01*
X60062692Y-95628557D01*
X60871443Y-96437308D01*
X61928127Y-96875000D01*
X63071873Y-96875000D01*
X64128557Y-96437308D01*
X64937308Y-95628557D01*
X65040000Y-95380636D01*
X65142692Y-95628557D01*
X65951443Y-96437308D01*
X66211796Y-96545150D01*
X66022250Y-96623662D01*
X65248662Y-97397250D01*
X64830000Y-98407991D01*
X64830000Y-99502009D01*
X65248662Y-100512750D01*
X65580001Y-100844089D01*
X65580000Y-114076187D01*
X65196982Y-114000000D01*
X63904760Y-114000000D01*
X63857473Y-113762275D01*
X63581199Y-113348801D01*
X63167725Y-113072527D01*
X62680000Y-112975512D01*
X61080000Y-112975512D01*
X60592275Y-113072527D01*
X60178801Y-113348801D01*
X59902527Y-113762275D01*
X59805512Y-114250000D01*
X59805512Y-117750000D01*
X59902527Y-118237725D01*
X60178801Y-118651199D01*
X60592275Y-118927473D01*
X61080000Y-119024488D01*
X62680000Y-119024488D01*
X63167725Y-118927473D01*
X63581199Y-118651199D01*
X63857473Y-118237725D01*
X63904760Y-118000000D01*
X65171573Y-118000000D01*
X63725073Y-119446501D01*
X63558082Y-119558081D01*
X63446502Y-119725072D01*
X63446500Y-119725074D01*
X63116042Y-120219639D01*
X62960819Y-121000000D01*
X63000001Y-121196981D01*
X63000001Y-122250000D01*
X61020835Y-122250000D01*
X60417281Y-122000000D01*
X59422719Y-122000000D01*
X58503864Y-122380602D01*
X57800602Y-123083864D01*
X57420000Y-124002719D01*
X57420000Y-124997281D01*
X57670001Y-125600837D01*
X57670000Y-128479165D01*
X57420000Y-129082719D01*
X57420000Y-130077281D01*
X57800602Y-130996136D01*
X58503864Y-131699398D01*
X59422719Y-132080000D01*
X60417281Y-132080000D01*
X61020835Y-131830000D01*
X63899165Y-131830000D01*
X64502719Y-132080000D01*
X65497281Y-132080000D01*
X66416136Y-131699398D01*
X66535534Y-131580000D01*
X71751574Y-131580000D01*
X78000001Y-137828428D01*
X78000000Y-151445079D01*
X77717717Y-151287940D01*
X75505657Y-153500000D01*
X77717717Y-155712060D01*
X78189765Y-155449284D01*
X78341859Y-155118320D01*
X78558081Y-155441919D01*
X78725075Y-155553501D01*
X81272086Y-158100512D01*
X80500000Y-158100512D01*
X80012275Y-158197527D01*
X79625000Y-158456295D01*
X79625000Y-157660045D01*
X79656835Y-157500000D01*
X79530716Y-156865957D01*
X79171559Y-156328441D01*
X78634043Y-155969284D01*
X78160045Y-155875000D01*
X78000000Y-155843165D01*
X77839955Y-155875000D01*
X77624505Y-155875000D01*
X77712060Y-155717717D01*
X75500000Y-153505657D01*
X73287940Y-155717717D01*
X73375495Y-155875000D01*
X68660045Y-155875000D01*
X68500000Y-155843165D01*
X68339955Y-155875000D01*
X67865957Y-155969284D01*
X67328441Y-156328441D01*
X66969284Y-156865957D01*
X66843165Y-157500000D01*
X66868758Y-157628665D01*
X66823551Y-157506859D01*
X66738680Y-157379843D01*
X66396516Y-157269141D01*
X65085657Y-158580000D01*
X66396516Y-159890859D01*
X66725512Y-159784417D01*
X66725512Y-160800000D01*
X66822527Y-161287725D01*
X67098801Y-161701199D01*
X67512275Y-161977473D01*
X68000000Y-162074488D01*
X68047118Y-162074488D01*
X67946501Y-162225072D01*
X64751574Y-165420000D01*
X64582719Y-165420000D01*
X63663864Y-165800602D01*
X62960602Y-166503864D01*
X62580000Y-167422719D01*
X62580000Y-168417281D01*
X62960602Y-169336136D01*
X63663864Y-170039398D01*
X64582719Y-170420000D01*
X65577281Y-170420000D01*
X66496136Y-170039398D01*
X67199398Y-169336136D01*
X67580000Y-168417281D01*
X67580000Y-168248426D01*
X70328427Y-165500000D01*
X70975512Y-165500000D01*
X71072527Y-165987725D01*
X71348801Y-166401199D01*
X71762275Y-166677473D01*
X72250000Y-166774488D01*
X74750000Y-166774488D01*
X75237725Y-166677473D01*
X75651199Y-166401199D01*
X75927473Y-165987725D01*
X76024488Y-165500000D01*
X76024488Y-162000000D01*
X76196982Y-162000000D01*
X76375000Y-161964590D01*
X76375001Y-168326902D01*
X75832206Y-168869697D01*
X75651199Y-168598801D01*
X75237725Y-168322527D01*
X74750000Y-168225512D01*
X72250000Y-168225512D01*
X71762275Y-168322527D01*
X71348801Y-168598801D01*
X71072527Y-169012275D01*
X70975512Y-169500000D01*
X70975512Y-173500000D01*
X71072527Y-173987725D01*
X71348801Y-174401199D01*
X71762275Y-174677473D01*
X72250000Y-174774488D01*
X73196062Y-174774488D01*
X75936501Y-177514928D01*
X76043458Y-177675000D01*
X44325000Y-177675000D01*
X44325000Y-176217717D01*
X45787940Y-176217717D01*
X46050716Y-176689765D01*
X47228425Y-177230977D01*
X48523599Y-177280303D01*
X49739061Y-176830232D01*
X49949284Y-176689765D01*
X50212060Y-176217717D01*
X48000000Y-174005657D01*
X45787940Y-176217717D01*
X44325000Y-176217717D01*
X44325000Y-174523599D01*
X44719697Y-174523599D01*
X45169768Y-175739061D01*
X45310235Y-175949284D01*
X45782283Y-176212060D01*
X47994343Y-174000000D01*
X48005657Y-174000000D01*
X50217717Y-176212060D01*
X50689765Y-175949284D01*
X51230977Y-174771575D01*
X51280303Y-173476401D01*
X50919761Y-172502719D01*
X57500000Y-172502719D01*
X57500000Y-173497281D01*
X57880602Y-174416136D01*
X58583864Y-175119398D01*
X59502719Y-175500000D01*
X60497281Y-175500000D01*
X61416136Y-175119398D01*
X62119398Y-174416136D01*
X62500000Y-173497281D01*
X62500000Y-172502719D01*
X62580000Y-172502719D01*
X62580000Y-173497281D01*
X62960602Y-174416136D01*
X63663864Y-175119398D01*
X64582719Y-175500000D01*
X65577281Y-175500000D01*
X66496136Y-175119398D01*
X67199398Y-174416136D01*
X67580000Y-173497281D01*
X67580000Y-172502719D01*
X67199398Y-171583864D01*
X66496136Y-170880602D01*
X65577281Y-170500000D01*
X64582719Y-170500000D01*
X63663864Y-170880602D01*
X62960602Y-171583864D01*
X62580000Y-172502719D01*
X62500000Y-172502719D01*
X62119398Y-171583864D01*
X61416136Y-170880602D01*
X60497281Y-170500000D01*
X59502719Y-170500000D01*
X58583864Y-170880602D01*
X57880602Y-171583864D01*
X57500000Y-172502719D01*
X50919761Y-172502719D01*
X50830232Y-172260939D01*
X50689765Y-172050716D01*
X50217717Y-171787940D01*
X48005657Y-174000000D01*
X47994343Y-174000000D01*
X45782283Y-171787940D01*
X45310235Y-172050716D01*
X44769023Y-173228425D01*
X44719697Y-174523599D01*
X44325000Y-174523599D01*
X44325000Y-171782283D01*
X45787940Y-171782283D01*
X48000000Y-173994343D01*
X50212060Y-171782283D01*
X49949284Y-171310235D01*
X48771575Y-170769023D01*
X47476401Y-170719697D01*
X46260939Y-171169768D01*
X46050716Y-171310235D01*
X45787940Y-171782283D01*
X44325000Y-171782283D01*
X44325000Y-167422719D01*
X57500000Y-167422719D01*
X57500000Y-168417281D01*
X57880602Y-169336136D01*
X58583864Y-170039398D01*
X59502719Y-170420000D01*
X60497281Y-170420000D01*
X61416136Y-170039398D01*
X62119398Y-169336136D01*
X62500000Y-168417281D01*
X62500000Y-167422719D01*
X62119398Y-166503864D01*
X61416136Y-165800602D01*
X60497281Y-165420000D01*
X59502719Y-165420000D01*
X58583864Y-165800602D01*
X57880602Y-166503864D01*
X57500000Y-167422719D01*
X44325000Y-167422719D01*
X44325000Y-159896516D01*
X58689141Y-159896516D01*
X58799843Y-160238680D01*
X59525949Y-160571701D01*
X60324225Y-160601504D01*
X61073141Y-160323551D01*
X61200157Y-160238680D01*
X61310859Y-159896516D01*
X63769141Y-159896516D01*
X63879843Y-160238680D01*
X64605949Y-160571701D01*
X65404225Y-160601504D01*
X66153141Y-160323551D01*
X66280157Y-160238680D01*
X66390859Y-159896516D01*
X65080000Y-158585657D01*
X63769141Y-159896516D01*
X61310859Y-159896516D01*
X60000000Y-158585657D01*
X58689141Y-159896516D01*
X44325000Y-159896516D01*
X44325000Y-158904225D01*
X57978496Y-158904225D01*
X58256449Y-159653141D01*
X58341320Y-159780157D01*
X58683484Y-159890859D01*
X59994343Y-158580000D01*
X60005657Y-158580000D01*
X61316516Y-159890859D01*
X61658680Y-159780157D01*
X61991701Y-159054051D01*
X61997294Y-158904225D01*
X63058496Y-158904225D01*
X63336449Y-159653141D01*
X63421320Y-159780157D01*
X63763484Y-159890859D01*
X65074343Y-158580000D01*
X63763484Y-157269141D01*
X63421320Y-157379843D01*
X63088299Y-158105949D01*
X63058496Y-158904225D01*
X61997294Y-158904225D01*
X62021504Y-158255775D01*
X61743551Y-157506859D01*
X61658680Y-157379843D01*
X61316516Y-157269141D01*
X60005657Y-158580000D01*
X59994343Y-158580000D01*
X58683484Y-157269141D01*
X58341320Y-157379843D01*
X58008299Y-158105949D01*
X57978496Y-158904225D01*
X44325000Y-158904225D01*
X44325000Y-157263484D01*
X58689141Y-157263484D01*
X60000000Y-158574343D01*
X61310859Y-157263484D01*
X63769141Y-157263484D01*
X65080000Y-158574343D01*
X66390859Y-157263484D01*
X66280157Y-156921320D01*
X65554051Y-156588299D01*
X64755775Y-156558496D01*
X64006859Y-156836449D01*
X63879843Y-156921320D01*
X63769141Y-157263484D01*
X61310859Y-157263484D01*
X61200157Y-156921320D01*
X60474051Y-156588299D01*
X59675775Y-156558496D01*
X58926859Y-156836449D01*
X58799843Y-156921320D01*
X58689141Y-157263484D01*
X44325000Y-157263484D01*
X44325000Y-154816516D01*
X58689141Y-154816516D01*
X58799843Y-155158680D01*
X59525949Y-155491701D01*
X60324225Y-155521504D01*
X61073141Y-155243551D01*
X61200157Y-155158680D01*
X61310859Y-154816516D01*
X63769141Y-154816516D01*
X63879843Y-155158680D01*
X64605949Y-155491701D01*
X65404225Y-155521504D01*
X66153141Y-155243551D01*
X66280157Y-155158680D01*
X66390859Y-154816516D01*
X65080000Y-153505657D01*
X63769141Y-154816516D01*
X61310859Y-154816516D01*
X60000000Y-153505657D01*
X58689141Y-154816516D01*
X44325000Y-154816516D01*
X44325000Y-153824225D01*
X57978496Y-153824225D01*
X58256449Y-154573141D01*
X58341320Y-154700157D01*
X58683484Y-154810859D01*
X59994343Y-153500000D01*
X60005657Y-153500000D01*
X61316516Y-154810859D01*
X61658680Y-154700157D01*
X61991701Y-153974051D01*
X61997294Y-153824225D01*
X63058496Y-153824225D01*
X63336449Y-154573141D01*
X63421320Y-154700157D01*
X63763484Y-154810859D01*
X65074343Y-153500000D01*
X65085657Y-153500000D01*
X66396516Y-154810859D01*
X66738680Y-154700157D01*
X67048976Y-154023599D01*
X72219697Y-154023599D01*
X72669768Y-155239061D01*
X72810235Y-155449284D01*
X73282283Y-155712060D01*
X75494343Y-153500000D01*
X73282283Y-151287940D01*
X72810235Y-151550716D01*
X72269023Y-152728425D01*
X72219697Y-154023599D01*
X67048976Y-154023599D01*
X67071701Y-153974051D01*
X67101504Y-153175775D01*
X66823551Y-152426859D01*
X66738680Y-152299843D01*
X66396516Y-152189141D01*
X65085657Y-153500000D01*
X65074343Y-153500000D01*
X63763484Y-152189141D01*
X63421320Y-152299843D01*
X63088299Y-153025949D01*
X63058496Y-153824225D01*
X61997294Y-153824225D01*
X62021504Y-153175775D01*
X61743551Y-152426859D01*
X61658680Y-152299843D01*
X61316516Y-152189141D01*
X60005657Y-153500000D01*
X59994343Y-153500000D01*
X58683484Y-152189141D01*
X58341320Y-152299843D01*
X58008299Y-153025949D01*
X57978496Y-153824225D01*
X44325000Y-153824225D01*
X44325000Y-152183484D01*
X58689141Y-152183484D01*
X60000000Y-153494343D01*
X61310859Y-152183484D01*
X63769141Y-152183484D01*
X65080000Y-153494343D01*
X66390859Y-152183484D01*
X66280157Y-151841320D01*
X65554051Y-151508299D01*
X64755775Y-151478496D01*
X64006859Y-151756449D01*
X63879843Y-151841320D01*
X63769141Y-152183484D01*
X61310859Y-152183484D01*
X61200157Y-151841320D01*
X60474051Y-151508299D01*
X59675775Y-151478496D01*
X58926859Y-151756449D01*
X58799843Y-151841320D01*
X58689141Y-152183484D01*
X44325000Y-152183484D01*
X44325000Y-151282283D01*
X73287940Y-151282283D01*
X75500000Y-153494343D01*
X77712060Y-151282283D01*
X77449284Y-150810235D01*
X76271575Y-150269023D01*
X74976401Y-150219697D01*
X73760939Y-150669768D01*
X73550716Y-150810235D01*
X73287940Y-151282283D01*
X44325000Y-151282283D01*
X44325000Y-145356516D01*
X58649141Y-145356516D01*
X58759843Y-145698680D01*
X59485949Y-146031701D01*
X60284225Y-146061504D01*
X61033141Y-145783551D01*
X61160157Y-145698680D01*
X61270859Y-145356516D01*
X63729141Y-145356516D01*
X63839843Y-145698680D01*
X64565949Y-146031701D01*
X65364225Y-146061504D01*
X66113141Y-145783551D01*
X66240157Y-145698680D01*
X66350859Y-145356516D01*
X65040000Y-144045657D01*
X63729141Y-145356516D01*
X61270859Y-145356516D01*
X59960000Y-144045657D01*
X58649141Y-145356516D01*
X44325000Y-145356516D01*
X44325000Y-144364225D01*
X57938496Y-144364225D01*
X58216449Y-145113141D01*
X58301320Y-145240157D01*
X58643484Y-145350859D01*
X59954343Y-144040000D01*
X59965657Y-144040000D01*
X61276516Y-145350859D01*
X61618680Y-145240157D01*
X61951701Y-144514051D01*
X61957294Y-144364225D01*
X63018496Y-144364225D01*
X63296449Y-145113141D01*
X63381320Y-145240157D01*
X63723484Y-145350859D01*
X65034343Y-144040000D01*
X65045657Y-144040000D01*
X66356516Y-145350859D01*
X66698680Y-145240157D01*
X67031701Y-144514051D01*
X67061504Y-143715775D01*
X66783551Y-142966859D01*
X66698680Y-142839843D01*
X66356516Y-142729141D01*
X65045657Y-144040000D01*
X65034343Y-144040000D01*
X63723484Y-142729141D01*
X63381320Y-142839843D01*
X63048299Y-143565949D01*
X63018496Y-144364225D01*
X61957294Y-144364225D01*
X61981504Y-143715775D01*
X61703551Y-142966859D01*
X61618680Y-142839843D01*
X61276516Y-142729141D01*
X59965657Y-144040000D01*
X59954343Y-144040000D01*
X58643484Y-142729141D01*
X58301320Y-142839843D01*
X57968299Y-143565949D01*
X57938496Y-144364225D01*
X44325000Y-144364225D01*
X44325000Y-142723484D01*
X58649141Y-142723484D01*
X59960000Y-144034343D01*
X61270859Y-142723484D01*
X63729141Y-142723484D01*
X65040000Y-144034343D01*
X66350859Y-142723484D01*
X66240157Y-142381320D01*
X65514051Y-142048299D01*
X64715775Y-142018496D01*
X63966859Y-142296449D01*
X63839843Y-142381320D01*
X63729141Y-142723484D01*
X61270859Y-142723484D01*
X61160157Y-142381320D01*
X60434051Y-142048299D01*
X59635775Y-142018496D01*
X58886859Y-142296449D01*
X58759843Y-142381320D01*
X58649141Y-142723484D01*
X44325000Y-142723484D01*
X44325000Y-140276516D01*
X58649141Y-140276516D01*
X58759843Y-140618680D01*
X59485949Y-140951701D01*
X60284225Y-140981504D01*
X61033141Y-140703551D01*
X61160157Y-140618680D01*
X61270859Y-140276516D01*
X63729141Y-140276516D01*
X63839843Y-140618680D01*
X64565949Y-140951701D01*
X65364225Y-140981504D01*
X66113141Y-140703551D01*
X66240157Y-140618680D01*
X66350859Y-140276516D01*
X65040000Y-138965657D01*
X63729141Y-140276516D01*
X61270859Y-140276516D01*
X59960000Y-138965657D01*
X58649141Y-140276516D01*
X44325000Y-140276516D01*
X44325000Y-139284225D01*
X57938496Y-139284225D01*
X58216449Y-140033141D01*
X58301320Y-140160157D01*
X58643484Y-140270859D01*
X59954343Y-138960000D01*
X59965657Y-138960000D01*
X61276516Y-140270859D01*
X61618680Y-140160157D01*
X61951701Y-139434051D01*
X61957294Y-139284225D01*
X63018496Y-139284225D01*
X63296449Y-140033141D01*
X63381320Y-140160157D01*
X63723484Y-140270859D01*
X65034343Y-138960000D01*
X65045657Y-138960000D01*
X66356516Y-140270859D01*
X66698680Y-140160157D01*
X67031701Y-139434051D01*
X67061504Y-138635775D01*
X66783551Y-137886859D01*
X66698680Y-137759843D01*
X66356516Y-137649141D01*
X65045657Y-138960000D01*
X65034343Y-138960000D01*
X63723484Y-137649141D01*
X63381320Y-137759843D01*
X63048299Y-138485949D01*
X63018496Y-139284225D01*
X61957294Y-139284225D01*
X61981504Y-138635775D01*
X61703551Y-137886859D01*
X61618680Y-137759843D01*
X61276516Y-137649141D01*
X59965657Y-138960000D01*
X59954343Y-138960000D01*
X58643484Y-137649141D01*
X58301320Y-137759843D01*
X57968299Y-138485949D01*
X57938496Y-139284225D01*
X44325000Y-139284225D01*
X44325000Y-137643484D01*
X58649141Y-137643484D01*
X59960000Y-138954343D01*
X61270859Y-137643484D01*
X63729141Y-137643484D01*
X65040000Y-138954343D01*
X66350859Y-137643484D01*
X66240157Y-137301320D01*
X65514051Y-136968299D01*
X64715775Y-136938496D01*
X63966859Y-137216449D01*
X63839843Y-137301320D01*
X63729141Y-137643484D01*
X61270859Y-137643484D01*
X61160157Y-137301320D01*
X60434051Y-136968299D01*
X59635775Y-136938496D01*
X58886859Y-137216449D01*
X58759843Y-137301320D01*
X58649141Y-137643484D01*
X44325000Y-137643484D01*
X44325000Y-125217717D01*
X45787940Y-125217717D01*
X46050716Y-125689765D01*
X47228425Y-126230977D01*
X48523599Y-126280303D01*
X49739061Y-125830232D01*
X49949284Y-125689765D01*
X50212060Y-125217717D01*
X48000000Y-123005657D01*
X45787940Y-125217717D01*
X44325000Y-125217717D01*
X44325000Y-123523599D01*
X44719697Y-123523599D01*
X45169768Y-124739061D01*
X45310235Y-124949284D01*
X45782283Y-125212060D01*
X47994343Y-123000000D01*
X48005657Y-123000000D01*
X50217717Y-125212060D01*
X50689765Y-124949284D01*
X51230977Y-123771575D01*
X51280303Y-122476401D01*
X50830232Y-121260939D01*
X50689765Y-121050716D01*
X50217717Y-120787940D01*
X48005657Y-123000000D01*
X47994343Y-123000000D01*
X45782283Y-120787940D01*
X45310235Y-121050716D01*
X44769023Y-122228425D01*
X44719697Y-123523599D01*
X44325000Y-123523599D01*
X44325000Y-120782283D01*
X45787940Y-120782283D01*
X48000000Y-122994343D01*
X50212060Y-120782283D01*
X49949284Y-120310235D01*
X48771575Y-119769023D01*
X47476401Y-119719697D01*
X46260939Y-120169768D01*
X46050716Y-120310235D01*
X45787940Y-120782283D01*
X44325000Y-120782283D01*
X44325000Y-113950000D01*
X45975512Y-113950000D01*
X45975512Y-117450000D01*
X46072527Y-117937725D01*
X46348801Y-118351199D01*
X46762275Y-118627473D01*
X47250000Y-118724488D01*
X50750000Y-118724488D01*
X51237725Y-118627473D01*
X51651199Y-118351199D01*
X51927473Y-117937725D01*
X52024488Y-117450000D01*
X52024488Y-114024488D01*
X52196061Y-114024488D01*
X54925512Y-116753940D01*
X54925512Y-117750000D01*
X55022527Y-118237725D01*
X55298801Y-118651199D01*
X55712275Y-118927473D01*
X56200000Y-119024488D01*
X57800000Y-119024488D01*
X58287725Y-118927473D01*
X58701199Y-118651199D01*
X58977473Y-118237725D01*
X59074488Y-117750000D01*
X59074488Y-114250000D01*
X58977473Y-113762275D01*
X58701199Y-113348801D01*
X58287725Y-113072527D01*
X57800000Y-112975512D01*
X56803939Y-112975512D01*
X55024488Y-111196061D01*
X55024488Y-109250000D01*
X54927473Y-108762275D01*
X54916599Y-108746000D01*
X58642000Y-108746000D01*
X58642000Y-108996000D01*
X59625512Y-108996000D01*
X59625512Y-109004000D01*
X58642000Y-109004000D01*
X58642000Y-109254000D01*
X58746902Y-109773380D01*
X59042577Y-110213080D01*
X59484011Y-110506160D01*
X59783612Y-110590649D01*
X59853612Y-110533909D01*
X59998801Y-110751199D01*
X60412275Y-111027473D01*
X60900000Y-111124488D01*
X62100000Y-111124488D01*
X62587725Y-111027473D01*
X63001199Y-110751199D01*
X63277473Y-110337725D01*
X63374488Y-109850000D01*
X63374488Y-109367855D01*
X63530716Y-109134043D01*
X63625000Y-108660045D01*
X63625000Y-108660040D01*
X63656834Y-108500000D01*
X63625000Y-108339960D01*
X63625000Y-105191257D01*
X63677473Y-105112725D01*
X63774488Y-104625000D01*
X63774488Y-103375000D01*
X63677473Y-102887275D01*
X63401199Y-102473801D01*
X62987725Y-102197527D01*
X62500000Y-102100512D01*
X61500000Y-102100512D01*
X61012275Y-102197527D01*
X60598801Y-102473801D01*
X60503119Y-102617000D01*
X60193500Y-102617000D01*
X60004000Y-102806500D01*
X60004000Y-103996000D01*
X60024000Y-103996000D01*
X60024000Y-104004000D01*
X60004000Y-104004000D01*
X60004000Y-105193500D01*
X60193500Y-105383000D01*
X60375000Y-105383000D01*
X60375001Y-106997433D01*
X59998801Y-107248801D01*
X59853612Y-107466091D01*
X59783612Y-107409351D01*
X59484011Y-107493840D01*
X59042577Y-107786920D01*
X58746902Y-108226620D01*
X58642000Y-108746000D01*
X54916599Y-108746000D01*
X54651199Y-108348801D01*
X54237725Y-108072527D01*
X53750000Y-107975512D01*
X53600570Y-107975512D01*
X53369824Y-107630176D01*
X53211175Y-107524171D01*
X51775831Y-106088827D01*
X51669824Y-105930176D01*
X51511564Y-105824431D01*
X51561489Y-105814500D01*
X52131919Y-105553247D01*
X52558951Y-105093586D01*
X52777572Y-104505497D01*
X52608495Y-104254000D01*
X51194000Y-104254000D01*
X51194000Y-104274000D01*
X51186000Y-104274000D01*
X51186000Y-104254000D01*
X51166000Y-104254000D01*
X51166000Y-104246000D01*
X51186000Y-104246000D01*
X51186000Y-102831506D01*
X51194000Y-102831506D01*
X51194000Y-104246000D01*
X52608495Y-104246000D01*
X52643789Y-104193500D01*
X58742000Y-104193500D01*
X58742000Y-104775775D01*
X58857398Y-105054372D01*
X59070627Y-105267601D01*
X59349224Y-105383000D01*
X59806500Y-105383000D01*
X59996000Y-105193500D01*
X59996000Y-104004000D01*
X58931500Y-104004000D01*
X58742000Y-104193500D01*
X52643789Y-104193500D01*
X52777572Y-103994503D01*
X52558951Y-103406414D01*
X52389695Y-103224225D01*
X58742000Y-103224225D01*
X58742000Y-103806500D01*
X58931500Y-103996000D01*
X59996000Y-103996000D01*
X59996000Y-102806500D01*
X59806500Y-102617000D01*
X59349224Y-102617000D01*
X59070627Y-102732399D01*
X58857398Y-102945628D01*
X58742000Y-103224225D01*
X52389695Y-103224225D01*
X52131919Y-102946753D01*
X51561489Y-102685500D01*
X51445497Y-102662428D01*
X51194000Y-102831506D01*
X51186000Y-102831506D01*
X50934503Y-102662428D01*
X50818511Y-102685500D01*
X50594499Y-102788096D01*
X50401199Y-102498801D01*
X49987725Y-102222527D01*
X49500000Y-102125512D01*
X47800000Y-102125512D01*
X47312275Y-102222527D01*
X46898801Y-102498801D01*
X46622527Y-102912275D01*
X46525512Y-103400000D01*
X46525512Y-105100000D01*
X46622527Y-105587725D01*
X46750000Y-105778503D01*
X46750000Y-106312868D01*
X46712777Y-106500000D01*
X46750000Y-106687132D01*
X46860239Y-107241342D01*
X47280176Y-107869824D01*
X47438826Y-107975831D01*
X47974170Y-108511175D01*
X47984542Y-108526697D01*
X47900776Y-108492000D01*
X46193500Y-108492000D01*
X46004000Y-108681500D01*
X46004000Y-110996000D01*
X48318500Y-110996000D01*
X48508000Y-110806500D01*
X48508000Y-109099225D01*
X48425792Y-108900757D01*
X48708657Y-109089761D01*
X48996016Y-109146920D01*
X48975512Y-109250000D01*
X48975512Y-112675512D01*
X48508000Y-112675512D01*
X48508000Y-111193500D01*
X48318500Y-111004000D01*
X46004000Y-111004000D01*
X46004000Y-113318500D01*
X46102667Y-113417167D01*
X46072527Y-113462275D01*
X45975512Y-113950000D01*
X44325000Y-113950000D01*
X44325000Y-113508000D01*
X45806500Y-113508000D01*
X45996000Y-113318500D01*
X45996000Y-111004000D01*
X45976000Y-111004000D01*
X45976000Y-110996000D01*
X45996000Y-110996000D01*
X45996000Y-108681500D01*
X45806500Y-108492000D01*
X44325000Y-108492000D01*
X44325000Y-100451756D01*
X48308901Y-100451756D01*
X48450016Y-100819897D01*
X49266443Y-101194556D01*
X50164099Y-101228263D01*
X51006324Y-100915886D01*
X51149984Y-100819897D01*
X51291099Y-100451756D01*
X49800000Y-98960657D01*
X48308901Y-100451756D01*
X44325000Y-100451756D01*
X44325000Y-99319099D01*
X47526737Y-99319099D01*
X47839114Y-100161324D01*
X47935103Y-100304984D01*
X48303244Y-100446099D01*
X49794343Y-98955000D01*
X49805657Y-98955000D01*
X51296756Y-100446099D01*
X51664897Y-100304984D01*
X52039556Y-99488557D01*
X52073263Y-98590901D01*
X52005423Y-98407991D01*
X54670000Y-98407991D01*
X54670000Y-99502009D01*
X55088662Y-100512750D01*
X55862250Y-101286338D01*
X56872991Y-101705000D01*
X57967009Y-101705000D01*
X58977750Y-101286338D01*
X59751338Y-100512750D01*
X60170000Y-99502009D01*
X60170000Y-98407991D01*
X59751338Y-97397250D01*
X58977750Y-96623662D01*
X57967009Y-96205000D01*
X56872991Y-96205000D01*
X55862250Y-96623662D01*
X55088662Y-97397250D01*
X54670000Y-98407991D01*
X52005423Y-98407991D01*
X51760886Y-97748676D01*
X51664897Y-97605016D01*
X51296756Y-97463901D01*
X49805657Y-98955000D01*
X49794343Y-98955000D01*
X48303244Y-97463901D01*
X47935103Y-97605016D01*
X47560444Y-98421443D01*
X47526737Y-99319099D01*
X44325000Y-99319099D01*
X44325000Y-93428127D01*
X46925000Y-93428127D01*
X46925000Y-94571873D01*
X47362692Y-95628557D01*
X48171443Y-96437308D01*
X49080121Y-96813694D01*
X48593676Y-96994114D01*
X48450016Y-97090103D01*
X48308901Y-97458244D01*
X49800000Y-98949343D01*
X51291099Y-97458244D01*
X51149984Y-97090103D01*
X50534478Y-96807647D01*
X51428557Y-96437308D01*
X52237308Y-95628557D01*
X52675000Y-94571873D01*
X52675000Y-93428127D01*
X52237308Y-92371443D01*
X51428557Y-91562692D01*
X50371873Y-91125000D01*
X49228127Y-91125000D01*
X48171443Y-91562692D01*
X47362692Y-92371443D01*
X46925000Y-93428127D01*
X44325000Y-93428127D01*
X44325000Y-85325000D01*
X78840713Y-85325000D01*
X78740000Y-85568143D01*
X78740000Y-85568143D01*
G37*
X78740000Y-85568143D02*
X78740000Y-86351857D01*
X79039914Y-87075916D01*
X79594084Y-87630086D01*
X80318143Y-87930000D01*
X81101857Y-87930000D01*
X81405965Y-87804035D01*
X81280000Y-88108143D01*
X81280000Y-88891857D01*
X81405965Y-89195965D01*
X81101857Y-89070000D01*
X80318143Y-89070000D01*
X79594084Y-89369914D01*
X79039914Y-89924084D01*
X78740000Y-90648143D01*
X78740000Y-91431857D01*
X79039914Y-92155916D01*
X79594084Y-92710086D01*
X80318143Y-93010000D01*
X81101857Y-93010000D01*
X81639736Y-92787204D01*
X81651735Y-92795221D01*
X82052811Y-92875000D01*
X82052816Y-92875000D01*
X82188232Y-92901936D01*
X82323649Y-92875000D01*
X83928026Y-92875000D01*
X83857398Y-92945628D01*
X83742000Y-93224225D01*
X83742000Y-93806500D01*
X83931500Y-93996000D01*
X84996000Y-93996000D01*
X84996000Y-93976000D01*
X85004000Y-93976000D01*
X85004000Y-93996000D01*
X85024000Y-93996000D01*
X85024000Y-94004000D01*
X85004000Y-94004000D01*
X85004000Y-95193500D01*
X85193500Y-95383000D01*
X85283548Y-95383000D01*
X85101198Y-95565350D01*
X84850000Y-96171795D01*
X84850000Y-96828205D01*
X85040238Y-97287479D01*
X85025000Y-97297660D01*
X84837725Y-97172527D01*
X84350000Y-97075512D01*
X83650000Y-97075512D01*
X83162275Y-97172527D01*
X83050000Y-97247547D01*
X82937725Y-97172527D01*
X82450000Y-97075512D01*
X81750000Y-97075512D01*
X81262275Y-97172527D01*
X81050000Y-97314364D01*
X80837725Y-97172527D01*
X80350000Y-97075512D01*
X79650000Y-97075512D01*
X79162275Y-97172527D01*
X78748801Y-97448801D01*
X78641772Y-97608981D01*
X78600776Y-97592000D01*
X78293500Y-97592000D01*
X78104000Y-97781500D01*
X78104000Y-98996000D01*
X78124000Y-98996000D01*
X78124000Y-99004000D01*
X78104000Y-99004000D01*
X78104000Y-100218500D01*
X78293500Y-100408000D01*
X78600776Y-100408000D01*
X78641772Y-100391019D01*
X78748801Y-100551199D01*
X79162275Y-100827473D01*
X79650000Y-100924488D01*
X80350000Y-100924488D01*
X80837725Y-100827473D01*
X80903168Y-100783746D01*
X81023278Y-100963503D01*
X81108681Y-101091318D01*
X81223485Y-101168028D01*
X81530688Y-101475231D01*
X81472527Y-101562275D01*
X81375512Y-102050000D01*
X81375512Y-102950000D01*
X81376736Y-102956152D01*
X81370824Y-102964999D01*
X81204779Y-103213503D01*
X81125000Y-103614579D01*
X81125000Y-103614583D01*
X81098064Y-103750000D01*
X81125000Y-103885417D01*
X81125001Y-108096095D01*
X80930361Y-107966041D01*
X80150000Y-107810818D01*
X79369640Y-107966041D01*
X78765319Y-108369836D01*
X78780303Y-107976401D01*
X78330232Y-106760939D01*
X78189765Y-106550716D01*
X77717717Y-106287940D01*
X75505657Y-108500000D01*
X77717717Y-110712060D01*
X78150001Y-110471420D01*
X78150001Y-111196667D01*
X78114364Y-111250000D01*
X77359136Y-111250000D01*
X77449284Y-111189765D01*
X77712060Y-110717717D01*
X75500000Y-108505657D01*
X73287940Y-110717717D01*
X73550716Y-111189765D01*
X74728425Y-111730977D01*
X76006838Y-111779665D01*
X75845151Y-112021646D01*
X75750000Y-112500000D01*
X75750000Y-118658100D01*
X75570627Y-118732399D01*
X75357398Y-118945628D01*
X75242000Y-119224225D01*
X75242000Y-119806500D01*
X75431498Y-119995998D01*
X75279557Y-119995998D01*
X75280303Y-119976401D01*
X74830232Y-118760939D01*
X74689765Y-118550716D01*
X74217717Y-118287940D01*
X72005657Y-120500000D01*
X74217717Y-122712060D01*
X74689765Y-122449284D01*
X75230977Y-121271575D01*
X75249198Y-120793151D01*
X75357398Y-121054372D01*
X75570627Y-121267601D01*
X75750000Y-121341900D01*
X75750000Y-129921574D01*
X74947498Y-129119072D01*
X74883959Y-128799639D01*
X74441919Y-128138081D01*
X73780361Y-127696041D01*
X73196982Y-127580000D01*
X73000000Y-127540818D01*
X72803018Y-127580000D01*
X67250000Y-127580000D01*
X67250000Y-125600835D01*
X67500000Y-124997281D01*
X67500000Y-124002719D01*
X67119398Y-123083864D01*
X67000000Y-122964466D01*
X67000000Y-122717717D01*
X69787940Y-122717717D01*
X70050716Y-123189765D01*
X71228425Y-123730977D01*
X72523599Y-123780303D01*
X73739061Y-123330232D01*
X73949284Y-123189765D01*
X74212060Y-122717717D01*
X72000000Y-120505657D01*
X69787940Y-122717717D01*
X67000000Y-122717717D01*
X67000000Y-121828426D01*
X68755919Y-120072508D01*
X68719697Y-121023599D01*
X69169768Y-122239061D01*
X69310235Y-122449284D01*
X69782283Y-122712060D01*
X71994343Y-120500000D01*
X69782283Y-118287940D01*
X69611791Y-118382848D01*
X69591788Y-118282283D01*
X69787940Y-118282283D01*
X72000000Y-120494343D01*
X74212060Y-118282283D01*
X73949284Y-117810235D01*
X73618012Y-117658000D01*
X73656500Y-117658000D01*
X73846000Y-117468500D01*
X73846000Y-115004000D01*
X73854000Y-115004000D01*
X73854000Y-117468500D01*
X74043500Y-117658000D01*
X75000776Y-117658000D01*
X75279373Y-117542601D01*
X75492602Y-117329372D01*
X75608000Y-117050775D01*
X75608000Y-115193500D01*
X75418500Y-115004000D01*
X73854000Y-115004000D01*
X73846000Y-115004000D01*
X72281500Y-115004000D01*
X72092000Y-115193500D01*
X72092000Y-117050775D01*
X72172958Y-117246225D01*
X71476401Y-117219697D01*
X70260939Y-117669768D01*
X70050716Y-117810235D01*
X69787940Y-118282283D01*
X69591788Y-118282283D01*
X69580000Y-118223023D01*
X69580000Y-112949225D01*
X72092000Y-112949225D01*
X72092000Y-114806500D01*
X72281500Y-114996000D01*
X73846000Y-114996000D01*
X73846000Y-112531500D01*
X73854000Y-112531500D01*
X73854000Y-114996000D01*
X75418500Y-114996000D01*
X75608000Y-114806500D01*
X75608000Y-112949225D01*
X75492602Y-112670628D01*
X75279373Y-112457399D01*
X75000776Y-112342000D01*
X74043500Y-112342000D01*
X73854000Y-112531500D01*
X73846000Y-112531500D01*
X73656500Y-112342000D01*
X72699224Y-112342000D01*
X72420627Y-112457399D01*
X72207398Y-112670628D01*
X72092000Y-112949225D01*
X69580000Y-112949225D01*
X69580000Y-109023599D01*
X72219697Y-109023599D01*
X72669768Y-110239061D01*
X72810235Y-110449284D01*
X73282283Y-110712060D01*
X75494343Y-108500000D01*
X73282283Y-106287940D01*
X72810235Y-106550716D01*
X72269023Y-107728425D01*
X72219697Y-109023599D01*
X69580000Y-109023599D01*
X69580000Y-106282283D01*
X73287940Y-106282283D01*
X75500000Y-108494343D01*
X77712060Y-106282283D01*
X77449284Y-105810235D01*
X76271575Y-105269023D01*
X74976401Y-105219697D01*
X73760939Y-105669768D01*
X73550716Y-105810235D01*
X73287940Y-106282283D01*
X69580000Y-106282283D01*
X69580000Y-100844088D01*
X69911338Y-100512750D01*
X70330000Y-99502009D01*
X70330000Y-99193500D01*
X76992000Y-99193500D01*
X76992000Y-99800775D01*
X77107398Y-100079372D01*
X77320627Y-100292601D01*
X77599224Y-100408000D01*
X77906500Y-100408000D01*
X78096000Y-100218500D01*
X78096000Y-99004000D01*
X77181500Y-99004000D01*
X76992000Y-99193500D01*
X70330000Y-99193500D01*
X70330000Y-98407991D01*
X69911338Y-97397250D01*
X69731805Y-97217717D01*
X72787940Y-97217717D01*
X73050716Y-97689765D01*
X74228425Y-98230977D01*
X75523599Y-98280303D01*
X75742558Y-98199225D01*
X76992000Y-98199225D01*
X76992000Y-98806500D01*
X77181500Y-98996000D01*
X78096000Y-98996000D01*
X78096000Y-97781500D01*
X77906500Y-97592000D01*
X77599224Y-97592000D01*
X77320627Y-97707399D01*
X77107398Y-97920628D01*
X76992000Y-98199225D01*
X75742558Y-98199225D01*
X76739061Y-97830232D01*
X76949284Y-97689765D01*
X77212060Y-97217717D01*
X75000000Y-95005657D01*
X72787940Y-97217717D01*
X69731805Y-97217717D01*
X69137750Y-96623662D01*
X68948204Y-96545150D01*
X69208557Y-96437308D01*
X70017308Y-95628557D01*
X70060782Y-95523599D01*
X71719697Y-95523599D01*
X72169768Y-96739061D01*
X72310235Y-96949284D01*
X72782283Y-97212060D01*
X74994343Y-95000000D01*
X75005657Y-95000000D01*
X77217717Y-97212060D01*
X77689765Y-96949284D01*
X78230977Y-95771575D01*
X78280303Y-94476401D01*
X78175549Y-94193500D01*
X83742000Y-94193500D01*
X83742000Y-94775775D01*
X83857398Y-95054372D01*
X84070627Y-95267601D01*
X84349224Y-95383000D01*
X84806500Y-95383000D01*
X84996000Y-95193500D01*
X84996000Y-94004000D01*
X83931500Y-94004000D01*
X83742000Y-94193500D01*
X78175549Y-94193500D01*
X77830232Y-93260939D01*
X77689765Y-93050716D01*
X77217717Y-92787940D01*
X75005657Y-95000000D01*
X74994343Y-95000000D01*
X72782283Y-92787940D01*
X72310235Y-93050716D01*
X71769023Y-94228425D01*
X71719697Y-95523599D01*
X70060782Y-95523599D01*
X70455000Y-94571873D01*
X70455000Y-93428127D01*
X70187484Y-92782283D01*
X72787940Y-92782283D01*
X75000000Y-94994343D01*
X77212060Y-92782283D01*
X76949284Y-92310235D01*
X75771575Y-91769023D01*
X74476401Y-91719697D01*
X73260939Y-92169768D01*
X73050716Y-92310235D01*
X72787940Y-92782283D01*
X70187484Y-92782283D01*
X70017308Y-92371443D01*
X69208557Y-91562692D01*
X68151873Y-91125000D01*
X67008127Y-91125000D01*
X65951443Y-91562692D01*
X65142692Y-92371443D01*
X65040000Y-92619364D01*
X64937308Y-92371443D01*
X64128557Y-91562692D01*
X63071873Y-91125000D01*
X61928127Y-91125000D01*
X60871443Y-91562692D01*
X60062692Y-92371443D01*
X59625000Y-93428127D01*
X59625000Y-94571873D01*
X60062692Y-95628557D01*
X60871443Y-96437308D01*
X61928127Y-96875000D01*
X63071873Y-96875000D01*
X64128557Y-96437308D01*
X64937308Y-95628557D01*
X65040000Y-95380636D01*
X65142692Y-95628557D01*
X65951443Y-96437308D01*
X66211796Y-96545150D01*
X66022250Y-96623662D01*
X65248662Y-97397250D01*
X64830000Y-98407991D01*
X64830000Y-99502009D01*
X65248662Y-100512750D01*
X65580001Y-100844089D01*
X65580000Y-114076187D01*
X65196982Y-114000000D01*
X63904760Y-114000000D01*
X63857473Y-113762275D01*
X63581199Y-113348801D01*
X63167725Y-113072527D01*
X62680000Y-112975512D01*
X61080000Y-112975512D01*
X60592275Y-113072527D01*
X60178801Y-113348801D01*
X59902527Y-113762275D01*
X59805512Y-114250000D01*
X59805512Y-117750000D01*
X59902527Y-118237725D01*
X60178801Y-118651199D01*
X60592275Y-118927473D01*
X61080000Y-119024488D01*
X62680000Y-119024488D01*
X63167725Y-118927473D01*
X63581199Y-118651199D01*
X63857473Y-118237725D01*
X63904760Y-118000000D01*
X65171573Y-118000000D01*
X63725073Y-119446501D01*
X63558082Y-119558081D01*
X63446502Y-119725072D01*
X63446500Y-119725074D01*
X63116042Y-120219639D01*
X62960819Y-121000000D01*
X63000001Y-121196981D01*
X63000001Y-122250000D01*
X61020835Y-122250000D01*
X60417281Y-122000000D01*
X59422719Y-122000000D01*
X58503864Y-122380602D01*
X57800602Y-123083864D01*
X57420000Y-124002719D01*
X57420000Y-124997281D01*
X57670001Y-125600837D01*
X57670000Y-128479165D01*
X57420000Y-129082719D01*
X57420000Y-130077281D01*
X57800602Y-130996136D01*
X58503864Y-131699398D01*
X59422719Y-132080000D01*
X60417281Y-132080000D01*
X61020835Y-131830000D01*
X63899165Y-131830000D01*
X64502719Y-132080000D01*
X65497281Y-132080000D01*
X66416136Y-131699398D01*
X66535534Y-131580000D01*
X71751574Y-131580000D01*
X78000001Y-137828428D01*
X78000000Y-151445079D01*
X77717717Y-151287940D01*
X75505657Y-153500000D01*
X77717717Y-155712060D01*
X78189765Y-155449284D01*
X78341859Y-155118320D01*
X78558081Y-155441919D01*
X78725075Y-155553501D01*
X81272086Y-158100512D01*
X80500000Y-158100512D01*
X80012275Y-158197527D01*
X79625000Y-158456295D01*
X79625000Y-157660045D01*
X79656835Y-157500000D01*
X79530716Y-156865957D01*
X79171559Y-156328441D01*
X78634043Y-155969284D01*
X78160045Y-155875000D01*
X78000000Y-155843165D01*
X77839955Y-155875000D01*
X77624505Y-155875000D01*
X77712060Y-155717717D01*
X75500000Y-153505657D01*
X73287940Y-155717717D01*
X73375495Y-155875000D01*
X68660045Y-155875000D01*
X68500000Y-155843165D01*
X68339955Y-155875000D01*
X67865957Y-155969284D01*
X67328441Y-156328441D01*
X66969284Y-156865957D01*
X66843165Y-157500000D01*
X66868758Y-157628665D01*
X66823551Y-157506859D01*
X66738680Y-157379843D01*
X66396516Y-157269141D01*
X65085657Y-158580000D01*
X66396516Y-159890859D01*
X66725512Y-159784417D01*
X66725512Y-160800000D01*
X66822527Y-161287725D01*
X67098801Y-161701199D01*
X67512275Y-161977473D01*
X68000000Y-162074488D01*
X68047118Y-162074488D01*
X67946501Y-162225072D01*
X64751574Y-165420000D01*
X64582719Y-165420000D01*
X63663864Y-165800602D01*
X62960602Y-166503864D01*
X62580000Y-167422719D01*
X62580000Y-168417281D01*
X62960602Y-169336136D01*
X63663864Y-170039398D01*
X64582719Y-170420000D01*
X65577281Y-170420000D01*
X66496136Y-170039398D01*
X67199398Y-169336136D01*
X67580000Y-168417281D01*
X67580000Y-168248426D01*
X70328427Y-165500000D01*
X70975512Y-165500000D01*
X71072527Y-165987725D01*
X71348801Y-166401199D01*
X71762275Y-166677473D01*
X72250000Y-166774488D01*
X74750000Y-166774488D01*
X75237725Y-166677473D01*
X75651199Y-166401199D01*
X75927473Y-165987725D01*
X76024488Y-165500000D01*
X76024488Y-162000000D01*
X76196982Y-162000000D01*
X76375000Y-161964590D01*
X76375001Y-168326902D01*
X75832206Y-168869697D01*
X75651199Y-168598801D01*
X75237725Y-168322527D01*
X74750000Y-168225512D01*
X72250000Y-168225512D01*
X71762275Y-168322527D01*
X71348801Y-168598801D01*
X71072527Y-169012275D01*
X70975512Y-169500000D01*
X70975512Y-173500000D01*
X71072527Y-173987725D01*
X71348801Y-174401199D01*
X71762275Y-174677473D01*
X72250000Y-174774488D01*
X73196062Y-174774488D01*
X75936501Y-177514928D01*
X76043458Y-177675000D01*
X44325000Y-177675000D01*
X44325000Y-176217717D01*
X45787940Y-176217717D01*
X46050716Y-176689765D01*
X47228425Y-177230977D01*
X48523599Y-177280303D01*
X49739061Y-176830232D01*
X49949284Y-176689765D01*
X50212060Y-176217717D01*
X48000000Y-174005657D01*
X45787940Y-176217717D01*
X44325000Y-176217717D01*
X44325000Y-174523599D01*
X44719697Y-174523599D01*
X45169768Y-175739061D01*
X45310235Y-175949284D01*
X45782283Y-176212060D01*
X47994343Y-174000000D01*
X48005657Y-174000000D01*
X50217717Y-176212060D01*
X50689765Y-175949284D01*
X51230977Y-174771575D01*
X51280303Y-173476401D01*
X50919761Y-172502719D01*
X57500000Y-172502719D01*
X57500000Y-173497281D01*
X57880602Y-174416136D01*
X58583864Y-175119398D01*
X59502719Y-175500000D01*
X60497281Y-175500000D01*
X61416136Y-175119398D01*
X62119398Y-174416136D01*
X62500000Y-173497281D01*
X62500000Y-172502719D01*
X62580000Y-172502719D01*
X62580000Y-173497281D01*
X62960602Y-174416136D01*
X63663864Y-175119398D01*
X64582719Y-175500000D01*
X65577281Y-175500000D01*
X66496136Y-175119398D01*
X67199398Y-174416136D01*
X67580000Y-173497281D01*
X67580000Y-172502719D01*
X67199398Y-171583864D01*
X66496136Y-170880602D01*
X65577281Y-170500000D01*
X64582719Y-170500000D01*
X63663864Y-170880602D01*
X62960602Y-171583864D01*
X62580000Y-172502719D01*
X62500000Y-172502719D01*
X62119398Y-171583864D01*
X61416136Y-170880602D01*
X60497281Y-170500000D01*
X59502719Y-170500000D01*
X58583864Y-170880602D01*
X57880602Y-171583864D01*
X57500000Y-172502719D01*
X50919761Y-172502719D01*
X50830232Y-172260939D01*
X50689765Y-172050716D01*
X50217717Y-171787940D01*
X48005657Y-174000000D01*
X47994343Y-174000000D01*
X45782283Y-171787940D01*
X45310235Y-172050716D01*
X44769023Y-173228425D01*
X44719697Y-174523599D01*
X44325000Y-174523599D01*
X44325000Y-171782283D01*
X45787940Y-171782283D01*
X48000000Y-173994343D01*
X50212060Y-171782283D01*
X49949284Y-171310235D01*
X48771575Y-170769023D01*
X47476401Y-170719697D01*
X46260939Y-171169768D01*
X46050716Y-171310235D01*
X45787940Y-171782283D01*
X44325000Y-171782283D01*
X44325000Y-167422719D01*
X57500000Y-167422719D01*
X57500000Y-168417281D01*
X57880602Y-169336136D01*
X58583864Y-170039398D01*
X59502719Y-170420000D01*
X60497281Y-170420000D01*
X61416136Y-170039398D01*
X62119398Y-169336136D01*
X62500000Y-168417281D01*
X62500000Y-167422719D01*
X62119398Y-166503864D01*
X61416136Y-165800602D01*
X60497281Y-165420000D01*
X59502719Y-165420000D01*
X58583864Y-165800602D01*
X57880602Y-166503864D01*
X57500000Y-167422719D01*
X44325000Y-167422719D01*
X44325000Y-159896516D01*
X58689141Y-159896516D01*
X58799843Y-160238680D01*
X59525949Y-160571701D01*
X60324225Y-160601504D01*
X61073141Y-160323551D01*
X61200157Y-160238680D01*
X61310859Y-159896516D01*
X63769141Y-159896516D01*
X63879843Y-160238680D01*
X64605949Y-160571701D01*
X65404225Y-160601504D01*
X66153141Y-160323551D01*
X66280157Y-160238680D01*
X66390859Y-159896516D01*
X65080000Y-158585657D01*
X63769141Y-159896516D01*
X61310859Y-159896516D01*
X60000000Y-158585657D01*
X58689141Y-159896516D01*
X44325000Y-159896516D01*
X44325000Y-158904225D01*
X57978496Y-158904225D01*
X58256449Y-159653141D01*
X58341320Y-159780157D01*
X58683484Y-159890859D01*
X59994343Y-158580000D01*
X60005657Y-158580000D01*
X61316516Y-159890859D01*
X61658680Y-159780157D01*
X61991701Y-159054051D01*
X61997294Y-158904225D01*
X63058496Y-158904225D01*
X63336449Y-159653141D01*
X63421320Y-159780157D01*
X63763484Y-159890859D01*
X65074343Y-158580000D01*
X63763484Y-157269141D01*
X63421320Y-157379843D01*
X63088299Y-158105949D01*
X63058496Y-158904225D01*
X61997294Y-158904225D01*
X62021504Y-158255775D01*
X61743551Y-157506859D01*
X61658680Y-157379843D01*
X61316516Y-157269141D01*
X60005657Y-158580000D01*
X59994343Y-158580000D01*
X58683484Y-157269141D01*
X58341320Y-157379843D01*
X58008299Y-158105949D01*
X57978496Y-158904225D01*
X44325000Y-158904225D01*
X44325000Y-157263484D01*
X58689141Y-157263484D01*
X60000000Y-158574343D01*
X61310859Y-157263484D01*
X63769141Y-157263484D01*
X65080000Y-158574343D01*
X66390859Y-157263484D01*
X66280157Y-156921320D01*
X65554051Y-156588299D01*
X64755775Y-156558496D01*
X64006859Y-156836449D01*
X63879843Y-156921320D01*
X63769141Y-157263484D01*
X61310859Y-157263484D01*
X61200157Y-156921320D01*
X60474051Y-156588299D01*
X59675775Y-156558496D01*
X58926859Y-156836449D01*
X58799843Y-156921320D01*
X58689141Y-157263484D01*
X44325000Y-157263484D01*
X44325000Y-154816516D01*
X58689141Y-154816516D01*
X58799843Y-155158680D01*
X59525949Y-155491701D01*
X60324225Y-155521504D01*
X61073141Y-155243551D01*
X61200157Y-155158680D01*
X61310859Y-154816516D01*
X63769141Y-154816516D01*
X63879843Y-155158680D01*
X64605949Y-155491701D01*
X65404225Y-155521504D01*
X66153141Y-155243551D01*
X66280157Y-155158680D01*
X66390859Y-154816516D01*
X65080000Y-153505657D01*
X63769141Y-154816516D01*
X61310859Y-154816516D01*
X60000000Y-153505657D01*
X58689141Y-154816516D01*
X44325000Y-154816516D01*
X44325000Y-153824225D01*
X57978496Y-153824225D01*
X58256449Y-154573141D01*
X58341320Y-154700157D01*
X58683484Y-154810859D01*
X59994343Y-153500000D01*
X60005657Y-153500000D01*
X61316516Y-154810859D01*
X61658680Y-154700157D01*
X61991701Y-153974051D01*
X61997294Y-153824225D01*
X63058496Y-153824225D01*
X63336449Y-154573141D01*
X63421320Y-154700157D01*
X63763484Y-154810859D01*
X65074343Y-153500000D01*
X65085657Y-153500000D01*
X66396516Y-154810859D01*
X66738680Y-154700157D01*
X67048976Y-154023599D01*
X72219697Y-154023599D01*
X72669768Y-155239061D01*
X72810235Y-155449284D01*
X73282283Y-155712060D01*
X75494343Y-153500000D01*
X73282283Y-151287940D01*
X72810235Y-151550716D01*
X72269023Y-152728425D01*
X72219697Y-154023599D01*
X67048976Y-154023599D01*
X67071701Y-153974051D01*
X67101504Y-153175775D01*
X66823551Y-152426859D01*
X66738680Y-152299843D01*
X66396516Y-152189141D01*
X65085657Y-153500000D01*
X65074343Y-153500000D01*
X63763484Y-152189141D01*
X63421320Y-152299843D01*
X63088299Y-153025949D01*
X63058496Y-153824225D01*
X61997294Y-153824225D01*
X62021504Y-153175775D01*
X61743551Y-152426859D01*
X61658680Y-152299843D01*
X61316516Y-152189141D01*
X60005657Y-153500000D01*
X59994343Y-153500000D01*
X58683484Y-152189141D01*
X58341320Y-152299843D01*
X58008299Y-153025949D01*
X57978496Y-153824225D01*
X44325000Y-153824225D01*
X44325000Y-152183484D01*
X58689141Y-152183484D01*
X60000000Y-153494343D01*
X61310859Y-152183484D01*
X63769141Y-152183484D01*
X65080000Y-153494343D01*
X66390859Y-152183484D01*
X66280157Y-151841320D01*
X65554051Y-151508299D01*
X64755775Y-151478496D01*
X64006859Y-151756449D01*
X63879843Y-151841320D01*
X63769141Y-152183484D01*
X61310859Y-152183484D01*
X61200157Y-151841320D01*
X60474051Y-151508299D01*
X59675775Y-151478496D01*
X58926859Y-151756449D01*
X58799843Y-151841320D01*
X58689141Y-152183484D01*
X44325000Y-152183484D01*
X44325000Y-151282283D01*
X73287940Y-151282283D01*
X75500000Y-153494343D01*
X77712060Y-151282283D01*
X77449284Y-150810235D01*
X76271575Y-150269023D01*
X74976401Y-150219697D01*
X73760939Y-150669768D01*
X73550716Y-150810235D01*
X73287940Y-151282283D01*
X44325000Y-151282283D01*
X44325000Y-145356516D01*
X58649141Y-145356516D01*
X58759843Y-145698680D01*
X59485949Y-146031701D01*
X60284225Y-146061504D01*
X61033141Y-145783551D01*
X61160157Y-145698680D01*
X61270859Y-145356516D01*
X63729141Y-145356516D01*
X63839843Y-145698680D01*
X64565949Y-146031701D01*
X65364225Y-146061504D01*
X66113141Y-145783551D01*
X66240157Y-145698680D01*
X66350859Y-145356516D01*
X65040000Y-144045657D01*
X63729141Y-145356516D01*
X61270859Y-145356516D01*
X59960000Y-144045657D01*
X58649141Y-145356516D01*
X44325000Y-145356516D01*
X44325000Y-144364225D01*
X57938496Y-144364225D01*
X58216449Y-145113141D01*
X58301320Y-145240157D01*
X58643484Y-145350859D01*
X59954343Y-144040000D01*
X59965657Y-144040000D01*
X61276516Y-145350859D01*
X61618680Y-145240157D01*
X61951701Y-144514051D01*
X61957294Y-144364225D01*
X63018496Y-144364225D01*
X63296449Y-145113141D01*
X63381320Y-145240157D01*
X63723484Y-145350859D01*
X65034343Y-144040000D01*
X65045657Y-144040000D01*
X66356516Y-145350859D01*
X66698680Y-145240157D01*
X67031701Y-144514051D01*
X67061504Y-143715775D01*
X66783551Y-142966859D01*
X66698680Y-142839843D01*
X66356516Y-142729141D01*
X65045657Y-144040000D01*
X65034343Y-144040000D01*
X63723484Y-142729141D01*
X63381320Y-142839843D01*
X63048299Y-143565949D01*
X63018496Y-144364225D01*
X61957294Y-144364225D01*
X61981504Y-143715775D01*
X61703551Y-142966859D01*
X61618680Y-142839843D01*
X61276516Y-142729141D01*
X59965657Y-144040000D01*
X59954343Y-144040000D01*
X58643484Y-142729141D01*
X58301320Y-142839843D01*
X57968299Y-143565949D01*
X57938496Y-144364225D01*
X44325000Y-144364225D01*
X44325000Y-142723484D01*
X58649141Y-142723484D01*
X59960000Y-144034343D01*
X61270859Y-142723484D01*
X63729141Y-142723484D01*
X65040000Y-144034343D01*
X66350859Y-142723484D01*
X66240157Y-142381320D01*
X65514051Y-142048299D01*
X64715775Y-142018496D01*
X63966859Y-142296449D01*
X63839843Y-142381320D01*
X63729141Y-142723484D01*
X61270859Y-142723484D01*
X61160157Y-142381320D01*
X60434051Y-142048299D01*
X59635775Y-142018496D01*
X58886859Y-142296449D01*
X58759843Y-142381320D01*
X58649141Y-142723484D01*
X44325000Y-142723484D01*
X44325000Y-140276516D01*
X58649141Y-140276516D01*
X58759843Y-140618680D01*
X59485949Y-140951701D01*
X60284225Y-140981504D01*
X61033141Y-140703551D01*
X61160157Y-140618680D01*
X61270859Y-140276516D01*
X63729141Y-140276516D01*
X63839843Y-140618680D01*
X64565949Y-140951701D01*
X65364225Y-140981504D01*
X66113141Y-140703551D01*
X66240157Y-140618680D01*
X66350859Y-140276516D01*
X65040000Y-138965657D01*
X63729141Y-140276516D01*
X61270859Y-140276516D01*
X59960000Y-138965657D01*
X58649141Y-140276516D01*
X44325000Y-140276516D01*
X44325000Y-139284225D01*
X57938496Y-139284225D01*
X58216449Y-140033141D01*
X58301320Y-140160157D01*
X58643484Y-140270859D01*
X59954343Y-138960000D01*
X59965657Y-138960000D01*
X61276516Y-140270859D01*
X61618680Y-140160157D01*
X61951701Y-139434051D01*
X61957294Y-139284225D01*
X63018496Y-139284225D01*
X63296449Y-140033141D01*
X63381320Y-140160157D01*
X63723484Y-140270859D01*
X65034343Y-138960000D01*
X65045657Y-138960000D01*
X66356516Y-140270859D01*
X66698680Y-140160157D01*
X67031701Y-139434051D01*
X67061504Y-138635775D01*
X66783551Y-137886859D01*
X66698680Y-137759843D01*
X66356516Y-137649141D01*
X65045657Y-138960000D01*
X65034343Y-138960000D01*
X63723484Y-137649141D01*
X63381320Y-137759843D01*
X63048299Y-138485949D01*
X63018496Y-139284225D01*
X61957294Y-139284225D01*
X61981504Y-138635775D01*
X61703551Y-137886859D01*
X61618680Y-137759843D01*
X61276516Y-137649141D01*
X59965657Y-138960000D01*
X59954343Y-138960000D01*
X58643484Y-137649141D01*
X58301320Y-137759843D01*
X57968299Y-138485949D01*
X57938496Y-139284225D01*
X44325000Y-139284225D01*
X44325000Y-137643484D01*
X58649141Y-137643484D01*
X59960000Y-138954343D01*
X61270859Y-137643484D01*
X63729141Y-137643484D01*
X65040000Y-138954343D01*
X66350859Y-137643484D01*
X66240157Y-137301320D01*
X65514051Y-136968299D01*
X64715775Y-136938496D01*
X63966859Y-137216449D01*
X63839843Y-137301320D01*
X63729141Y-137643484D01*
X61270859Y-137643484D01*
X61160157Y-137301320D01*
X60434051Y-136968299D01*
X59635775Y-136938496D01*
X58886859Y-137216449D01*
X58759843Y-137301320D01*
X58649141Y-137643484D01*
X44325000Y-137643484D01*
X44325000Y-125217717D01*
X45787940Y-125217717D01*
X46050716Y-125689765D01*
X47228425Y-126230977D01*
X48523599Y-126280303D01*
X49739061Y-125830232D01*
X49949284Y-125689765D01*
X50212060Y-125217717D01*
X48000000Y-123005657D01*
X45787940Y-125217717D01*
X44325000Y-125217717D01*
X44325000Y-123523599D01*
X44719697Y-123523599D01*
X45169768Y-124739061D01*
X45310235Y-124949284D01*
X45782283Y-125212060D01*
X47994343Y-123000000D01*
X48005657Y-123000000D01*
X50217717Y-125212060D01*
X50689765Y-124949284D01*
X51230977Y-123771575D01*
X51280303Y-122476401D01*
X50830232Y-121260939D01*
X50689765Y-121050716D01*
X50217717Y-120787940D01*
X48005657Y-123000000D01*
X47994343Y-123000000D01*
X45782283Y-120787940D01*
X45310235Y-121050716D01*
X44769023Y-122228425D01*
X44719697Y-123523599D01*
X44325000Y-123523599D01*
X44325000Y-120782283D01*
X45787940Y-120782283D01*
X48000000Y-122994343D01*
X50212060Y-120782283D01*
X49949284Y-120310235D01*
X48771575Y-119769023D01*
X47476401Y-119719697D01*
X46260939Y-120169768D01*
X46050716Y-120310235D01*
X45787940Y-120782283D01*
X44325000Y-120782283D01*
X44325000Y-113950000D01*
X45975512Y-113950000D01*
X45975512Y-117450000D01*
X46072527Y-117937725D01*
X46348801Y-118351199D01*
X46762275Y-118627473D01*
X47250000Y-118724488D01*
X50750000Y-118724488D01*
X51237725Y-118627473D01*
X51651199Y-118351199D01*
X51927473Y-117937725D01*
X52024488Y-117450000D01*
X52024488Y-114024488D01*
X52196061Y-114024488D01*
X54925512Y-116753940D01*
X54925512Y-117750000D01*
X55022527Y-118237725D01*
X55298801Y-118651199D01*
X55712275Y-118927473D01*
X56200000Y-119024488D01*
X57800000Y-119024488D01*
X58287725Y-118927473D01*
X58701199Y-118651199D01*
X58977473Y-118237725D01*
X59074488Y-117750000D01*
X59074488Y-114250000D01*
X58977473Y-113762275D01*
X58701199Y-113348801D01*
X58287725Y-113072527D01*
X57800000Y-112975512D01*
X56803939Y-112975512D01*
X55024488Y-111196061D01*
X55024488Y-109250000D01*
X54927473Y-108762275D01*
X54916599Y-108746000D01*
X58642000Y-108746000D01*
X58642000Y-108996000D01*
X59625512Y-108996000D01*
X59625512Y-109004000D01*
X58642000Y-109004000D01*
X58642000Y-109254000D01*
X58746902Y-109773380D01*
X59042577Y-110213080D01*
X59484011Y-110506160D01*
X59783612Y-110590649D01*
X59853612Y-110533909D01*
X59998801Y-110751199D01*
X60412275Y-111027473D01*
X60900000Y-111124488D01*
X62100000Y-111124488D01*
X62587725Y-111027473D01*
X63001199Y-110751199D01*
X63277473Y-110337725D01*
X63374488Y-109850000D01*
X63374488Y-109367855D01*
X63530716Y-109134043D01*
X63625000Y-108660045D01*
X63625000Y-108660040D01*
X63656834Y-108500000D01*
X63625000Y-108339960D01*
X63625000Y-105191257D01*
X63677473Y-105112725D01*
X63774488Y-104625000D01*
X63774488Y-103375000D01*
X63677473Y-102887275D01*
X63401199Y-102473801D01*
X62987725Y-102197527D01*
X62500000Y-102100512D01*
X61500000Y-102100512D01*
X61012275Y-102197527D01*
X60598801Y-102473801D01*
X60503119Y-102617000D01*
X60193500Y-102617000D01*
X60004000Y-102806500D01*
X60004000Y-103996000D01*
X60024000Y-103996000D01*
X60024000Y-104004000D01*
X60004000Y-104004000D01*
X60004000Y-105193500D01*
X60193500Y-105383000D01*
X60375000Y-105383000D01*
X60375001Y-106997433D01*
X59998801Y-107248801D01*
X59853612Y-107466091D01*
X59783612Y-107409351D01*
X59484011Y-107493840D01*
X59042577Y-107786920D01*
X58746902Y-108226620D01*
X58642000Y-108746000D01*
X54916599Y-108746000D01*
X54651199Y-108348801D01*
X54237725Y-108072527D01*
X53750000Y-107975512D01*
X53600570Y-107975512D01*
X53369824Y-107630176D01*
X53211175Y-107524171D01*
X51775831Y-106088827D01*
X51669824Y-105930176D01*
X51511564Y-105824431D01*
X51561489Y-105814500D01*
X52131919Y-105553247D01*
X52558951Y-105093586D01*
X52777572Y-104505497D01*
X52608495Y-104254000D01*
X51194000Y-104254000D01*
X51194000Y-104274000D01*
X51186000Y-104274000D01*
X51186000Y-104254000D01*
X51166000Y-104254000D01*
X51166000Y-104246000D01*
X51186000Y-104246000D01*
X51186000Y-102831506D01*
X51194000Y-102831506D01*
X51194000Y-104246000D01*
X52608495Y-104246000D01*
X52643789Y-104193500D01*
X58742000Y-104193500D01*
X58742000Y-104775775D01*
X58857398Y-105054372D01*
X59070627Y-105267601D01*
X59349224Y-105383000D01*
X59806500Y-105383000D01*
X59996000Y-105193500D01*
X59996000Y-104004000D01*
X58931500Y-104004000D01*
X58742000Y-104193500D01*
X52643789Y-104193500D01*
X52777572Y-103994503D01*
X52558951Y-103406414D01*
X52389695Y-103224225D01*
X58742000Y-103224225D01*
X58742000Y-103806500D01*
X58931500Y-103996000D01*
X59996000Y-103996000D01*
X59996000Y-102806500D01*
X59806500Y-102617000D01*
X59349224Y-102617000D01*
X59070627Y-102732399D01*
X58857398Y-102945628D01*
X58742000Y-103224225D01*
X52389695Y-103224225D01*
X52131919Y-102946753D01*
X51561489Y-102685500D01*
X51445497Y-102662428D01*
X51194000Y-102831506D01*
X51186000Y-102831506D01*
X50934503Y-102662428D01*
X50818511Y-102685500D01*
X50594499Y-102788096D01*
X50401199Y-102498801D01*
X49987725Y-102222527D01*
X49500000Y-102125512D01*
X47800000Y-102125512D01*
X47312275Y-102222527D01*
X46898801Y-102498801D01*
X46622527Y-102912275D01*
X46525512Y-103400000D01*
X46525512Y-105100000D01*
X46622527Y-105587725D01*
X46750000Y-105778503D01*
X46750000Y-106312868D01*
X46712777Y-106500000D01*
X46750000Y-106687132D01*
X46860239Y-107241342D01*
X47280176Y-107869824D01*
X47438826Y-107975831D01*
X47974170Y-108511175D01*
X47984542Y-108526697D01*
X47900776Y-108492000D01*
X46193500Y-108492000D01*
X46004000Y-108681500D01*
X46004000Y-110996000D01*
X48318500Y-110996000D01*
X48508000Y-110806500D01*
X48508000Y-109099225D01*
X48425792Y-108900757D01*
X48708657Y-109089761D01*
X48996016Y-109146920D01*
X48975512Y-109250000D01*
X48975512Y-112675512D01*
X48508000Y-112675512D01*
X48508000Y-111193500D01*
X48318500Y-111004000D01*
X46004000Y-111004000D01*
X46004000Y-113318500D01*
X46102667Y-113417167D01*
X46072527Y-113462275D01*
X45975512Y-113950000D01*
X44325000Y-113950000D01*
X44325000Y-113508000D01*
X45806500Y-113508000D01*
X45996000Y-113318500D01*
X45996000Y-111004000D01*
X45976000Y-111004000D01*
X45976000Y-110996000D01*
X45996000Y-110996000D01*
X45996000Y-108681500D01*
X45806500Y-108492000D01*
X44325000Y-108492000D01*
X44325000Y-100451756D01*
X48308901Y-100451756D01*
X48450016Y-100819897D01*
X49266443Y-101194556D01*
X50164099Y-101228263D01*
X51006324Y-100915886D01*
X51149984Y-100819897D01*
X51291099Y-100451756D01*
X49800000Y-98960657D01*
X48308901Y-100451756D01*
X44325000Y-100451756D01*
X44325000Y-99319099D01*
X47526737Y-99319099D01*
X47839114Y-100161324D01*
X47935103Y-100304984D01*
X48303244Y-100446099D01*
X49794343Y-98955000D01*
X49805657Y-98955000D01*
X51296756Y-100446099D01*
X51664897Y-100304984D01*
X52039556Y-99488557D01*
X52073263Y-98590901D01*
X52005423Y-98407991D01*
X54670000Y-98407991D01*
X54670000Y-99502009D01*
X55088662Y-100512750D01*
X55862250Y-101286338D01*
X56872991Y-101705000D01*
X57967009Y-101705000D01*
X58977750Y-101286338D01*
X59751338Y-100512750D01*
X60170000Y-99502009D01*
X60170000Y-98407991D01*
X59751338Y-97397250D01*
X58977750Y-96623662D01*
X57967009Y-96205000D01*
X56872991Y-96205000D01*
X55862250Y-96623662D01*
X55088662Y-97397250D01*
X54670000Y-98407991D01*
X52005423Y-98407991D01*
X51760886Y-97748676D01*
X51664897Y-97605016D01*
X51296756Y-97463901D01*
X49805657Y-98955000D01*
X49794343Y-98955000D01*
X48303244Y-97463901D01*
X47935103Y-97605016D01*
X47560444Y-98421443D01*
X47526737Y-99319099D01*
X44325000Y-99319099D01*
X44325000Y-93428127D01*
X46925000Y-93428127D01*
X46925000Y-94571873D01*
X47362692Y-95628557D01*
X48171443Y-96437308D01*
X49080121Y-96813694D01*
X48593676Y-96994114D01*
X48450016Y-97090103D01*
X48308901Y-97458244D01*
X49800000Y-98949343D01*
X51291099Y-97458244D01*
X51149984Y-97090103D01*
X50534478Y-96807647D01*
X51428557Y-96437308D01*
X52237308Y-95628557D01*
X52675000Y-94571873D01*
X52675000Y-93428127D01*
X52237308Y-92371443D01*
X51428557Y-91562692D01*
X50371873Y-91125000D01*
X49228127Y-91125000D01*
X48171443Y-91562692D01*
X47362692Y-92371443D01*
X46925000Y-93428127D01*
X44325000Y-93428127D01*
X44325000Y-85325000D01*
X78840713Y-85325000D01*
X78740000Y-85568143D01*
G36*
X83417398Y-133380628D02*
X83302000Y-133659225D01*
X83302000Y-141116500D01*
X83491500Y-141306000D01*
X89056000Y-141306000D01*
X89056000Y-141286000D01*
X89064000Y-141286000D01*
X89064000Y-141306000D01*
X94628500Y-141306000D01*
X94818000Y-141116500D01*
X94818000Y-133659225D01*
X94702602Y-133380628D01*
X94571974Y-133250000D01*
X98625000Y-133250000D01*
X98625001Y-150864579D01*
X98598064Y-151000000D01*
X98625001Y-151135422D01*
X98689245Y-151458397D01*
X98704780Y-151536498D01*
X98931971Y-151876514D01*
X98931973Y-151876516D01*
X99008682Y-151991319D01*
X99123485Y-152068028D01*
X101291972Y-154236516D01*
X101368681Y-154351319D01*
X101483484Y-154428028D01*
X101483485Y-154428029D01*
X101568638Y-154484926D01*
X101823502Y-154655221D01*
X102224578Y-154735000D01*
X102224582Y-154735000D01*
X102359999Y-154761936D01*
X102388266Y-154756313D01*
X102551091Y-155000000D01*
X101696976Y-155000000D01*
X101499999Y-154960819D01*
X101303022Y-155000000D01*
X101303018Y-155000000D01*
X100719639Y-155116041D01*
X100599161Y-155196542D01*
X100225075Y-155446499D01*
X100058081Y-155558081D01*
X99946500Y-155725073D01*
X98225073Y-157446501D01*
X98058082Y-157558081D01*
X97946502Y-157725072D01*
X97946500Y-157725074D01*
X97616042Y-158219639D01*
X97460819Y-159000000D01*
X97500001Y-159196981D01*
X97500001Y-159583328D01*
X97192151Y-160044058D01*
X97002002Y-161000000D01*
X97192151Y-161955942D01*
X97733649Y-162766351D01*
X98544058Y-163307849D01*
X99258698Y-163450000D01*
X99741302Y-163450000D01*
X100455942Y-163307849D01*
X101266351Y-162766351D01*
X101807849Y-161955942D01*
X101997998Y-161000000D01*
X101807849Y-160044058D01*
X101598172Y-159730254D01*
X102328427Y-159000000D01*
X103035178Y-159000000D01*
X102422991Y-159612187D01*
X102050000Y-160512665D01*
X102050000Y-161487335D01*
X102422991Y-162387813D01*
X103112187Y-163077009D01*
X104012665Y-163450000D01*
X104987335Y-163450000D01*
X105887813Y-163077009D01*
X106577009Y-162387813D01*
X106950000Y-161487335D01*
X106950000Y-160512665D01*
X106577009Y-159612187D01*
X105964822Y-159000000D01*
X107803023Y-159000000D01*
X107996661Y-159038517D01*
X107422991Y-159612187D01*
X107050000Y-160512665D01*
X107050000Y-161487335D01*
X107422991Y-162387813D01*
X108112187Y-163077009D01*
X108724725Y-163330731D01*
X105705457Y-166350000D01*
X105671795Y-166350000D01*
X105065350Y-166601198D01*
X104601198Y-167065350D01*
X104350000Y-167671795D01*
X104350000Y-168328205D01*
X104601198Y-168934650D01*
X105065350Y-169398802D01*
X105309663Y-169500000D01*
X96696982Y-169500000D01*
X96500000Y-169460818D01*
X96303018Y-169500000D01*
X89548097Y-169500000D01*
X91512217Y-167535880D01*
X91512219Y-167535877D01*
X92035877Y-167012219D01*
X92171559Y-166921559D01*
X92530716Y-166384043D01*
X92625000Y-165910045D01*
X92625000Y-165910041D01*
X92656834Y-165750001D01*
X92625000Y-165589960D01*
X92625000Y-162603746D01*
X92733649Y-162766351D01*
X93544058Y-163307849D01*
X94258698Y-163450000D01*
X94741302Y-163450000D01*
X95455942Y-163307849D01*
X96266351Y-162766351D01*
X96807849Y-161955942D01*
X96997998Y-161000000D01*
X96807849Y-160044058D01*
X96500000Y-159583329D01*
X96500000Y-156366976D01*
X96539181Y-156169999D01*
X96500000Y-155973022D01*
X96500000Y-155973018D01*
X96383959Y-155389639D01*
X95941919Y-154728081D01*
X95774927Y-154616501D01*
X93574124Y-152415697D01*
X93565255Y-152371112D01*
X93090063Y-151659937D01*
X92378888Y-151184745D01*
X91751752Y-151060000D01*
X91328248Y-151060000D01*
X90701112Y-151184745D01*
X89989937Y-151659937D01*
X89886801Y-151814291D01*
X89869710Y-151798416D01*
X89263318Y-151573043D01*
X89004000Y-151741505D01*
X89004000Y-153206000D01*
X89024000Y-153206000D01*
X89024000Y-153214000D01*
X89004000Y-153214000D01*
X89004000Y-154678495D01*
X89263318Y-154846957D01*
X89869710Y-154621584D01*
X89886801Y-154605709D01*
X89989937Y-154760063D01*
X90701112Y-155235255D01*
X90745697Y-155244124D01*
X92500001Y-156998428D01*
X92500001Y-158446668D01*
X92401199Y-158298801D01*
X91987725Y-158022527D01*
X91500000Y-157925512D01*
X90500000Y-157925512D01*
X90012275Y-158022527D01*
X89598801Y-158298801D01*
X89500000Y-158446667D01*
X89401199Y-158298801D01*
X88987725Y-158022527D01*
X88500000Y-157925512D01*
X87500000Y-157925512D01*
X87125525Y-158000000D01*
X86828427Y-158000000D01*
X82000000Y-153171574D01*
X82000000Y-152310000D01*
X84285512Y-152310000D01*
X84285512Y-154110000D01*
X84382527Y-154597725D01*
X84658801Y-155011199D01*
X85072275Y-155287473D01*
X85560000Y-155384488D01*
X87360000Y-155384488D01*
X87847725Y-155287473D01*
X88261199Y-155011199D01*
X88443700Y-154738067D01*
X88736682Y-154846957D01*
X88996000Y-154678495D01*
X88996000Y-153214000D01*
X88976000Y-153214000D01*
X88976000Y-153206000D01*
X88996000Y-153206000D01*
X88996000Y-151741505D01*
X88736682Y-151573043D01*
X88443700Y-151681933D01*
X88261199Y-151408801D01*
X87847725Y-151132527D01*
X87360000Y-151035512D01*
X85560000Y-151035512D01*
X85072275Y-151132527D01*
X84658801Y-151408801D01*
X84382527Y-151822275D01*
X84285512Y-152310000D01*
X82000000Y-152310000D01*
X82000000Y-141503500D01*
X83302000Y-141503500D01*
X83302000Y-148960775D01*
X83417398Y-149239372D01*
X83630627Y-149452601D01*
X83909224Y-149568000D01*
X88866500Y-149568000D01*
X89056000Y-149378500D01*
X89056000Y-141314000D01*
X89064000Y-141314000D01*
X89064000Y-149378500D01*
X89253500Y-149568000D01*
X94210776Y-149568000D01*
X94489373Y-149452601D01*
X94702602Y-149239372D01*
X94818000Y-148960775D01*
X94818000Y-141503500D01*
X94628500Y-141314000D01*
X89064000Y-141314000D01*
X89056000Y-141314000D01*
X83491500Y-141314000D01*
X83302000Y-141503500D01*
X82000000Y-141503500D01*
X82000000Y-137196977D01*
X82039181Y-137000000D01*
X82000000Y-136803023D01*
X82000000Y-136803018D01*
X81883959Y-136219639D01*
X81646714Y-135864578D01*
X81553500Y-135725073D01*
X81553499Y-135725072D01*
X81441919Y-135558081D01*
X81274928Y-135446501D01*
X79078427Y-133250000D01*
X83548026Y-133250000D01*
X83417398Y-133380628D01*
X83417398Y-133380628D01*
G37*
X83417398Y-133380628D02*
X83302000Y-133659225D01*
X83302000Y-141116500D01*
X83491500Y-141306000D01*
X89056000Y-141306000D01*
X89056000Y-141286000D01*
X89064000Y-141286000D01*
X89064000Y-141306000D01*
X94628500Y-141306000D01*
X94818000Y-141116500D01*
X94818000Y-133659225D01*
X94702602Y-133380628D01*
X94571974Y-133250000D01*
X98625000Y-133250000D01*
X98625001Y-150864579D01*
X98598064Y-151000000D01*
X98625001Y-151135422D01*
X98689245Y-151458397D01*
X98704780Y-151536498D01*
X98931971Y-151876514D01*
X98931973Y-151876516D01*
X99008682Y-151991319D01*
X99123485Y-152068028D01*
X101291972Y-154236516D01*
X101368681Y-154351319D01*
X101483484Y-154428028D01*
X101483485Y-154428029D01*
X101568638Y-154484926D01*
X101823502Y-154655221D01*
X102224578Y-154735000D01*
X102224582Y-154735000D01*
X102359999Y-154761936D01*
X102388266Y-154756313D01*
X102551091Y-155000000D01*
X101696976Y-155000000D01*
X101499999Y-154960819D01*
X101303022Y-155000000D01*
X101303018Y-155000000D01*
X100719639Y-155116041D01*
X100599161Y-155196542D01*
X100225075Y-155446499D01*
X100058081Y-155558081D01*
X99946500Y-155725073D01*
X98225073Y-157446501D01*
X98058082Y-157558081D01*
X97946502Y-157725072D01*
X97946500Y-157725074D01*
X97616042Y-158219639D01*
X97460819Y-159000000D01*
X97500001Y-159196981D01*
X97500001Y-159583328D01*
X97192151Y-160044058D01*
X97002002Y-161000000D01*
X97192151Y-161955942D01*
X97733649Y-162766351D01*
X98544058Y-163307849D01*
X99258698Y-163450000D01*
X99741302Y-163450000D01*
X100455942Y-163307849D01*
X101266351Y-162766351D01*
X101807849Y-161955942D01*
X101997998Y-161000000D01*
X101807849Y-160044058D01*
X101598172Y-159730254D01*
X102328427Y-159000000D01*
X103035178Y-159000000D01*
X102422991Y-159612187D01*
X102050000Y-160512665D01*
X102050000Y-161487335D01*
X102422991Y-162387813D01*
X103112187Y-163077009D01*
X104012665Y-163450000D01*
X104987335Y-163450000D01*
X105887813Y-163077009D01*
X106577009Y-162387813D01*
X106950000Y-161487335D01*
X106950000Y-160512665D01*
X106577009Y-159612187D01*
X105964822Y-159000000D01*
X107803023Y-159000000D01*
X107996661Y-159038517D01*
X107422991Y-159612187D01*
X107050000Y-160512665D01*
X107050000Y-161487335D01*
X107422991Y-162387813D01*
X108112187Y-163077009D01*
X108724725Y-163330731D01*
X105705457Y-166350000D01*
X105671795Y-166350000D01*
X105065350Y-166601198D01*
X104601198Y-167065350D01*
X104350000Y-167671795D01*
X104350000Y-168328205D01*
X104601198Y-168934650D01*
X105065350Y-169398802D01*
X105309663Y-169500000D01*
X96696982Y-169500000D01*
X96500000Y-169460818D01*
X96303018Y-169500000D01*
X89548097Y-169500000D01*
X91512217Y-167535880D01*
X91512219Y-167535877D01*
X92035877Y-167012219D01*
X92171559Y-166921559D01*
X92530716Y-166384043D01*
X92625000Y-165910045D01*
X92625000Y-165910041D01*
X92656834Y-165750001D01*
X92625000Y-165589960D01*
X92625000Y-162603746D01*
X92733649Y-162766351D01*
X93544058Y-163307849D01*
X94258698Y-163450000D01*
X94741302Y-163450000D01*
X95455942Y-163307849D01*
X96266351Y-162766351D01*
X96807849Y-161955942D01*
X96997998Y-161000000D01*
X96807849Y-160044058D01*
X96500000Y-159583329D01*
X96500000Y-156366976D01*
X96539181Y-156169999D01*
X96500000Y-155973022D01*
X96500000Y-155973018D01*
X96383959Y-155389639D01*
X95941919Y-154728081D01*
X95774927Y-154616501D01*
X93574124Y-152415697D01*
X93565255Y-152371112D01*
X93090063Y-151659937D01*
X92378888Y-151184745D01*
X91751752Y-151060000D01*
X91328248Y-151060000D01*
X90701112Y-151184745D01*
X89989937Y-151659937D01*
X89886801Y-151814291D01*
X89869710Y-151798416D01*
X89263318Y-151573043D01*
X89004000Y-151741505D01*
X89004000Y-153206000D01*
X89024000Y-153206000D01*
X89024000Y-153214000D01*
X89004000Y-153214000D01*
X89004000Y-154678495D01*
X89263318Y-154846957D01*
X89869710Y-154621584D01*
X89886801Y-154605709D01*
X89989937Y-154760063D01*
X90701112Y-155235255D01*
X90745697Y-155244124D01*
X92500001Y-156998428D01*
X92500001Y-158446668D01*
X92401199Y-158298801D01*
X91987725Y-158022527D01*
X91500000Y-157925512D01*
X90500000Y-157925512D01*
X90012275Y-158022527D01*
X89598801Y-158298801D01*
X89500000Y-158446667D01*
X89401199Y-158298801D01*
X88987725Y-158022527D01*
X88500000Y-157925512D01*
X87500000Y-157925512D01*
X87125525Y-158000000D01*
X86828427Y-158000000D01*
X82000000Y-153171574D01*
X82000000Y-152310000D01*
X84285512Y-152310000D01*
X84285512Y-154110000D01*
X84382527Y-154597725D01*
X84658801Y-155011199D01*
X85072275Y-155287473D01*
X85560000Y-155384488D01*
X87360000Y-155384488D01*
X87847725Y-155287473D01*
X88261199Y-155011199D01*
X88443700Y-154738067D01*
X88736682Y-154846957D01*
X88996000Y-154678495D01*
X88996000Y-153214000D01*
X88976000Y-153214000D01*
X88976000Y-153206000D01*
X88996000Y-153206000D01*
X88996000Y-151741505D01*
X88736682Y-151573043D01*
X88443700Y-151681933D01*
X88261199Y-151408801D01*
X87847725Y-151132527D01*
X87360000Y-151035512D01*
X85560000Y-151035512D01*
X85072275Y-151132527D01*
X84658801Y-151408801D01*
X84382527Y-151822275D01*
X84285512Y-152310000D01*
X82000000Y-152310000D01*
X82000000Y-141503500D01*
X83302000Y-141503500D01*
X83302000Y-148960775D01*
X83417398Y-149239372D01*
X83630627Y-149452601D01*
X83909224Y-149568000D01*
X88866500Y-149568000D01*
X89056000Y-149378500D01*
X89056000Y-141314000D01*
X89064000Y-141314000D01*
X89064000Y-149378500D01*
X89253500Y-149568000D01*
X94210776Y-149568000D01*
X94489373Y-149452601D01*
X94702602Y-149239372D01*
X94818000Y-148960775D01*
X94818000Y-141503500D01*
X94628500Y-141314000D01*
X89064000Y-141314000D01*
X89056000Y-141314000D01*
X83491500Y-141314000D01*
X83302000Y-141503500D01*
X82000000Y-141503500D01*
X82000000Y-137196977D01*
X82039181Y-137000000D01*
X82000000Y-136803023D01*
X82000000Y-136803018D01*
X81883959Y-136219639D01*
X81646714Y-135864578D01*
X81553500Y-135725073D01*
X81553499Y-135725072D01*
X81441919Y-135558081D01*
X81274928Y-135446501D01*
X79078427Y-133250000D01*
X83548026Y-133250000D01*
X83417398Y-133380628D01*
G36*
X127625001Y-154572829D02*
X127413890Y-154713889D01*
X126927647Y-155441603D01*
X126800000Y-156083322D01*
X126800000Y-156371573D01*
X121126574Y-162045000D01*
X119389088Y-162045000D01*
X119057750Y-161713662D01*
X118047009Y-161295000D01*
X116952991Y-161295000D01*
X116875000Y-161327305D01*
X116875000Y-155717717D01*
X118287940Y-155717717D01*
X118550716Y-156189765D01*
X119728425Y-156730977D01*
X121023599Y-156780303D01*
X122239061Y-156330232D01*
X122449284Y-156189765D01*
X122712060Y-155717717D01*
X120500000Y-153505657D01*
X118287940Y-155717717D01*
X116875000Y-155717717D01*
X116875000Y-154023599D01*
X117219697Y-154023599D01*
X117669768Y-155239061D01*
X117810235Y-155449284D01*
X118282283Y-155712060D01*
X120494343Y-153500000D01*
X120505657Y-153500000D01*
X122717717Y-155712060D01*
X123189765Y-155449284D01*
X123730977Y-154271575D01*
X123780303Y-152976401D01*
X123330232Y-151760939D01*
X123189765Y-151550716D01*
X122717717Y-151287940D01*
X120505657Y-153500000D01*
X120494343Y-153500000D01*
X118282283Y-151287940D01*
X117810235Y-151550716D01*
X117269023Y-152728425D01*
X117219697Y-154023599D01*
X116875000Y-154023599D01*
X116875000Y-151282283D01*
X118287940Y-151282283D01*
X120500000Y-153494343D01*
X122712060Y-151282283D01*
X122449284Y-150810235D01*
X121271575Y-150269023D01*
X119976401Y-150219697D01*
X118760939Y-150669768D01*
X118550716Y-150810235D01*
X118287940Y-151282283D01*
X116875000Y-151282283D01*
X116875000Y-143717717D01*
X121787940Y-143717717D01*
X122050716Y-144189765D01*
X123228425Y-144730977D01*
X124523599Y-144780303D01*
X125739061Y-144330232D01*
X125949284Y-144189765D01*
X126212060Y-143717717D01*
X124000000Y-141505657D01*
X121787940Y-143717717D01*
X116875000Y-143717717D01*
X116875000Y-140069543D01*
X117006011Y-139938532D01*
X119296567Y-143145310D01*
X119407152Y-143232119D01*
X119503048Y-143249981D01*
X119598480Y-143229786D01*
X120951600Y-142649877D01*
X121169768Y-143239061D01*
X121310235Y-143449284D01*
X121782283Y-143712060D01*
X123994343Y-141500000D01*
X123980201Y-141485858D01*
X123985858Y-141480201D01*
X124000000Y-141494343D01*
X124014142Y-141480201D01*
X124019799Y-141485858D01*
X124005657Y-141500000D01*
X126217717Y-143712060D01*
X126689765Y-143449284D01*
X127230977Y-142271575D01*
X127280303Y-140976401D01*
X126940665Y-140059176D01*
X127611803Y-139723607D01*
X127625000Y-139714095D01*
X127625001Y-154572829D01*
X127625001Y-154572829D01*
G37*
X127625001Y-154572829D02*
X127413890Y-154713889D01*
X126927647Y-155441603D01*
X126800000Y-156083322D01*
X126800000Y-156371573D01*
X121126574Y-162045000D01*
X119389088Y-162045000D01*
X119057750Y-161713662D01*
X118047009Y-161295000D01*
X116952991Y-161295000D01*
X116875000Y-161327305D01*
X116875000Y-155717717D01*
X118287940Y-155717717D01*
X118550716Y-156189765D01*
X119728425Y-156730977D01*
X121023599Y-156780303D01*
X122239061Y-156330232D01*
X122449284Y-156189765D01*
X122712060Y-155717717D01*
X120500000Y-153505657D01*
X118287940Y-155717717D01*
X116875000Y-155717717D01*
X116875000Y-154023599D01*
X117219697Y-154023599D01*
X117669768Y-155239061D01*
X117810235Y-155449284D01*
X118282283Y-155712060D01*
X120494343Y-153500000D01*
X120505657Y-153500000D01*
X122717717Y-155712060D01*
X123189765Y-155449284D01*
X123730977Y-154271575D01*
X123780303Y-152976401D01*
X123330232Y-151760939D01*
X123189765Y-151550716D01*
X122717717Y-151287940D01*
X120505657Y-153500000D01*
X120494343Y-153500000D01*
X118282283Y-151287940D01*
X117810235Y-151550716D01*
X117269023Y-152728425D01*
X117219697Y-154023599D01*
X116875000Y-154023599D01*
X116875000Y-151282283D01*
X118287940Y-151282283D01*
X120500000Y-153494343D01*
X122712060Y-151282283D01*
X122449284Y-150810235D01*
X121271575Y-150269023D01*
X119976401Y-150219697D01*
X118760939Y-150669768D01*
X118550716Y-150810235D01*
X118287940Y-151282283D01*
X116875000Y-151282283D01*
X116875000Y-143717717D01*
X121787940Y-143717717D01*
X122050716Y-144189765D01*
X123228425Y-144730977D01*
X124523599Y-144780303D01*
X125739061Y-144330232D01*
X125949284Y-144189765D01*
X126212060Y-143717717D01*
X124000000Y-141505657D01*
X121787940Y-143717717D01*
X116875000Y-143717717D01*
X116875000Y-140069543D01*
X117006011Y-139938532D01*
X119296567Y-143145310D01*
X119407152Y-143232119D01*
X119503048Y-143249981D01*
X119598480Y-143229786D01*
X120951600Y-142649877D01*
X121169768Y-143239061D01*
X121310235Y-143449284D01*
X121782283Y-143712060D01*
X123994343Y-141500000D01*
X123980201Y-141485858D01*
X123985858Y-141480201D01*
X124000000Y-141494343D01*
X124014142Y-141480201D01*
X124019799Y-141485858D01*
X124005657Y-141500000D01*
X126217717Y-143712060D01*
X126689765Y-143449284D01*
X127230977Y-142271575D01*
X127280303Y-140976401D01*
X126940665Y-140059176D01*
X127611803Y-139723607D01*
X127625000Y-139714095D01*
X127625001Y-154572829D01*
G36*
X107064000Y-141456000D02*
X107084000Y-141456000D01*
X107084000Y-141464000D01*
X107064000Y-141464000D01*
X107064000Y-149528500D01*
X107253500Y-149718000D01*
X112210776Y-149718000D01*
X112489373Y-149602601D01*
X112625000Y-149466974D01*
X112625000Y-159430456D01*
X111830731Y-160224725D01*
X111577009Y-159612187D01*
X110887813Y-158922991D01*
X109987335Y-158550000D01*
X109280165Y-158550000D01*
X109441919Y-158441919D01*
X109553501Y-158274925D01*
X110814927Y-157013500D01*
X110981919Y-156901919D01*
X111211388Y-156558496D01*
X111363909Y-156330232D01*
X111423959Y-156240361D01*
X111540000Y-155656982D01*
X111540000Y-155656977D01*
X111579181Y-155460000D01*
X111540000Y-155263023D01*
X111540000Y-154236685D01*
X111565255Y-154198888D01*
X111732120Y-153360000D01*
X111565255Y-152521112D01*
X111090063Y-151809937D01*
X110378888Y-151334745D01*
X109751752Y-151210000D01*
X109328248Y-151210000D01*
X108701112Y-151334745D01*
X107989937Y-151809937D01*
X107886801Y-151964291D01*
X107869710Y-151948416D01*
X107263318Y-151723043D01*
X107004000Y-151891505D01*
X107004000Y-153356000D01*
X107024000Y-153356000D01*
X107024000Y-153364000D01*
X107004000Y-153364000D01*
X107004000Y-153384000D01*
X106996000Y-153384000D01*
X106996000Y-153364000D01*
X106976000Y-153364000D01*
X106976000Y-153356000D01*
X106996000Y-153356000D01*
X106996000Y-151891505D01*
X106736682Y-151723043D01*
X106443700Y-151831933D01*
X106261199Y-151558801D01*
X105847725Y-151282527D01*
X105360000Y-151185512D01*
X103560000Y-151185512D01*
X103072275Y-151282527D01*
X102658801Y-151558801D01*
X102596534Y-151651990D01*
X101375000Y-150430457D01*
X101375000Y-149287014D01*
X101417398Y-149389372D01*
X101630627Y-149602601D01*
X101909224Y-149718000D01*
X106866500Y-149718000D01*
X107056000Y-149528500D01*
X107056000Y-141464000D01*
X107036000Y-141464000D01*
X107036000Y-141456000D01*
X107056000Y-141456000D01*
X107056000Y-141436000D01*
X107064000Y-141436000D01*
X107064000Y-141456000D01*
X107064000Y-141456000D01*
G37*
X107064000Y-141456000D02*
X107084000Y-141456000D01*
X107084000Y-141464000D01*
X107064000Y-141464000D01*
X107064000Y-149528500D01*
X107253500Y-149718000D01*
X112210776Y-149718000D01*
X112489373Y-149602601D01*
X112625000Y-149466974D01*
X112625000Y-159430456D01*
X111830731Y-160224725D01*
X111577009Y-159612187D01*
X110887813Y-158922991D01*
X109987335Y-158550000D01*
X109280165Y-158550000D01*
X109441919Y-158441919D01*
X109553501Y-158274925D01*
X110814927Y-157013500D01*
X110981919Y-156901919D01*
X111211388Y-156558496D01*
X111363909Y-156330232D01*
X111423959Y-156240361D01*
X111540000Y-155656982D01*
X111540000Y-155656977D01*
X111579181Y-155460000D01*
X111540000Y-155263023D01*
X111540000Y-154236685D01*
X111565255Y-154198888D01*
X111732120Y-153360000D01*
X111565255Y-152521112D01*
X111090063Y-151809937D01*
X110378888Y-151334745D01*
X109751752Y-151210000D01*
X109328248Y-151210000D01*
X108701112Y-151334745D01*
X107989937Y-151809937D01*
X107886801Y-151964291D01*
X107869710Y-151948416D01*
X107263318Y-151723043D01*
X107004000Y-151891505D01*
X107004000Y-153356000D01*
X107024000Y-153356000D01*
X107024000Y-153364000D01*
X107004000Y-153364000D01*
X107004000Y-153384000D01*
X106996000Y-153384000D01*
X106996000Y-153364000D01*
X106976000Y-153364000D01*
X106976000Y-153356000D01*
X106996000Y-153356000D01*
X106996000Y-151891505D01*
X106736682Y-151723043D01*
X106443700Y-151831933D01*
X106261199Y-151558801D01*
X105847725Y-151282527D01*
X105360000Y-151185512D01*
X103560000Y-151185512D01*
X103072275Y-151282527D01*
X102658801Y-151558801D01*
X102596534Y-151651990D01*
X101375000Y-150430457D01*
X101375000Y-149287014D01*
X101417398Y-149389372D01*
X101630627Y-149602601D01*
X101909224Y-149718000D01*
X106866500Y-149718000D01*
X107056000Y-149528500D01*
X107056000Y-141464000D01*
X107036000Y-141464000D01*
X107036000Y-141456000D01*
X107056000Y-141456000D01*
X107056000Y-141436000D01*
X107064000Y-141436000D01*
X107064000Y-141456000D01*
G36*
X121625001Y-100069545D02*
X121625000Y-101041548D01*
X121601198Y-101065350D01*
X121350000Y-101671795D01*
X121350000Y-102328205D01*
X121601198Y-102934650D01*
X122065350Y-103398802D01*
X122671795Y-103650000D01*
X123328205Y-103650000D01*
X123934650Y-103398802D01*
X124398802Y-102934650D01*
X124650000Y-102328205D01*
X124650000Y-101671795D01*
X124398802Y-101065350D01*
X124375000Y-101041548D01*
X124375000Y-99635416D01*
X124401936Y-99499999D01*
X124375000Y-99364582D01*
X124375000Y-99364578D01*
X124295221Y-98963502D01*
X124117861Y-98698064D01*
X124068029Y-98623485D01*
X124068028Y-98623484D01*
X123991319Y-98508681D01*
X123876516Y-98431972D01*
X120819544Y-95375000D01*
X123430457Y-95375000D01*
X128330392Y-100274935D01*
X127952059Y-100431645D01*
X127431645Y-100952059D01*
X127150000Y-101632012D01*
X127150000Y-101905457D01*
X123623485Y-105431972D01*
X123508682Y-105508681D01*
X123431973Y-105623484D01*
X123431971Y-105623486D01*
X123247553Y-105899488D01*
X123204780Y-105963502D01*
X123141371Y-106282283D01*
X123098123Y-106499702D01*
X122717717Y-106287940D01*
X120505657Y-108500000D01*
X120519799Y-108514142D01*
X120514142Y-108519799D01*
X120500000Y-108505657D01*
X118287940Y-110717717D01*
X118550716Y-111189765D01*
X118681791Y-111250000D01*
X113875000Y-111250000D01*
X113875000Y-109023599D01*
X117219697Y-109023599D01*
X117669768Y-110239061D01*
X117810235Y-110449284D01*
X118282283Y-110712060D01*
X120494343Y-108500000D01*
X118282283Y-106287940D01*
X117810235Y-106550716D01*
X117269023Y-107728425D01*
X117219697Y-109023599D01*
X113875000Y-109023599D01*
X113875000Y-106282283D01*
X118287940Y-106282283D01*
X120500000Y-108494343D01*
X122712060Y-106282283D01*
X122449284Y-105810235D01*
X121271575Y-105269023D01*
X119976401Y-105219697D01*
X118760939Y-105669768D01*
X118550716Y-105810235D01*
X118287940Y-106282283D01*
X113875000Y-106282283D01*
X113875000Y-104058000D01*
X114306500Y-104058000D01*
X114496000Y-103868500D01*
X114496000Y-102954000D01*
X114504000Y-102954000D01*
X114504000Y-103868500D01*
X114693500Y-104058000D01*
X115300775Y-104058000D01*
X115579372Y-103942602D01*
X115792601Y-103729373D01*
X115908000Y-103450776D01*
X115908000Y-103143500D01*
X115718500Y-102954000D01*
X114504000Y-102954000D01*
X114496000Y-102954000D01*
X114476000Y-102954000D01*
X114476000Y-102946000D01*
X114496000Y-102946000D01*
X114496000Y-102926000D01*
X114504000Y-102926000D01*
X114504000Y-102946000D01*
X115718500Y-102946000D01*
X115908000Y-102756500D01*
X115908000Y-102449224D01*
X115891019Y-102408228D01*
X116051199Y-102301199D01*
X116327473Y-101887725D01*
X116424488Y-101400000D01*
X116424488Y-100700000D01*
X116327473Y-100212275D01*
X116051199Y-99798801D01*
X115637725Y-99522527D01*
X115150000Y-99425512D01*
X113850000Y-99425512D01*
X113362275Y-99522527D01*
X113208913Y-99625000D01*
X112635421Y-99625000D01*
X112500000Y-99598063D01*
X112365610Y-99624795D01*
X112309625Y-99587387D01*
X112401199Y-99526199D01*
X112496881Y-99383000D01*
X112806500Y-99383000D01*
X112996000Y-99193500D01*
X112996000Y-98004000D01*
X113004000Y-98004000D01*
X113004000Y-99193500D01*
X113193500Y-99383000D01*
X113650776Y-99383000D01*
X113929373Y-99267601D01*
X114142602Y-99054372D01*
X114258000Y-98775775D01*
X114258000Y-98193500D01*
X114068500Y-98004000D01*
X113004000Y-98004000D01*
X112996000Y-98004000D01*
X112976000Y-98004000D01*
X112976000Y-97996000D01*
X112996000Y-97996000D01*
X112996000Y-97976000D01*
X113004000Y-97976000D01*
X113004000Y-97996000D01*
X114068500Y-97996000D01*
X114258000Y-97806500D01*
X114258000Y-97224225D01*
X114142602Y-96945628D01*
X113929373Y-96732399D01*
X113830521Y-96691453D01*
X113942602Y-96579372D01*
X114058000Y-96300775D01*
X114058000Y-95693500D01*
X113868500Y-95504000D01*
X112954000Y-95504000D01*
X112954000Y-95524000D01*
X112946000Y-95524000D01*
X112946000Y-95504000D01*
X112926000Y-95504000D01*
X112926000Y-95496000D01*
X112946000Y-95496000D01*
X112946000Y-95476000D01*
X112954000Y-95476000D01*
X112954000Y-95496000D01*
X113868500Y-95496000D01*
X114058000Y-95306500D01*
X114058000Y-94699225D01*
X114041019Y-94658228D01*
X114053333Y-94650000D01*
X114328205Y-94650000D01*
X114934650Y-94398802D01*
X115398802Y-93934650D01*
X115425545Y-93870088D01*
X121625001Y-100069545D01*
X121625001Y-100069545D01*
G37*
X121625001Y-100069545D02*
X121625000Y-101041548D01*
X121601198Y-101065350D01*
X121350000Y-101671795D01*
X121350000Y-102328205D01*
X121601198Y-102934650D01*
X122065350Y-103398802D01*
X122671795Y-103650000D01*
X123328205Y-103650000D01*
X123934650Y-103398802D01*
X124398802Y-102934650D01*
X124650000Y-102328205D01*
X124650000Y-101671795D01*
X124398802Y-101065350D01*
X124375000Y-101041548D01*
X124375000Y-99635416D01*
X124401936Y-99499999D01*
X124375000Y-99364582D01*
X124375000Y-99364578D01*
X124295221Y-98963502D01*
X124117861Y-98698064D01*
X124068029Y-98623485D01*
X124068028Y-98623484D01*
X123991319Y-98508681D01*
X123876516Y-98431972D01*
X120819544Y-95375000D01*
X123430457Y-95375000D01*
X128330392Y-100274935D01*
X127952059Y-100431645D01*
X127431645Y-100952059D01*
X127150000Y-101632012D01*
X127150000Y-101905457D01*
X123623485Y-105431972D01*
X123508682Y-105508681D01*
X123431973Y-105623484D01*
X123431971Y-105623486D01*
X123247553Y-105899488D01*
X123204780Y-105963502D01*
X123141371Y-106282283D01*
X123098123Y-106499702D01*
X122717717Y-106287940D01*
X120505657Y-108500000D01*
X120519799Y-108514142D01*
X120514142Y-108519799D01*
X120500000Y-108505657D01*
X118287940Y-110717717D01*
X118550716Y-111189765D01*
X118681791Y-111250000D01*
X113875000Y-111250000D01*
X113875000Y-109023599D01*
X117219697Y-109023599D01*
X117669768Y-110239061D01*
X117810235Y-110449284D01*
X118282283Y-110712060D01*
X120494343Y-108500000D01*
X118282283Y-106287940D01*
X117810235Y-106550716D01*
X117269023Y-107728425D01*
X117219697Y-109023599D01*
X113875000Y-109023599D01*
X113875000Y-106282283D01*
X118287940Y-106282283D01*
X120500000Y-108494343D01*
X122712060Y-106282283D01*
X122449284Y-105810235D01*
X121271575Y-105269023D01*
X119976401Y-105219697D01*
X118760939Y-105669768D01*
X118550716Y-105810235D01*
X118287940Y-106282283D01*
X113875000Y-106282283D01*
X113875000Y-104058000D01*
X114306500Y-104058000D01*
X114496000Y-103868500D01*
X114496000Y-102954000D01*
X114504000Y-102954000D01*
X114504000Y-103868500D01*
X114693500Y-104058000D01*
X115300775Y-104058000D01*
X115579372Y-103942602D01*
X115792601Y-103729373D01*
X115908000Y-103450776D01*
X115908000Y-103143500D01*
X115718500Y-102954000D01*
X114504000Y-102954000D01*
X114496000Y-102954000D01*
X114476000Y-102954000D01*
X114476000Y-102946000D01*
X114496000Y-102946000D01*
X114496000Y-102926000D01*
X114504000Y-102926000D01*
X114504000Y-102946000D01*
X115718500Y-102946000D01*
X115908000Y-102756500D01*
X115908000Y-102449224D01*
X115891019Y-102408228D01*
X116051199Y-102301199D01*
X116327473Y-101887725D01*
X116424488Y-101400000D01*
X116424488Y-100700000D01*
X116327473Y-100212275D01*
X116051199Y-99798801D01*
X115637725Y-99522527D01*
X115150000Y-99425512D01*
X113850000Y-99425512D01*
X113362275Y-99522527D01*
X113208913Y-99625000D01*
X112635421Y-99625000D01*
X112500000Y-99598063D01*
X112365610Y-99624795D01*
X112309625Y-99587387D01*
X112401199Y-99526199D01*
X112496881Y-99383000D01*
X112806500Y-99383000D01*
X112996000Y-99193500D01*
X112996000Y-98004000D01*
X113004000Y-98004000D01*
X113004000Y-99193500D01*
X113193500Y-99383000D01*
X113650776Y-99383000D01*
X113929373Y-99267601D01*
X114142602Y-99054372D01*
X114258000Y-98775775D01*
X114258000Y-98193500D01*
X114068500Y-98004000D01*
X113004000Y-98004000D01*
X112996000Y-98004000D01*
X112976000Y-98004000D01*
X112976000Y-97996000D01*
X112996000Y-97996000D01*
X112996000Y-97976000D01*
X113004000Y-97976000D01*
X113004000Y-97996000D01*
X114068500Y-97996000D01*
X114258000Y-97806500D01*
X114258000Y-97224225D01*
X114142602Y-96945628D01*
X113929373Y-96732399D01*
X113830521Y-96691453D01*
X113942602Y-96579372D01*
X114058000Y-96300775D01*
X114058000Y-95693500D01*
X113868500Y-95504000D01*
X112954000Y-95504000D01*
X112954000Y-95524000D01*
X112946000Y-95524000D01*
X112946000Y-95504000D01*
X112926000Y-95504000D01*
X112926000Y-95496000D01*
X112946000Y-95496000D01*
X112946000Y-95476000D01*
X112954000Y-95476000D01*
X112954000Y-95496000D01*
X113868500Y-95496000D01*
X114058000Y-95306500D01*
X114058000Y-94699225D01*
X114041019Y-94658228D01*
X114053333Y-94650000D01*
X114328205Y-94650000D01*
X114934650Y-94398802D01*
X115398802Y-93934650D01*
X115425545Y-93870088D01*
X121625001Y-100069545D01*
G36*
X99850512Y-97030000D02*
X99917148Y-97365000D01*
X99850512Y-97700000D01*
X99850512Y-98300000D01*
X99947527Y-98787725D01*
X100075783Y-98979674D01*
X99123485Y-99931972D01*
X99008682Y-100008681D01*
X98931973Y-100123484D01*
X98931971Y-100123486D01*
X98750404Y-100395221D01*
X98704780Y-100463502D01*
X98650083Y-100738485D01*
X98598064Y-101000000D01*
X98625001Y-101135421D01*
X98625000Y-105364583D01*
X98598064Y-105500000D01*
X98625000Y-105635417D01*
X98625000Y-105635421D01*
X98704779Y-106036497D01*
X98704780Y-106036498D01*
X98930960Y-106375000D01*
X99008681Y-106491318D01*
X99123485Y-106568028D01*
X99931970Y-107376513D01*
X100008681Y-107491319D01*
X100463502Y-107795221D01*
X100838557Y-107869824D01*
X101000000Y-107901937D01*
X101135422Y-107875000D01*
X106280457Y-107875000D01*
X106627443Y-108221986D01*
X106161112Y-108314745D01*
X105730000Y-108602805D01*
X105298888Y-108314745D01*
X104671752Y-108190000D01*
X104248248Y-108190000D01*
X103621112Y-108314745D01*
X102909937Y-108789937D01*
X102434745Y-109501112D01*
X102267880Y-110340000D01*
X102434745Y-111178888D01*
X102482261Y-111250000D01*
X95650000Y-111250000D01*
X95650000Y-103258000D01*
X95806500Y-103258000D01*
X95996000Y-103068500D01*
X95996000Y-102004000D01*
X96004000Y-102004000D01*
X96004000Y-103068500D01*
X96193500Y-103258000D01*
X96775775Y-103258000D01*
X97054372Y-103142602D01*
X97267601Y-102929373D01*
X97383000Y-102650776D01*
X97383000Y-102193500D01*
X97193500Y-102004000D01*
X96004000Y-102004000D01*
X95996000Y-102004000D01*
X95976000Y-102004000D01*
X95976000Y-101996000D01*
X95996000Y-101996000D01*
X95996000Y-101976000D01*
X96004000Y-101976000D01*
X96004000Y-101996000D01*
X97193500Y-101996000D01*
X97383000Y-101806500D01*
X97383000Y-101496881D01*
X97526199Y-101401199D01*
X97802473Y-100987725D01*
X97899488Y-100500000D01*
X97899488Y-99512307D01*
X97901936Y-99500000D01*
X97881649Y-99398011D01*
X98176199Y-99201199D01*
X98452473Y-98787725D01*
X98549488Y-98300000D01*
X98549488Y-97700000D01*
X98482852Y-97365000D01*
X98525618Y-97150000D01*
X98928205Y-97150000D01*
X99534650Y-96898802D01*
X99850512Y-96582940D01*
X99850512Y-97030000D01*
X99850512Y-97030000D01*
G37*
X99850512Y-97030000D02*
X99917148Y-97365000D01*
X99850512Y-97700000D01*
X99850512Y-98300000D01*
X99947527Y-98787725D01*
X100075783Y-98979674D01*
X99123485Y-99931972D01*
X99008682Y-100008681D01*
X98931973Y-100123484D01*
X98931971Y-100123486D01*
X98750404Y-100395221D01*
X98704780Y-100463502D01*
X98650083Y-100738485D01*
X98598064Y-101000000D01*
X98625001Y-101135421D01*
X98625000Y-105364583D01*
X98598064Y-105500000D01*
X98625000Y-105635417D01*
X98625000Y-105635421D01*
X98704779Y-106036497D01*
X98704780Y-106036498D01*
X98930960Y-106375000D01*
X99008681Y-106491318D01*
X99123485Y-106568028D01*
X99931970Y-107376513D01*
X100008681Y-107491319D01*
X100463502Y-107795221D01*
X100838557Y-107869824D01*
X101000000Y-107901937D01*
X101135422Y-107875000D01*
X106280457Y-107875000D01*
X106627443Y-108221986D01*
X106161112Y-108314745D01*
X105730000Y-108602805D01*
X105298888Y-108314745D01*
X104671752Y-108190000D01*
X104248248Y-108190000D01*
X103621112Y-108314745D01*
X102909937Y-108789937D01*
X102434745Y-109501112D01*
X102267880Y-110340000D01*
X102434745Y-111178888D01*
X102482261Y-111250000D01*
X95650000Y-111250000D01*
X95650000Y-103258000D01*
X95806500Y-103258000D01*
X95996000Y-103068500D01*
X95996000Y-102004000D01*
X96004000Y-102004000D01*
X96004000Y-103068500D01*
X96193500Y-103258000D01*
X96775775Y-103258000D01*
X97054372Y-103142602D01*
X97267601Y-102929373D01*
X97383000Y-102650776D01*
X97383000Y-102193500D01*
X97193500Y-102004000D01*
X96004000Y-102004000D01*
X95996000Y-102004000D01*
X95976000Y-102004000D01*
X95976000Y-101996000D01*
X95996000Y-101996000D01*
X95996000Y-101976000D01*
X96004000Y-101976000D01*
X96004000Y-101996000D01*
X97193500Y-101996000D01*
X97383000Y-101806500D01*
X97383000Y-101496881D01*
X97526199Y-101401199D01*
X97802473Y-100987725D01*
X97899488Y-100500000D01*
X97899488Y-99512307D01*
X97901936Y-99500000D01*
X97881649Y-99398011D01*
X98176199Y-99201199D01*
X98452473Y-98787725D01*
X98549488Y-98300000D01*
X98549488Y-97700000D01*
X98482852Y-97365000D01*
X98525618Y-97150000D01*
X98928205Y-97150000D01*
X99534650Y-96898802D01*
X99850512Y-96582940D01*
X99850512Y-97030000D01*
G36*
X101551143Y-88934518D02*
X101548064Y-88950000D01*
X101575000Y-89085417D01*
X101575000Y-89085422D01*
X101600512Y-89213679D01*
X101600512Y-90000000D01*
X101697527Y-90487725D01*
X101973801Y-90901199D01*
X102117000Y-90996881D01*
X102117000Y-91306500D01*
X102306500Y-91496000D01*
X103496000Y-91496000D01*
X103496000Y-91476000D01*
X103504000Y-91476000D01*
X103504000Y-91496000D01*
X104693500Y-91496000D01*
X104883000Y-91306500D01*
X104883000Y-90996881D01*
X105026199Y-90901199D01*
X105043705Y-90875000D01*
X106041548Y-90875000D01*
X106065350Y-90898802D01*
X106552321Y-91100512D01*
X106000000Y-91100512D01*
X105512275Y-91197527D01*
X105098801Y-91473801D01*
X104883000Y-91796771D01*
X104883000Y-91693500D01*
X104693500Y-91504000D01*
X103504000Y-91504000D01*
X103504000Y-92568500D01*
X103693500Y-92758000D01*
X104275775Y-92758000D01*
X104554372Y-92642602D01*
X104725512Y-92471462D01*
X104725512Y-93625000D01*
X104822527Y-94112725D01*
X104830729Y-94125000D01*
X103375951Y-94125000D01*
X103333119Y-94096381D01*
X103433000Y-93996500D01*
X103433000Y-93739225D01*
X103317602Y-93460628D01*
X103104373Y-93247399D01*
X102825776Y-93132000D01*
X102093500Y-93132000D01*
X101904000Y-93321500D01*
X101904000Y-93885512D01*
X101896000Y-93885512D01*
X101896000Y-93321500D01*
X101706500Y-93132000D01*
X100974224Y-93132000D01*
X100695627Y-93247399D01*
X100482398Y-93460628D01*
X100367000Y-93739225D01*
X100367000Y-93996500D01*
X100466881Y-94096381D01*
X100223801Y-94258801D01*
X100006521Y-94583985D01*
X99998802Y-94565350D01*
X99863998Y-94430546D01*
X99876515Y-94418028D01*
X99991318Y-94341319D01*
X100095100Y-94186000D01*
X100219382Y-93999999D01*
X100295221Y-93886498D01*
X100375000Y-93485422D01*
X100375000Y-93485418D01*
X100401936Y-93350001D01*
X100375000Y-93214584D01*
X100375000Y-91868931D01*
X100551199Y-91751199D01*
X100589752Y-91693500D01*
X102117000Y-91693500D01*
X102117000Y-92150776D01*
X102232399Y-92429373D01*
X102445628Y-92642602D01*
X102724225Y-92758000D01*
X103306500Y-92758000D01*
X103496000Y-92568500D01*
X103496000Y-91504000D01*
X102306500Y-91504000D01*
X102117000Y-91693500D01*
X100589752Y-91693500D01*
X100827473Y-91337725D01*
X100924488Y-90850000D01*
X100924488Y-90150000D01*
X100827473Y-89662275D01*
X100752453Y-89550000D01*
X100827473Y-89437725D01*
X100924488Y-88950000D01*
X100924488Y-88424488D01*
X101339882Y-88424488D01*
X101551143Y-88934518D01*
X101551143Y-88934518D01*
G37*
X101551143Y-88934518D02*
X101548064Y-88950000D01*
X101575000Y-89085417D01*
X101575000Y-89085422D01*
X101600512Y-89213679D01*
X101600512Y-90000000D01*
X101697527Y-90487725D01*
X101973801Y-90901199D01*
X102117000Y-90996881D01*
X102117000Y-91306500D01*
X102306500Y-91496000D01*
X103496000Y-91496000D01*
X103496000Y-91476000D01*
X103504000Y-91476000D01*
X103504000Y-91496000D01*
X104693500Y-91496000D01*
X104883000Y-91306500D01*
X104883000Y-90996881D01*
X105026199Y-90901199D01*
X105043705Y-90875000D01*
X106041548Y-90875000D01*
X106065350Y-90898802D01*
X106552321Y-91100512D01*
X106000000Y-91100512D01*
X105512275Y-91197527D01*
X105098801Y-91473801D01*
X104883000Y-91796771D01*
X104883000Y-91693500D01*
X104693500Y-91504000D01*
X103504000Y-91504000D01*
X103504000Y-92568500D01*
X103693500Y-92758000D01*
X104275775Y-92758000D01*
X104554372Y-92642602D01*
X104725512Y-92471462D01*
X104725512Y-93625000D01*
X104822527Y-94112725D01*
X104830729Y-94125000D01*
X103375951Y-94125000D01*
X103333119Y-94096381D01*
X103433000Y-93996500D01*
X103433000Y-93739225D01*
X103317602Y-93460628D01*
X103104373Y-93247399D01*
X102825776Y-93132000D01*
X102093500Y-93132000D01*
X101904000Y-93321500D01*
X101904000Y-93885512D01*
X101896000Y-93885512D01*
X101896000Y-93321500D01*
X101706500Y-93132000D01*
X100974224Y-93132000D01*
X100695627Y-93247399D01*
X100482398Y-93460628D01*
X100367000Y-93739225D01*
X100367000Y-93996500D01*
X100466881Y-94096381D01*
X100223801Y-94258801D01*
X100006521Y-94583985D01*
X99998802Y-94565350D01*
X99863998Y-94430546D01*
X99876515Y-94418028D01*
X99991318Y-94341319D01*
X100095100Y-94186000D01*
X100219382Y-93999999D01*
X100295221Y-93886498D01*
X100375000Y-93485422D01*
X100375000Y-93485418D01*
X100401936Y-93350001D01*
X100375000Y-93214584D01*
X100375000Y-91868931D01*
X100551199Y-91751199D01*
X100589752Y-91693500D01*
X102117000Y-91693500D01*
X102117000Y-92150776D01*
X102232399Y-92429373D01*
X102445628Y-92642602D01*
X102724225Y-92758000D01*
X103306500Y-92758000D01*
X103496000Y-92568500D01*
X103496000Y-91504000D01*
X102306500Y-91504000D01*
X102117000Y-91693500D01*
X100589752Y-91693500D01*
X100827473Y-91337725D01*
X100924488Y-90850000D01*
X100924488Y-90150000D01*
X100827473Y-89662275D01*
X100752453Y-89550000D01*
X100827473Y-89437725D01*
X100924488Y-88950000D01*
X100924488Y-88424488D01*
X101339882Y-88424488D01*
X101551143Y-88934518D01*
G36*
X94581500Y-86496000D02*
X95496000Y-86496000D01*
X95496000Y-86476000D01*
X95504000Y-86476000D01*
X95504000Y-86496000D01*
X95524000Y-86496000D01*
X95524000Y-86504000D01*
X95504000Y-86504000D01*
X95504000Y-87718500D01*
X95693500Y-87908000D01*
X96000776Y-87908000D01*
X96041772Y-87891019D01*
X96148801Y-88051199D01*
X96562275Y-88327473D01*
X97050000Y-88424488D01*
X97075512Y-88424488D01*
X97075512Y-88950000D01*
X97172527Y-89437725D01*
X97247547Y-89550000D01*
X97172527Y-89662275D01*
X97075512Y-90150000D01*
X97075512Y-90850000D01*
X97172527Y-91337725D01*
X97448801Y-91751199D01*
X97625001Y-91868932D01*
X97625000Y-92685132D01*
X97275000Y-92615512D01*
X96397717Y-92615512D01*
X96310000Y-92598064D01*
X96222283Y-92615512D01*
X95725000Y-92615512D01*
X95237275Y-92712527D01*
X94975542Y-92887411D01*
X94938502Y-92894779D01*
X94862401Y-92945628D01*
X94598485Y-93121971D01*
X94598484Y-93121972D01*
X94483681Y-93198681D01*
X94406972Y-93313484D01*
X93574488Y-94145968D01*
X93574488Y-93350000D01*
X93526083Y-93106655D01*
X93600000Y-92928205D01*
X93600000Y-92271795D01*
X93348802Y-91665350D01*
X93325000Y-91641548D01*
X93325000Y-91085416D01*
X93351936Y-90949999D01*
X93325000Y-90814582D01*
X93325000Y-90814578D01*
X93245221Y-90413502D01*
X93145815Y-90264731D01*
X93018029Y-90073485D01*
X93018026Y-90073482D01*
X92941318Y-89958681D01*
X92826518Y-89881974D01*
X91444543Y-88500000D01*
X93251043Y-86693500D01*
X94392000Y-86693500D01*
X94392000Y-87300775D01*
X94507398Y-87579372D01*
X94720627Y-87792601D01*
X94999224Y-87908000D01*
X95306500Y-87908000D01*
X95496000Y-87718500D01*
X95496000Y-86504000D01*
X94581500Y-86504000D01*
X94392000Y-86693500D01*
X93251043Y-86693500D01*
X93569544Y-86375000D01*
X94460500Y-86375000D01*
X94581500Y-86496000D01*
X94581500Y-86496000D01*
G37*
X94581500Y-86496000D02*
X95496000Y-86496000D01*
X95496000Y-86476000D01*
X95504000Y-86476000D01*
X95504000Y-86496000D01*
X95524000Y-86496000D01*
X95524000Y-86504000D01*
X95504000Y-86504000D01*
X95504000Y-87718500D01*
X95693500Y-87908000D01*
X96000776Y-87908000D01*
X96041772Y-87891019D01*
X96148801Y-88051199D01*
X96562275Y-88327473D01*
X97050000Y-88424488D01*
X97075512Y-88424488D01*
X97075512Y-88950000D01*
X97172527Y-89437725D01*
X97247547Y-89550000D01*
X97172527Y-89662275D01*
X97075512Y-90150000D01*
X97075512Y-90850000D01*
X97172527Y-91337725D01*
X97448801Y-91751199D01*
X97625001Y-91868932D01*
X97625000Y-92685132D01*
X97275000Y-92615512D01*
X96397717Y-92615512D01*
X96310000Y-92598064D01*
X96222283Y-92615512D01*
X95725000Y-92615512D01*
X95237275Y-92712527D01*
X94975542Y-92887411D01*
X94938502Y-92894779D01*
X94862401Y-92945628D01*
X94598485Y-93121971D01*
X94598484Y-93121972D01*
X94483681Y-93198681D01*
X94406972Y-93313484D01*
X93574488Y-94145968D01*
X93574488Y-93350000D01*
X93526083Y-93106655D01*
X93600000Y-92928205D01*
X93600000Y-92271795D01*
X93348802Y-91665350D01*
X93325000Y-91641548D01*
X93325000Y-91085416D01*
X93351936Y-90949999D01*
X93325000Y-90814582D01*
X93325000Y-90814578D01*
X93245221Y-90413502D01*
X93145815Y-90264731D01*
X93018029Y-90073485D01*
X93018026Y-90073482D01*
X92941318Y-89958681D01*
X92826518Y-89881974D01*
X91444543Y-88500000D01*
X93251043Y-86693500D01*
X94392000Y-86693500D01*
X94392000Y-87300775D01*
X94507398Y-87579372D01*
X94720627Y-87792601D01*
X94999224Y-87908000D01*
X95306500Y-87908000D01*
X95496000Y-87718500D01*
X95496000Y-86504000D01*
X94581500Y-86504000D01*
X94392000Y-86693500D01*
X93251043Y-86693500D01*
X93569544Y-86375000D01*
X94460500Y-86375000D01*
X94581500Y-86496000D01*
G36*
X88930457Y-87125000D02*
X84661002Y-87125000D01*
X84365916Y-86829914D01*
X83641857Y-86530000D01*
X82858143Y-86530000D01*
X82554035Y-86655965D01*
X82680000Y-86351857D01*
X82680000Y-85568143D01*
X82579287Y-85325000D01*
X90730456Y-85325000D01*
X88930457Y-87125000D01*
X88930457Y-87125000D01*
G37*
X88930457Y-87125000D02*
X84661002Y-87125000D01*
X84365916Y-86829914D01*
X83641857Y-86530000D01*
X82858143Y-86530000D01*
X82554035Y-86655965D01*
X82680000Y-86351857D01*
X82680000Y-85568143D01*
X82579287Y-85325000D01*
X90730456Y-85325000D01*
X88930457Y-87125000D01*
G04 #@! TO.N,+12V*
G36*
X141675000Y-146250000D02*
X137694543Y-146250000D01*
X137128172Y-145683629D01*
X137401199Y-145501199D01*
X137496881Y-145358000D01*
X137906500Y-145358000D01*
X138096000Y-145168500D01*
X138096000Y-144004000D01*
X138104000Y-144004000D01*
X138104000Y-145168500D01*
X138293500Y-145358000D01*
X138850776Y-145358000D01*
X139129373Y-145242601D01*
X139342602Y-145029372D01*
X139458000Y-144750775D01*
X139458000Y-144193500D01*
X139268500Y-144004000D01*
X138104000Y-144004000D01*
X138096000Y-144004000D01*
X138076000Y-144004000D01*
X138076000Y-143996000D01*
X138096000Y-143996000D01*
X138096000Y-142831500D01*
X138104000Y-142831500D01*
X138104000Y-143996000D01*
X139268500Y-143996000D01*
X139458000Y-143806500D01*
X139458000Y-143249225D01*
X139342602Y-142970628D01*
X139129373Y-142757399D01*
X138850776Y-142642000D01*
X138293500Y-142642000D01*
X138104000Y-142831500D01*
X138096000Y-142831500D01*
X137906500Y-142642000D01*
X137496881Y-142642000D01*
X137401199Y-142498801D01*
X136987725Y-142222527D01*
X136500000Y-142125512D01*
X135300000Y-142125512D01*
X134889551Y-142207156D01*
X134837725Y-142172527D01*
X134350000Y-142075512D01*
X133650000Y-142075512D01*
X133162275Y-142172527D01*
X133050000Y-142247547D01*
X132937725Y-142172527D01*
X132450000Y-142075512D01*
X131750000Y-142075512D01*
X131375000Y-142150104D01*
X131375000Y-136569543D01*
X135876515Y-132068028D01*
X135991318Y-131991319D01*
X136068029Y-131876514D01*
X136295221Y-131536499D01*
X136325578Y-131383883D01*
X136375000Y-131135422D01*
X136375000Y-131135418D01*
X136400345Y-131008000D01*
X137806500Y-131008000D01*
X137996000Y-130818500D01*
X137996000Y-129004000D01*
X138004000Y-129004000D01*
X138004000Y-130818500D01*
X138193500Y-131008000D01*
X140150776Y-131008000D01*
X140429373Y-130892601D01*
X140642602Y-130679372D01*
X140758000Y-130400775D01*
X140758000Y-129193500D01*
X140568500Y-129004000D01*
X138004000Y-129004000D01*
X137996000Y-129004000D01*
X137976000Y-129004000D01*
X137976000Y-128996000D01*
X137996000Y-128996000D01*
X137996000Y-127181500D01*
X138004000Y-127181500D01*
X138004000Y-128996000D01*
X140568500Y-128996000D01*
X140758000Y-128806500D01*
X140758000Y-127599225D01*
X140642602Y-127320628D01*
X140429373Y-127107399D01*
X140150776Y-126992000D01*
X138193500Y-126992000D01*
X138004000Y-127181500D01*
X137996000Y-127181500D01*
X137806500Y-126992000D01*
X136375000Y-126992000D01*
X136375000Y-116636275D01*
X137369382Y-116636275D01*
X137449669Y-116952463D01*
X138085454Y-117243845D01*
X138784350Y-117269743D01*
X139439956Y-117026213D01*
X139550331Y-116952463D01*
X139630618Y-116636275D01*
X138500000Y-115505657D01*
X137369382Y-116636275D01*
X136375000Y-116636275D01*
X136375000Y-115784350D01*
X136730257Y-115784350D01*
X136973787Y-116439956D01*
X137047537Y-116550331D01*
X137363725Y-116630618D01*
X138494343Y-115500000D01*
X138505657Y-115500000D01*
X139636275Y-116630618D01*
X139952463Y-116550331D01*
X140243845Y-115914546D01*
X140269743Y-115215650D01*
X140026213Y-114560044D01*
X139952463Y-114449669D01*
X139636275Y-114369382D01*
X138505657Y-115500000D01*
X138494343Y-115500000D01*
X137363725Y-114369382D01*
X137047537Y-114449669D01*
X136756155Y-115085454D01*
X136730257Y-115784350D01*
X136375000Y-115784350D01*
X136375000Y-114363725D01*
X137369382Y-114363725D01*
X138500000Y-115494343D01*
X139630618Y-114363725D01*
X139550331Y-114047537D01*
X138914546Y-113756155D01*
X138215650Y-113730257D01*
X137560044Y-113973787D01*
X137449669Y-114047537D01*
X137369382Y-114363725D01*
X136375000Y-114363725D01*
X136375000Y-111749330D01*
X136592542Y-112274523D01*
X137225477Y-112907458D01*
X138052447Y-113250000D01*
X138947553Y-113250000D01*
X139774523Y-112907458D01*
X140407458Y-112274523D01*
X140750000Y-111447553D01*
X140750000Y-110552447D01*
X140417616Y-109750000D01*
X141675001Y-109750000D01*
X141675000Y-146250000D01*
X141675000Y-146250000D01*
G37*
X141675000Y-146250000D02*
X137694543Y-146250000D01*
X137128172Y-145683629D01*
X137401199Y-145501199D01*
X137496881Y-145358000D01*
X137906500Y-145358000D01*
X138096000Y-145168500D01*
X138096000Y-144004000D01*
X138104000Y-144004000D01*
X138104000Y-145168500D01*
X138293500Y-145358000D01*
X138850776Y-145358000D01*
X139129373Y-145242601D01*
X139342602Y-145029372D01*
X139458000Y-144750775D01*
X139458000Y-144193500D01*
X139268500Y-144004000D01*
X138104000Y-144004000D01*
X138096000Y-144004000D01*
X138076000Y-144004000D01*
X138076000Y-143996000D01*
X138096000Y-143996000D01*
X138096000Y-142831500D01*
X138104000Y-142831500D01*
X138104000Y-143996000D01*
X139268500Y-143996000D01*
X139458000Y-143806500D01*
X139458000Y-143249225D01*
X139342602Y-142970628D01*
X139129373Y-142757399D01*
X138850776Y-142642000D01*
X138293500Y-142642000D01*
X138104000Y-142831500D01*
X138096000Y-142831500D01*
X137906500Y-142642000D01*
X137496881Y-142642000D01*
X137401199Y-142498801D01*
X136987725Y-142222527D01*
X136500000Y-142125512D01*
X135300000Y-142125512D01*
X134889551Y-142207156D01*
X134837725Y-142172527D01*
X134350000Y-142075512D01*
X133650000Y-142075512D01*
X133162275Y-142172527D01*
X133050000Y-142247547D01*
X132937725Y-142172527D01*
X132450000Y-142075512D01*
X131750000Y-142075512D01*
X131375000Y-142150104D01*
X131375000Y-136569543D01*
X135876515Y-132068028D01*
X135991318Y-131991319D01*
X136068029Y-131876514D01*
X136295221Y-131536499D01*
X136325578Y-131383883D01*
X136375000Y-131135422D01*
X136375000Y-131135418D01*
X136400345Y-131008000D01*
X137806500Y-131008000D01*
X137996000Y-130818500D01*
X137996000Y-129004000D01*
X138004000Y-129004000D01*
X138004000Y-130818500D01*
X138193500Y-131008000D01*
X140150776Y-131008000D01*
X140429373Y-130892601D01*
X140642602Y-130679372D01*
X140758000Y-130400775D01*
X140758000Y-129193500D01*
X140568500Y-129004000D01*
X138004000Y-129004000D01*
X137996000Y-129004000D01*
X137976000Y-129004000D01*
X137976000Y-128996000D01*
X137996000Y-128996000D01*
X137996000Y-127181500D01*
X138004000Y-127181500D01*
X138004000Y-128996000D01*
X140568500Y-128996000D01*
X140758000Y-128806500D01*
X140758000Y-127599225D01*
X140642602Y-127320628D01*
X140429373Y-127107399D01*
X140150776Y-126992000D01*
X138193500Y-126992000D01*
X138004000Y-127181500D01*
X137996000Y-127181500D01*
X137806500Y-126992000D01*
X136375000Y-126992000D01*
X136375000Y-116636275D01*
X137369382Y-116636275D01*
X137449669Y-116952463D01*
X138085454Y-117243845D01*
X138784350Y-117269743D01*
X139439956Y-117026213D01*
X139550331Y-116952463D01*
X139630618Y-116636275D01*
X138500000Y-115505657D01*
X137369382Y-116636275D01*
X136375000Y-116636275D01*
X136375000Y-115784350D01*
X136730257Y-115784350D01*
X136973787Y-116439956D01*
X137047537Y-116550331D01*
X137363725Y-116630618D01*
X138494343Y-115500000D01*
X138505657Y-115500000D01*
X139636275Y-116630618D01*
X139952463Y-116550331D01*
X140243845Y-115914546D01*
X140269743Y-115215650D01*
X140026213Y-114560044D01*
X139952463Y-114449669D01*
X139636275Y-114369382D01*
X138505657Y-115500000D01*
X138494343Y-115500000D01*
X137363725Y-114369382D01*
X137047537Y-114449669D01*
X136756155Y-115085454D01*
X136730257Y-115784350D01*
X136375000Y-115784350D01*
X136375000Y-114363725D01*
X137369382Y-114363725D01*
X138500000Y-115494343D01*
X139630618Y-114363725D01*
X139550331Y-114047537D01*
X138914546Y-113756155D01*
X138215650Y-113730257D01*
X137560044Y-113973787D01*
X137449669Y-114047537D01*
X137369382Y-114363725D01*
X136375000Y-114363725D01*
X136375000Y-111749330D01*
X136592542Y-112274523D01*
X137225477Y-112907458D01*
X138052447Y-113250000D01*
X138947553Y-113250000D01*
X139774523Y-112907458D01*
X140407458Y-112274523D01*
X140750000Y-111447553D01*
X140750000Y-110552447D01*
X140417616Y-109750000D01*
X141675001Y-109750000D01*
X141675000Y-146250000D01*
G36*
X123125000Y-125430456D02*
X121623485Y-126931972D01*
X121508682Y-127008681D01*
X121431973Y-127123484D01*
X121431971Y-127123486D01*
X121204780Y-127463502D01*
X121098064Y-128000000D01*
X121125001Y-128135421D01*
X121125000Y-129430456D01*
X118805456Y-131750000D01*
X114194544Y-131750000D01*
X114376516Y-131568028D01*
X114491319Y-131491319D01*
X114568030Y-131376514D01*
X114795220Y-131036499D01*
X114795221Y-131036498D01*
X114875000Y-130635422D01*
X114875000Y-130635418D01*
X114901936Y-130500001D01*
X114875000Y-130364584D01*
X114875000Y-114135422D01*
X114901937Y-114000000D01*
X114795221Y-113463502D01*
X114568029Y-113123486D01*
X114568028Y-113123485D01*
X114491318Y-113008681D01*
X114376515Y-112931972D01*
X114194543Y-112750000D01*
X122500000Y-112750000D01*
X122595671Y-112730970D01*
X122676777Y-112676777D01*
X123125001Y-112228553D01*
X123125000Y-125430456D01*
X123125000Y-125430456D01*
G37*
X123125000Y-125430456D02*
X121623485Y-126931972D01*
X121508682Y-127008681D01*
X121431973Y-127123484D01*
X121431971Y-127123486D01*
X121204780Y-127463502D01*
X121098064Y-128000000D01*
X121125001Y-128135421D01*
X121125000Y-129430456D01*
X118805456Y-131750000D01*
X114194544Y-131750000D01*
X114376516Y-131568028D01*
X114491319Y-131491319D01*
X114568030Y-131376514D01*
X114795220Y-131036499D01*
X114795221Y-131036498D01*
X114875000Y-130635422D01*
X114875000Y-130635418D01*
X114901936Y-130500001D01*
X114875000Y-130364584D01*
X114875000Y-114135422D01*
X114901937Y-114000000D01*
X114795221Y-113463502D01*
X114568029Y-113123486D01*
X114568028Y-113123485D01*
X114491318Y-113008681D01*
X114376515Y-112931972D01*
X114194543Y-112750000D01*
X122500000Y-112750000D01*
X122595671Y-112730970D01*
X122676777Y-112676777D01*
X123125001Y-112228553D01*
X123125000Y-125430456D01*
G36*
X111125001Y-112864578D02*
X111098064Y-113000000D01*
X111204780Y-113536498D01*
X111431971Y-113876514D01*
X111431973Y-113876516D01*
X111502455Y-113982000D01*
X107133500Y-113982000D01*
X106944000Y-114171500D01*
X106944000Y-122236000D01*
X106964000Y-122236000D01*
X106964000Y-122244000D01*
X106944000Y-122244000D01*
X106944000Y-123775982D01*
X106936000Y-123775677D01*
X106936000Y-122244000D01*
X101371500Y-122244000D01*
X101182000Y-122433500D01*
X101182000Y-129890775D01*
X101297398Y-130169372D01*
X101510627Y-130382601D01*
X101789224Y-130498000D01*
X106746500Y-130498000D01*
X106936000Y-130308500D01*
X106936000Y-130296401D01*
X106944000Y-130296706D01*
X106944000Y-130308500D01*
X107133500Y-130498000D01*
X111557456Y-130498000D01*
X110930457Y-131125000D01*
X100635418Y-131125000D01*
X100500000Y-131098064D01*
X100364582Y-131125000D01*
X100364578Y-131125000D01*
X99963502Y-131204779D01*
X99508681Y-131508681D01*
X99431969Y-131623489D01*
X99305458Y-131750000D01*
X78603554Y-131750000D01*
X77250000Y-130396446D01*
X77250000Y-122433500D01*
X83182000Y-122433500D01*
X83182000Y-129890775D01*
X83297398Y-130169372D01*
X83510627Y-130382601D01*
X83789224Y-130498000D01*
X88746500Y-130498000D01*
X88936000Y-130308500D01*
X88936000Y-130296401D01*
X88944000Y-130296706D01*
X88944000Y-130308500D01*
X89133500Y-130498000D01*
X94090776Y-130498000D01*
X94369373Y-130382601D01*
X94582602Y-130169372D01*
X94698000Y-129890775D01*
X94698000Y-122433500D01*
X94508500Y-122244000D01*
X88944000Y-122244000D01*
X88944000Y-123775982D01*
X88936000Y-123775677D01*
X88936000Y-122244000D01*
X83371500Y-122244000D01*
X83182000Y-122433500D01*
X77250000Y-122433500D01*
X77250000Y-121849760D01*
X77487725Y-121802473D01*
X77901199Y-121526199D01*
X77996881Y-121383000D01*
X78306500Y-121383000D01*
X78496000Y-121193500D01*
X78496000Y-120004000D01*
X78504000Y-120004000D01*
X78504000Y-121193500D01*
X78693500Y-121383000D01*
X79150776Y-121383000D01*
X79429373Y-121267601D01*
X79642602Y-121054372D01*
X79758000Y-120775775D01*
X79758000Y-120193500D01*
X79568500Y-120004000D01*
X78504000Y-120004000D01*
X78496000Y-120004000D01*
X78476000Y-120004000D01*
X78476000Y-119996000D01*
X78496000Y-119996000D01*
X78496000Y-118806500D01*
X78306500Y-118617000D01*
X77996881Y-118617000D01*
X77901199Y-118473801D01*
X77487725Y-118197527D01*
X77250000Y-118150240D01*
X77250000Y-117493500D01*
X78392000Y-117493500D01*
X78392000Y-118200775D01*
X78507398Y-118479372D01*
X78669263Y-118641237D01*
X78504000Y-118806500D01*
X78504000Y-119996000D01*
X79568500Y-119996000D01*
X79758000Y-119806500D01*
X79758000Y-119224225D01*
X79642602Y-118945628D01*
X79504974Y-118808000D01*
X79956500Y-118808000D01*
X80146000Y-118618500D01*
X80146000Y-117304000D01*
X80154000Y-117304000D01*
X80154000Y-118618500D01*
X80343500Y-118808000D01*
X81300776Y-118808000D01*
X81579373Y-118692601D01*
X81792602Y-118479372D01*
X81908000Y-118200775D01*
X81908000Y-117493500D01*
X81718500Y-117304000D01*
X80154000Y-117304000D01*
X80146000Y-117304000D01*
X78581500Y-117304000D01*
X78392000Y-117493500D01*
X77250000Y-117493500D01*
X77250000Y-117000000D01*
X78392000Y-117000000D01*
X78392000Y-117106500D01*
X78581500Y-117296000D01*
X80146000Y-117296000D01*
X80146000Y-117276000D01*
X80154000Y-117276000D01*
X80154000Y-117296000D01*
X81718500Y-117296000D01*
X81908000Y-117106500D01*
X81908000Y-116746881D01*
X82051199Y-116651199D01*
X82327473Y-116237725D01*
X82424488Y-115750000D01*
X82424488Y-114589225D01*
X83182000Y-114589225D01*
X83182000Y-122046500D01*
X83371500Y-122236000D01*
X88936000Y-122236000D01*
X88936000Y-114171500D01*
X88944000Y-114171500D01*
X88944000Y-122236000D01*
X94508500Y-122236000D01*
X94698000Y-122046500D01*
X94698000Y-114589225D01*
X101182000Y-114589225D01*
X101182000Y-122046500D01*
X101371500Y-122236000D01*
X106936000Y-122236000D01*
X106936000Y-114171500D01*
X106746500Y-113982000D01*
X101789224Y-113982000D01*
X101510627Y-114097399D01*
X101297398Y-114310628D01*
X101182000Y-114589225D01*
X94698000Y-114589225D01*
X94582602Y-114310628D01*
X94369373Y-114097399D01*
X94090776Y-113982000D01*
X89133500Y-113982000D01*
X88944000Y-114171500D01*
X88936000Y-114171500D01*
X88746500Y-113982000D01*
X83789224Y-113982000D01*
X83510627Y-114097399D01*
X83297398Y-114310628D01*
X83182000Y-114589225D01*
X82424488Y-114589225D01*
X82424488Y-114250000D01*
X82344923Y-113850000D01*
X82424488Y-113450000D01*
X82424488Y-112750000D01*
X111125001Y-112750000D01*
X111125001Y-112864578D01*
X111125001Y-112864578D01*
G37*
X111125001Y-112864578D02*
X111098064Y-113000000D01*
X111204780Y-113536498D01*
X111431971Y-113876514D01*
X111431973Y-113876516D01*
X111502455Y-113982000D01*
X107133500Y-113982000D01*
X106944000Y-114171500D01*
X106944000Y-122236000D01*
X106964000Y-122236000D01*
X106964000Y-122244000D01*
X106944000Y-122244000D01*
X106944000Y-123775982D01*
X106936000Y-123775677D01*
X106936000Y-122244000D01*
X101371500Y-122244000D01*
X101182000Y-122433500D01*
X101182000Y-129890775D01*
X101297398Y-130169372D01*
X101510627Y-130382601D01*
X101789224Y-130498000D01*
X106746500Y-130498000D01*
X106936000Y-130308500D01*
X106936000Y-130296401D01*
X106944000Y-130296706D01*
X106944000Y-130308500D01*
X107133500Y-130498000D01*
X111557456Y-130498000D01*
X110930457Y-131125000D01*
X100635418Y-131125000D01*
X100500000Y-131098064D01*
X100364582Y-131125000D01*
X100364578Y-131125000D01*
X99963502Y-131204779D01*
X99508681Y-131508681D01*
X99431969Y-131623489D01*
X99305458Y-131750000D01*
X78603554Y-131750000D01*
X77250000Y-130396446D01*
X77250000Y-122433500D01*
X83182000Y-122433500D01*
X83182000Y-129890775D01*
X83297398Y-130169372D01*
X83510627Y-130382601D01*
X83789224Y-130498000D01*
X88746500Y-130498000D01*
X88936000Y-130308500D01*
X88936000Y-130296401D01*
X88944000Y-130296706D01*
X88944000Y-130308500D01*
X89133500Y-130498000D01*
X94090776Y-130498000D01*
X94369373Y-130382601D01*
X94582602Y-130169372D01*
X94698000Y-129890775D01*
X94698000Y-122433500D01*
X94508500Y-122244000D01*
X88944000Y-122244000D01*
X88944000Y-123775982D01*
X88936000Y-123775677D01*
X88936000Y-122244000D01*
X83371500Y-122244000D01*
X83182000Y-122433500D01*
X77250000Y-122433500D01*
X77250000Y-121849760D01*
X77487725Y-121802473D01*
X77901199Y-121526199D01*
X77996881Y-121383000D01*
X78306500Y-121383000D01*
X78496000Y-121193500D01*
X78496000Y-120004000D01*
X78504000Y-120004000D01*
X78504000Y-121193500D01*
X78693500Y-121383000D01*
X79150776Y-121383000D01*
X79429373Y-121267601D01*
X79642602Y-121054372D01*
X79758000Y-120775775D01*
X79758000Y-120193500D01*
X79568500Y-120004000D01*
X78504000Y-120004000D01*
X78496000Y-120004000D01*
X78476000Y-120004000D01*
X78476000Y-119996000D01*
X78496000Y-119996000D01*
X78496000Y-118806500D01*
X78306500Y-118617000D01*
X77996881Y-118617000D01*
X77901199Y-118473801D01*
X77487725Y-118197527D01*
X77250000Y-118150240D01*
X77250000Y-117493500D01*
X78392000Y-117493500D01*
X78392000Y-118200775D01*
X78507398Y-118479372D01*
X78669263Y-118641237D01*
X78504000Y-118806500D01*
X78504000Y-119996000D01*
X79568500Y-119996000D01*
X79758000Y-119806500D01*
X79758000Y-119224225D01*
X79642602Y-118945628D01*
X79504974Y-118808000D01*
X79956500Y-118808000D01*
X80146000Y-118618500D01*
X80146000Y-117304000D01*
X80154000Y-117304000D01*
X80154000Y-118618500D01*
X80343500Y-118808000D01*
X81300776Y-118808000D01*
X81579373Y-118692601D01*
X81792602Y-118479372D01*
X81908000Y-118200775D01*
X81908000Y-117493500D01*
X81718500Y-117304000D01*
X80154000Y-117304000D01*
X80146000Y-117304000D01*
X78581500Y-117304000D01*
X78392000Y-117493500D01*
X77250000Y-117493500D01*
X77250000Y-117000000D01*
X78392000Y-117000000D01*
X78392000Y-117106500D01*
X78581500Y-117296000D01*
X80146000Y-117296000D01*
X80146000Y-117276000D01*
X80154000Y-117276000D01*
X80154000Y-117296000D01*
X81718500Y-117296000D01*
X81908000Y-117106500D01*
X81908000Y-116746881D01*
X82051199Y-116651199D01*
X82327473Y-116237725D01*
X82424488Y-115750000D01*
X82424488Y-114589225D01*
X83182000Y-114589225D01*
X83182000Y-122046500D01*
X83371500Y-122236000D01*
X88936000Y-122236000D01*
X88936000Y-114171500D01*
X88944000Y-114171500D01*
X88944000Y-122236000D01*
X94508500Y-122236000D01*
X94698000Y-122046500D01*
X94698000Y-114589225D01*
X101182000Y-114589225D01*
X101182000Y-122046500D01*
X101371500Y-122236000D01*
X106936000Y-122236000D01*
X106936000Y-114171500D01*
X106746500Y-113982000D01*
X101789224Y-113982000D01*
X101510627Y-114097399D01*
X101297398Y-114310628D01*
X101182000Y-114589225D01*
X94698000Y-114589225D01*
X94582602Y-114310628D01*
X94369373Y-114097399D01*
X94090776Y-113982000D01*
X89133500Y-113982000D01*
X88944000Y-114171500D01*
X88936000Y-114171500D01*
X88746500Y-113982000D01*
X83789224Y-113982000D01*
X83510627Y-114097399D01*
X83297398Y-114310628D01*
X83182000Y-114589225D01*
X82424488Y-114589225D01*
X82424488Y-114250000D01*
X82344923Y-113850000D01*
X82424488Y-113450000D01*
X82424488Y-112750000D01*
X111125001Y-112750000D01*
X111125001Y-112864578D01*
G36*
X129750000Y-110552447D02*
X129750000Y-111447553D01*
X130092542Y-112274523D01*
X130725477Y-112907458D01*
X131552447Y-113250000D01*
X132447553Y-113250000D01*
X132625000Y-113176499D01*
X132625000Y-113852607D01*
X132414546Y-113756155D01*
X131715650Y-113730257D01*
X131060044Y-113973787D01*
X130949669Y-114047537D01*
X130869382Y-114363725D01*
X132000000Y-115494343D01*
X132014142Y-115480201D01*
X132019799Y-115485858D01*
X132005657Y-115500000D01*
X132019799Y-115514142D01*
X132014142Y-115519799D01*
X132000000Y-115505657D01*
X130869382Y-116636275D01*
X130949669Y-116952463D01*
X131585454Y-117243845D01*
X132284350Y-117269743D01*
X132625000Y-117143206D01*
X132625001Y-126274864D01*
X132500000Y-126250000D01*
X127375000Y-126250000D01*
X127375000Y-115784350D01*
X130230257Y-115784350D01*
X130473787Y-116439956D01*
X130547537Y-116550331D01*
X130863725Y-116630618D01*
X131994343Y-115500000D01*
X130863725Y-114369382D01*
X130547537Y-114449669D01*
X130256155Y-115085454D01*
X130230257Y-115784350D01*
X127375000Y-115784350D01*
X127375000Y-109750000D01*
X130082384Y-109750000D01*
X129750000Y-110552447D01*
X129750000Y-110552447D01*
G37*
X129750000Y-110552447D02*
X129750000Y-111447553D01*
X130092542Y-112274523D01*
X130725477Y-112907458D01*
X131552447Y-113250000D01*
X132447553Y-113250000D01*
X132625000Y-113176499D01*
X132625000Y-113852607D01*
X132414546Y-113756155D01*
X131715650Y-113730257D01*
X131060044Y-113973787D01*
X130949669Y-114047537D01*
X130869382Y-114363725D01*
X132000000Y-115494343D01*
X132014142Y-115480201D01*
X132019799Y-115485858D01*
X132005657Y-115500000D01*
X132019799Y-115514142D01*
X132014142Y-115519799D01*
X132000000Y-115505657D01*
X130869382Y-116636275D01*
X130949669Y-116952463D01*
X131585454Y-117243845D01*
X132284350Y-117269743D01*
X132625000Y-117143206D01*
X132625001Y-126274864D01*
X132500000Y-126250000D01*
X127375000Y-126250000D01*
X127375000Y-115784350D01*
X130230257Y-115784350D01*
X130473787Y-116439956D01*
X130547537Y-116550331D01*
X130863725Y-116630618D01*
X131994343Y-115500000D01*
X130863725Y-114369382D01*
X130547537Y-114449669D01*
X130256155Y-115085454D01*
X130230257Y-115784350D01*
X127375000Y-115784350D01*
X127375000Y-109750000D01*
X130082384Y-109750000D01*
X129750000Y-110552447D01*
G04 #@! TO.N,GND*
G36*
X127242000Y-128806500D02*
X127431500Y-128996000D01*
X129996000Y-128996000D01*
X129996000Y-128976000D01*
X130004000Y-128976000D01*
X130004000Y-128996000D01*
X130024000Y-128996000D01*
X130024000Y-129004000D01*
X130004000Y-129004000D01*
X130004000Y-130818500D01*
X130193500Y-131008000D01*
X131047457Y-131008000D01*
X128123485Y-133931972D01*
X128008681Y-134008682D01*
X127704779Y-134463503D01*
X127625000Y-134864579D01*
X127625000Y-134864583D01*
X127598064Y-135000000D01*
X127625000Y-135135417D01*
X127625000Y-139021446D01*
X127351909Y-139294537D01*
X126727275Y-139606854D01*
X126689765Y-139550716D01*
X126217717Y-139287940D01*
X125235885Y-140269772D01*
X125216086Y-140278257D01*
X126212060Y-139282283D01*
X125949284Y-138810235D01*
X124771575Y-138269023D01*
X123476401Y-138219697D01*
X122260939Y-138669768D01*
X122050716Y-138810235D01*
X121787940Y-139282283D01*
X123513566Y-141007909D01*
X123505646Y-141011303D01*
X121782283Y-139287940D01*
X121310235Y-139550716D01*
X120769023Y-140728425D01*
X120719697Y-142023599D01*
X120777758Y-142180398D01*
X119586474Y-142690948D01*
X117364441Y-139580102D01*
X125376518Y-131568026D01*
X125491318Y-131491319D01*
X125568026Y-131376518D01*
X125568029Y-131376515D01*
X125795220Y-131036499D01*
X125795221Y-131036498D01*
X125875000Y-130635422D01*
X125875000Y-130635418D01*
X125901936Y-130500001D01*
X125875000Y-130364584D01*
X125875000Y-129193500D01*
X127242000Y-129193500D01*
X127242000Y-130400775D01*
X127357398Y-130679372D01*
X127570627Y-130892601D01*
X127849224Y-131008000D01*
X129806500Y-131008000D01*
X129996000Y-130818500D01*
X129996000Y-129004000D01*
X127431500Y-129004000D01*
X127242000Y-129193500D01*
X125875000Y-129193500D01*
X125875000Y-128992636D01*
X126551948Y-127892596D01*
X126694544Y-127750000D01*
X127242000Y-127750000D01*
X127242000Y-128806500D01*
X127242000Y-128806500D01*
G37*
X127242000Y-128806500D02*
X127431500Y-128996000D01*
X129996000Y-128996000D01*
X129996000Y-128976000D01*
X130004000Y-128976000D01*
X130004000Y-128996000D01*
X130024000Y-128996000D01*
X130024000Y-129004000D01*
X130004000Y-129004000D01*
X130004000Y-130818500D01*
X130193500Y-131008000D01*
X131047457Y-131008000D01*
X128123485Y-133931972D01*
X128008681Y-134008682D01*
X127704779Y-134463503D01*
X127625000Y-134864579D01*
X127625000Y-134864583D01*
X127598064Y-135000000D01*
X127625000Y-135135417D01*
X127625000Y-139021446D01*
X127351909Y-139294537D01*
X126727275Y-139606854D01*
X126689765Y-139550716D01*
X126217717Y-139287940D01*
X125235885Y-140269772D01*
X125216086Y-140278257D01*
X126212060Y-139282283D01*
X125949284Y-138810235D01*
X124771575Y-138269023D01*
X123476401Y-138219697D01*
X122260939Y-138669768D01*
X122050716Y-138810235D01*
X121787940Y-139282283D01*
X123513566Y-141007909D01*
X123505646Y-141011303D01*
X121782283Y-139287940D01*
X121310235Y-139550716D01*
X120769023Y-140728425D01*
X120719697Y-142023599D01*
X120777758Y-142180398D01*
X119586474Y-142690948D01*
X117364441Y-139580102D01*
X125376518Y-131568026D01*
X125491318Y-131491319D01*
X125568026Y-131376518D01*
X125568029Y-131376515D01*
X125795220Y-131036499D01*
X125795221Y-131036498D01*
X125875000Y-130635422D01*
X125875000Y-130635418D01*
X125901936Y-130500001D01*
X125875000Y-130364584D01*
X125875000Y-129193500D01*
X127242000Y-129193500D01*
X127242000Y-130400775D01*
X127357398Y-130679372D01*
X127570627Y-130892601D01*
X127849224Y-131008000D01*
X129806500Y-131008000D01*
X129996000Y-130818500D01*
X129996000Y-129004000D01*
X127431500Y-129004000D01*
X127242000Y-129193500D01*
X125875000Y-129193500D01*
X125875000Y-128992636D01*
X126551948Y-127892596D01*
X126694544Y-127750000D01*
X127242000Y-127750000D01*
X127242000Y-128806500D01*
G04 #@! TD*
M02*
