G04 #@! TF.GenerationSoftware,KiCad,Pcbnew,(5.0.0)*
G04 #@! TF.CreationDate,2019-12-04T17:10:26-05:00*
G04 #@! TF.ProjectId,Audio Amp,417564696F20416D702E6B696361645F,rev?*
G04 #@! TF.SameCoordinates,Original*
G04 #@! TF.FileFunction,Legend,Bot*
G04 #@! TF.FilePolarity,Positive*
%FSLAX46Y46*%
G04 Gerber Fmt 4.6, Leading zero omitted, Abs format (unit mm)*
G04 Created by KiCad (PCBNEW (5.0.0)) date 12/04/19 17:10:26*
%MOMM*%
%LPD*%
G01*
G04 APERTURE LIST*
%ADD10C,0.100000*%
%ADD11C,0.150000*%
G04 APERTURE END LIST*
D10*
G04 #@! TO.C,HEATSINK1*
X120500000Y-153500000D02*
X124000000Y-153500000D01*
X120500000Y-153500000D02*
X120500000Y-157000000D01*
X75500000Y-153500000D02*
X75500000Y-157000000D01*
X75500000Y-153500000D02*
X72000000Y-153500000D01*
X75500000Y-108500000D02*
X72000000Y-108500000D01*
X75500000Y-108500000D02*
X75500000Y-105000000D01*
X120500000Y-108500000D02*
X124000000Y-108500000D01*
X120500000Y-108500000D02*
X120500000Y-105000000D01*
X125500000Y-141500000D02*
X124000000Y-141500000D01*
X70500000Y-120500000D02*
X72500000Y-120500000D01*
X80500000Y-103500000D02*
X115500000Y-103500000D01*
X70500000Y-148500000D02*
X70500000Y-113500000D01*
X115250000Y-158500000D02*
X80250000Y-158500000D01*
X125500000Y-113500000D02*
X125500000Y-148500000D01*
X70500000Y-148500000D02*
G75*
G03X80500000Y-158500000I10000000J0D01*
G01*
X80500000Y-103500000D02*
G75*
G03X70500000Y-113500000I0J-10000000D01*
G01*
X125500000Y-113500000D02*
G75*
G03X115500000Y-103500000I-10000000J0D01*
G01*
X115500000Y-158500000D02*
G75*
G03X125500000Y-148500000I0J10000000D01*
G01*
G04 #@! TO.C,J2*
X141600000Y-150600000D02*
X141600000Y-154200000D01*
X141600000Y-147800000D02*
X141600000Y-150600000D01*
X131800000Y-146800000D02*
X141600000Y-146800000D01*
X141600000Y-146800000D02*
X141600000Y-147700000D01*
X141600000Y-147700000D02*
X141600000Y-147800000D01*
X136300000Y-158700000D02*
X141400000Y-158700000D01*
X141600000Y-154200000D02*
X141600000Y-158700000D01*
X141600000Y-158700000D02*
X141400000Y-158700000D01*
X127200000Y-157900000D02*
X127200000Y-146800000D01*
X131900000Y-146800000D02*
X127200000Y-146800000D01*
X136300000Y-158700000D02*
X127200000Y-158700000D01*
X127200000Y-158700000D02*
X127200000Y-157900000D01*
X141600000Y-157000000D02*
X145600000Y-157000000D01*
X145600000Y-157000000D02*
X145600000Y-149000000D01*
X145600000Y-149000000D02*
X141600000Y-149000000D01*
G04 #@! TO.C,HEATSINK1*
D11*
X101761904Y-130952380D02*
X101761904Y-129952380D01*
X101761904Y-130428571D02*
X101190476Y-130428571D01*
X101190476Y-130952380D02*
X101190476Y-129952380D01*
X100714285Y-130428571D02*
X100380952Y-130428571D01*
X100238095Y-130952380D02*
X100714285Y-130952380D01*
X100714285Y-129952380D01*
X100238095Y-129952380D01*
X99857142Y-130666666D02*
X99380952Y-130666666D01*
X99952380Y-130952380D02*
X99619047Y-129952380D01*
X99285714Y-130952380D01*
X99095238Y-129952380D02*
X98523809Y-129952380D01*
X98809523Y-130952380D02*
X98809523Y-129952380D01*
X98238095Y-130904761D02*
X98095238Y-130952380D01*
X97857142Y-130952380D01*
X97761904Y-130904761D01*
X97714285Y-130857142D01*
X97666666Y-130761904D01*
X97666666Y-130666666D01*
X97714285Y-130571428D01*
X97761904Y-130523809D01*
X97857142Y-130476190D01*
X98047619Y-130428571D01*
X98142857Y-130380952D01*
X98190476Y-130333333D01*
X98238095Y-130238095D01*
X98238095Y-130142857D01*
X98190476Y-130047619D01*
X98142857Y-130000000D01*
X98047619Y-129952380D01*
X97809523Y-129952380D01*
X97666666Y-130000000D01*
X97238095Y-130952380D02*
X97238095Y-129952380D01*
X96761904Y-130952380D02*
X96761904Y-129952380D01*
X96190476Y-130952380D01*
X96190476Y-129952380D01*
X95714285Y-130952380D02*
X95714285Y-129952380D01*
X95142857Y-130952380D02*
X95571428Y-130380952D01*
X95142857Y-129952380D02*
X95714285Y-130523809D01*
X94190476Y-130952380D02*
X94761904Y-130952380D01*
X94476190Y-130952380D02*
X94476190Y-129952380D01*
X94571428Y-130095238D01*
X94666666Y-130190476D01*
X94761904Y-130238095D01*
G04 #@! TO.C,J2*
X133633333Y-152752380D02*
X133633333Y-153466666D01*
X133680952Y-153609523D01*
X133776190Y-153704761D01*
X133919047Y-153752380D01*
X134014285Y-153752380D01*
X133204761Y-152847619D02*
X133157142Y-152800000D01*
X133061904Y-152752380D01*
X132823809Y-152752380D01*
X132728571Y-152800000D01*
X132680952Y-152847619D01*
X132633333Y-152942857D01*
X132633333Y-153038095D01*
X132680952Y-153180952D01*
X133252380Y-153752380D01*
X132633333Y-153752380D01*
G04 #@! TD*
M02*
