M48
;DRILL file {KiCad (5.0.0)} date 12/04/19 17:10:28
;FORMAT={-:-/ absolute / metric / decimal}
FMAT,2
METRIC,TZ
T1C0.400
T2C0.750
T3C0.800
T4C0.900
T5C1.000
T6C1.100
T7C1.200
T8C1.700
T9C2.000
T10C2.080
T11C2.200
T12C3.500
T13C4.000
%
G90
G05
M71
T1
X65.Y-116.
X80.15Y-109.85
X82.5Y-111.
X86.495Y-87.005
X86.5Y-96.5
X91.95Y-92.6
X92.5Y-115.
X92.5Y-117.5
X92.5Y-120.
X92.5Y-122.5
X92.5Y-125.
X94.Y-86.5
X94.275Y-99.5
X98.6Y-95.5
X102.5Y-115.
X102.5Y-117.5
X102.5Y-120.
X102.5Y-122.5
X102.5Y-125.
X102.95Y-88.
X103.5Y-93.
X105.Y-97.5
X106.Y-168.
X107.Y-89.5
X109.5Y-98.
X114.Y-90.
X114.Y-93.
X116.5Y-99.5
X117.5Y-117.5
X117.5Y-120.
X117.5Y-122.5
X117.5Y-125.
X120.Y-117.5
X120.Y-120.
X120.Y-122.5
X120.Y-125.
X123.Y-102.
X128.5Y-107.5
X130.Y-117.
X130.Y-118.
X130.Y-119.
X130.Y-120.
X130.Y-121.
X135.Y-106.5
X138.Y-126.5
X138.1Y-131.5
X139.Y-118.
X139.Y-119.
X139.Y-120.
X139.Y-121.
X139.Y-126.5
X139.Y-131.5
X140.Y-126.5
X140.Y-131.5
X141.Y-127.
X141.Y-128.
X141.Y-129.
X141.Y-130.
X141.Y-131.
T2
X60.Y-109.
X61.5Y-109.
T3
X80.71Y-85.96
X80.71Y-91.04
X83.25Y-88.5
X129.Y-102.
X131.Y-102.
X133.Y-102.
X135.Y-102.
X137.Y-102.
X139.Y-102.
X120.Y-86.17
X120.Y-91.25
X122.54Y-88.71
T5
X86.46Y-110.34
X89.Y-110.34
X91.54Y-110.34
X48.65Y-104.25
X51.19Y-104.25
X104.46Y-153.36
X107.Y-153.36
X109.54Y-153.36
X86.46Y-153.21
X89.Y-153.21
X91.54Y-153.21
X104.46Y-110.34
X107.Y-110.34
X109.54Y-110.34
T6
X132.Y-111.
X132.Y-115.5
X138.5Y-111.
X138.5Y-115.5
T7
X99.5Y-161.
X99.5Y-176.24
X109.5Y-161.
X109.5Y-176.24
X94.5Y-161.
X94.5Y-176.24
X104.5Y-161.
X104.5Y-176.24
T8
X60.Y-153.5
X60.Y-158.58
X65.08Y-153.5
X65.08Y-158.58
X59.92Y-124.5
X59.92Y-129.58
X65.Y-124.5
X65.Y-129.58
X60.Y-167.92
X60.Y-173.
X65.08Y-167.92
X65.08Y-173.
X59.96Y-138.96
X59.96Y-144.04
X65.04Y-138.96
X65.04Y-144.04
T10
X49.8Y-98.955
X57.42Y-98.955
X67.58Y-98.955
X117.5Y-164.045
X127.66Y-164.045
X135.28Y-164.045
T12
X48.Y-123.
X75.Y-95.
X72.Y-120.5
X75.5Y-108.5
X75.5Y-153.5
X120.5Y-108.5
X120.5Y-153.5
X124.Y-141.5
X48.Y-174.
T13
X106.96Y-136.66
X88.96Y-136.51
X107.04Y-127.04
X89.04Y-127.04
T4
X129.Y-157.7G85X129.Y-156.3
G05
X131.7Y-147.8G85X133.1Y-147.8
G05
X133.9Y-150.6G85X132.5Y-150.6
G05
X136.3Y-157.6G85X134.9Y-157.6
G05
T5
X46.Y-110.G85X46.Y-112.
G05
X48.Y-115.7G85X50.Y-115.7
G05
X52.Y-110.G85X52.Y-112.
G05
T9
X140.Y-153.G85X140.Y-153.
G05
T11
X128.Y-91.6G85X128.Y-92.4
G05
X140.Y-91.6G85X140.Y-92.4
G05
T0
M30
