G04 #@! TF.GenerationSoftware,KiCad,Pcbnew,(5.0.0)*
G04 #@! TF.CreationDate,2019-12-04T17:10:26-05:00*
G04 #@! TF.ProjectId,Audio Amp,417564696F20416D702E6B696361645F,rev?*
G04 #@! TF.SameCoordinates,Original*
G04 #@! TF.FileFunction,Paste,Top*
G04 #@! TF.FilePolarity,Positive*
%FSLAX46Y46*%
G04 Gerber Fmt 4.6, Leading zero omitted, Abs format (unit mm)*
G04 Created by KiCad (PCBNEW (5.0.0)) date 12/04/19 17:10:26*
%MOMM*%
%LPD*%
G01*
G04 APERTURE LIST*
%ADD10R,1.250000X1.000000*%
%ADD11R,4.000000X2.500000*%
%ADD12R,1.000000X1.250000*%
%ADD13R,2.500000X4.000000*%
%ADD14R,0.900000X0.800000*%
%ADD15R,10.000000X15.000000*%
%ADD16R,0.800000X0.900000*%
%ADD17R,0.700000X1.300000*%
%ADD18R,1.300000X0.700000*%
%ADD19R,1.550000X0.600000*%
%ADD20R,1.600000X3.500000*%
%ADD21R,1.200000X1.200000*%
%ADD22R,1.000000X1.600000*%
%ADD23R,2.000000X3.800000*%
%ADD24R,2.000000X1.500000*%
G04 APERTURE END LIST*
D10*
G04 #@! TO.C,C1*
X96000000Y-100000000D03*
X96000000Y-102000000D03*
G04 #@! TD*
G04 #@! TO.C,C2*
X103500000Y-89500000D03*
X103500000Y-91500000D03*
G04 #@! TD*
D11*
G04 #@! TO.C,C3*
X138000000Y-129000000D03*
X130000000Y-129000000D03*
G04 #@! TD*
D12*
G04 #@! TO.C,C4*
X111000000Y-98000000D03*
X113000000Y-98000000D03*
G04 #@! TD*
G04 #@! TO.C,C5*
X106500000Y-93000000D03*
X108500000Y-93000000D03*
G04 #@! TD*
D13*
G04 #@! TO.C,C6*
X86000000Y-171500000D03*
X86000000Y-163500000D03*
G04 #@! TD*
D12*
G04 #@! TO.C,C7*
X87000000Y-94000000D03*
X85000000Y-94000000D03*
G04 #@! TD*
G04 #@! TO.C,C8*
X92000000Y-96500000D03*
X90000000Y-96500000D03*
G04 #@! TD*
D13*
G04 #@! TO.C,C9*
X73500000Y-171500000D03*
X73500000Y-163500000D03*
G04 #@! TD*
D14*
G04 #@! TO.C,Q1*
X107804999Y-102564999D03*
X107804999Y-100664999D03*
X105804999Y-101614999D03*
G04 #@! TD*
D15*
G04 #@! TO.C,Q2*
X106940000Y-122240000D03*
G04 #@! TD*
G04 #@! TO.C,Q3*
X107060000Y-141460000D03*
G04 #@! TD*
D16*
G04 #@! TO.C,Q4*
X84950000Y-102500000D03*
X83050000Y-102500000D03*
X84000000Y-104500000D03*
G04 #@! TD*
D15*
G04 #@! TO.C,Q5*
X88940000Y-122240000D03*
G04 #@! TD*
G04 #@! TO.C,Q6*
X89060000Y-141310000D03*
G04 #@! TD*
D17*
G04 #@! TO.C,R1*
X112950000Y-93000000D03*
X111050000Y-93000000D03*
G04 #@! TD*
G04 #@! TO.C,R2*
X111050000Y-95500000D03*
X112950000Y-95500000D03*
G04 #@! TD*
G04 #@! TO.C,R3*
X106600000Y-98000000D03*
X108500000Y-98000000D03*
G04 #@! TD*
G04 #@! TO.C,R4*
X108400000Y-95500000D03*
X106500000Y-95500000D03*
G04 #@! TD*
G04 #@! TO.C,R5*
X103450000Y-101500000D03*
X101550000Y-101500000D03*
G04 #@! TD*
G04 #@! TO.C,R6*
X101550000Y-104500000D03*
X103450000Y-104500000D03*
G04 #@! TD*
D18*
G04 #@! TO.C,R7*
X111000000Y-102900000D03*
X111000000Y-101000000D03*
G04 #@! TD*
G04 #@! TO.C,R8*
X114500000Y-101050000D03*
X114500000Y-102950000D03*
G04 #@! TD*
D17*
G04 #@! TO.C,R11*
X102950000Y-86500000D03*
X101050000Y-86500000D03*
G04 #@! TD*
G04 #@! TO.C,R12*
X97400000Y-86500000D03*
X95500000Y-86500000D03*
G04 #@! TD*
G04 #@! TO.C,R13*
X91950000Y-94000000D03*
X90050000Y-94000000D03*
G04 #@! TD*
D18*
G04 #@! TO.C,R14*
X99000000Y-88600000D03*
X99000000Y-90500000D03*
G04 #@! TD*
D17*
G04 #@! TO.C,R15*
X91900000Y-99000000D03*
X90000000Y-99000000D03*
G04 #@! TD*
G04 #@! TO.C,R16*
X87950000Y-99000000D03*
X86050000Y-99000000D03*
G04 #@! TD*
G04 #@! TO.C,R17*
X84000000Y-99000000D03*
X82100000Y-99000000D03*
G04 #@! TD*
G04 #@! TO.C,R18*
X80000000Y-99000000D03*
X78100000Y-99000000D03*
G04 #@! TD*
D19*
G04 #@! TO.C,U1*
X101900000Y-98000000D03*
X101900000Y-96730000D03*
X101900000Y-95460000D03*
X101900000Y-94190000D03*
X96500000Y-94190000D03*
X96500000Y-95460000D03*
X96500000Y-96730000D03*
X96500000Y-98000000D03*
G04 #@! TD*
D20*
G04 #@! TO.C,F1*
X61880000Y-116000000D03*
X57000000Y-116000000D03*
G04 #@! TD*
D21*
G04 #@! TO.C,D1*
X138100000Y-144000000D03*
X135900000Y-144000000D03*
G04 #@! TD*
D17*
G04 #@! TO.C,R21*
X134000000Y-144000000D03*
X132100000Y-144000000D03*
G04 #@! TD*
D12*
G04 #@! TO.C,C10*
X60000000Y-104000000D03*
X62000000Y-104000000D03*
G04 #@! TD*
G04 #@! TO.C,C11*
X76500000Y-120000000D03*
X78500000Y-120000000D03*
G04 #@! TD*
D22*
G04 #@! TO.C,C12*
X68500000Y-160000000D03*
X71500000Y-160000000D03*
G04 #@! TD*
D12*
G04 #@! TO.C,C13*
X78000000Y-160000000D03*
X76000000Y-160000000D03*
G04 #@! TD*
D22*
G04 #@! TO.C,C14*
X91000000Y-160000000D03*
X88000000Y-160000000D03*
G04 #@! TD*
D12*
G04 #@! TO.C,C15*
X81000000Y-160000000D03*
X83000000Y-160000000D03*
G04 #@! TD*
D23*
G04 #@! TO.C,U2*
X73850000Y-115000000D03*
D24*
X80150000Y-115000000D03*
X80150000Y-112700000D03*
X80150000Y-117300000D03*
G04 #@! TD*
M02*
