G04 #@! TF.GenerationSoftware,KiCad,Pcbnew,(5.0.0)*
G04 #@! TF.CreationDate,2019-12-04T17:10:26-05:00*
G04 #@! TF.ProjectId,Audio Amp,417564696F20416D702E6B696361645F,rev?*
G04 #@! TF.SameCoordinates,Original*
G04 #@! TF.FileFunction,Soldermask,Top*
G04 #@! TF.FilePolarity,Negative*
%FSLAX46Y46*%
G04 Gerber Fmt 4.6, Leading zero omitted, Abs format (unit mm)*
G04 Created by KiCad (PCBNEW (5.0.0)) date 12/04/19 17:10:26*
%MOMM*%
%LPD*%
G01*
G04 APERTURE LIST*
%ADD10R,1.650000X1.400000*%
%ADD11R,4.400000X2.900000*%
%ADD12R,1.400000X1.650000*%
%ADD13R,2.900000X4.400000*%
%ADD14R,1.300000X1.200000*%
%ADD15O,2.200000X2.200000*%
%ADD16R,2.200000X2.200000*%
%ADD17C,5.400000*%
%ADD18R,10.400000X15.400000*%
%ADD19R,1.200000X1.300000*%
%ADD20R,1.100000X1.700000*%
%ADD21R,1.700000X1.100000*%
%ADD22C,2.800000*%
%ADD23O,2.800000X2.800000*%
%ADD24C,2.400000*%
%ADD25R,1.950000X1.000000*%
%ADD26C,3.650000*%
%ADD27C,3.400000*%
%ADD28R,2.000000X3.900000*%
%ADD29R,1.600000X1.600000*%
%ADD30O,3.400000X4.200000*%
%ADD31C,1.600000*%
%ADD32C,2.900000*%
%ADD33O,1.600000X2.100000*%
%ADD34R,1.600000X2.100000*%
%ADD35O,3.400000X3.400000*%
%ADD36O,3.700000X2.300000*%
%ADD37O,2.300000X3.700000*%
%ADD38R,1.400000X2.000000*%
%ADD39R,2.400000X4.200000*%
%ADD40R,2.400000X1.900000*%
%ADD41R,3.900000X3.900000*%
%ADD42C,1.840000*%
%ADD43O,2.100000X2.100000*%
%ADD44R,2.100000X2.100000*%
G04 APERTURE END LIST*
D10*
G04 #@! TO.C,C1*
X96000000Y-100000000D03*
X96000000Y-102000000D03*
G04 #@! TD*
G04 #@! TO.C,C2*
X103500000Y-89500000D03*
X103500000Y-91500000D03*
G04 #@! TD*
D11*
G04 #@! TO.C,C3*
X138000000Y-129000000D03*
X130000000Y-129000000D03*
G04 #@! TD*
D12*
G04 #@! TO.C,C4*
X111000000Y-98000000D03*
X113000000Y-98000000D03*
G04 #@! TD*
G04 #@! TO.C,C5*
X106500000Y-93000000D03*
X108500000Y-93000000D03*
G04 #@! TD*
D13*
G04 #@! TO.C,C6*
X86000000Y-171500000D03*
X86000000Y-163500000D03*
G04 #@! TD*
D12*
G04 #@! TO.C,C7*
X87000000Y-94000000D03*
X85000000Y-94000000D03*
G04 #@! TD*
G04 #@! TO.C,C8*
X92000000Y-96500000D03*
X90000000Y-96500000D03*
G04 #@! TD*
D13*
G04 #@! TO.C,C9*
X73500000Y-171500000D03*
X73500000Y-163500000D03*
G04 #@! TD*
D14*
G04 #@! TO.C,Q1*
X107804999Y-102564999D03*
X107804999Y-100664999D03*
X105804999Y-101614999D03*
G04 #@! TD*
D15*
G04 #@! TO.C,Q2*
X104460000Y-110340000D03*
X107000000Y-110340000D03*
D16*
X109540000Y-110340000D03*
D17*
X107040000Y-127040000D03*
D18*
X106940000Y-122240000D03*
G04 #@! TD*
D15*
G04 #@! TO.C,Q3*
X109540000Y-153360000D03*
X107000000Y-153360000D03*
D16*
X104460000Y-153360000D03*
D17*
X106960000Y-136660000D03*
D18*
X107060000Y-141460000D03*
G04 #@! TD*
D19*
G04 #@! TO.C,Q4*
X84950000Y-102500000D03*
X83050000Y-102500000D03*
X84000000Y-104500000D03*
G04 #@! TD*
D15*
G04 #@! TO.C,Q5*
X86460000Y-110340000D03*
X89000000Y-110340000D03*
D16*
X91540000Y-110340000D03*
D17*
X89040000Y-127040000D03*
D18*
X88940000Y-122240000D03*
G04 #@! TD*
D15*
G04 #@! TO.C,Q6*
X91540000Y-153210000D03*
X89000000Y-153210000D03*
D16*
X86460000Y-153210000D03*
D17*
X88960000Y-136510000D03*
D18*
X89060000Y-141310000D03*
G04 #@! TD*
D20*
G04 #@! TO.C,R1*
X112950000Y-93000000D03*
X111050000Y-93000000D03*
G04 #@! TD*
G04 #@! TO.C,R2*
X111050000Y-95500000D03*
X112950000Y-95500000D03*
G04 #@! TD*
G04 #@! TO.C,R3*
X106600000Y-98000000D03*
X108500000Y-98000000D03*
G04 #@! TD*
G04 #@! TO.C,R4*
X108400000Y-95500000D03*
X106500000Y-95500000D03*
G04 #@! TD*
G04 #@! TO.C,R5*
X103450000Y-101500000D03*
X101550000Y-101500000D03*
G04 #@! TD*
G04 #@! TO.C,R6*
X101550000Y-104500000D03*
X103450000Y-104500000D03*
G04 #@! TD*
D21*
G04 #@! TO.C,R7*
X111000000Y-102900000D03*
X111000000Y-101000000D03*
G04 #@! TD*
G04 #@! TO.C,R8*
X114500000Y-101050000D03*
X114500000Y-102950000D03*
G04 #@! TD*
D22*
G04 #@! TO.C,R9*
X109500000Y-161000000D03*
D23*
X109500000Y-176240000D03*
G04 #@! TD*
D22*
G04 #@! TO.C,R10*
X99500000Y-176240000D03*
D23*
X99500000Y-161000000D03*
G04 #@! TD*
D20*
G04 #@! TO.C,R11*
X102950000Y-86500000D03*
X101050000Y-86500000D03*
G04 #@! TD*
G04 #@! TO.C,R12*
X97400000Y-86500000D03*
X95500000Y-86500000D03*
G04 #@! TD*
G04 #@! TO.C,R13*
X91950000Y-94000000D03*
X90050000Y-94000000D03*
G04 #@! TD*
D21*
G04 #@! TO.C,R14*
X99000000Y-88600000D03*
X99000000Y-90500000D03*
G04 #@! TD*
D20*
G04 #@! TO.C,R15*
X91900000Y-99000000D03*
X90000000Y-99000000D03*
G04 #@! TD*
G04 #@! TO.C,R16*
X87950000Y-99000000D03*
X86050000Y-99000000D03*
G04 #@! TD*
G04 #@! TO.C,R17*
X84000000Y-99000000D03*
X82100000Y-99000000D03*
G04 #@! TD*
G04 #@! TO.C,R18*
X80000000Y-99000000D03*
X78100000Y-99000000D03*
G04 #@! TD*
D22*
G04 #@! TO.C,R19*
X104500000Y-161000000D03*
D23*
X104500000Y-176240000D03*
G04 #@! TD*
D22*
G04 #@! TO.C,R20*
X94500000Y-176240000D03*
D23*
X94500000Y-161000000D03*
G04 #@! TD*
D24*
G04 #@! TO.C,SW1*
X132000000Y-115500000D03*
X132000000Y-111000000D03*
X138500000Y-115500000D03*
X138500000Y-111000000D03*
G04 #@! TD*
D25*
G04 #@! TO.C,U1*
X101900000Y-98000000D03*
X101900000Y-96730000D03*
X101900000Y-95460000D03*
X101900000Y-94190000D03*
X96500000Y-94190000D03*
X96500000Y-95460000D03*
X96500000Y-96730000D03*
X96500000Y-98000000D03*
G04 #@! TD*
D26*
G04 #@! TO.C,J3*
X117500000Y-169000000D03*
X135280000Y-169000000D03*
D27*
X135280000Y-164045000D03*
X127660000Y-164045000D03*
X117500000Y-164045000D03*
D26*
X122580000Y-169000000D03*
G04 #@! TD*
G04 #@! TO.C,J4*
X67580000Y-94000000D03*
X49800000Y-94000000D03*
D27*
X49800000Y-98955000D03*
X57420000Y-98955000D03*
X67580000Y-98955000D03*
D26*
X62500000Y-94000000D03*
G04 #@! TD*
D28*
G04 #@! TO.C,F1*
X61880000Y-116000000D03*
X57000000Y-116000000D03*
G04 #@! TD*
D29*
G04 #@! TO.C,D1*
X138100000Y-144000000D03*
X135900000Y-144000000D03*
G04 #@! TD*
D20*
G04 #@! TO.C,R21*
X134000000Y-144000000D03*
X132100000Y-144000000D03*
G04 #@! TD*
D30*
G04 #@! TO.C,RV2*
X128000000Y-92000000D03*
X140000000Y-92000000D03*
D31*
X129000000Y-102000000D03*
X131000000Y-102000000D03*
X139000000Y-102000000D03*
X137000000Y-102000000D03*
X135000000Y-102000000D03*
X133000000Y-102000000D03*
G04 #@! TD*
D32*
G04 #@! TO.C,BANANA1*
X60000000Y-173000000D03*
X65080000Y-173000000D03*
X65080000Y-167920000D03*
X60000000Y-167920000D03*
G04 #@! TD*
G04 #@! TO.C,BANANA2*
X59920000Y-129580000D03*
X65000000Y-129580000D03*
X65000000Y-124500000D03*
X59920000Y-124500000D03*
G04 #@! TD*
G04 #@! TO.C,BANANA3*
X60000000Y-158580000D03*
X65080000Y-158580000D03*
X65080000Y-153500000D03*
X60000000Y-153500000D03*
G04 #@! TD*
G04 #@! TO.C,BANANA4*
X59960000Y-144040000D03*
X65040000Y-144040000D03*
X65040000Y-138960000D03*
X59960000Y-138960000D03*
G04 #@! TD*
D17*
G04 #@! TO.C,HEATSINK1*
X120500000Y-153500000D03*
X75500000Y-153500000D03*
X75500000Y-108500000D03*
X120500000Y-108500000D03*
X72000000Y-120500000D03*
X124000000Y-141500000D03*
G04 #@! TD*
D33*
G04 #@! TO.C,J5*
X60000000Y-109000000D03*
D34*
X61500000Y-109000000D03*
G04 #@! TD*
D35*
G04 #@! TO.C,J2*
X140000000Y-153000000D03*
D36*
X133200000Y-150600000D03*
X132400000Y-147800000D03*
D37*
X129000000Y-157000000D03*
D36*
X135600000Y-157600000D03*
G04 #@! TD*
D12*
G04 #@! TO.C,C10*
X60000000Y-104000000D03*
X62000000Y-104000000D03*
G04 #@! TD*
G04 #@! TO.C,C11*
X76500000Y-120000000D03*
X78500000Y-120000000D03*
G04 #@! TD*
D38*
G04 #@! TO.C,C12*
X68500000Y-160000000D03*
X71500000Y-160000000D03*
G04 #@! TD*
D12*
G04 #@! TO.C,C13*
X78000000Y-160000000D03*
X76000000Y-160000000D03*
G04 #@! TD*
D38*
G04 #@! TO.C,C14*
X91000000Y-160000000D03*
X88000000Y-160000000D03*
G04 #@! TD*
D12*
G04 #@! TO.C,C15*
X81000000Y-160000000D03*
X83000000Y-160000000D03*
G04 #@! TD*
D39*
G04 #@! TO.C,U2*
X73850000Y-115000000D03*
D40*
X80150000Y-115000000D03*
X80150000Y-112700000D03*
X80150000Y-117300000D03*
G04 #@! TD*
D41*
G04 #@! TO.C,J1*
X49000000Y-115700000D03*
X46000000Y-111000000D03*
X52000000Y-111000000D03*
G04 #@! TD*
D42*
G04 #@! TO.C,RV1*
X120000000Y-91250000D03*
X122540000Y-88710000D03*
X120000000Y-86170000D03*
G04 #@! TD*
G04 #@! TO.C,RV3*
X80710000Y-91040000D03*
X83250000Y-88500000D03*
X80710000Y-85960000D03*
G04 #@! TD*
D17*
G04 #@! TO.C,MNT1*
X48000000Y-123000000D03*
G04 #@! TD*
G04 #@! TO.C,MNT2*
X75000000Y-95000000D03*
G04 #@! TD*
G04 #@! TO.C,MNT3*
X48000000Y-174000000D03*
G04 #@! TD*
D43*
G04 #@! TO.C,POWERIN1*
X51190000Y-104250000D03*
D44*
X48650000Y-104250000D03*
G04 #@! TD*
M02*
