G04 #@! TF.GenerationSoftware,KiCad,Pcbnew,(5.0.0)*
G04 #@! TF.CreationDate,2019-12-04T17:10:26-05:00*
G04 #@! TF.ProjectId,Audio Amp,417564696F20416D702E6B696361645F,rev?*
G04 #@! TF.SameCoordinates,Original*
G04 #@! TF.FileFunction,Copper,L2,Bot,Signal*
G04 #@! TF.FilePolarity,Positive*
%FSLAX46Y46*%
G04 Gerber Fmt 4.6, Leading zero omitted, Abs format (unit mm)*
G04 Created by KiCad (PCBNEW (5.0.0)) date 12/04/19 17:10:26*
%MOMM*%
%LPD*%
G01*
G04 APERTURE LIST*
G04 #@! TA.AperFunction,ComponentPad*
%ADD10O,1.800000X1.800000*%
G04 #@! TD*
G04 #@! TA.AperFunction,ComponentPad*
%ADD11R,1.800000X1.800000*%
G04 #@! TD*
G04 #@! TA.AperFunction,ComponentPad*
%ADD12C,5.000000*%
G04 #@! TD*
G04 #@! TA.AperFunction,ComponentPad*
%ADD13C,2.400000*%
G04 #@! TD*
G04 #@! TA.AperFunction,ComponentPad*
%ADD14O,2.400000X2.400000*%
G04 #@! TD*
G04 #@! TA.AperFunction,ComponentPad*
%ADD15C,2.000000*%
G04 #@! TD*
G04 #@! TA.AperFunction,ComponentPad*
%ADD16C,3.000000*%
G04 #@! TD*
G04 #@! TA.AperFunction,ComponentPad*
%ADD17O,3.000000X3.800000*%
G04 #@! TD*
G04 #@! TA.AperFunction,ComponentPad*
%ADD18C,1.200000*%
G04 #@! TD*
G04 #@! TA.AperFunction,ComponentPad*
%ADD19C,2.500000*%
G04 #@! TD*
G04 #@! TA.AperFunction,ComponentPad*
%ADD20O,1.200000X1.700000*%
G04 #@! TD*
G04 #@! TA.AperFunction,ComponentPad*
%ADD21R,1.200000X1.700000*%
G04 #@! TD*
G04 #@! TA.AperFunction,ComponentPad*
%ADD22O,3.000000X3.000000*%
G04 #@! TD*
G04 #@! TA.AperFunction,ComponentPad*
%ADD23O,3.300000X1.900000*%
G04 #@! TD*
G04 #@! TA.AperFunction,ComponentPad*
%ADD24O,1.900000X3.300000*%
G04 #@! TD*
G04 #@! TA.AperFunction,ComponentPad*
%ADD25R,3.500000X3.500000*%
G04 #@! TD*
G04 #@! TA.AperFunction,ComponentPad*
%ADD26C,1.440000*%
G04 #@! TD*
G04 #@! TA.AperFunction,ComponentPad*
%ADD27O,1.700000X1.700000*%
G04 #@! TD*
G04 #@! TA.AperFunction,ComponentPad*
%ADD28R,1.700000X1.700000*%
G04 #@! TD*
G04 #@! TA.AperFunction,ViaPad*
%ADD29C,0.800000*%
G04 #@! TD*
G04 #@! TA.AperFunction,Conductor*
%ADD30C,0.250000*%
G04 #@! TD*
G04 #@! TA.AperFunction,Conductor*
%ADD31C,1.500000*%
G04 #@! TD*
G04 #@! TA.AperFunction,Conductor*
%ADD32C,2.000000*%
G04 #@! TD*
G04 #@! TA.AperFunction,Conductor*
%ADD33C,1.000000*%
G04 #@! TD*
G04 #@! TA.AperFunction,Conductor*
%ADD34C,0.500000*%
G04 #@! TD*
G04 APERTURE END LIST*
D10*
G04 #@! TO.P,Q2,3*
G04 #@! TO.N,Net-(Q2-Pad3)*
X104460000Y-110340000D03*
G04 #@! TO.P,Q2,2*
G04 #@! TO.N,+12V*
X107000000Y-110340000D03*
D11*
G04 #@! TO.P,Q2,1*
G04 #@! TO.N,Net-(Q1-Pad3)*
X109540000Y-110340000D03*
D12*
G04 #@! TO.P,Q2,2*
G04 #@! TO.N,+12V*
X107040000Y-127040000D03*
G04 #@! TD*
D10*
G04 #@! TO.P,Q3,3*
G04 #@! TO.N,Net-(Q3-Pad3)*
X109540000Y-153360000D03*
G04 #@! TO.P,Q3,2*
G04 #@! TO.N,GND*
X107000000Y-153360000D03*
D11*
G04 #@! TO.P,Q3,1*
G04 #@! TO.N,Net-(Q1-Pad2)*
X104460000Y-153360000D03*
D12*
G04 #@! TO.P,Q3,2*
G04 #@! TO.N,GND*
X106960000Y-136660000D03*
G04 #@! TD*
D10*
G04 #@! TO.P,Q5,3*
G04 #@! TO.N,Net-(Q5-Pad3)*
X86460000Y-110340000D03*
G04 #@! TO.P,Q5,2*
G04 #@! TO.N,+12V*
X89000000Y-110340000D03*
D11*
G04 #@! TO.P,Q5,1*
G04 #@! TO.N,Net-(Q4-Pad3)*
X91540000Y-110340000D03*
D12*
G04 #@! TO.P,Q5,2*
G04 #@! TO.N,+12V*
X89040000Y-127040000D03*
G04 #@! TD*
D10*
G04 #@! TO.P,Q6,3*
G04 #@! TO.N,Net-(Q6-Pad3)*
X91540000Y-153210000D03*
G04 #@! TO.P,Q6,2*
G04 #@! TO.N,GND*
X89000000Y-153210000D03*
D11*
G04 #@! TO.P,Q6,1*
G04 #@! TO.N,Net-(Q4-Pad2)*
X86460000Y-153210000D03*
D12*
G04 #@! TO.P,Q6,2*
G04 #@! TO.N,GND*
X88960000Y-136510000D03*
G04 #@! TD*
D13*
G04 #@! TO.P,R9,1*
G04 #@! TO.N,Net-(Q2-Pad3)*
X109500000Y-161000000D03*
D14*
G04 #@! TO.P,R9,2*
G04 #@! TO.N,Net-(C14-Pad1)*
X109500000Y-176240000D03*
G04 #@! TD*
D13*
G04 #@! TO.P,R10,1*
G04 #@! TO.N,Net-(C14-Pad1)*
X99500000Y-176240000D03*
D14*
G04 #@! TO.P,R10,2*
G04 #@! TO.N,Net-(Q3-Pad3)*
X99500000Y-161000000D03*
G04 #@! TD*
D13*
G04 #@! TO.P,R19,1*
G04 #@! TO.N,Net-(Q5-Pad3)*
X104500000Y-161000000D03*
D14*
G04 #@! TO.P,R19,2*
G04 #@! TO.N,Net-(C12-Pad1)*
X104500000Y-176240000D03*
G04 #@! TD*
D13*
G04 #@! TO.P,R20,1*
G04 #@! TO.N,Net-(C12-Pad1)*
X94500000Y-176240000D03*
D14*
G04 #@! TO.P,R20,2*
G04 #@! TO.N,Net-(Q6-Pad3)*
X94500000Y-161000000D03*
G04 #@! TD*
D15*
G04 #@! TO.P,SW1,2*
G04 #@! TO.N,+12V*
X132000000Y-115500000D03*
G04 #@! TO.P,SW1,1*
G04 #@! TO.N,Net-(F1-Pad1)*
X132000000Y-111000000D03*
G04 #@! TO.P,SW1,2*
G04 #@! TO.N,+12V*
X138500000Y-115500000D03*
G04 #@! TO.P,SW1,1*
G04 #@! TO.N,Net-(F1-Pad1)*
X138500000Y-111000000D03*
G04 #@! TD*
D16*
G04 #@! TO.P,J3,S*
G04 #@! TO.N,GND*
X135280000Y-164045000D03*
G04 #@! TO.P,J3,R*
G04 #@! TO.N,CHANNEL_B*
X127660000Y-164045000D03*
G04 #@! TO.P,J3,T*
G04 #@! TO.N,CHANNEL_A*
X117500000Y-164045000D03*
G04 #@! TD*
G04 #@! TO.P,J4,S*
G04 #@! TO.N,GND*
X49800000Y-98955000D03*
G04 #@! TO.P,J4,R*
G04 #@! TO.N,OUTPUT_B*
X57420000Y-98955000D03*
G04 #@! TO.P,J4,T*
G04 #@! TO.N,OUTPUT_A*
X67580000Y-98955000D03*
G04 #@! TD*
D17*
G04 #@! TO.P,RV2,GND*
G04 #@! TO.N,N/C*
X128000000Y-92000000D03*
X140000000Y-92000000D03*
D18*
G04 #@! TO.P,RV2,2*
G04 #@! TO.N,Net-(C12-Pad1)*
X129000000Y-102000000D03*
G04 #@! TO.P,RV2,1*
G04 #@! TO.N,Net-(R13-Pad1)*
X131000000Y-102000000D03*
G04 #@! TO.P,RV2,3*
G04 #@! TO.N,N/C*
X139000000Y-102000000D03*
G04 #@! TO.P,RV2,6*
X137000000Y-102000000D03*
G04 #@! TO.P,RV2,5*
G04 #@! TO.N,Net-(C14-Pad1)*
X135000000Y-102000000D03*
G04 #@! TO.P,RV2,4*
G04 #@! TO.N,Net-(R3-Pad1)*
X133000000Y-102000000D03*
G04 #@! TD*
D19*
G04 #@! TO.P,BANANA1,1*
G04 #@! TO.N,OUTPUT_B*
X60000000Y-173000000D03*
X65080000Y-173000000D03*
X65080000Y-167920000D03*
X60000000Y-167920000D03*
G04 #@! TD*
G04 #@! TO.P,BANANA2,1*
G04 #@! TO.N,OUTPUT_A*
X59920000Y-129580000D03*
X65000000Y-129580000D03*
X65000000Y-124500000D03*
X59920000Y-124500000D03*
G04 #@! TD*
G04 #@! TO.P,BANANA3,1*
G04 #@! TO.N,GND*
X60000000Y-158580000D03*
X65080000Y-158580000D03*
X65080000Y-153500000D03*
X60000000Y-153500000D03*
G04 #@! TD*
G04 #@! TO.P,BANANA4,1*
G04 #@! TO.N,GND*
X59960000Y-144040000D03*
X65040000Y-144040000D03*
X65040000Y-138960000D03*
X59960000Y-138960000D03*
G04 #@! TD*
D12*
G04 #@! TO.P,HEATSINK1,3*
G04 #@! TO.N,GND*
X120500000Y-153500000D03*
X75500000Y-153500000D03*
X75500000Y-108500000D03*
X120500000Y-108500000D03*
G04 #@! TO.P,HEATSINK1,2*
X72000000Y-120500000D03*
G04 #@! TO.P,HEATSINK1,1*
X124000000Y-141500000D03*
G04 #@! TD*
D20*
G04 #@! TO.P,J5,2*
G04 #@! TO.N,GND*
X60000000Y-109000000D03*
D21*
G04 #@! TO.P,J5,1*
G04 #@! TO.N,Net-(C10-Pad2)*
X61500000Y-109000000D03*
G04 #@! TD*
D22*
G04 #@! TO.P,J2,1*
G04 #@! TO.N,GND*
X140000000Y-153000000D03*
D23*
G04 #@! TO.P,J2,2*
G04 #@! TO.N,CHANNEL_B*
X133200000Y-150600000D03*
X132400000Y-147800000D03*
D24*
G04 #@! TO.P,J2,3*
G04 #@! TO.N,CHANNEL_A*
X129000000Y-157000000D03*
D23*
X135600000Y-157600000D03*
G04 #@! TD*
D25*
G04 #@! TO.P,J1,3*
G04 #@! TO.N,N/C*
X49000000Y-115700000D03*
G04 #@! TO.P,J1,2*
G04 #@! TO.N,GND*
X46000000Y-111000000D03*
G04 #@! TO.P,J1,1*
G04 #@! TO.N,Net-(F1-Pad2)*
X52000000Y-111000000D03*
G04 #@! TD*
D26*
G04 #@! TO.P,RV1,1*
G04 #@! TO.N,Net-(C4-Pad1)*
X120000000Y-91250000D03*
G04 #@! TO.P,RV1,2*
G04 #@! TO.N,Net-(R3-Pad1)*
X122540000Y-88710000D03*
G04 #@! TO.P,RV1,3*
G04 #@! TO.N,N/C*
X120000000Y-86170000D03*
G04 #@! TD*
G04 #@! TO.P,RV3,1*
G04 #@! TO.N,Net-(C7-Pad1)*
X80710000Y-91040000D03*
G04 #@! TO.P,RV3,2*
G04 #@! TO.N,Net-(R13-Pad1)*
X83250000Y-88500000D03*
G04 #@! TO.P,RV3,3*
G04 #@! TO.N,N/C*
X80710000Y-85960000D03*
G04 #@! TD*
D12*
G04 #@! TO.P,MNT1,1*
G04 #@! TO.N,GND*
X48000000Y-123000000D03*
G04 #@! TD*
G04 #@! TO.P,MNT2,1*
G04 #@! TO.N,GND*
X75000000Y-95000000D03*
G04 #@! TD*
G04 #@! TO.P,MNT3,1*
G04 #@! TO.N,GND*
X48000000Y-174000000D03*
G04 #@! TD*
D27*
G04 #@! TO.P,POWERIN1,2*
G04 #@! TO.N,GND*
X51190000Y-104250000D03*
D28*
G04 #@! TO.P,POWERIN1,1*
G04 #@! TO.N,Net-(F1-Pad2)*
X48650000Y-104250000D03*
G04 #@! TD*
D29*
G04 #@! TO.N,+12V*
X92500000Y-125000000D03*
X92500000Y-122500000D03*
X92500000Y-120000000D03*
X92500000Y-117500000D03*
X92500000Y-115000000D03*
X102500000Y-125000000D03*
X102500000Y-122500000D03*
X102500000Y-120000000D03*
X102500000Y-117500000D03*
X102500000Y-115000000D03*
X102950000Y-88000000D03*
X94275000Y-99500000D03*
X107000000Y-89500000D03*
X114000000Y-93000000D03*
X114000000Y-90000000D03*
X138100000Y-131500000D03*
X138000000Y-126500000D03*
X141000000Y-129000000D03*
X139000000Y-126500000D03*
X140000000Y-126500000D03*
X141000000Y-127000000D03*
X141000000Y-128000000D03*
X139000000Y-131500000D03*
X140000000Y-131500000D03*
X141000000Y-130000000D03*
X141000000Y-131000000D03*
X117500000Y-117500000D03*
X117500000Y-120000000D03*
X117500000Y-122500000D03*
X117500000Y-125000000D03*
X120000000Y-125000000D03*
X120000000Y-122500000D03*
X120000000Y-120000000D03*
X120000000Y-117500000D03*
X130000000Y-121000000D03*
X130000000Y-120000000D03*
X130000000Y-119000000D03*
X130000000Y-118000000D03*
X130000000Y-117000000D03*
X139000000Y-121000000D03*
X139000000Y-120000000D03*
X139000000Y-119000000D03*
X139000000Y-118000000D03*
G04 #@! TO.N,GND*
X103500000Y-93000000D03*
X116500000Y-99500000D03*
X94000000Y-86500000D03*
X86494999Y-87005001D03*
G04 #@! TO.N,Net-(C4-Pad1)*
X109500000Y-98000000D03*
G04 #@! TO.N,CHANNEL_A*
X128500000Y-107500000D03*
X123000000Y-102000000D03*
G04 #@! TO.N,CHANNEL_B*
X135000000Y-106500000D03*
X86500000Y-96500000D03*
G04 #@! TO.N,Net-(Q4-Pad2)*
X82500000Y-111000000D03*
G04 #@! TO.N,Net-(R3-Pad1)*
X105000000Y-97500000D03*
G04 #@! TO.N,Net-(R13-Pad1)*
X91950000Y-92600000D03*
X98600000Y-95500000D03*
G04 #@! TO.N,Net-(F1-Pad1)*
X65000000Y-116000000D03*
G04 #@! TO.N,Net-(C12-Pad1)*
X106000000Y-168000000D03*
G04 #@! TO.N,Net-(C10-Pad2)*
X80150000Y-109850000D03*
G04 #@! TD*
D30*
G04 #@! TO.N,+12V*
X94500000Y-99500000D02*
X94275000Y-99500000D01*
X114000000Y-90000000D02*
X114000000Y-93000000D01*
X94674999Y-99100001D02*
X94275000Y-99500000D01*
X99999999Y-99100001D02*
X94674999Y-99100001D01*
X102550001Y-96549999D02*
X99999999Y-99100001D01*
X102550001Y-88399999D02*
X102550001Y-96549999D01*
X102950000Y-88000000D02*
X102550001Y-88399999D01*
G04 #@! TO.N,GND*
X103500000Y-93000000D02*
X103500000Y-97073002D01*
X103500000Y-97073002D02*
X103500000Y-99000000D01*
X103500000Y-99000000D02*
X104000000Y-99500000D01*
X104000000Y-99500000D02*
X116500000Y-99500000D01*
X103500000Y-93000000D02*
X105000000Y-91500000D01*
X105000000Y-91500000D02*
X105000000Y-88000000D01*
X103500000Y-86500000D02*
X94000000Y-86500000D01*
X105000000Y-88000000D02*
X103500000Y-86500000D01*
X87000000Y-86500000D02*
X86494999Y-87005001D01*
X94000000Y-86500000D02*
X87000000Y-86500000D01*
G04 #@! TO.N,Net-(C4-Pad1)*
X111500000Y-98000000D02*
X109500000Y-98000000D01*
X117500000Y-93750000D02*
X120000000Y-91250000D01*
X115750000Y-93750000D02*
X117500000Y-93750000D01*
X115750000Y-93750000D02*
X111500000Y-98000000D01*
G04 #@! TO.N,CHANNEL_A*
X128500000Y-107500000D02*
X123000000Y-102000000D01*
D31*
G04 #@! TO.N,CHANNEL_B*
X131700000Y-147800000D02*
X132400000Y-147800000D01*
X126160001Y-153339999D02*
X131700000Y-147800000D01*
X126160001Y-162545001D02*
X126160001Y-153339999D01*
X127660000Y-164045000D02*
X126160001Y-162545001D01*
X132400000Y-149800000D02*
X133200000Y-150600000D01*
X132400000Y-147800000D02*
X132400000Y-149800000D01*
D30*
X90500000Y-100500000D02*
X86500000Y-96500000D01*
X123500000Y-100500000D02*
X90500000Y-100500000D01*
X129500000Y-106500000D02*
X123500000Y-100500000D01*
X135000000Y-106500000D02*
X129500000Y-106500000D01*
D31*
G04 #@! TO.N,OUTPUT_B*
X57420000Y-98955000D02*
X57420000Y-105580000D01*
X57420000Y-105580000D02*
X56000000Y-107000000D01*
X56000000Y-169000000D02*
X60000000Y-173000000D01*
X56000000Y-107000000D02*
X56000000Y-169000000D01*
D32*
X60000000Y-167920000D02*
X65080000Y-167920000D01*
X65080000Y-173000000D02*
X60000000Y-173000000D01*
X60000000Y-167920000D02*
X60000000Y-173000000D01*
X65080000Y-173000000D02*
X65080000Y-167920000D01*
D31*
G04 #@! TO.N,Net-(Q2-Pad3)*
X100660000Y-110340000D02*
X104460000Y-110340000D01*
X109500000Y-159302944D02*
X106197056Y-156000000D01*
X109500000Y-161000000D02*
X109500000Y-159302944D01*
X106197056Y-156000000D02*
X101000000Y-156000000D01*
X101000000Y-156000000D02*
X99500000Y-154500000D01*
X99500000Y-154500000D02*
X99500000Y-111500000D01*
X99500000Y-111500000D02*
X100660000Y-110340000D01*
D30*
G04 #@! TO.N,Net-(Q4-Pad2)*
X82500000Y-111000000D02*
X82500000Y-151000000D01*
X84710000Y-153210000D02*
X86460000Y-153210000D01*
X82500000Y-151000000D02*
X84710000Y-153210000D01*
D31*
G04 #@! TO.N,Net-(Q5-Pad3)*
X101500000Y-158000000D02*
X103500000Y-160000000D01*
X98000000Y-158000000D02*
X101500000Y-158000000D01*
X86460000Y-108540000D02*
X89000000Y-106000000D01*
X89000000Y-106000000D02*
X95000000Y-106000000D01*
X95000000Y-106000000D02*
X96000000Y-107000000D01*
X86460000Y-110340000D02*
X86460000Y-108540000D01*
X96000000Y-107000000D02*
X96000000Y-156000000D01*
X103500000Y-160000000D02*
X104500000Y-161000000D01*
X96000000Y-156000000D02*
X98000000Y-158000000D01*
D30*
G04 #@! TO.N,Net-(R3-Pad1)*
X122540000Y-88710000D02*
X121521767Y-88710000D01*
X121521767Y-88710000D02*
X120981767Y-89250000D01*
X120981767Y-89250000D02*
X116250000Y-89250000D01*
X116250000Y-89250000D02*
X115500000Y-88500000D01*
X115500000Y-88500000D02*
X114000000Y-88500000D01*
X114000000Y-88500000D02*
X112000000Y-88500000D01*
X112000000Y-88500000D02*
X110000000Y-90500000D01*
X110000000Y-90500000D02*
X110000000Y-92500000D01*
X105000000Y-97500000D02*
X110000000Y-92500000D01*
G04 #@! TO.N,Net-(R13-Pad1)*
X92349999Y-92999999D02*
X97299999Y-92999999D01*
X91950000Y-92600000D02*
X92349999Y-92999999D01*
X97299999Y-92999999D02*
X98600000Y-94300000D01*
X98600000Y-94300000D02*
X98600000Y-95500000D01*
D31*
G04 #@! TO.N,Net-(F1-Pad1)*
X138500000Y-111000000D02*
X132000000Y-111000000D01*
X132000000Y-111000000D02*
X126000000Y-111000000D01*
X126000000Y-111000000D02*
X123000000Y-114000000D01*
X123000000Y-114000000D02*
X119000000Y-114000000D01*
X119000000Y-114000000D02*
X111000000Y-106000000D01*
X109299990Y-104299990D02*
X96299990Y-104299990D01*
X111000000Y-106000000D02*
X109299990Y-104299990D01*
X96299990Y-104299990D02*
X95000000Y-103000000D01*
X95000000Y-103000000D02*
X73000000Y-103000000D01*
X73000000Y-103000000D02*
X69000000Y-107000000D01*
X69000000Y-107000000D02*
X69000000Y-112000000D01*
X69000000Y-112000000D02*
X65000000Y-116000000D01*
G04 #@! TO.N,Net-(C12-Pad1)*
X94500000Y-176240000D02*
X94500000Y-174500000D01*
X94500000Y-174500000D02*
X97000000Y-172000000D01*
X100260000Y-172000000D02*
X104500000Y-176240000D01*
X97000000Y-172000000D02*
X100260000Y-172000000D01*
D30*
X106000000Y-174740000D02*
X104500000Y-176240000D01*
X106000000Y-168000000D02*
X106000000Y-174740000D01*
D31*
G04 #@! TO.N,Net-(C10-Pad2)*
X80150000Y-110415685D02*
X75565685Y-115000000D01*
X80150000Y-109850000D02*
X80150000Y-110415685D01*
X75565685Y-115000000D02*
X70000000Y-115000000D01*
X70000000Y-115000000D02*
X66000000Y-119000000D01*
X66000000Y-119000000D02*
X63500000Y-119000000D01*
X63500000Y-119000000D02*
X61500000Y-117000000D01*
X61500000Y-117000000D02*
X61500000Y-114500000D01*
D33*
X64000000Y-109000000D02*
X61550010Y-109000000D01*
D31*
X64000000Y-109000000D02*
X64000000Y-112000000D01*
X61500000Y-114500000D02*
X64000000Y-112000000D01*
G04 #@! TD*
D34*
G04 #@! TO.N,GND*
G36*
X78740000Y-85568143D02*
X78740000Y-86351857D01*
X79039914Y-87075916D01*
X79594084Y-87630086D01*
X80318143Y-87930000D01*
X81101857Y-87930000D01*
X81405965Y-87804035D01*
X81280000Y-88108143D01*
X81280000Y-88891857D01*
X81405965Y-89195965D01*
X81101857Y-89070000D01*
X80318143Y-89070000D01*
X79594084Y-89369914D01*
X79039914Y-89924084D01*
X78740000Y-90648143D01*
X78740000Y-91431857D01*
X79039914Y-92155916D01*
X79594084Y-92710086D01*
X80318143Y-93010000D01*
X81101857Y-93010000D01*
X81825916Y-92710086D01*
X82264207Y-92271795D01*
X90300000Y-92271795D01*
X90300000Y-92928205D01*
X90551198Y-93534650D01*
X91015350Y-93998802D01*
X91621795Y-94250000D01*
X91745825Y-94250000D01*
X91813501Y-94295220D01*
X92214577Y-94374999D01*
X92214582Y-94374999D01*
X92349998Y-94401935D01*
X92485415Y-94374999D01*
X96730456Y-94374999D01*
X97119073Y-94763617D01*
X96950000Y-95171795D01*
X96950000Y-95828205D01*
X97201198Y-96434650D01*
X97665350Y-96898802D01*
X98271795Y-97150000D01*
X98928205Y-97150000D01*
X99534650Y-96898802D01*
X99998802Y-96434650D01*
X100250000Y-95828205D01*
X100250000Y-95171795D01*
X99998802Y-94565350D01*
X99975000Y-94541548D01*
X99975000Y-94435416D01*
X100001936Y-94299999D01*
X99975000Y-94164582D01*
X99975000Y-94164578D01*
X99895221Y-93763502D01*
X99842032Y-93683899D01*
X99668029Y-93423485D01*
X99668026Y-93423482D01*
X99591318Y-93308681D01*
X99476518Y-93231974D01*
X98368028Y-92123485D01*
X98291318Y-92008680D01*
X97836497Y-91704778D01*
X97435421Y-91624999D01*
X97435416Y-91624999D01*
X97299999Y-91598063D01*
X97164582Y-91624999D01*
X93308451Y-91624999D01*
X92884650Y-91201198D01*
X92278205Y-90950000D01*
X91621795Y-90950000D01*
X91015350Y-91201198D01*
X90551198Y-91665350D01*
X90300000Y-92271795D01*
X82264207Y-92271795D01*
X82380086Y-92155916D01*
X82680000Y-91431857D01*
X82680000Y-90648143D01*
X82554035Y-90344035D01*
X82858143Y-90470000D01*
X83641857Y-90470000D01*
X84365916Y-90170086D01*
X84920086Y-89615916D01*
X85220000Y-88891857D01*
X85220000Y-88108143D01*
X84920086Y-87384084D01*
X84365916Y-86829914D01*
X83641857Y-86530000D01*
X82858143Y-86530000D01*
X82554035Y-86655965D01*
X82680000Y-86351857D01*
X82680000Y-85568143D01*
X82579287Y-85325000D01*
X118217697Y-85325000D01*
X118030000Y-85778143D01*
X118030000Y-86561857D01*
X118329914Y-87285916D01*
X118884084Y-87840086D01*
X118968374Y-87875000D01*
X116819543Y-87875000D01*
X116568030Y-87623487D01*
X116491319Y-87508681D01*
X116036498Y-87204779D01*
X115635422Y-87125000D01*
X115635417Y-87125000D01*
X115500000Y-87098064D01*
X115364583Y-87125000D01*
X112135416Y-87125000D01*
X111999999Y-87098064D01*
X111864582Y-87125000D01*
X111864578Y-87125000D01*
X111463502Y-87204779D01*
X111463500Y-87204780D01*
X111463501Y-87204780D01*
X111123485Y-87431971D01*
X111123484Y-87431972D01*
X111008681Y-87508681D01*
X110931972Y-87623484D01*
X109123484Y-89431972D01*
X109008681Y-89508682D01*
X108704779Y-89963503D01*
X108625000Y-90364579D01*
X108625000Y-90364583D01*
X108598064Y-90500000D01*
X108625000Y-90635417D01*
X108625001Y-91930456D01*
X104705457Y-95850000D01*
X104671795Y-95850000D01*
X104065350Y-96101198D01*
X103925001Y-96241547D01*
X103925001Y-89358451D01*
X104111657Y-89171795D01*
X105350000Y-89171795D01*
X105350000Y-89828205D01*
X105601198Y-90434650D01*
X106065350Y-90898802D01*
X106671795Y-91150000D01*
X107328205Y-91150000D01*
X107934650Y-90898802D01*
X108398802Y-90434650D01*
X108650000Y-89828205D01*
X108650000Y-89171795D01*
X108398802Y-88565350D01*
X107934650Y-88101198D01*
X107328205Y-87850000D01*
X106671795Y-87850000D01*
X106065350Y-88101198D01*
X105601198Y-88565350D01*
X105350000Y-89171795D01*
X104111657Y-89171795D01*
X104348802Y-88934650D01*
X104600000Y-88328205D01*
X104600000Y-87671795D01*
X104348802Y-87065350D01*
X103884650Y-86601198D01*
X103278205Y-86350000D01*
X102621795Y-86350000D01*
X102015350Y-86601198D01*
X101551198Y-87065350D01*
X101300000Y-87671795D01*
X101300000Y-87795826D01*
X101254780Y-87863502D01*
X101175001Y-88264578D01*
X101175001Y-88264582D01*
X101148065Y-88399999D01*
X101175001Y-88535416D01*
X101175002Y-95980454D01*
X99430456Y-97725001D01*
X94810415Y-97725001D01*
X94674998Y-97698065D01*
X94539582Y-97725001D01*
X94539577Y-97725001D01*
X94138501Y-97804780D01*
X94070825Y-97850000D01*
X93946795Y-97850000D01*
X93340350Y-98101198D01*
X92876198Y-98565350D01*
X92644383Y-99125000D01*
X91069544Y-99125000D01*
X88150000Y-96205457D01*
X88150000Y-96171795D01*
X87898802Y-95565350D01*
X87434650Y-95101198D01*
X86828205Y-94850000D01*
X86171795Y-94850000D01*
X85565350Y-95101198D01*
X85101198Y-95565350D01*
X84850000Y-96171795D01*
X84850000Y-96828205D01*
X85101198Y-97434650D01*
X85565350Y-97898802D01*
X86171795Y-98150000D01*
X86205457Y-98150000D01*
X89055456Y-101000000D01*
X73196976Y-101000000D01*
X72999999Y-100960819D01*
X72803022Y-101000000D01*
X72803018Y-101000000D01*
X72219639Y-101116041D01*
X71964772Y-101286338D01*
X71829815Y-101376514D01*
X71558081Y-101558081D01*
X71446501Y-101725072D01*
X67725075Y-105446499D01*
X67558081Y-105558081D01*
X67116041Y-106219640D01*
X67000000Y-106803019D01*
X67000000Y-106803023D01*
X66960819Y-107000000D01*
X67000000Y-107196977D01*
X67000001Y-111171572D01*
X66006308Y-112165266D01*
X66039181Y-112000000D01*
X66000000Y-111803023D01*
X66000000Y-108803018D01*
X65883959Y-108219639D01*
X65441919Y-107558081D01*
X64780360Y-107116041D01*
X64000000Y-106960818D01*
X63219639Y-107116041D01*
X63019156Y-107250000D01*
X63002000Y-107250000D01*
X63001199Y-107248801D01*
X62587725Y-106972527D01*
X62100000Y-106875512D01*
X60900000Y-106875512D01*
X60412275Y-106972527D01*
X59998801Y-107248801D01*
X59853612Y-107466091D01*
X59783612Y-107409351D01*
X59484011Y-107493840D01*
X59042577Y-107786920D01*
X58746902Y-108226620D01*
X58642000Y-108746000D01*
X58642000Y-108996000D01*
X59625512Y-108996000D01*
X59625512Y-109004000D01*
X58642000Y-109004000D01*
X58642000Y-109254000D01*
X58746902Y-109773380D01*
X59042577Y-110213080D01*
X59484011Y-110506160D01*
X59783612Y-110590649D01*
X59853612Y-110533909D01*
X59998801Y-110751199D01*
X60412275Y-111027473D01*
X60900000Y-111124488D01*
X62000001Y-111124488D01*
X62000001Y-111171573D01*
X60225073Y-112946501D01*
X60058082Y-113058081D01*
X59946502Y-113225072D01*
X59946500Y-113225074D01*
X59616042Y-113719639D01*
X59460819Y-114500000D01*
X59500001Y-114696981D01*
X59500000Y-116803023D01*
X59460819Y-117000000D01*
X59500000Y-117196977D01*
X59500000Y-117196981D01*
X59616041Y-117780360D01*
X60058081Y-118441919D01*
X60225075Y-118553501D01*
X61946500Y-120274927D01*
X62058081Y-120441919D01*
X62719639Y-120883959D01*
X63303018Y-121000000D01*
X63303022Y-121000000D01*
X63499999Y-121039181D01*
X63696976Y-121000000D01*
X65803023Y-121000000D01*
X66000000Y-121039181D01*
X66196977Y-121000000D01*
X66196982Y-121000000D01*
X66780361Y-120883959D01*
X67441919Y-120441919D01*
X67553501Y-120274925D01*
X69661383Y-118167043D01*
X69782281Y-118287941D01*
X69310235Y-118550716D01*
X68769023Y-119728425D01*
X68719697Y-121023599D01*
X69169768Y-122239061D01*
X69310235Y-122449284D01*
X69782283Y-122712060D01*
X71994343Y-120500000D01*
X72005657Y-120500000D01*
X74217717Y-122712060D01*
X74689765Y-122449284D01*
X75230977Y-121271575D01*
X75280303Y-119976401D01*
X74830232Y-118760939D01*
X74689765Y-118550716D01*
X74217717Y-118287940D01*
X72005657Y-120500000D01*
X71994343Y-120500000D01*
X71980201Y-120485858D01*
X71985858Y-120480201D01*
X72000000Y-120494343D01*
X74212060Y-118282283D01*
X73949284Y-117810235D01*
X72771575Y-117269023D01*
X71476401Y-117219697D01*
X70260939Y-117669768D01*
X70050716Y-117810235D01*
X69787941Y-118282281D01*
X69667043Y-118161383D01*
X70828427Y-117000000D01*
X75368708Y-117000000D01*
X75565685Y-117039181D01*
X75750000Y-117002519D01*
X75750000Y-130500000D01*
X75845151Y-130978354D01*
X76116117Y-131383883D01*
X77616117Y-132883883D01*
X78021646Y-133154849D01*
X78500000Y-133250000D01*
X81125001Y-133250000D01*
X81125001Y-150864578D01*
X81098064Y-151000000D01*
X81125001Y-151135422D01*
X81188776Y-151456040D01*
X81204780Y-151536498D01*
X81431971Y-151876514D01*
X81431973Y-151876516D01*
X81508682Y-151991319D01*
X81623485Y-152068028D01*
X83641970Y-154086513D01*
X83718681Y-154201319D01*
X84173502Y-154505221D01*
X84371980Y-154544701D01*
X84382527Y-154597725D01*
X84658801Y-155011199D01*
X85072275Y-155287473D01*
X85560000Y-155384488D01*
X87360000Y-155384488D01*
X87847725Y-155287473D01*
X88261199Y-155011199D01*
X88443700Y-154738067D01*
X88736682Y-154846957D01*
X88996000Y-154678495D01*
X88996000Y-153214000D01*
X88976000Y-153214000D01*
X88976000Y-153206000D01*
X88996000Y-153206000D01*
X88996000Y-151741505D01*
X89004000Y-151741505D01*
X89004000Y-153206000D01*
X89024000Y-153206000D01*
X89024000Y-153214000D01*
X89004000Y-153214000D01*
X89004000Y-154678495D01*
X89263318Y-154846957D01*
X89869710Y-154621584D01*
X89886801Y-154605709D01*
X89989937Y-154760063D01*
X90701112Y-155235255D01*
X91328248Y-155360000D01*
X91751752Y-155360000D01*
X92378888Y-155235255D01*
X93090063Y-154760063D01*
X93565255Y-154048888D01*
X93732120Y-153210000D01*
X93565255Y-152371112D01*
X93090063Y-151659937D01*
X92378888Y-151184745D01*
X91751752Y-151060000D01*
X91328248Y-151060000D01*
X90701112Y-151184745D01*
X89989937Y-151659937D01*
X89886801Y-151814291D01*
X89869710Y-151798416D01*
X89263318Y-151573043D01*
X89004000Y-151741505D01*
X88996000Y-151741505D01*
X88736682Y-151573043D01*
X88443700Y-151681933D01*
X88261199Y-151408801D01*
X87847725Y-151132527D01*
X87360000Y-151035512D01*
X85560000Y-151035512D01*
X85072275Y-151132527D01*
X84775421Y-151330878D01*
X83875000Y-150430457D01*
X83875000Y-138727717D01*
X86747940Y-138727717D01*
X87010716Y-139199765D01*
X88188425Y-139740977D01*
X89483599Y-139790303D01*
X90699061Y-139340232D01*
X90909284Y-139199765D01*
X91172060Y-138727717D01*
X88960000Y-136515657D01*
X86747940Y-138727717D01*
X83875000Y-138727717D01*
X83875000Y-137033599D01*
X85679697Y-137033599D01*
X86129768Y-138249061D01*
X86270235Y-138459284D01*
X86742283Y-138722060D01*
X88954343Y-136510000D01*
X88965657Y-136510000D01*
X91177717Y-138722060D01*
X91649765Y-138459284D01*
X92190977Y-137281575D01*
X92240303Y-135986401D01*
X91790232Y-134770939D01*
X91649765Y-134560716D01*
X91177717Y-134297940D01*
X88965657Y-136510000D01*
X88954343Y-136510000D01*
X86742283Y-134297940D01*
X86270235Y-134560716D01*
X85729023Y-135738425D01*
X85679697Y-137033599D01*
X83875000Y-137033599D01*
X83875000Y-133250000D01*
X88381571Y-133250000D01*
X87220939Y-133679768D01*
X87010716Y-133820235D01*
X86747940Y-134292283D01*
X88960000Y-136504343D01*
X91172060Y-134292283D01*
X90909284Y-133820235D01*
X89731575Y-133279023D01*
X88969506Y-133250000D01*
X94000001Y-133250000D01*
X94000001Y-155803018D01*
X93960819Y-156000000D01*
X94116042Y-156780361D01*
X94446500Y-157274926D01*
X94446502Y-157274928D01*
X94558082Y-157441919D01*
X94725073Y-157553499D01*
X96446500Y-159274927D01*
X96558081Y-159441919D01*
X96725072Y-159553499D01*
X96725073Y-159553500D01*
X96933212Y-159692574D01*
X97219639Y-159883959D01*
X97289801Y-159897915D01*
X97192151Y-160044058D01*
X97002002Y-161000000D01*
X97192151Y-161955942D01*
X97733649Y-162766351D01*
X98544058Y-163307849D01*
X99258698Y-163450000D01*
X99741302Y-163450000D01*
X100455942Y-163307849D01*
X101266351Y-162766351D01*
X101807849Y-161955942D01*
X101943841Y-161272267D01*
X102050000Y-161378427D01*
X102050000Y-161487335D01*
X102422991Y-162387813D01*
X103112187Y-163077009D01*
X104012665Y-163450000D01*
X104987335Y-163450000D01*
X105887813Y-163077009D01*
X106577009Y-162387813D01*
X106950000Y-161487335D01*
X106950000Y-160512665D01*
X106577009Y-159612187D01*
X105887813Y-158922991D01*
X104987335Y-158550000D01*
X104878427Y-158550000D01*
X104328427Y-158000000D01*
X105368630Y-158000000D01*
X107293481Y-159924852D01*
X107050000Y-160512665D01*
X107050000Y-161487335D01*
X107422991Y-162387813D01*
X108112187Y-163077009D01*
X109012665Y-163450000D01*
X109987335Y-163450000D01*
X110887813Y-163077009D01*
X111577009Y-162387813D01*
X111950000Y-161487335D01*
X111950000Y-160512665D01*
X111577009Y-159612187D01*
X111500000Y-159535178D01*
X111500000Y-159499920D01*
X111539181Y-159302943D01*
X111500000Y-159105966D01*
X111500000Y-159105963D01*
X111383959Y-158522583D01*
X111112316Y-158116042D01*
X111053500Y-158028017D01*
X111053499Y-158028016D01*
X110941919Y-157861025D01*
X110774927Y-157749445D01*
X108743200Y-155717717D01*
X118287940Y-155717717D01*
X118550716Y-156189765D01*
X119728425Y-156730977D01*
X121023599Y-156780303D01*
X122239061Y-156330232D01*
X122449284Y-156189765D01*
X122712060Y-155717717D01*
X120500000Y-153505657D01*
X118287940Y-155717717D01*
X108743200Y-155717717D01*
X107816750Y-154791267D01*
X107869710Y-154771584D01*
X107886801Y-154755709D01*
X107989937Y-154910063D01*
X108701112Y-155385255D01*
X109328248Y-155510000D01*
X109751752Y-155510000D01*
X110378888Y-155385255D01*
X111090063Y-154910063D01*
X111565255Y-154198888D01*
X111600122Y-154023599D01*
X117219697Y-154023599D01*
X117669768Y-155239061D01*
X117810235Y-155449284D01*
X118282283Y-155712060D01*
X120494343Y-153500000D01*
X120505657Y-153500000D01*
X122717717Y-155712060D01*
X123189765Y-155449284D01*
X123730977Y-154271575D01*
X123780303Y-152976401D01*
X123330232Y-151760939D01*
X123189765Y-151550716D01*
X122717717Y-151287940D01*
X120505657Y-153500000D01*
X120494343Y-153500000D01*
X118282283Y-151287940D01*
X117810235Y-151550716D01*
X117269023Y-152728425D01*
X117219697Y-154023599D01*
X111600122Y-154023599D01*
X111732120Y-153360000D01*
X111565255Y-152521112D01*
X111090063Y-151809937D01*
X110378888Y-151334745D01*
X110115144Y-151282283D01*
X118287940Y-151282283D01*
X120500000Y-153494343D01*
X122712060Y-151282283D01*
X122449284Y-150810235D01*
X121271575Y-150269023D01*
X119976401Y-150219697D01*
X118760939Y-150669768D01*
X118550716Y-150810235D01*
X118287940Y-151282283D01*
X110115144Y-151282283D01*
X109751752Y-151210000D01*
X109328248Y-151210000D01*
X108701112Y-151334745D01*
X107989937Y-151809937D01*
X107886801Y-151964291D01*
X107869710Y-151948416D01*
X107263318Y-151723043D01*
X107004000Y-151891505D01*
X107004000Y-153356000D01*
X107024000Y-153356000D01*
X107024000Y-153364000D01*
X107004000Y-153364000D01*
X107004000Y-153384000D01*
X106996000Y-153384000D01*
X106996000Y-153364000D01*
X106976000Y-153364000D01*
X106976000Y-153356000D01*
X106996000Y-153356000D01*
X106996000Y-151891505D01*
X106736682Y-151723043D01*
X106443700Y-151831933D01*
X106261199Y-151558801D01*
X105847725Y-151282527D01*
X105360000Y-151185512D01*
X103560000Y-151185512D01*
X103072275Y-151282527D01*
X102658801Y-151558801D01*
X102382527Y-151972275D01*
X102285512Y-152460000D01*
X102285512Y-154000000D01*
X101828427Y-154000000D01*
X101500000Y-153671574D01*
X101500000Y-143717717D01*
X121787940Y-143717717D01*
X122050716Y-144189765D01*
X123228425Y-144730977D01*
X124523599Y-144780303D01*
X125739061Y-144330232D01*
X125949284Y-144189765D01*
X126212060Y-143717717D01*
X124000000Y-141505657D01*
X121787940Y-143717717D01*
X101500000Y-143717717D01*
X101500000Y-142023599D01*
X120719697Y-142023599D01*
X121169768Y-143239061D01*
X121310235Y-143449284D01*
X121782283Y-143712060D01*
X123994343Y-141500000D01*
X124005657Y-141500000D01*
X126217717Y-143712060D01*
X126689765Y-143449284D01*
X127230977Y-142271575D01*
X127280303Y-140976401D01*
X126830232Y-139760939D01*
X126689765Y-139550716D01*
X126217717Y-139287940D01*
X124005657Y-141500000D01*
X123994343Y-141500000D01*
X121782283Y-139287940D01*
X121310235Y-139550716D01*
X120769023Y-140728425D01*
X120719697Y-142023599D01*
X101500000Y-142023599D01*
X101500000Y-138877717D01*
X104747940Y-138877717D01*
X105010716Y-139349765D01*
X106188425Y-139890977D01*
X107483599Y-139940303D01*
X108699061Y-139490232D01*
X108909284Y-139349765D01*
X108946849Y-139282283D01*
X121787940Y-139282283D01*
X124000000Y-141494343D01*
X126212060Y-139282283D01*
X125949284Y-138810235D01*
X124771575Y-138269023D01*
X123476401Y-138219697D01*
X122260939Y-138669768D01*
X122050716Y-138810235D01*
X121787940Y-139282283D01*
X108946849Y-139282283D01*
X109172060Y-138877717D01*
X106960000Y-136665657D01*
X104747940Y-138877717D01*
X101500000Y-138877717D01*
X101500000Y-137183599D01*
X103679697Y-137183599D01*
X104129768Y-138399061D01*
X104270235Y-138609284D01*
X104742283Y-138872060D01*
X106954343Y-136660000D01*
X106965657Y-136660000D01*
X109177717Y-138872060D01*
X109649765Y-138609284D01*
X110190977Y-137431575D01*
X110240303Y-136136401D01*
X109790232Y-134920939D01*
X109649765Y-134710716D01*
X109177717Y-134447940D01*
X106965657Y-136660000D01*
X106954343Y-136660000D01*
X104742283Y-134447940D01*
X104270235Y-134710716D01*
X103729023Y-135888425D01*
X103679697Y-137183599D01*
X101500000Y-137183599D01*
X101500000Y-134442283D01*
X104747940Y-134442283D01*
X106960000Y-136654343D01*
X109172060Y-134442283D01*
X108909284Y-133970235D01*
X107731575Y-133429023D01*
X106436401Y-133379697D01*
X105220939Y-133829768D01*
X105010716Y-133970235D01*
X104747940Y-134442283D01*
X101500000Y-134442283D01*
X101500000Y-133250000D01*
X121956810Y-133250000D01*
X128250000Y-139992704D01*
X128250000Y-146500000D01*
X128345151Y-146978354D01*
X128616117Y-147383883D01*
X129018695Y-147652877D01*
X124885074Y-151786500D01*
X124718083Y-151898080D01*
X124606503Y-152065071D01*
X124606501Y-152065073D01*
X124276043Y-152559638D01*
X124120820Y-153339999D01*
X124160002Y-153536981D01*
X124160001Y-162348024D01*
X124120820Y-162545001D01*
X124160001Y-162741978D01*
X124160001Y-162741982D01*
X124276042Y-163325361D01*
X124718082Y-163986920D01*
X124885076Y-164098502D01*
X124910000Y-164123426D01*
X124910000Y-164592009D01*
X125328662Y-165602750D01*
X126102250Y-166376338D01*
X127112991Y-166795000D01*
X128207009Y-166795000D01*
X129217750Y-166376338D01*
X129991338Y-165602750D01*
X130410000Y-164592009D01*
X130410000Y-164409099D01*
X133006737Y-164409099D01*
X133319114Y-165251324D01*
X133415103Y-165394984D01*
X133783244Y-165536099D01*
X135274343Y-164045000D01*
X135285657Y-164045000D01*
X136776756Y-165536099D01*
X137144897Y-165394984D01*
X137519556Y-164578557D01*
X137553263Y-163680901D01*
X137240886Y-162838676D01*
X137144897Y-162695016D01*
X136776756Y-162553901D01*
X135285657Y-164045000D01*
X135274343Y-164045000D01*
X133783244Y-162553901D01*
X133415103Y-162695016D01*
X133040444Y-163511443D01*
X133006737Y-164409099D01*
X130410000Y-164409099D01*
X130410000Y-163497991D01*
X130016603Y-162548244D01*
X133788901Y-162548244D01*
X135280000Y-164039343D01*
X136771099Y-162548244D01*
X136629984Y-162180103D01*
X135813557Y-161805444D01*
X134915901Y-161771737D01*
X134073676Y-162084114D01*
X133930016Y-162180103D01*
X133788901Y-162548244D01*
X130016603Y-162548244D01*
X129991338Y-162487250D01*
X129217750Y-161713662D01*
X128207009Y-161295000D01*
X128160001Y-161295000D01*
X128160001Y-159776014D01*
X129000000Y-159943100D01*
X129858396Y-159772354D01*
X130586111Y-159286111D01*
X131072354Y-158558397D01*
X131200000Y-157916678D01*
X131200000Y-157600000D01*
X132656900Y-157600000D01*
X132827646Y-158458397D01*
X133313889Y-159186111D01*
X134041603Y-159672354D01*
X134683322Y-159800000D01*
X136516678Y-159800000D01*
X137158397Y-159672354D01*
X137886111Y-159186111D01*
X138372354Y-158458397D01*
X138543100Y-157600000D01*
X138372354Y-156741603D01*
X137886111Y-156013889D01*
X137158397Y-155527646D01*
X136516678Y-155400000D01*
X134683322Y-155400000D01*
X134041603Y-155527646D01*
X133313889Y-156013889D01*
X132827646Y-156741603D01*
X132656900Y-157600000D01*
X131200000Y-157600000D01*
X131200000Y-156083323D01*
X131072354Y-155441603D01*
X130586111Y-154713889D01*
X129858397Y-154227646D01*
X129000000Y-154056900D01*
X128160001Y-154223987D01*
X128160001Y-154168425D01*
X128971247Y-153357179D01*
X137770428Y-153357179D01*
X138076831Y-154183211D01*
X138676019Y-154829109D01*
X139476771Y-155196542D01*
X139642821Y-155229571D01*
X139996000Y-155068496D01*
X139996000Y-153004000D01*
X137931503Y-153004000D01*
X137770428Y-153357179D01*
X128971247Y-153357179D01*
X130604840Y-151723587D01*
X130913889Y-152186111D01*
X131641603Y-152672354D01*
X132283322Y-152800000D01*
X134116678Y-152800000D01*
X134758397Y-152672354D01*
X134802596Y-152642821D01*
X137770428Y-152642821D01*
X137931503Y-152996000D01*
X139996000Y-152996000D01*
X139996000Y-150931504D01*
X139642821Y-150770429D01*
X139476771Y-150803458D01*
X138676019Y-151170891D01*
X138076831Y-151816789D01*
X137770428Y-152642821D01*
X134802596Y-152642821D01*
X135486111Y-152186111D01*
X135972354Y-151458397D01*
X136143100Y-150600000D01*
X135972354Y-149741603D01*
X135486111Y-149013889D01*
X135104982Y-148759227D01*
X135172354Y-148658397D01*
X135343100Y-147800000D01*
X135333154Y-147750000D01*
X141675000Y-147750000D01*
X141675000Y-151549274D01*
X141323981Y-151170891D01*
X140523229Y-150803458D01*
X140357179Y-150770429D01*
X140004000Y-150931504D01*
X140004000Y-152996000D01*
X140024000Y-152996000D01*
X140024000Y-153004000D01*
X140004000Y-153004000D01*
X140004000Y-155068496D01*
X140357179Y-155229571D01*
X140523229Y-155196542D01*
X141323981Y-154829109D01*
X141675000Y-154450726D01*
X141675000Y-177675000D01*
X111487753Y-177675000D01*
X111807849Y-177195942D01*
X111997998Y-176240000D01*
X111807849Y-175284058D01*
X111266351Y-174473649D01*
X110455942Y-173932151D01*
X109741302Y-173790000D01*
X109258698Y-173790000D01*
X108544058Y-173932151D01*
X107733649Y-174473649D01*
X107336769Y-175067622D01*
X107375000Y-174875422D01*
X107375000Y-174875418D01*
X107401936Y-174740001D01*
X107375000Y-174604584D01*
X107375000Y-168958452D01*
X107398802Y-168934650D01*
X107608610Y-168428127D01*
X114625000Y-168428127D01*
X114625000Y-169571873D01*
X115062692Y-170628557D01*
X115871443Y-171437308D01*
X116928127Y-171875000D01*
X118071873Y-171875000D01*
X119128557Y-171437308D01*
X119937308Y-170628557D01*
X120040000Y-170380636D01*
X120142692Y-170628557D01*
X120951443Y-171437308D01*
X122008127Y-171875000D01*
X123151873Y-171875000D01*
X124208557Y-171437308D01*
X125017308Y-170628557D01*
X125455000Y-169571873D01*
X125455000Y-168428127D01*
X132405000Y-168428127D01*
X132405000Y-169571873D01*
X132842692Y-170628557D01*
X133651443Y-171437308D01*
X134708127Y-171875000D01*
X135851873Y-171875000D01*
X136908557Y-171437308D01*
X137717308Y-170628557D01*
X138155000Y-169571873D01*
X138155000Y-168428127D01*
X137717308Y-167371443D01*
X136908557Y-166562692D01*
X135999879Y-166186306D01*
X136486324Y-166005886D01*
X136629984Y-165909897D01*
X136771099Y-165541756D01*
X135280000Y-164050657D01*
X133788901Y-165541756D01*
X133930016Y-165909897D01*
X134545522Y-166192353D01*
X133651443Y-166562692D01*
X132842692Y-167371443D01*
X132405000Y-168428127D01*
X125455000Y-168428127D01*
X125017308Y-167371443D01*
X124208557Y-166562692D01*
X123151873Y-166125000D01*
X122008127Y-166125000D01*
X120951443Y-166562692D01*
X120142692Y-167371443D01*
X120040000Y-167619364D01*
X119937308Y-167371443D01*
X119128557Y-166562692D01*
X118868204Y-166454850D01*
X119057750Y-166376338D01*
X119831338Y-165602750D01*
X120250000Y-164592009D01*
X120250000Y-163497991D01*
X119831338Y-162487250D01*
X119057750Y-161713662D01*
X118047009Y-161295000D01*
X116952991Y-161295000D01*
X115942250Y-161713662D01*
X115168662Y-162487250D01*
X114750000Y-163497991D01*
X114750000Y-164592009D01*
X115168662Y-165602750D01*
X115942250Y-166376338D01*
X116131796Y-166454850D01*
X115871443Y-166562692D01*
X115062692Y-167371443D01*
X114625000Y-168428127D01*
X107608610Y-168428127D01*
X107650000Y-168328205D01*
X107650000Y-167671795D01*
X107398802Y-167065350D01*
X106934650Y-166601198D01*
X106328205Y-166350000D01*
X105671795Y-166350000D01*
X105065350Y-166601198D01*
X104601198Y-167065350D01*
X104350000Y-167671795D01*
X104350000Y-168328205D01*
X104601198Y-168934650D01*
X104625000Y-168958452D01*
X104625001Y-173536574D01*
X101813501Y-170725075D01*
X101701919Y-170558081D01*
X101040361Y-170116041D01*
X100456982Y-170000000D01*
X100456977Y-170000000D01*
X100260000Y-169960819D01*
X100063023Y-170000000D01*
X97196977Y-170000000D01*
X97000000Y-169960819D01*
X96803023Y-170000000D01*
X96803018Y-170000000D01*
X96219639Y-170116041D01*
X95558081Y-170558081D01*
X95446501Y-170725073D01*
X93225073Y-172946501D01*
X93058082Y-173058081D01*
X92946502Y-173225072D01*
X92946500Y-173225074D01*
X92616042Y-173719639D01*
X92460819Y-174500000D01*
X92500001Y-174696981D01*
X92500001Y-174775177D01*
X92422991Y-174852187D01*
X92050000Y-175752665D01*
X92050000Y-176727335D01*
X92422991Y-177627813D01*
X92470178Y-177675000D01*
X44325000Y-177675000D01*
X44325000Y-176217717D01*
X45787940Y-176217717D01*
X46050716Y-176689765D01*
X47228425Y-177230977D01*
X48523599Y-177280303D01*
X49739061Y-176830232D01*
X49949284Y-176689765D01*
X50212060Y-176217717D01*
X48000000Y-174005657D01*
X45787940Y-176217717D01*
X44325000Y-176217717D01*
X44325000Y-174523599D01*
X44719697Y-174523599D01*
X45169768Y-175739061D01*
X45310235Y-175949284D01*
X45782283Y-176212060D01*
X47994343Y-174000000D01*
X48005657Y-174000000D01*
X50217717Y-176212060D01*
X50689765Y-175949284D01*
X51230977Y-174771575D01*
X51280303Y-173476401D01*
X50830232Y-172260939D01*
X50689765Y-172050716D01*
X50217717Y-171787940D01*
X48005657Y-174000000D01*
X47994343Y-174000000D01*
X45782283Y-171787940D01*
X45310235Y-172050716D01*
X44769023Y-173228425D01*
X44719697Y-174523599D01*
X44325000Y-174523599D01*
X44325000Y-171782283D01*
X45787940Y-171782283D01*
X48000000Y-173994343D01*
X50212060Y-171782283D01*
X49949284Y-171310235D01*
X48771575Y-170769023D01*
X47476401Y-170719697D01*
X46260939Y-171169768D01*
X46050716Y-171310235D01*
X45787940Y-171782283D01*
X44325000Y-171782283D01*
X44325000Y-125217717D01*
X45787940Y-125217717D01*
X46050716Y-125689765D01*
X47228425Y-126230977D01*
X48523599Y-126280303D01*
X49739061Y-125830232D01*
X49949284Y-125689765D01*
X50212060Y-125217717D01*
X48000000Y-123005657D01*
X45787940Y-125217717D01*
X44325000Y-125217717D01*
X44325000Y-123523599D01*
X44719697Y-123523599D01*
X45169768Y-124739061D01*
X45310235Y-124949284D01*
X45782283Y-125212060D01*
X47994343Y-123000000D01*
X48005657Y-123000000D01*
X50217717Y-125212060D01*
X50689765Y-124949284D01*
X51230977Y-123771575D01*
X51280303Y-122476401D01*
X50830232Y-121260939D01*
X50689765Y-121050716D01*
X50217717Y-120787940D01*
X48005657Y-123000000D01*
X47994343Y-123000000D01*
X45782283Y-120787940D01*
X45310235Y-121050716D01*
X44769023Y-122228425D01*
X44719697Y-123523599D01*
X44325000Y-123523599D01*
X44325000Y-120782283D01*
X45787940Y-120782283D01*
X48000000Y-122994343D01*
X50212060Y-120782283D01*
X49949284Y-120310235D01*
X48771575Y-119769023D01*
X47476401Y-119719697D01*
X46260939Y-120169768D01*
X46050716Y-120310235D01*
X45787940Y-120782283D01*
X44325000Y-120782283D01*
X44325000Y-113950000D01*
X45975512Y-113950000D01*
X45975512Y-117450000D01*
X46072527Y-117937725D01*
X46348801Y-118351199D01*
X46762275Y-118627473D01*
X47250000Y-118724488D01*
X50750000Y-118724488D01*
X51237725Y-118627473D01*
X51651199Y-118351199D01*
X51927473Y-117937725D01*
X52024488Y-117450000D01*
X52024488Y-114024488D01*
X53750000Y-114024488D01*
X54000000Y-113974760D01*
X54000001Y-168803018D01*
X53960819Y-169000000D01*
X54116042Y-169780361D01*
X54446500Y-170274926D01*
X54446502Y-170274928D01*
X54558082Y-170441919D01*
X54725073Y-170553499D01*
X57500000Y-173328427D01*
X57500000Y-173497281D01*
X57880602Y-174416136D01*
X58583864Y-175119398D01*
X59502719Y-175500000D01*
X60497281Y-175500000D01*
X61100835Y-175250000D01*
X63979165Y-175250000D01*
X64582719Y-175500000D01*
X65577281Y-175500000D01*
X66496136Y-175119398D01*
X67199398Y-174416136D01*
X67580000Y-173497281D01*
X67580000Y-172502719D01*
X67330000Y-171899165D01*
X67330000Y-169020835D01*
X67580000Y-168417281D01*
X67580000Y-167422719D01*
X67199398Y-166503864D01*
X66496136Y-165800602D01*
X65577281Y-165420000D01*
X64582719Y-165420000D01*
X63979165Y-165670000D01*
X61100835Y-165670000D01*
X60497281Y-165420000D01*
X59502719Y-165420000D01*
X58583864Y-165800602D01*
X58000000Y-166384466D01*
X58000000Y-161000000D01*
X92002002Y-161000000D01*
X92192151Y-161955942D01*
X92733649Y-162766351D01*
X93544058Y-163307849D01*
X94258698Y-163450000D01*
X94741302Y-163450000D01*
X95455942Y-163307849D01*
X96266351Y-162766351D01*
X96807849Y-161955942D01*
X96997998Y-161000000D01*
X96807849Y-160044058D01*
X96266351Y-159233649D01*
X95455942Y-158692151D01*
X94741302Y-158550000D01*
X94258698Y-158550000D01*
X93544058Y-158692151D01*
X92733649Y-159233649D01*
X92192151Y-160044058D01*
X92002002Y-161000000D01*
X58000000Y-161000000D01*
X58000000Y-159896516D01*
X58689141Y-159896516D01*
X58799843Y-160238680D01*
X59525949Y-160571701D01*
X60324225Y-160601504D01*
X61073141Y-160323551D01*
X61200157Y-160238680D01*
X61310859Y-159896516D01*
X63769141Y-159896516D01*
X63879843Y-160238680D01*
X64605949Y-160571701D01*
X65404225Y-160601504D01*
X66153141Y-160323551D01*
X66280157Y-160238680D01*
X66390859Y-159896516D01*
X65080000Y-158585657D01*
X63769141Y-159896516D01*
X61310859Y-159896516D01*
X60000000Y-158585657D01*
X58689141Y-159896516D01*
X58000000Y-159896516D01*
X58000000Y-158962165D01*
X58256449Y-159653141D01*
X58341320Y-159780157D01*
X58683484Y-159890859D01*
X59994343Y-158580000D01*
X60005657Y-158580000D01*
X61316516Y-159890859D01*
X61658680Y-159780157D01*
X61991701Y-159054051D01*
X61997294Y-158904225D01*
X63058496Y-158904225D01*
X63336449Y-159653141D01*
X63421320Y-159780157D01*
X63763484Y-159890859D01*
X65074343Y-158580000D01*
X65085657Y-158580000D01*
X66396516Y-159890859D01*
X66738680Y-159780157D01*
X67071701Y-159054051D01*
X67101504Y-158255775D01*
X66823551Y-157506859D01*
X66738680Y-157379843D01*
X66396516Y-157269141D01*
X65085657Y-158580000D01*
X65074343Y-158580000D01*
X63763484Y-157269141D01*
X63421320Y-157379843D01*
X63088299Y-158105949D01*
X63058496Y-158904225D01*
X61997294Y-158904225D01*
X62021504Y-158255775D01*
X61743551Y-157506859D01*
X61658680Y-157379843D01*
X61316516Y-157269141D01*
X60005657Y-158580000D01*
X59994343Y-158580000D01*
X58683484Y-157269141D01*
X58341320Y-157379843D01*
X58008299Y-158105949D01*
X58000000Y-158328238D01*
X58000000Y-157263484D01*
X58689141Y-157263484D01*
X60000000Y-158574343D01*
X61310859Y-157263484D01*
X63769141Y-157263484D01*
X65080000Y-158574343D01*
X66390859Y-157263484D01*
X66280157Y-156921320D01*
X65554051Y-156588299D01*
X64755775Y-156558496D01*
X64006859Y-156836449D01*
X63879843Y-156921320D01*
X63769141Y-157263484D01*
X61310859Y-157263484D01*
X61200157Y-156921320D01*
X60474051Y-156588299D01*
X59675775Y-156558496D01*
X58926859Y-156836449D01*
X58799843Y-156921320D01*
X58689141Y-157263484D01*
X58000000Y-157263484D01*
X58000000Y-155717717D01*
X73287940Y-155717717D01*
X73550716Y-156189765D01*
X74728425Y-156730977D01*
X76023599Y-156780303D01*
X77239061Y-156330232D01*
X77449284Y-156189765D01*
X77712060Y-155717717D01*
X75500000Y-153505657D01*
X73287940Y-155717717D01*
X58000000Y-155717717D01*
X58000000Y-154816516D01*
X58689141Y-154816516D01*
X58799843Y-155158680D01*
X59525949Y-155491701D01*
X60324225Y-155521504D01*
X61073141Y-155243551D01*
X61200157Y-155158680D01*
X61310859Y-154816516D01*
X63769141Y-154816516D01*
X63879843Y-155158680D01*
X64605949Y-155491701D01*
X65404225Y-155521504D01*
X66153141Y-155243551D01*
X66280157Y-155158680D01*
X66390859Y-154816516D01*
X65080000Y-153505657D01*
X63769141Y-154816516D01*
X61310859Y-154816516D01*
X60000000Y-153505657D01*
X58689141Y-154816516D01*
X58000000Y-154816516D01*
X58000000Y-153882165D01*
X58256449Y-154573141D01*
X58341320Y-154700157D01*
X58683484Y-154810859D01*
X59994343Y-153500000D01*
X60005657Y-153500000D01*
X61316516Y-154810859D01*
X61658680Y-154700157D01*
X61991701Y-153974051D01*
X61997294Y-153824225D01*
X63058496Y-153824225D01*
X63336449Y-154573141D01*
X63421320Y-154700157D01*
X63763484Y-154810859D01*
X65074343Y-153500000D01*
X65085657Y-153500000D01*
X66396516Y-154810859D01*
X66738680Y-154700157D01*
X67048976Y-154023599D01*
X72219697Y-154023599D01*
X72669768Y-155239061D01*
X72810235Y-155449284D01*
X73282283Y-155712060D01*
X75494343Y-153500000D01*
X75505657Y-153500000D01*
X77717717Y-155712060D01*
X78189765Y-155449284D01*
X78730977Y-154271575D01*
X78780303Y-152976401D01*
X78330232Y-151760939D01*
X78189765Y-151550716D01*
X77717717Y-151287940D01*
X75505657Y-153500000D01*
X75494343Y-153500000D01*
X73282283Y-151287940D01*
X72810235Y-151550716D01*
X72269023Y-152728425D01*
X72219697Y-154023599D01*
X67048976Y-154023599D01*
X67071701Y-153974051D01*
X67101504Y-153175775D01*
X66823551Y-152426859D01*
X66738680Y-152299843D01*
X66396516Y-152189141D01*
X65085657Y-153500000D01*
X65074343Y-153500000D01*
X63763484Y-152189141D01*
X63421320Y-152299843D01*
X63088299Y-153025949D01*
X63058496Y-153824225D01*
X61997294Y-153824225D01*
X62021504Y-153175775D01*
X61743551Y-152426859D01*
X61658680Y-152299843D01*
X61316516Y-152189141D01*
X60005657Y-153500000D01*
X59994343Y-153500000D01*
X58683484Y-152189141D01*
X58341320Y-152299843D01*
X58008299Y-153025949D01*
X58000000Y-153248238D01*
X58000000Y-152183484D01*
X58689141Y-152183484D01*
X60000000Y-153494343D01*
X61310859Y-152183484D01*
X63769141Y-152183484D01*
X65080000Y-153494343D01*
X66390859Y-152183484D01*
X66280157Y-151841320D01*
X65554051Y-151508299D01*
X64755775Y-151478496D01*
X64006859Y-151756449D01*
X63879843Y-151841320D01*
X63769141Y-152183484D01*
X61310859Y-152183484D01*
X61200157Y-151841320D01*
X60474051Y-151508299D01*
X59675775Y-151478496D01*
X58926859Y-151756449D01*
X58799843Y-151841320D01*
X58689141Y-152183484D01*
X58000000Y-152183484D01*
X58000000Y-151282283D01*
X73287940Y-151282283D01*
X75500000Y-153494343D01*
X77712060Y-151282283D01*
X77449284Y-150810235D01*
X76271575Y-150269023D01*
X74976401Y-150219697D01*
X73760939Y-150669768D01*
X73550716Y-150810235D01*
X73287940Y-151282283D01*
X58000000Y-151282283D01*
X58000000Y-145356516D01*
X58649141Y-145356516D01*
X58759843Y-145698680D01*
X59485949Y-146031701D01*
X60284225Y-146061504D01*
X61033141Y-145783551D01*
X61160157Y-145698680D01*
X61270859Y-145356516D01*
X63729141Y-145356516D01*
X63839843Y-145698680D01*
X64565949Y-146031701D01*
X65364225Y-146061504D01*
X66113141Y-145783551D01*
X66240157Y-145698680D01*
X66350859Y-145356516D01*
X65040000Y-144045657D01*
X63729141Y-145356516D01*
X61270859Y-145356516D01*
X59960000Y-144045657D01*
X58649141Y-145356516D01*
X58000000Y-145356516D01*
X58000000Y-144529941D01*
X58216449Y-145113141D01*
X58301320Y-145240157D01*
X58643484Y-145350859D01*
X59954343Y-144040000D01*
X59965657Y-144040000D01*
X61276516Y-145350859D01*
X61618680Y-145240157D01*
X61951701Y-144514051D01*
X61957294Y-144364225D01*
X63018496Y-144364225D01*
X63296449Y-145113141D01*
X63381320Y-145240157D01*
X63723484Y-145350859D01*
X65034343Y-144040000D01*
X65045657Y-144040000D01*
X66356516Y-145350859D01*
X66698680Y-145240157D01*
X67031701Y-144514051D01*
X67061504Y-143715775D01*
X66783551Y-142966859D01*
X66698680Y-142839843D01*
X66356516Y-142729141D01*
X65045657Y-144040000D01*
X65034343Y-144040000D01*
X63723484Y-142729141D01*
X63381320Y-142839843D01*
X63048299Y-143565949D01*
X63018496Y-144364225D01*
X61957294Y-144364225D01*
X61981504Y-143715775D01*
X61703551Y-142966859D01*
X61618680Y-142839843D01*
X61276516Y-142729141D01*
X59965657Y-144040000D01*
X59954343Y-144040000D01*
X58643484Y-142729141D01*
X58301320Y-142839843D01*
X58000000Y-143496829D01*
X58000000Y-142723484D01*
X58649141Y-142723484D01*
X59960000Y-144034343D01*
X61270859Y-142723484D01*
X63729141Y-142723484D01*
X65040000Y-144034343D01*
X66350859Y-142723484D01*
X66240157Y-142381320D01*
X65514051Y-142048299D01*
X64715775Y-142018496D01*
X63966859Y-142296449D01*
X63839843Y-142381320D01*
X63729141Y-142723484D01*
X61270859Y-142723484D01*
X61160157Y-142381320D01*
X60434051Y-142048299D01*
X59635775Y-142018496D01*
X58886859Y-142296449D01*
X58759843Y-142381320D01*
X58649141Y-142723484D01*
X58000000Y-142723484D01*
X58000000Y-140276516D01*
X58649141Y-140276516D01*
X58759843Y-140618680D01*
X59485949Y-140951701D01*
X60284225Y-140981504D01*
X61033141Y-140703551D01*
X61160157Y-140618680D01*
X61270859Y-140276516D01*
X63729141Y-140276516D01*
X63839843Y-140618680D01*
X64565949Y-140951701D01*
X65364225Y-140981504D01*
X66113141Y-140703551D01*
X66240157Y-140618680D01*
X66350859Y-140276516D01*
X65040000Y-138965657D01*
X63729141Y-140276516D01*
X61270859Y-140276516D01*
X59960000Y-138965657D01*
X58649141Y-140276516D01*
X58000000Y-140276516D01*
X58000000Y-139449941D01*
X58216449Y-140033141D01*
X58301320Y-140160157D01*
X58643484Y-140270859D01*
X59954343Y-138960000D01*
X59965657Y-138960000D01*
X61276516Y-140270859D01*
X61618680Y-140160157D01*
X61951701Y-139434051D01*
X61957294Y-139284225D01*
X63018496Y-139284225D01*
X63296449Y-140033141D01*
X63381320Y-140160157D01*
X63723484Y-140270859D01*
X65034343Y-138960000D01*
X65045657Y-138960000D01*
X66356516Y-140270859D01*
X66698680Y-140160157D01*
X67031701Y-139434051D01*
X67061504Y-138635775D01*
X66783551Y-137886859D01*
X66698680Y-137759843D01*
X66356516Y-137649141D01*
X65045657Y-138960000D01*
X65034343Y-138960000D01*
X63723484Y-137649141D01*
X63381320Y-137759843D01*
X63048299Y-138485949D01*
X63018496Y-139284225D01*
X61957294Y-139284225D01*
X61981504Y-138635775D01*
X61703551Y-137886859D01*
X61618680Y-137759843D01*
X61276516Y-137649141D01*
X59965657Y-138960000D01*
X59954343Y-138960000D01*
X58643484Y-137649141D01*
X58301320Y-137759843D01*
X58000000Y-138416829D01*
X58000000Y-137643484D01*
X58649141Y-137643484D01*
X59960000Y-138954343D01*
X61270859Y-137643484D01*
X63729141Y-137643484D01*
X65040000Y-138954343D01*
X66350859Y-137643484D01*
X66240157Y-137301320D01*
X65514051Y-136968299D01*
X64715775Y-136938496D01*
X63966859Y-137216449D01*
X63839843Y-137301320D01*
X63729141Y-137643484D01*
X61270859Y-137643484D01*
X61160157Y-137301320D01*
X60434051Y-136968299D01*
X59635775Y-136938496D01*
X58886859Y-137216449D01*
X58759843Y-137301320D01*
X58649141Y-137643484D01*
X58000000Y-137643484D01*
X58000000Y-131195534D01*
X58503864Y-131699398D01*
X59422719Y-132080000D01*
X60417281Y-132080000D01*
X61336136Y-131699398D01*
X62039398Y-130996136D01*
X62420000Y-130077281D01*
X62420000Y-129082719D01*
X62500000Y-129082719D01*
X62500000Y-130077281D01*
X62880602Y-130996136D01*
X63583864Y-131699398D01*
X64502719Y-132080000D01*
X65497281Y-132080000D01*
X66416136Y-131699398D01*
X67119398Y-130996136D01*
X67500000Y-130077281D01*
X67500000Y-129082719D01*
X67119398Y-128163864D01*
X66416136Y-127460602D01*
X65497281Y-127080000D01*
X64502719Y-127080000D01*
X63583864Y-127460602D01*
X62880602Y-128163864D01*
X62500000Y-129082719D01*
X62420000Y-129082719D01*
X62039398Y-128163864D01*
X61336136Y-127460602D01*
X60417281Y-127080000D01*
X59422719Y-127080000D01*
X58503864Y-127460602D01*
X58000000Y-127964466D01*
X58000000Y-126115534D01*
X58503864Y-126619398D01*
X59422719Y-127000000D01*
X60417281Y-127000000D01*
X61336136Y-126619398D01*
X62039398Y-125916136D01*
X62420000Y-124997281D01*
X62420000Y-124002719D01*
X62500000Y-124002719D01*
X62500000Y-124997281D01*
X62880602Y-125916136D01*
X63583864Y-126619398D01*
X64502719Y-127000000D01*
X65497281Y-127000000D01*
X66416136Y-126619398D01*
X67119398Y-125916136D01*
X67500000Y-124997281D01*
X67500000Y-124002719D01*
X67119398Y-123083864D01*
X66753251Y-122717717D01*
X69787940Y-122717717D01*
X70050716Y-123189765D01*
X71228425Y-123730977D01*
X72523599Y-123780303D01*
X73739061Y-123330232D01*
X73949284Y-123189765D01*
X74212060Y-122717717D01*
X72000000Y-120505657D01*
X69787940Y-122717717D01*
X66753251Y-122717717D01*
X66416136Y-122380602D01*
X65497281Y-122000000D01*
X64502719Y-122000000D01*
X63583864Y-122380602D01*
X62880602Y-123083864D01*
X62500000Y-124002719D01*
X62420000Y-124002719D01*
X62039398Y-123083864D01*
X61336136Y-122380602D01*
X60417281Y-122000000D01*
X59422719Y-122000000D01*
X58503864Y-122380602D01*
X58000000Y-122884466D01*
X58000000Y-107828426D01*
X58694927Y-107133500D01*
X58861919Y-107021919D01*
X59008185Y-106803018D01*
X59166989Y-106565350D01*
X59303959Y-106360361D01*
X59420000Y-105776982D01*
X59420000Y-105776978D01*
X59459181Y-105580001D01*
X59420000Y-105383024D01*
X59420000Y-100844088D01*
X59751338Y-100512750D01*
X60170000Y-99502009D01*
X60170000Y-98407991D01*
X59751338Y-97397250D01*
X58977750Y-96623662D01*
X57967009Y-96205000D01*
X56872991Y-96205000D01*
X55862250Y-96623662D01*
X55088662Y-97397250D01*
X54670000Y-98407991D01*
X54670000Y-99502009D01*
X55088662Y-100512750D01*
X55420000Y-100844088D01*
X55420001Y-104751573D01*
X54725075Y-105446499D01*
X54558081Y-105558081D01*
X54116041Y-106219640D01*
X54000000Y-106803019D01*
X54000000Y-106803023D01*
X53960819Y-107000000D01*
X54000000Y-107196977D01*
X54000000Y-108025240D01*
X53750000Y-107975512D01*
X50250000Y-107975512D01*
X49762275Y-108072527D01*
X49348801Y-108348801D01*
X49072527Y-108762275D01*
X48975512Y-109250000D01*
X48975512Y-112675512D01*
X48508000Y-112675512D01*
X48508000Y-111193500D01*
X48318500Y-111004000D01*
X46004000Y-111004000D01*
X46004000Y-113318500D01*
X46102667Y-113417167D01*
X46072527Y-113462275D01*
X45975512Y-113950000D01*
X44325000Y-113950000D01*
X44325000Y-113508000D01*
X45806500Y-113508000D01*
X45996000Y-113318500D01*
X45996000Y-111004000D01*
X45976000Y-111004000D01*
X45976000Y-110996000D01*
X45996000Y-110996000D01*
X45996000Y-108681500D01*
X46004000Y-108681500D01*
X46004000Y-110996000D01*
X48318500Y-110996000D01*
X48508000Y-110806500D01*
X48508000Y-109099225D01*
X48392602Y-108820628D01*
X48179373Y-108607399D01*
X47900776Y-108492000D01*
X46193500Y-108492000D01*
X46004000Y-108681500D01*
X45996000Y-108681500D01*
X45806500Y-108492000D01*
X44325000Y-108492000D01*
X44325000Y-103400000D01*
X46525512Y-103400000D01*
X46525512Y-105100000D01*
X46622527Y-105587725D01*
X46898801Y-106001199D01*
X47312275Y-106277473D01*
X47800000Y-106374488D01*
X49500000Y-106374488D01*
X49987725Y-106277473D01*
X50401199Y-106001199D01*
X50594499Y-105711904D01*
X50818511Y-105814500D01*
X50934503Y-105837572D01*
X51186000Y-105668494D01*
X51186000Y-104254000D01*
X51194000Y-104254000D01*
X51194000Y-105668494D01*
X51445497Y-105837572D01*
X51561489Y-105814500D01*
X52131919Y-105553247D01*
X52558951Y-105093586D01*
X52777572Y-104505497D01*
X52608495Y-104254000D01*
X51194000Y-104254000D01*
X51186000Y-104254000D01*
X51166000Y-104254000D01*
X51166000Y-104246000D01*
X51186000Y-104246000D01*
X51186000Y-102831506D01*
X51194000Y-102831506D01*
X51194000Y-104246000D01*
X52608495Y-104246000D01*
X52777572Y-103994503D01*
X52558951Y-103406414D01*
X52131919Y-102946753D01*
X51561489Y-102685500D01*
X51445497Y-102662428D01*
X51194000Y-102831506D01*
X51186000Y-102831506D01*
X50934503Y-102662428D01*
X50818511Y-102685500D01*
X50594499Y-102788096D01*
X50401199Y-102498801D01*
X49987725Y-102222527D01*
X49500000Y-102125512D01*
X47800000Y-102125512D01*
X47312275Y-102222527D01*
X46898801Y-102498801D01*
X46622527Y-102912275D01*
X46525512Y-103400000D01*
X44325000Y-103400000D01*
X44325000Y-100451756D01*
X48308901Y-100451756D01*
X48450016Y-100819897D01*
X49266443Y-101194556D01*
X50164099Y-101228263D01*
X51006324Y-100915886D01*
X51149984Y-100819897D01*
X51291099Y-100451756D01*
X49800000Y-98960657D01*
X48308901Y-100451756D01*
X44325000Y-100451756D01*
X44325000Y-99319099D01*
X47526737Y-99319099D01*
X47839114Y-100161324D01*
X47935103Y-100304984D01*
X48303244Y-100446099D01*
X49794343Y-98955000D01*
X49805657Y-98955000D01*
X51296756Y-100446099D01*
X51664897Y-100304984D01*
X52039556Y-99488557D01*
X52073263Y-98590901D01*
X51760886Y-97748676D01*
X51664897Y-97605016D01*
X51296756Y-97463901D01*
X49805657Y-98955000D01*
X49794343Y-98955000D01*
X48303244Y-97463901D01*
X47935103Y-97605016D01*
X47560444Y-98421443D01*
X47526737Y-99319099D01*
X44325000Y-99319099D01*
X44325000Y-93428127D01*
X46925000Y-93428127D01*
X46925000Y-94571873D01*
X47362692Y-95628557D01*
X48171443Y-96437308D01*
X49080121Y-96813694D01*
X48593676Y-96994114D01*
X48450016Y-97090103D01*
X48308901Y-97458244D01*
X49800000Y-98949343D01*
X51291099Y-97458244D01*
X51149984Y-97090103D01*
X50534478Y-96807647D01*
X51428557Y-96437308D01*
X52237308Y-95628557D01*
X52675000Y-94571873D01*
X52675000Y-93428127D01*
X59625000Y-93428127D01*
X59625000Y-94571873D01*
X60062692Y-95628557D01*
X60871443Y-96437308D01*
X61928127Y-96875000D01*
X63071873Y-96875000D01*
X64128557Y-96437308D01*
X64937308Y-95628557D01*
X65040000Y-95380636D01*
X65142692Y-95628557D01*
X65951443Y-96437308D01*
X66211796Y-96545150D01*
X66022250Y-96623662D01*
X65248662Y-97397250D01*
X64830000Y-98407991D01*
X64830000Y-99502009D01*
X65248662Y-100512750D01*
X66022250Y-101286338D01*
X67032991Y-101705000D01*
X68127009Y-101705000D01*
X69137750Y-101286338D01*
X69911338Y-100512750D01*
X70330000Y-99502009D01*
X70330000Y-98407991D01*
X69911338Y-97397250D01*
X69731805Y-97217717D01*
X72787940Y-97217717D01*
X73050716Y-97689765D01*
X74228425Y-98230977D01*
X75523599Y-98280303D01*
X76739061Y-97830232D01*
X76949284Y-97689765D01*
X77212060Y-97217717D01*
X75000000Y-95005657D01*
X72787940Y-97217717D01*
X69731805Y-97217717D01*
X69137750Y-96623662D01*
X68948204Y-96545150D01*
X69208557Y-96437308D01*
X70017308Y-95628557D01*
X70060782Y-95523599D01*
X71719697Y-95523599D01*
X72169768Y-96739061D01*
X72310235Y-96949284D01*
X72782283Y-97212060D01*
X74994343Y-95000000D01*
X75005657Y-95000000D01*
X77217717Y-97212060D01*
X77689765Y-96949284D01*
X78230977Y-95771575D01*
X78280303Y-94476401D01*
X77830232Y-93260939D01*
X77689765Y-93050716D01*
X77217717Y-92787940D01*
X75005657Y-95000000D01*
X74994343Y-95000000D01*
X72782283Y-92787940D01*
X72310235Y-93050716D01*
X71769023Y-94228425D01*
X71719697Y-95523599D01*
X70060782Y-95523599D01*
X70455000Y-94571873D01*
X70455000Y-93428127D01*
X70187484Y-92782283D01*
X72787940Y-92782283D01*
X75000000Y-94994343D01*
X77212060Y-92782283D01*
X76949284Y-92310235D01*
X75771575Y-91769023D01*
X74476401Y-91719697D01*
X73260939Y-92169768D01*
X73050716Y-92310235D01*
X72787940Y-92782283D01*
X70187484Y-92782283D01*
X70017308Y-92371443D01*
X69208557Y-91562692D01*
X68151873Y-91125000D01*
X67008127Y-91125000D01*
X65951443Y-91562692D01*
X65142692Y-92371443D01*
X65040000Y-92619364D01*
X64937308Y-92371443D01*
X64128557Y-91562692D01*
X63071873Y-91125000D01*
X61928127Y-91125000D01*
X60871443Y-91562692D01*
X60062692Y-92371443D01*
X59625000Y-93428127D01*
X52675000Y-93428127D01*
X52237308Y-92371443D01*
X51428557Y-91562692D01*
X50371873Y-91125000D01*
X49228127Y-91125000D01*
X48171443Y-91562692D01*
X47362692Y-92371443D01*
X46925000Y-93428127D01*
X44325000Y-93428127D01*
X44325000Y-85325000D01*
X78840713Y-85325000D01*
X78740000Y-85568143D01*
X78740000Y-85568143D01*
G37*
X78740000Y-85568143D02*
X78740000Y-86351857D01*
X79039914Y-87075916D01*
X79594084Y-87630086D01*
X80318143Y-87930000D01*
X81101857Y-87930000D01*
X81405965Y-87804035D01*
X81280000Y-88108143D01*
X81280000Y-88891857D01*
X81405965Y-89195965D01*
X81101857Y-89070000D01*
X80318143Y-89070000D01*
X79594084Y-89369914D01*
X79039914Y-89924084D01*
X78740000Y-90648143D01*
X78740000Y-91431857D01*
X79039914Y-92155916D01*
X79594084Y-92710086D01*
X80318143Y-93010000D01*
X81101857Y-93010000D01*
X81825916Y-92710086D01*
X82264207Y-92271795D01*
X90300000Y-92271795D01*
X90300000Y-92928205D01*
X90551198Y-93534650D01*
X91015350Y-93998802D01*
X91621795Y-94250000D01*
X91745825Y-94250000D01*
X91813501Y-94295220D01*
X92214577Y-94374999D01*
X92214582Y-94374999D01*
X92349998Y-94401935D01*
X92485415Y-94374999D01*
X96730456Y-94374999D01*
X97119073Y-94763617D01*
X96950000Y-95171795D01*
X96950000Y-95828205D01*
X97201198Y-96434650D01*
X97665350Y-96898802D01*
X98271795Y-97150000D01*
X98928205Y-97150000D01*
X99534650Y-96898802D01*
X99998802Y-96434650D01*
X100250000Y-95828205D01*
X100250000Y-95171795D01*
X99998802Y-94565350D01*
X99975000Y-94541548D01*
X99975000Y-94435416D01*
X100001936Y-94299999D01*
X99975000Y-94164582D01*
X99975000Y-94164578D01*
X99895221Y-93763502D01*
X99842032Y-93683899D01*
X99668029Y-93423485D01*
X99668026Y-93423482D01*
X99591318Y-93308681D01*
X99476518Y-93231974D01*
X98368028Y-92123485D01*
X98291318Y-92008680D01*
X97836497Y-91704778D01*
X97435421Y-91624999D01*
X97435416Y-91624999D01*
X97299999Y-91598063D01*
X97164582Y-91624999D01*
X93308451Y-91624999D01*
X92884650Y-91201198D01*
X92278205Y-90950000D01*
X91621795Y-90950000D01*
X91015350Y-91201198D01*
X90551198Y-91665350D01*
X90300000Y-92271795D01*
X82264207Y-92271795D01*
X82380086Y-92155916D01*
X82680000Y-91431857D01*
X82680000Y-90648143D01*
X82554035Y-90344035D01*
X82858143Y-90470000D01*
X83641857Y-90470000D01*
X84365916Y-90170086D01*
X84920086Y-89615916D01*
X85220000Y-88891857D01*
X85220000Y-88108143D01*
X84920086Y-87384084D01*
X84365916Y-86829914D01*
X83641857Y-86530000D01*
X82858143Y-86530000D01*
X82554035Y-86655965D01*
X82680000Y-86351857D01*
X82680000Y-85568143D01*
X82579287Y-85325000D01*
X118217697Y-85325000D01*
X118030000Y-85778143D01*
X118030000Y-86561857D01*
X118329914Y-87285916D01*
X118884084Y-87840086D01*
X118968374Y-87875000D01*
X116819543Y-87875000D01*
X116568030Y-87623487D01*
X116491319Y-87508681D01*
X116036498Y-87204779D01*
X115635422Y-87125000D01*
X115635417Y-87125000D01*
X115500000Y-87098064D01*
X115364583Y-87125000D01*
X112135416Y-87125000D01*
X111999999Y-87098064D01*
X111864582Y-87125000D01*
X111864578Y-87125000D01*
X111463502Y-87204779D01*
X111463500Y-87204780D01*
X111463501Y-87204780D01*
X111123485Y-87431971D01*
X111123484Y-87431972D01*
X111008681Y-87508681D01*
X110931972Y-87623484D01*
X109123484Y-89431972D01*
X109008681Y-89508682D01*
X108704779Y-89963503D01*
X108625000Y-90364579D01*
X108625000Y-90364583D01*
X108598064Y-90500000D01*
X108625000Y-90635417D01*
X108625001Y-91930456D01*
X104705457Y-95850000D01*
X104671795Y-95850000D01*
X104065350Y-96101198D01*
X103925001Y-96241547D01*
X103925001Y-89358451D01*
X104111657Y-89171795D01*
X105350000Y-89171795D01*
X105350000Y-89828205D01*
X105601198Y-90434650D01*
X106065350Y-90898802D01*
X106671795Y-91150000D01*
X107328205Y-91150000D01*
X107934650Y-90898802D01*
X108398802Y-90434650D01*
X108650000Y-89828205D01*
X108650000Y-89171795D01*
X108398802Y-88565350D01*
X107934650Y-88101198D01*
X107328205Y-87850000D01*
X106671795Y-87850000D01*
X106065350Y-88101198D01*
X105601198Y-88565350D01*
X105350000Y-89171795D01*
X104111657Y-89171795D01*
X104348802Y-88934650D01*
X104600000Y-88328205D01*
X104600000Y-87671795D01*
X104348802Y-87065350D01*
X103884650Y-86601198D01*
X103278205Y-86350000D01*
X102621795Y-86350000D01*
X102015350Y-86601198D01*
X101551198Y-87065350D01*
X101300000Y-87671795D01*
X101300000Y-87795826D01*
X101254780Y-87863502D01*
X101175001Y-88264578D01*
X101175001Y-88264582D01*
X101148065Y-88399999D01*
X101175001Y-88535416D01*
X101175002Y-95980454D01*
X99430456Y-97725001D01*
X94810415Y-97725001D01*
X94674998Y-97698065D01*
X94539582Y-97725001D01*
X94539577Y-97725001D01*
X94138501Y-97804780D01*
X94070825Y-97850000D01*
X93946795Y-97850000D01*
X93340350Y-98101198D01*
X92876198Y-98565350D01*
X92644383Y-99125000D01*
X91069544Y-99125000D01*
X88150000Y-96205457D01*
X88150000Y-96171795D01*
X87898802Y-95565350D01*
X87434650Y-95101198D01*
X86828205Y-94850000D01*
X86171795Y-94850000D01*
X85565350Y-95101198D01*
X85101198Y-95565350D01*
X84850000Y-96171795D01*
X84850000Y-96828205D01*
X85101198Y-97434650D01*
X85565350Y-97898802D01*
X86171795Y-98150000D01*
X86205457Y-98150000D01*
X89055456Y-101000000D01*
X73196976Y-101000000D01*
X72999999Y-100960819D01*
X72803022Y-101000000D01*
X72803018Y-101000000D01*
X72219639Y-101116041D01*
X71964772Y-101286338D01*
X71829815Y-101376514D01*
X71558081Y-101558081D01*
X71446501Y-101725072D01*
X67725075Y-105446499D01*
X67558081Y-105558081D01*
X67116041Y-106219640D01*
X67000000Y-106803019D01*
X67000000Y-106803023D01*
X66960819Y-107000000D01*
X67000000Y-107196977D01*
X67000001Y-111171572D01*
X66006308Y-112165266D01*
X66039181Y-112000000D01*
X66000000Y-111803023D01*
X66000000Y-108803018D01*
X65883959Y-108219639D01*
X65441919Y-107558081D01*
X64780360Y-107116041D01*
X64000000Y-106960818D01*
X63219639Y-107116041D01*
X63019156Y-107250000D01*
X63002000Y-107250000D01*
X63001199Y-107248801D01*
X62587725Y-106972527D01*
X62100000Y-106875512D01*
X60900000Y-106875512D01*
X60412275Y-106972527D01*
X59998801Y-107248801D01*
X59853612Y-107466091D01*
X59783612Y-107409351D01*
X59484011Y-107493840D01*
X59042577Y-107786920D01*
X58746902Y-108226620D01*
X58642000Y-108746000D01*
X58642000Y-108996000D01*
X59625512Y-108996000D01*
X59625512Y-109004000D01*
X58642000Y-109004000D01*
X58642000Y-109254000D01*
X58746902Y-109773380D01*
X59042577Y-110213080D01*
X59484011Y-110506160D01*
X59783612Y-110590649D01*
X59853612Y-110533909D01*
X59998801Y-110751199D01*
X60412275Y-111027473D01*
X60900000Y-111124488D01*
X62000001Y-111124488D01*
X62000001Y-111171573D01*
X60225073Y-112946501D01*
X60058082Y-113058081D01*
X59946502Y-113225072D01*
X59946500Y-113225074D01*
X59616042Y-113719639D01*
X59460819Y-114500000D01*
X59500001Y-114696981D01*
X59500000Y-116803023D01*
X59460819Y-117000000D01*
X59500000Y-117196977D01*
X59500000Y-117196981D01*
X59616041Y-117780360D01*
X60058081Y-118441919D01*
X60225075Y-118553501D01*
X61946500Y-120274927D01*
X62058081Y-120441919D01*
X62719639Y-120883959D01*
X63303018Y-121000000D01*
X63303022Y-121000000D01*
X63499999Y-121039181D01*
X63696976Y-121000000D01*
X65803023Y-121000000D01*
X66000000Y-121039181D01*
X66196977Y-121000000D01*
X66196982Y-121000000D01*
X66780361Y-120883959D01*
X67441919Y-120441919D01*
X67553501Y-120274925D01*
X69661383Y-118167043D01*
X69782281Y-118287941D01*
X69310235Y-118550716D01*
X68769023Y-119728425D01*
X68719697Y-121023599D01*
X69169768Y-122239061D01*
X69310235Y-122449284D01*
X69782283Y-122712060D01*
X71994343Y-120500000D01*
X72005657Y-120500000D01*
X74217717Y-122712060D01*
X74689765Y-122449284D01*
X75230977Y-121271575D01*
X75280303Y-119976401D01*
X74830232Y-118760939D01*
X74689765Y-118550716D01*
X74217717Y-118287940D01*
X72005657Y-120500000D01*
X71994343Y-120500000D01*
X71980201Y-120485858D01*
X71985858Y-120480201D01*
X72000000Y-120494343D01*
X74212060Y-118282283D01*
X73949284Y-117810235D01*
X72771575Y-117269023D01*
X71476401Y-117219697D01*
X70260939Y-117669768D01*
X70050716Y-117810235D01*
X69787941Y-118282281D01*
X69667043Y-118161383D01*
X70828427Y-117000000D01*
X75368708Y-117000000D01*
X75565685Y-117039181D01*
X75750000Y-117002519D01*
X75750000Y-130500000D01*
X75845151Y-130978354D01*
X76116117Y-131383883D01*
X77616117Y-132883883D01*
X78021646Y-133154849D01*
X78500000Y-133250000D01*
X81125001Y-133250000D01*
X81125001Y-150864578D01*
X81098064Y-151000000D01*
X81125001Y-151135422D01*
X81188776Y-151456040D01*
X81204780Y-151536498D01*
X81431971Y-151876514D01*
X81431973Y-151876516D01*
X81508682Y-151991319D01*
X81623485Y-152068028D01*
X83641970Y-154086513D01*
X83718681Y-154201319D01*
X84173502Y-154505221D01*
X84371980Y-154544701D01*
X84382527Y-154597725D01*
X84658801Y-155011199D01*
X85072275Y-155287473D01*
X85560000Y-155384488D01*
X87360000Y-155384488D01*
X87847725Y-155287473D01*
X88261199Y-155011199D01*
X88443700Y-154738067D01*
X88736682Y-154846957D01*
X88996000Y-154678495D01*
X88996000Y-153214000D01*
X88976000Y-153214000D01*
X88976000Y-153206000D01*
X88996000Y-153206000D01*
X88996000Y-151741505D01*
X89004000Y-151741505D01*
X89004000Y-153206000D01*
X89024000Y-153206000D01*
X89024000Y-153214000D01*
X89004000Y-153214000D01*
X89004000Y-154678495D01*
X89263318Y-154846957D01*
X89869710Y-154621584D01*
X89886801Y-154605709D01*
X89989937Y-154760063D01*
X90701112Y-155235255D01*
X91328248Y-155360000D01*
X91751752Y-155360000D01*
X92378888Y-155235255D01*
X93090063Y-154760063D01*
X93565255Y-154048888D01*
X93732120Y-153210000D01*
X93565255Y-152371112D01*
X93090063Y-151659937D01*
X92378888Y-151184745D01*
X91751752Y-151060000D01*
X91328248Y-151060000D01*
X90701112Y-151184745D01*
X89989937Y-151659937D01*
X89886801Y-151814291D01*
X89869710Y-151798416D01*
X89263318Y-151573043D01*
X89004000Y-151741505D01*
X88996000Y-151741505D01*
X88736682Y-151573043D01*
X88443700Y-151681933D01*
X88261199Y-151408801D01*
X87847725Y-151132527D01*
X87360000Y-151035512D01*
X85560000Y-151035512D01*
X85072275Y-151132527D01*
X84775421Y-151330878D01*
X83875000Y-150430457D01*
X83875000Y-138727717D01*
X86747940Y-138727717D01*
X87010716Y-139199765D01*
X88188425Y-139740977D01*
X89483599Y-139790303D01*
X90699061Y-139340232D01*
X90909284Y-139199765D01*
X91172060Y-138727717D01*
X88960000Y-136515657D01*
X86747940Y-138727717D01*
X83875000Y-138727717D01*
X83875000Y-137033599D01*
X85679697Y-137033599D01*
X86129768Y-138249061D01*
X86270235Y-138459284D01*
X86742283Y-138722060D01*
X88954343Y-136510000D01*
X88965657Y-136510000D01*
X91177717Y-138722060D01*
X91649765Y-138459284D01*
X92190977Y-137281575D01*
X92240303Y-135986401D01*
X91790232Y-134770939D01*
X91649765Y-134560716D01*
X91177717Y-134297940D01*
X88965657Y-136510000D01*
X88954343Y-136510000D01*
X86742283Y-134297940D01*
X86270235Y-134560716D01*
X85729023Y-135738425D01*
X85679697Y-137033599D01*
X83875000Y-137033599D01*
X83875000Y-133250000D01*
X88381571Y-133250000D01*
X87220939Y-133679768D01*
X87010716Y-133820235D01*
X86747940Y-134292283D01*
X88960000Y-136504343D01*
X91172060Y-134292283D01*
X90909284Y-133820235D01*
X89731575Y-133279023D01*
X88969506Y-133250000D01*
X94000001Y-133250000D01*
X94000001Y-155803018D01*
X93960819Y-156000000D01*
X94116042Y-156780361D01*
X94446500Y-157274926D01*
X94446502Y-157274928D01*
X94558082Y-157441919D01*
X94725073Y-157553499D01*
X96446500Y-159274927D01*
X96558081Y-159441919D01*
X96725072Y-159553499D01*
X96725073Y-159553500D01*
X96933212Y-159692574D01*
X97219639Y-159883959D01*
X97289801Y-159897915D01*
X97192151Y-160044058D01*
X97002002Y-161000000D01*
X97192151Y-161955942D01*
X97733649Y-162766351D01*
X98544058Y-163307849D01*
X99258698Y-163450000D01*
X99741302Y-163450000D01*
X100455942Y-163307849D01*
X101266351Y-162766351D01*
X101807849Y-161955942D01*
X101943841Y-161272267D01*
X102050000Y-161378427D01*
X102050000Y-161487335D01*
X102422991Y-162387813D01*
X103112187Y-163077009D01*
X104012665Y-163450000D01*
X104987335Y-163450000D01*
X105887813Y-163077009D01*
X106577009Y-162387813D01*
X106950000Y-161487335D01*
X106950000Y-160512665D01*
X106577009Y-159612187D01*
X105887813Y-158922991D01*
X104987335Y-158550000D01*
X104878427Y-158550000D01*
X104328427Y-158000000D01*
X105368630Y-158000000D01*
X107293481Y-159924852D01*
X107050000Y-160512665D01*
X107050000Y-161487335D01*
X107422991Y-162387813D01*
X108112187Y-163077009D01*
X109012665Y-163450000D01*
X109987335Y-163450000D01*
X110887813Y-163077009D01*
X111577009Y-162387813D01*
X111950000Y-161487335D01*
X111950000Y-160512665D01*
X111577009Y-159612187D01*
X111500000Y-159535178D01*
X111500000Y-159499920D01*
X111539181Y-159302943D01*
X111500000Y-159105966D01*
X111500000Y-159105963D01*
X111383959Y-158522583D01*
X111112316Y-158116042D01*
X111053500Y-158028017D01*
X111053499Y-158028016D01*
X110941919Y-157861025D01*
X110774927Y-157749445D01*
X108743200Y-155717717D01*
X118287940Y-155717717D01*
X118550716Y-156189765D01*
X119728425Y-156730977D01*
X121023599Y-156780303D01*
X122239061Y-156330232D01*
X122449284Y-156189765D01*
X122712060Y-155717717D01*
X120500000Y-153505657D01*
X118287940Y-155717717D01*
X108743200Y-155717717D01*
X107816750Y-154791267D01*
X107869710Y-154771584D01*
X107886801Y-154755709D01*
X107989937Y-154910063D01*
X108701112Y-155385255D01*
X109328248Y-155510000D01*
X109751752Y-155510000D01*
X110378888Y-155385255D01*
X111090063Y-154910063D01*
X111565255Y-154198888D01*
X111600122Y-154023599D01*
X117219697Y-154023599D01*
X117669768Y-155239061D01*
X117810235Y-155449284D01*
X118282283Y-155712060D01*
X120494343Y-153500000D01*
X120505657Y-153500000D01*
X122717717Y-155712060D01*
X123189765Y-155449284D01*
X123730977Y-154271575D01*
X123780303Y-152976401D01*
X123330232Y-151760939D01*
X123189765Y-151550716D01*
X122717717Y-151287940D01*
X120505657Y-153500000D01*
X120494343Y-153500000D01*
X118282283Y-151287940D01*
X117810235Y-151550716D01*
X117269023Y-152728425D01*
X117219697Y-154023599D01*
X111600122Y-154023599D01*
X111732120Y-153360000D01*
X111565255Y-152521112D01*
X111090063Y-151809937D01*
X110378888Y-151334745D01*
X110115144Y-151282283D01*
X118287940Y-151282283D01*
X120500000Y-153494343D01*
X122712060Y-151282283D01*
X122449284Y-150810235D01*
X121271575Y-150269023D01*
X119976401Y-150219697D01*
X118760939Y-150669768D01*
X118550716Y-150810235D01*
X118287940Y-151282283D01*
X110115144Y-151282283D01*
X109751752Y-151210000D01*
X109328248Y-151210000D01*
X108701112Y-151334745D01*
X107989937Y-151809937D01*
X107886801Y-151964291D01*
X107869710Y-151948416D01*
X107263318Y-151723043D01*
X107004000Y-151891505D01*
X107004000Y-153356000D01*
X107024000Y-153356000D01*
X107024000Y-153364000D01*
X107004000Y-153364000D01*
X107004000Y-153384000D01*
X106996000Y-153384000D01*
X106996000Y-153364000D01*
X106976000Y-153364000D01*
X106976000Y-153356000D01*
X106996000Y-153356000D01*
X106996000Y-151891505D01*
X106736682Y-151723043D01*
X106443700Y-151831933D01*
X106261199Y-151558801D01*
X105847725Y-151282527D01*
X105360000Y-151185512D01*
X103560000Y-151185512D01*
X103072275Y-151282527D01*
X102658801Y-151558801D01*
X102382527Y-151972275D01*
X102285512Y-152460000D01*
X102285512Y-154000000D01*
X101828427Y-154000000D01*
X101500000Y-153671574D01*
X101500000Y-143717717D01*
X121787940Y-143717717D01*
X122050716Y-144189765D01*
X123228425Y-144730977D01*
X124523599Y-144780303D01*
X125739061Y-144330232D01*
X125949284Y-144189765D01*
X126212060Y-143717717D01*
X124000000Y-141505657D01*
X121787940Y-143717717D01*
X101500000Y-143717717D01*
X101500000Y-142023599D01*
X120719697Y-142023599D01*
X121169768Y-143239061D01*
X121310235Y-143449284D01*
X121782283Y-143712060D01*
X123994343Y-141500000D01*
X124005657Y-141500000D01*
X126217717Y-143712060D01*
X126689765Y-143449284D01*
X127230977Y-142271575D01*
X127280303Y-140976401D01*
X126830232Y-139760939D01*
X126689765Y-139550716D01*
X126217717Y-139287940D01*
X124005657Y-141500000D01*
X123994343Y-141500000D01*
X121782283Y-139287940D01*
X121310235Y-139550716D01*
X120769023Y-140728425D01*
X120719697Y-142023599D01*
X101500000Y-142023599D01*
X101500000Y-138877717D01*
X104747940Y-138877717D01*
X105010716Y-139349765D01*
X106188425Y-139890977D01*
X107483599Y-139940303D01*
X108699061Y-139490232D01*
X108909284Y-139349765D01*
X108946849Y-139282283D01*
X121787940Y-139282283D01*
X124000000Y-141494343D01*
X126212060Y-139282283D01*
X125949284Y-138810235D01*
X124771575Y-138269023D01*
X123476401Y-138219697D01*
X122260939Y-138669768D01*
X122050716Y-138810235D01*
X121787940Y-139282283D01*
X108946849Y-139282283D01*
X109172060Y-138877717D01*
X106960000Y-136665657D01*
X104747940Y-138877717D01*
X101500000Y-138877717D01*
X101500000Y-137183599D01*
X103679697Y-137183599D01*
X104129768Y-138399061D01*
X104270235Y-138609284D01*
X104742283Y-138872060D01*
X106954343Y-136660000D01*
X106965657Y-136660000D01*
X109177717Y-138872060D01*
X109649765Y-138609284D01*
X110190977Y-137431575D01*
X110240303Y-136136401D01*
X109790232Y-134920939D01*
X109649765Y-134710716D01*
X109177717Y-134447940D01*
X106965657Y-136660000D01*
X106954343Y-136660000D01*
X104742283Y-134447940D01*
X104270235Y-134710716D01*
X103729023Y-135888425D01*
X103679697Y-137183599D01*
X101500000Y-137183599D01*
X101500000Y-134442283D01*
X104747940Y-134442283D01*
X106960000Y-136654343D01*
X109172060Y-134442283D01*
X108909284Y-133970235D01*
X107731575Y-133429023D01*
X106436401Y-133379697D01*
X105220939Y-133829768D01*
X105010716Y-133970235D01*
X104747940Y-134442283D01*
X101500000Y-134442283D01*
X101500000Y-133250000D01*
X121956810Y-133250000D01*
X128250000Y-139992704D01*
X128250000Y-146500000D01*
X128345151Y-146978354D01*
X128616117Y-147383883D01*
X129018695Y-147652877D01*
X124885074Y-151786500D01*
X124718083Y-151898080D01*
X124606503Y-152065071D01*
X124606501Y-152065073D01*
X124276043Y-152559638D01*
X124120820Y-153339999D01*
X124160002Y-153536981D01*
X124160001Y-162348024D01*
X124120820Y-162545001D01*
X124160001Y-162741978D01*
X124160001Y-162741982D01*
X124276042Y-163325361D01*
X124718082Y-163986920D01*
X124885076Y-164098502D01*
X124910000Y-164123426D01*
X124910000Y-164592009D01*
X125328662Y-165602750D01*
X126102250Y-166376338D01*
X127112991Y-166795000D01*
X128207009Y-166795000D01*
X129217750Y-166376338D01*
X129991338Y-165602750D01*
X130410000Y-164592009D01*
X130410000Y-164409099D01*
X133006737Y-164409099D01*
X133319114Y-165251324D01*
X133415103Y-165394984D01*
X133783244Y-165536099D01*
X135274343Y-164045000D01*
X135285657Y-164045000D01*
X136776756Y-165536099D01*
X137144897Y-165394984D01*
X137519556Y-164578557D01*
X137553263Y-163680901D01*
X137240886Y-162838676D01*
X137144897Y-162695016D01*
X136776756Y-162553901D01*
X135285657Y-164045000D01*
X135274343Y-164045000D01*
X133783244Y-162553901D01*
X133415103Y-162695016D01*
X133040444Y-163511443D01*
X133006737Y-164409099D01*
X130410000Y-164409099D01*
X130410000Y-163497991D01*
X130016603Y-162548244D01*
X133788901Y-162548244D01*
X135280000Y-164039343D01*
X136771099Y-162548244D01*
X136629984Y-162180103D01*
X135813557Y-161805444D01*
X134915901Y-161771737D01*
X134073676Y-162084114D01*
X133930016Y-162180103D01*
X133788901Y-162548244D01*
X130016603Y-162548244D01*
X129991338Y-162487250D01*
X129217750Y-161713662D01*
X128207009Y-161295000D01*
X128160001Y-161295000D01*
X128160001Y-159776014D01*
X129000000Y-159943100D01*
X129858396Y-159772354D01*
X130586111Y-159286111D01*
X131072354Y-158558397D01*
X131200000Y-157916678D01*
X131200000Y-157600000D01*
X132656900Y-157600000D01*
X132827646Y-158458397D01*
X133313889Y-159186111D01*
X134041603Y-159672354D01*
X134683322Y-159800000D01*
X136516678Y-159800000D01*
X137158397Y-159672354D01*
X137886111Y-159186111D01*
X138372354Y-158458397D01*
X138543100Y-157600000D01*
X138372354Y-156741603D01*
X137886111Y-156013889D01*
X137158397Y-155527646D01*
X136516678Y-155400000D01*
X134683322Y-155400000D01*
X134041603Y-155527646D01*
X133313889Y-156013889D01*
X132827646Y-156741603D01*
X132656900Y-157600000D01*
X131200000Y-157600000D01*
X131200000Y-156083323D01*
X131072354Y-155441603D01*
X130586111Y-154713889D01*
X129858397Y-154227646D01*
X129000000Y-154056900D01*
X128160001Y-154223987D01*
X128160001Y-154168425D01*
X128971247Y-153357179D01*
X137770428Y-153357179D01*
X138076831Y-154183211D01*
X138676019Y-154829109D01*
X139476771Y-155196542D01*
X139642821Y-155229571D01*
X139996000Y-155068496D01*
X139996000Y-153004000D01*
X137931503Y-153004000D01*
X137770428Y-153357179D01*
X128971247Y-153357179D01*
X130604840Y-151723587D01*
X130913889Y-152186111D01*
X131641603Y-152672354D01*
X132283322Y-152800000D01*
X134116678Y-152800000D01*
X134758397Y-152672354D01*
X134802596Y-152642821D01*
X137770428Y-152642821D01*
X137931503Y-152996000D01*
X139996000Y-152996000D01*
X139996000Y-150931504D01*
X139642821Y-150770429D01*
X139476771Y-150803458D01*
X138676019Y-151170891D01*
X138076831Y-151816789D01*
X137770428Y-152642821D01*
X134802596Y-152642821D01*
X135486111Y-152186111D01*
X135972354Y-151458397D01*
X136143100Y-150600000D01*
X135972354Y-149741603D01*
X135486111Y-149013889D01*
X135104982Y-148759227D01*
X135172354Y-148658397D01*
X135343100Y-147800000D01*
X135333154Y-147750000D01*
X141675000Y-147750000D01*
X141675000Y-151549274D01*
X141323981Y-151170891D01*
X140523229Y-150803458D01*
X140357179Y-150770429D01*
X140004000Y-150931504D01*
X140004000Y-152996000D01*
X140024000Y-152996000D01*
X140024000Y-153004000D01*
X140004000Y-153004000D01*
X140004000Y-155068496D01*
X140357179Y-155229571D01*
X140523229Y-155196542D01*
X141323981Y-154829109D01*
X141675000Y-154450726D01*
X141675000Y-177675000D01*
X111487753Y-177675000D01*
X111807849Y-177195942D01*
X111997998Y-176240000D01*
X111807849Y-175284058D01*
X111266351Y-174473649D01*
X110455942Y-173932151D01*
X109741302Y-173790000D01*
X109258698Y-173790000D01*
X108544058Y-173932151D01*
X107733649Y-174473649D01*
X107336769Y-175067622D01*
X107375000Y-174875422D01*
X107375000Y-174875418D01*
X107401936Y-174740001D01*
X107375000Y-174604584D01*
X107375000Y-168958452D01*
X107398802Y-168934650D01*
X107608610Y-168428127D01*
X114625000Y-168428127D01*
X114625000Y-169571873D01*
X115062692Y-170628557D01*
X115871443Y-171437308D01*
X116928127Y-171875000D01*
X118071873Y-171875000D01*
X119128557Y-171437308D01*
X119937308Y-170628557D01*
X120040000Y-170380636D01*
X120142692Y-170628557D01*
X120951443Y-171437308D01*
X122008127Y-171875000D01*
X123151873Y-171875000D01*
X124208557Y-171437308D01*
X125017308Y-170628557D01*
X125455000Y-169571873D01*
X125455000Y-168428127D01*
X132405000Y-168428127D01*
X132405000Y-169571873D01*
X132842692Y-170628557D01*
X133651443Y-171437308D01*
X134708127Y-171875000D01*
X135851873Y-171875000D01*
X136908557Y-171437308D01*
X137717308Y-170628557D01*
X138155000Y-169571873D01*
X138155000Y-168428127D01*
X137717308Y-167371443D01*
X136908557Y-166562692D01*
X135999879Y-166186306D01*
X136486324Y-166005886D01*
X136629984Y-165909897D01*
X136771099Y-165541756D01*
X135280000Y-164050657D01*
X133788901Y-165541756D01*
X133930016Y-165909897D01*
X134545522Y-166192353D01*
X133651443Y-166562692D01*
X132842692Y-167371443D01*
X132405000Y-168428127D01*
X125455000Y-168428127D01*
X125017308Y-167371443D01*
X124208557Y-166562692D01*
X123151873Y-166125000D01*
X122008127Y-166125000D01*
X120951443Y-166562692D01*
X120142692Y-167371443D01*
X120040000Y-167619364D01*
X119937308Y-167371443D01*
X119128557Y-166562692D01*
X118868204Y-166454850D01*
X119057750Y-166376338D01*
X119831338Y-165602750D01*
X120250000Y-164592009D01*
X120250000Y-163497991D01*
X119831338Y-162487250D01*
X119057750Y-161713662D01*
X118047009Y-161295000D01*
X116952991Y-161295000D01*
X115942250Y-161713662D01*
X115168662Y-162487250D01*
X114750000Y-163497991D01*
X114750000Y-164592009D01*
X115168662Y-165602750D01*
X115942250Y-166376338D01*
X116131796Y-166454850D01*
X115871443Y-166562692D01*
X115062692Y-167371443D01*
X114625000Y-168428127D01*
X107608610Y-168428127D01*
X107650000Y-168328205D01*
X107650000Y-167671795D01*
X107398802Y-167065350D01*
X106934650Y-166601198D01*
X106328205Y-166350000D01*
X105671795Y-166350000D01*
X105065350Y-166601198D01*
X104601198Y-167065350D01*
X104350000Y-167671795D01*
X104350000Y-168328205D01*
X104601198Y-168934650D01*
X104625000Y-168958452D01*
X104625001Y-173536574D01*
X101813501Y-170725075D01*
X101701919Y-170558081D01*
X101040361Y-170116041D01*
X100456982Y-170000000D01*
X100456977Y-170000000D01*
X100260000Y-169960819D01*
X100063023Y-170000000D01*
X97196977Y-170000000D01*
X97000000Y-169960819D01*
X96803023Y-170000000D01*
X96803018Y-170000000D01*
X96219639Y-170116041D01*
X95558081Y-170558081D01*
X95446501Y-170725073D01*
X93225073Y-172946501D01*
X93058082Y-173058081D01*
X92946502Y-173225072D01*
X92946500Y-173225074D01*
X92616042Y-173719639D01*
X92460819Y-174500000D01*
X92500001Y-174696981D01*
X92500001Y-174775177D01*
X92422991Y-174852187D01*
X92050000Y-175752665D01*
X92050000Y-176727335D01*
X92422991Y-177627813D01*
X92470178Y-177675000D01*
X44325000Y-177675000D01*
X44325000Y-176217717D01*
X45787940Y-176217717D01*
X46050716Y-176689765D01*
X47228425Y-177230977D01*
X48523599Y-177280303D01*
X49739061Y-176830232D01*
X49949284Y-176689765D01*
X50212060Y-176217717D01*
X48000000Y-174005657D01*
X45787940Y-176217717D01*
X44325000Y-176217717D01*
X44325000Y-174523599D01*
X44719697Y-174523599D01*
X45169768Y-175739061D01*
X45310235Y-175949284D01*
X45782283Y-176212060D01*
X47994343Y-174000000D01*
X48005657Y-174000000D01*
X50217717Y-176212060D01*
X50689765Y-175949284D01*
X51230977Y-174771575D01*
X51280303Y-173476401D01*
X50830232Y-172260939D01*
X50689765Y-172050716D01*
X50217717Y-171787940D01*
X48005657Y-174000000D01*
X47994343Y-174000000D01*
X45782283Y-171787940D01*
X45310235Y-172050716D01*
X44769023Y-173228425D01*
X44719697Y-174523599D01*
X44325000Y-174523599D01*
X44325000Y-171782283D01*
X45787940Y-171782283D01*
X48000000Y-173994343D01*
X50212060Y-171782283D01*
X49949284Y-171310235D01*
X48771575Y-170769023D01*
X47476401Y-170719697D01*
X46260939Y-171169768D01*
X46050716Y-171310235D01*
X45787940Y-171782283D01*
X44325000Y-171782283D01*
X44325000Y-125217717D01*
X45787940Y-125217717D01*
X46050716Y-125689765D01*
X47228425Y-126230977D01*
X48523599Y-126280303D01*
X49739061Y-125830232D01*
X49949284Y-125689765D01*
X50212060Y-125217717D01*
X48000000Y-123005657D01*
X45787940Y-125217717D01*
X44325000Y-125217717D01*
X44325000Y-123523599D01*
X44719697Y-123523599D01*
X45169768Y-124739061D01*
X45310235Y-124949284D01*
X45782283Y-125212060D01*
X47994343Y-123000000D01*
X48005657Y-123000000D01*
X50217717Y-125212060D01*
X50689765Y-124949284D01*
X51230977Y-123771575D01*
X51280303Y-122476401D01*
X50830232Y-121260939D01*
X50689765Y-121050716D01*
X50217717Y-120787940D01*
X48005657Y-123000000D01*
X47994343Y-123000000D01*
X45782283Y-120787940D01*
X45310235Y-121050716D01*
X44769023Y-122228425D01*
X44719697Y-123523599D01*
X44325000Y-123523599D01*
X44325000Y-120782283D01*
X45787940Y-120782283D01*
X48000000Y-122994343D01*
X50212060Y-120782283D01*
X49949284Y-120310235D01*
X48771575Y-119769023D01*
X47476401Y-119719697D01*
X46260939Y-120169768D01*
X46050716Y-120310235D01*
X45787940Y-120782283D01*
X44325000Y-120782283D01*
X44325000Y-113950000D01*
X45975512Y-113950000D01*
X45975512Y-117450000D01*
X46072527Y-117937725D01*
X46348801Y-118351199D01*
X46762275Y-118627473D01*
X47250000Y-118724488D01*
X50750000Y-118724488D01*
X51237725Y-118627473D01*
X51651199Y-118351199D01*
X51927473Y-117937725D01*
X52024488Y-117450000D01*
X52024488Y-114024488D01*
X53750000Y-114024488D01*
X54000000Y-113974760D01*
X54000001Y-168803018D01*
X53960819Y-169000000D01*
X54116042Y-169780361D01*
X54446500Y-170274926D01*
X54446502Y-170274928D01*
X54558082Y-170441919D01*
X54725073Y-170553499D01*
X57500000Y-173328427D01*
X57500000Y-173497281D01*
X57880602Y-174416136D01*
X58583864Y-175119398D01*
X59502719Y-175500000D01*
X60497281Y-175500000D01*
X61100835Y-175250000D01*
X63979165Y-175250000D01*
X64582719Y-175500000D01*
X65577281Y-175500000D01*
X66496136Y-175119398D01*
X67199398Y-174416136D01*
X67580000Y-173497281D01*
X67580000Y-172502719D01*
X67330000Y-171899165D01*
X67330000Y-169020835D01*
X67580000Y-168417281D01*
X67580000Y-167422719D01*
X67199398Y-166503864D01*
X66496136Y-165800602D01*
X65577281Y-165420000D01*
X64582719Y-165420000D01*
X63979165Y-165670000D01*
X61100835Y-165670000D01*
X60497281Y-165420000D01*
X59502719Y-165420000D01*
X58583864Y-165800602D01*
X58000000Y-166384466D01*
X58000000Y-161000000D01*
X92002002Y-161000000D01*
X92192151Y-161955942D01*
X92733649Y-162766351D01*
X93544058Y-163307849D01*
X94258698Y-163450000D01*
X94741302Y-163450000D01*
X95455942Y-163307849D01*
X96266351Y-162766351D01*
X96807849Y-161955942D01*
X96997998Y-161000000D01*
X96807849Y-160044058D01*
X96266351Y-159233649D01*
X95455942Y-158692151D01*
X94741302Y-158550000D01*
X94258698Y-158550000D01*
X93544058Y-158692151D01*
X92733649Y-159233649D01*
X92192151Y-160044058D01*
X92002002Y-161000000D01*
X58000000Y-161000000D01*
X58000000Y-159896516D01*
X58689141Y-159896516D01*
X58799843Y-160238680D01*
X59525949Y-160571701D01*
X60324225Y-160601504D01*
X61073141Y-160323551D01*
X61200157Y-160238680D01*
X61310859Y-159896516D01*
X63769141Y-159896516D01*
X63879843Y-160238680D01*
X64605949Y-160571701D01*
X65404225Y-160601504D01*
X66153141Y-160323551D01*
X66280157Y-160238680D01*
X66390859Y-159896516D01*
X65080000Y-158585657D01*
X63769141Y-159896516D01*
X61310859Y-159896516D01*
X60000000Y-158585657D01*
X58689141Y-159896516D01*
X58000000Y-159896516D01*
X58000000Y-158962165D01*
X58256449Y-159653141D01*
X58341320Y-159780157D01*
X58683484Y-159890859D01*
X59994343Y-158580000D01*
X60005657Y-158580000D01*
X61316516Y-159890859D01*
X61658680Y-159780157D01*
X61991701Y-159054051D01*
X61997294Y-158904225D01*
X63058496Y-158904225D01*
X63336449Y-159653141D01*
X63421320Y-159780157D01*
X63763484Y-159890859D01*
X65074343Y-158580000D01*
X65085657Y-158580000D01*
X66396516Y-159890859D01*
X66738680Y-159780157D01*
X67071701Y-159054051D01*
X67101504Y-158255775D01*
X66823551Y-157506859D01*
X66738680Y-157379843D01*
X66396516Y-157269141D01*
X65085657Y-158580000D01*
X65074343Y-158580000D01*
X63763484Y-157269141D01*
X63421320Y-157379843D01*
X63088299Y-158105949D01*
X63058496Y-158904225D01*
X61997294Y-158904225D01*
X62021504Y-158255775D01*
X61743551Y-157506859D01*
X61658680Y-157379843D01*
X61316516Y-157269141D01*
X60005657Y-158580000D01*
X59994343Y-158580000D01*
X58683484Y-157269141D01*
X58341320Y-157379843D01*
X58008299Y-158105949D01*
X58000000Y-158328238D01*
X58000000Y-157263484D01*
X58689141Y-157263484D01*
X60000000Y-158574343D01*
X61310859Y-157263484D01*
X63769141Y-157263484D01*
X65080000Y-158574343D01*
X66390859Y-157263484D01*
X66280157Y-156921320D01*
X65554051Y-156588299D01*
X64755775Y-156558496D01*
X64006859Y-156836449D01*
X63879843Y-156921320D01*
X63769141Y-157263484D01*
X61310859Y-157263484D01*
X61200157Y-156921320D01*
X60474051Y-156588299D01*
X59675775Y-156558496D01*
X58926859Y-156836449D01*
X58799843Y-156921320D01*
X58689141Y-157263484D01*
X58000000Y-157263484D01*
X58000000Y-155717717D01*
X73287940Y-155717717D01*
X73550716Y-156189765D01*
X74728425Y-156730977D01*
X76023599Y-156780303D01*
X77239061Y-156330232D01*
X77449284Y-156189765D01*
X77712060Y-155717717D01*
X75500000Y-153505657D01*
X73287940Y-155717717D01*
X58000000Y-155717717D01*
X58000000Y-154816516D01*
X58689141Y-154816516D01*
X58799843Y-155158680D01*
X59525949Y-155491701D01*
X60324225Y-155521504D01*
X61073141Y-155243551D01*
X61200157Y-155158680D01*
X61310859Y-154816516D01*
X63769141Y-154816516D01*
X63879843Y-155158680D01*
X64605949Y-155491701D01*
X65404225Y-155521504D01*
X66153141Y-155243551D01*
X66280157Y-155158680D01*
X66390859Y-154816516D01*
X65080000Y-153505657D01*
X63769141Y-154816516D01*
X61310859Y-154816516D01*
X60000000Y-153505657D01*
X58689141Y-154816516D01*
X58000000Y-154816516D01*
X58000000Y-153882165D01*
X58256449Y-154573141D01*
X58341320Y-154700157D01*
X58683484Y-154810859D01*
X59994343Y-153500000D01*
X60005657Y-153500000D01*
X61316516Y-154810859D01*
X61658680Y-154700157D01*
X61991701Y-153974051D01*
X61997294Y-153824225D01*
X63058496Y-153824225D01*
X63336449Y-154573141D01*
X63421320Y-154700157D01*
X63763484Y-154810859D01*
X65074343Y-153500000D01*
X65085657Y-153500000D01*
X66396516Y-154810859D01*
X66738680Y-154700157D01*
X67048976Y-154023599D01*
X72219697Y-154023599D01*
X72669768Y-155239061D01*
X72810235Y-155449284D01*
X73282283Y-155712060D01*
X75494343Y-153500000D01*
X75505657Y-153500000D01*
X77717717Y-155712060D01*
X78189765Y-155449284D01*
X78730977Y-154271575D01*
X78780303Y-152976401D01*
X78330232Y-151760939D01*
X78189765Y-151550716D01*
X77717717Y-151287940D01*
X75505657Y-153500000D01*
X75494343Y-153500000D01*
X73282283Y-151287940D01*
X72810235Y-151550716D01*
X72269023Y-152728425D01*
X72219697Y-154023599D01*
X67048976Y-154023599D01*
X67071701Y-153974051D01*
X67101504Y-153175775D01*
X66823551Y-152426859D01*
X66738680Y-152299843D01*
X66396516Y-152189141D01*
X65085657Y-153500000D01*
X65074343Y-153500000D01*
X63763484Y-152189141D01*
X63421320Y-152299843D01*
X63088299Y-153025949D01*
X63058496Y-153824225D01*
X61997294Y-153824225D01*
X62021504Y-153175775D01*
X61743551Y-152426859D01*
X61658680Y-152299843D01*
X61316516Y-152189141D01*
X60005657Y-153500000D01*
X59994343Y-153500000D01*
X58683484Y-152189141D01*
X58341320Y-152299843D01*
X58008299Y-153025949D01*
X58000000Y-153248238D01*
X58000000Y-152183484D01*
X58689141Y-152183484D01*
X60000000Y-153494343D01*
X61310859Y-152183484D01*
X63769141Y-152183484D01*
X65080000Y-153494343D01*
X66390859Y-152183484D01*
X66280157Y-151841320D01*
X65554051Y-151508299D01*
X64755775Y-151478496D01*
X64006859Y-151756449D01*
X63879843Y-151841320D01*
X63769141Y-152183484D01*
X61310859Y-152183484D01*
X61200157Y-151841320D01*
X60474051Y-151508299D01*
X59675775Y-151478496D01*
X58926859Y-151756449D01*
X58799843Y-151841320D01*
X58689141Y-152183484D01*
X58000000Y-152183484D01*
X58000000Y-151282283D01*
X73287940Y-151282283D01*
X75500000Y-153494343D01*
X77712060Y-151282283D01*
X77449284Y-150810235D01*
X76271575Y-150269023D01*
X74976401Y-150219697D01*
X73760939Y-150669768D01*
X73550716Y-150810235D01*
X73287940Y-151282283D01*
X58000000Y-151282283D01*
X58000000Y-145356516D01*
X58649141Y-145356516D01*
X58759843Y-145698680D01*
X59485949Y-146031701D01*
X60284225Y-146061504D01*
X61033141Y-145783551D01*
X61160157Y-145698680D01*
X61270859Y-145356516D01*
X63729141Y-145356516D01*
X63839843Y-145698680D01*
X64565949Y-146031701D01*
X65364225Y-146061504D01*
X66113141Y-145783551D01*
X66240157Y-145698680D01*
X66350859Y-145356516D01*
X65040000Y-144045657D01*
X63729141Y-145356516D01*
X61270859Y-145356516D01*
X59960000Y-144045657D01*
X58649141Y-145356516D01*
X58000000Y-145356516D01*
X58000000Y-144529941D01*
X58216449Y-145113141D01*
X58301320Y-145240157D01*
X58643484Y-145350859D01*
X59954343Y-144040000D01*
X59965657Y-144040000D01*
X61276516Y-145350859D01*
X61618680Y-145240157D01*
X61951701Y-144514051D01*
X61957294Y-144364225D01*
X63018496Y-144364225D01*
X63296449Y-145113141D01*
X63381320Y-145240157D01*
X63723484Y-145350859D01*
X65034343Y-144040000D01*
X65045657Y-144040000D01*
X66356516Y-145350859D01*
X66698680Y-145240157D01*
X67031701Y-144514051D01*
X67061504Y-143715775D01*
X66783551Y-142966859D01*
X66698680Y-142839843D01*
X66356516Y-142729141D01*
X65045657Y-144040000D01*
X65034343Y-144040000D01*
X63723484Y-142729141D01*
X63381320Y-142839843D01*
X63048299Y-143565949D01*
X63018496Y-144364225D01*
X61957294Y-144364225D01*
X61981504Y-143715775D01*
X61703551Y-142966859D01*
X61618680Y-142839843D01*
X61276516Y-142729141D01*
X59965657Y-144040000D01*
X59954343Y-144040000D01*
X58643484Y-142729141D01*
X58301320Y-142839843D01*
X58000000Y-143496829D01*
X58000000Y-142723484D01*
X58649141Y-142723484D01*
X59960000Y-144034343D01*
X61270859Y-142723484D01*
X63729141Y-142723484D01*
X65040000Y-144034343D01*
X66350859Y-142723484D01*
X66240157Y-142381320D01*
X65514051Y-142048299D01*
X64715775Y-142018496D01*
X63966859Y-142296449D01*
X63839843Y-142381320D01*
X63729141Y-142723484D01*
X61270859Y-142723484D01*
X61160157Y-142381320D01*
X60434051Y-142048299D01*
X59635775Y-142018496D01*
X58886859Y-142296449D01*
X58759843Y-142381320D01*
X58649141Y-142723484D01*
X58000000Y-142723484D01*
X58000000Y-140276516D01*
X58649141Y-140276516D01*
X58759843Y-140618680D01*
X59485949Y-140951701D01*
X60284225Y-140981504D01*
X61033141Y-140703551D01*
X61160157Y-140618680D01*
X61270859Y-140276516D01*
X63729141Y-140276516D01*
X63839843Y-140618680D01*
X64565949Y-140951701D01*
X65364225Y-140981504D01*
X66113141Y-140703551D01*
X66240157Y-140618680D01*
X66350859Y-140276516D01*
X65040000Y-138965657D01*
X63729141Y-140276516D01*
X61270859Y-140276516D01*
X59960000Y-138965657D01*
X58649141Y-140276516D01*
X58000000Y-140276516D01*
X58000000Y-139449941D01*
X58216449Y-140033141D01*
X58301320Y-140160157D01*
X58643484Y-140270859D01*
X59954343Y-138960000D01*
X59965657Y-138960000D01*
X61276516Y-140270859D01*
X61618680Y-140160157D01*
X61951701Y-139434051D01*
X61957294Y-139284225D01*
X63018496Y-139284225D01*
X63296449Y-140033141D01*
X63381320Y-140160157D01*
X63723484Y-140270859D01*
X65034343Y-138960000D01*
X65045657Y-138960000D01*
X66356516Y-140270859D01*
X66698680Y-140160157D01*
X67031701Y-139434051D01*
X67061504Y-138635775D01*
X66783551Y-137886859D01*
X66698680Y-137759843D01*
X66356516Y-137649141D01*
X65045657Y-138960000D01*
X65034343Y-138960000D01*
X63723484Y-137649141D01*
X63381320Y-137759843D01*
X63048299Y-138485949D01*
X63018496Y-139284225D01*
X61957294Y-139284225D01*
X61981504Y-138635775D01*
X61703551Y-137886859D01*
X61618680Y-137759843D01*
X61276516Y-137649141D01*
X59965657Y-138960000D01*
X59954343Y-138960000D01*
X58643484Y-137649141D01*
X58301320Y-137759843D01*
X58000000Y-138416829D01*
X58000000Y-137643484D01*
X58649141Y-137643484D01*
X59960000Y-138954343D01*
X61270859Y-137643484D01*
X63729141Y-137643484D01*
X65040000Y-138954343D01*
X66350859Y-137643484D01*
X66240157Y-137301320D01*
X65514051Y-136968299D01*
X64715775Y-136938496D01*
X63966859Y-137216449D01*
X63839843Y-137301320D01*
X63729141Y-137643484D01*
X61270859Y-137643484D01*
X61160157Y-137301320D01*
X60434051Y-136968299D01*
X59635775Y-136938496D01*
X58886859Y-137216449D01*
X58759843Y-137301320D01*
X58649141Y-137643484D01*
X58000000Y-137643484D01*
X58000000Y-131195534D01*
X58503864Y-131699398D01*
X59422719Y-132080000D01*
X60417281Y-132080000D01*
X61336136Y-131699398D01*
X62039398Y-130996136D01*
X62420000Y-130077281D01*
X62420000Y-129082719D01*
X62500000Y-129082719D01*
X62500000Y-130077281D01*
X62880602Y-130996136D01*
X63583864Y-131699398D01*
X64502719Y-132080000D01*
X65497281Y-132080000D01*
X66416136Y-131699398D01*
X67119398Y-130996136D01*
X67500000Y-130077281D01*
X67500000Y-129082719D01*
X67119398Y-128163864D01*
X66416136Y-127460602D01*
X65497281Y-127080000D01*
X64502719Y-127080000D01*
X63583864Y-127460602D01*
X62880602Y-128163864D01*
X62500000Y-129082719D01*
X62420000Y-129082719D01*
X62039398Y-128163864D01*
X61336136Y-127460602D01*
X60417281Y-127080000D01*
X59422719Y-127080000D01*
X58503864Y-127460602D01*
X58000000Y-127964466D01*
X58000000Y-126115534D01*
X58503864Y-126619398D01*
X59422719Y-127000000D01*
X60417281Y-127000000D01*
X61336136Y-126619398D01*
X62039398Y-125916136D01*
X62420000Y-124997281D01*
X62420000Y-124002719D01*
X62500000Y-124002719D01*
X62500000Y-124997281D01*
X62880602Y-125916136D01*
X63583864Y-126619398D01*
X64502719Y-127000000D01*
X65497281Y-127000000D01*
X66416136Y-126619398D01*
X67119398Y-125916136D01*
X67500000Y-124997281D01*
X67500000Y-124002719D01*
X67119398Y-123083864D01*
X66753251Y-122717717D01*
X69787940Y-122717717D01*
X70050716Y-123189765D01*
X71228425Y-123730977D01*
X72523599Y-123780303D01*
X73739061Y-123330232D01*
X73949284Y-123189765D01*
X74212060Y-122717717D01*
X72000000Y-120505657D01*
X69787940Y-122717717D01*
X66753251Y-122717717D01*
X66416136Y-122380602D01*
X65497281Y-122000000D01*
X64502719Y-122000000D01*
X63583864Y-122380602D01*
X62880602Y-123083864D01*
X62500000Y-124002719D01*
X62420000Y-124002719D01*
X62039398Y-123083864D01*
X61336136Y-122380602D01*
X60417281Y-122000000D01*
X59422719Y-122000000D01*
X58503864Y-122380602D01*
X58000000Y-122884466D01*
X58000000Y-107828426D01*
X58694927Y-107133500D01*
X58861919Y-107021919D01*
X59008185Y-106803018D01*
X59166989Y-106565350D01*
X59303959Y-106360361D01*
X59420000Y-105776982D01*
X59420000Y-105776978D01*
X59459181Y-105580001D01*
X59420000Y-105383024D01*
X59420000Y-100844088D01*
X59751338Y-100512750D01*
X60170000Y-99502009D01*
X60170000Y-98407991D01*
X59751338Y-97397250D01*
X58977750Y-96623662D01*
X57967009Y-96205000D01*
X56872991Y-96205000D01*
X55862250Y-96623662D01*
X55088662Y-97397250D01*
X54670000Y-98407991D01*
X54670000Y-99502009D01*
X55088662Y-100512750D01*
X55420000Y-100844088D01*
X55420001Y-104751573D01*
X54725075Y-105446499D01*
X54558081Y-105558081D01*
X54116041Y-106219640D01*
X54000000Y-106803019D01*
X54000000Y-106803023D01*
X53960819Y-107000000D01*
X54000000Y-107196977D01*
X54000000Y-108025240D01*
X53750000Y-107975512D01*
X50250000Y-107975512D01*
X49762275Y-108072527D01*
X49348801Y-108348801D01*
X49072527Y-108762275D01*
X48975512Y-109250000D01*
X48975512Y-112675512D01*
X48508000Y-112675512D01*
X48508000Y-111193500D01*
X48318500Y-111004000D01*
X46004000Y-111004000D01*
X46004000Y-113318500D01*
X46102667Y-113417167D01*
X46072527Y-113462275D01*
X45975512Y-113950000D01*
X44325000Y-113950000D01*
X44325000Y-113508000D01*
X45806500Y-113508000D01*
X45996000Y-113318500D01*
X45996000Y-111004000D01*
X45976000Y-111004000D01*
X45976000Y-110996000D01*
X45996000Y-110996000D01*
X45996000Y-108681500D01*
X46004000Y-108681500D01*
X46004000Y-110996000D01*
X48318500Y-110996000D01*
X48508000Y-110806500D01*
X48508000Y-109099225D01*
X48392602Y-108820628D01*
X48179373Y-108607399D01*
X47900776Y-108492000D01*
X46193500Y-108492000D01*
X46004000Y-108681500D01*
X45996000Y-108681500D01*
X45806500Y-108492000D01*
X44325000Y-108492000D01*
X44325000Y-103400000D01*
X46525512Y-103400000D01*
X46525512Y-105100000D01*
X46622527Y-105587725D01*
X46898801Y-106001199D01*
X47312275Y-106277473D01*
X47800000Y-106374488D01*
X49500000Y-106374488D01*
X49987725Y-106277473D01*
X50401199Y-106001199D01*
X50594499Y-105711904D01*
X50818511Y-105814500D01*
X50934503Y-105837572D01*
X51186000Y-105668494D01*
X51186000Y-104254000D01*
X51194000Y-104254000D01*
X51194000Y-105668494D01*
X51445497Y-105837572D01*
X51561489Y-105814500D01*
X52131919Y-105553247D01*
X52558951Y-105093586D01*
X52777572Y-104505497D01*
X52608495Y-104254000D01*
X51194000Y-104254000D01*
X51186000Y-104254000D01*
X51166000Y-104254000D01*
X51166000Y-104246000D01*
X51186000Y-104246000D01*
X51186000Y-102831506D01*
X51194000Y-102831506D01*
X51194000Y-104246000D01*
X52608495Y-104246000D01*
X52777572Y-103994503D01*
X52558951Y-103406414D01*
X52131919Y-102946753D01*
X51561489Y-102685500D01*
X51445497Y-102662428D01*
X51194000Y-102831506D01*
X51186000Y-102831506D01*
X50934503Y-102662428D01*
X50818511Y-102685500D01*
X50594499Y-102788096D01*
X50401199Y-102498801D01*
X49987725Y-102222527D01*
X49500000Y-102125512D01*
X47800000Y-102125512D01*
X47312275Y-102222527D01*
X46898801Y-102498801D01*
X46622527Y-102912275D01*
X46525512Y-103400000D01*
X44325000Y-103400000D01*
X44325000Y-100451756D01*
X48308901Y-100451756D01*
X48450016Y-100819897D01*
X49266443Y-101194556D01*
X50164099Y-101228263D01*
X51006324Y-100915886D01*
X51149984Y-100819897D01*
X51291099Y-100451756D01*
X49800000Y-98960657D01*
X48308901Y-100451756D01*
X44325000Y-100451756D01*
X44325000Y-99319099D01*
X47526737Y-99319099D01*
X47839114Y-100161324D01*
X47935103Y-100304984D01*
X48303244Y-100446099D01*
X49794343Y-98955000D01*
X49805657Y-98955000D01*
X51296756Y-100446099D01*
X51664897Y-100304984D01*
X52039556Y-99488557D01*
X52073263Y-98590901D01*
X51760886Y-97748676D01*
X51664897Y-97605016D01*
X51296756Y-97463901D01*
X49805657Y-98955000D01*
X49794343Y-98955000D01*
X48303244Y-97463901D01*
X47935103Y-97605016D01*
X47560444Y-98421443D01*
X47526737Y-99319099D01*
X44325000Y-99319099D01*
X44325000Y-93428127D01*
X46925000Y-93428127D01*
X46925000Y-94571873D01*
X47362692Y-95628557D01*
X48171443Y-96437308D01*
X49080121Y-96813694D01*
X48593676Y-96994114D01*
X48450016Y-97090103D01*
X48308901Y-97458244D01*
X49800000Y-98949343D01*
X51291099Y-97458244D01*
X51149984Y-97090103D01*
X50534478Y-96807647D01*
X51428557Y-96437308D01*
X52237308Y-95628557D01*
X52675000Y-94571873D01*
X52675000Y-93428127D01*
X59625000Y-93428127D01*
X59625000Y-94571873D01*
X60062692Y-95628557D01*
X60871443Y-96437308D01*
X61928127Y-96875000D01*
X63071873Y-96875000D01*
X64128557Y-96437308D01*
X64937308Y-95628557D01*
X65040000Y-95380636D01*
X65142692Y-95628557D01*
X65951443Y-96437308D01*
X66211796Y-96545150D01*
X66022250Y-96623662D01*
X65248662Y-97397250D01*
X64830000Y-98407991D01*
X64830000Y-99502009D01*
X65248662Y-100512750D01*
X66022250Y-101286338D01*
X67032991Y-101705000D01*
X68127009Y-101705000D01*
X69137750Y-101286338D01*
X69911338Y-100512750D01*
X70330000Y-99502009D01*
X70330000Y-98407991D01*
X69911338Y-97397250D01*
X69731805Y-97217717D01*
X72787940Y-97217717D01*
X73050716Y-97689765D01*
X74228425Y-98230977D01*
X75523599Y-98280303D01*
X76739061Y-97830232D01*
X76949284Y-97689765D01*
X77212060Y-97217717D01*
X75000000Y-95005657D01*
X72787940Y-97217717D01*
X69731805Y-97217717D01*
X69137750Y-96623662D01*
X68948204Y-96545150D01*
X69208557Y-96437308D01*
X70017308Y-95628557D01*
X70060782Y-95523599D01*
X71719697Y-95523599D01*
X72169768Y-96739061D01*
X72310235Y-96949284D01*
X72782283Y-97212060D01*
X74994343Y-95000000D01*
X75005657Y-95000000D01*
X77217717Y-97212060D01*
X77689765Y-96949284D01*
X78230977Y-95771575D01*
X78280303Y-94476401D01*
X77830232Y-93260939D01*
X77689765Y-93050716D01*
X77217717Y-92787940D01*
X75005657Y-95000000D01*
X74994343Y-95000000D01*
X72782283Y-92787940D01*
X72310235Y-93050716D01*
X71769023Y-94228425D01*
X71719697Y-95523599D01*
X70060782Y-95523599D01*
X70455000Y-94571873D01*
X70455000Y-93428127D01*
X70187484Y-92782283D01*
X72787940Y-92782283D01*
X75000000Y-94994343D01*
X77212060Y-92782283D01*
X76949284Y-92310235D01*
X75771575Y-91769023D01*
X74476401Y-91719697D01*
X73260939Y-92169768D01*
X73050716Y-92310235D01*
X72787940Y-92782283D01*
X70187484Y-92782283D01*
X70017308Y-92371443D01*
X69208557Y-91562692D01*
X68151873Y-91125000D01*
X67008127Y-91125000D01*
X65951443Y-91562692D01*
X65142692Y-92371443D01*
X65040000Y-92619364D01*
X64937308Y-92371443D01*
X64128557Y-91562692D01*
X63071873Y-91125000D01*
X61928127Y-91125000D01*
X60871443Y-91562692D01*
X60062692Y-92371443D01*
X59625000Y-93428127D01*
X52675000Y-93428127D01*
X52237308Y-92371443D01*
X51428557Y-91562692D01*
X50371873Y-91125000D01*
X49228127Y-91125000D01*
X48171443Y-91562692D01*
X47362692Y-92371443D01*
X46925000Y-93428127D01*
X44325000Y-93428127D01*
X44325000Y-85325000D01*
X78840713Y-85325000D01*
X78740000Y-85568143D01*
G36*
X85185073Y-106986501D02*
X85018082Y-107098081D01*
X84906502Y-107265072D01*
X84906500Y-107265074D01*
X84576042Y-107759639D01*
X84420819Y-108540000D01*
X84460001Y-108736981D01*
X84460000Y-109463314D01*
X84434745Y-109501112D01*
X84267880Y-110340000D01*
X84434745Y-111178888D01*
X84482261Y-111250000D01*
X84150000Y-111250000D01*
X84150000Y-110671795D01*
X83898802Y-110065350D01*
X83434650Y-109601198D01*
X82828205Y-109350000D01*
X82171795Y-109350000D01*
X82095973Y-109381406D01*
X82033959Y-109069639D01*
X81591919Y-108408081D01*
X80930360Y-107966041D01*
X80150000Y-107810818D01*
X79369639Y-107966041D01*
X78765319Y-108369836D01*
X78780303Y-107976401D01*
X78330232Y-106760939D01*
X78189765Y-106550716D01*
X77717717Y-106287940D01*
X75505657Y-108500000D01*
X75519799Y-108514142D01*
X75514142Y-108519799D01*
X75500000Y-108505657D01*
X73287940Y-110717717D01*
X73550716Y-111189765D01*
X74728425Y-111730977D01*
X75959401Y-111777858D01*
X74737259Y-113000000D01*
X70737201Y-113000000D01*
X70883959Y-112780361D01*
X71000000Y-112196982D01*
X71000000Y-112196978D01*
X71039181Y-112000001D01*
X71000000Y-111803024D01*
X71000000Y-109023599D01*
X72219697Y-109023599D01*
X72669768Y-110239061D01*
X72810235Y-110449284D01*
X73282283Y-110712060D01*
X75494343Y-108500000D01*
X73282283Y-106287940D01*
X72810235Y-106550716D01*
X72269023Y-107728425D01*
X72219697Y-109023599D01*
X71000000Y-109023599D01*
X71000000Y-107828426D01*
X72546143Y-106282283D01*
X73287940Y-106282283D01*
X75500000Y-108494343D01*
X77712060Y-106282283D01*
X77449284Y-105810235D01*
X76271575Y-105269023D01*
X74976401Y-105219697D01*
X73760939Y-105669768D01*
X73550716Y-105810235D01*
X73287940Y-106282283D01*
X72546143Y-106282283D01*
X73828427Y-105000000D01*
X87171573Y-105000000D01*
X85185073Y-106986501D01*
X85185073Y-106986501D01*
G37*
X85185073Y-106986501D02*
X85018082Y-107098081D01*
X84906502Y-107265072D01*
X84906500Y-107265074D01*
X84576042Y-107759639D01*
X84420819Y-108540000D01*
X84460001Y-108736981D01*
X84460000Y-109463314D01*
X84434745Y-109501112D01*
X84267880Y-110340000D01*
X84434745Y-111178888D01*
X84482261Y-111250000D01*
X84150000Y-111250000D01*
X84150000Y-110671795D01*
X83898802Y-110065350D01*
X83434650Y-109601198D01*
X82828205Y-109350000D01*
X82171795Y-109350000D01*
X82095973Y-109381406D01*
X82033959Y-109069639D01*
X81591919Y-108408081D01*
X80930360Y-107966041D01*
X80150000Y-107810818D01*
X79369639Y-107966041D01*
X78765319Y-108369836D01*
X78780303Y-107976401D01*
X78330232Y-106760939D01*
X78189765Y-106550716D01*
X77717717Y-106287940D01*
X75505657Y-108500000D01*
X75519799Y-108514142D01*
X75514142Y-108519799D01*
X75500000Y-108505657D01*
X73287940Y-110717717D01*
X73550716Y-111189765D01*
X74728425Y-111730977D01*
X75959401Y-111777858D01*
X74737259Y-113000000D01*
X70737201Y-113000000D01*
X70883959Y-112780361D01*
X71000000Y-112196982D01*
X71000000Y-112196978D01*
X71039181Y-112000001D01*
X71000000Y-111803024D01*
X71000000Y-109023599D01*
X72219697Y-109023599D01*
X72669768Y-110239061D01*
X72810235Y-110449284D01*
X73282283Y-110712060D01*
X75494343Y-108500000D01*
X73282283Y-106287940D01*
X72810235Y-106550716D01*
X72269023Y-107728425D01*
X72219697Y-109023599D01*
X71000000Y-109023599D01*
X71000000Y-107828426D01*
X72546143Y-106282283D01*
X73287940Y-106282283D01*
X75500000Y-108494343D01*
X77712060Y-106282283D01*
X77449284Y-105810235D01*
X76271575Y-105269023D01*
X74976401Y-105219697D01*
X73760939Y-105669768D01*
X73550716Y-105810235D01*
X73287940Y-106282283D01*
X72546143Y-106282283D01*
X73828427Y-105000000D01*
X87171573Y-105000000D01*
X85185073Y-106986501D01*
G36*
X121350000Y-102328205D02*
X121601198Y-102934650D01*
X122065350Y-103398802D01*
X122671795Y-103650000D01*
X122705457Y-103650000D01*
X126850000Y-107794543D01*
X126850000Y-107828205D01*
X127024713Y-108250000D01*
X125500000Y-108250000D01*
X125021646Y-108345151D01*
X124616117Y-108616117D01*
X123535679Y-109696555D01*
X123730977Y-109271575D01*
X123780303Y-107976401D01*
X123330232Y-106760939D01*
X123189765Y-106550716D01*
X122717717Y-106287940D01*
X120505657Y-108500000D01*
X120519799Y-108514142D01*
X120514142Y-108519799D01*
X120500000Y-108505657D01*
X120485858Y-108519799D01*
X120480201Y-108514142D01*
X120494343Y-108500000D01*
X118282283Y-106287940D01*
X117810235Y-106550716D01*
X117269023Y-107728425D01*
X117219697Y-109023599D01*
X117435898Y-109607471D01*
X114110710Y-106282283D01*
X118287940Y-106282283D01*
X120500000Y-108494343D01*
X122712060Y-106282283D01*
X122449284Y-105810235D01*
X121271575Y-105269023D01*
X119976401Y-105219697D01*
X118760939Y-105669768D01*
X118550716Y-105810235D01*
X118287940Y-106282283D01*
X114110710Y-106282283D01*
X112553502Y-104725076D01*
X112553500Y-104725073D01*
X110853491Y-103025065D01*
X110741909Y-102858071D01*
X110080351Y-102416031D01*
X109496972Y-102299990D01*
X109496967Y-102299990D01*
X109299990Y-102260809D01*
X109103013Y-102299990D01*
X97128417Y-102299990D01*
X96703426Y-101875000D01*
X121350000Y-101875000D01*
X121350000Y-102328205D01*
X121350000Y-102328205D01*
G37*
X121350000Y-102328205D02*
X121601198Y-102934650D01*
X122065350Y-103398802D01*
X122671795Y-103650000D01*
X122705457Y-103650000D01*
X126850000Y-107794543D01*
X126850000Y-107828205D01*
X127024713Y-108250000D01*
X125500000Y-108250000D01*
X125021646Y-108345151D01*
X124616117Y-108616117D01*
X123535679Y-109696555D01*
X123730977Y-109271575D01*
X123780303Y-107976401D01*
X123330232Y-106760939D01*
X123189765Y-106550716D01*
X122717717Y-106287940D01*
X120505657Y-108500000D01*
X120519799Y-108514142D01*
X120514142Y-108519799D01*
X120500000Y-108505657D01*
X120485858Y-108519799D01*
X120480201Y-108514142D01*
X120494343Y-108500000D01*
X118282283Y-106287940D01*
X117810235Y-106550716D01*
X117269023Y-107728425D01*
X117219697Y-109023599D01*
X117435898Y-109607471D01*
X114110710Y-106282283D01*
X118287940Y-106282283D01*
X120500000Y-108494343D01*
X122712060Y-106282283D01*
X122449284Y-105810235D01*
X121271575Y-105269023D01*
X119976401Y-105219697D01*
X118760939Y-105669768D01*
X118550716Y-105810235D01*
X118287940Y-106282283D01*
X114110710Y-106282283D01*
X112553502Y-104725076D01*
X112553500Y-104725073D01*
X110853491Y-103025065D01*
X110741909Y-102858071D01*
X110080351Y-102416031D01*
X109496972Y-102299990D01*
X109496967Y-102299990D01*
X109299990Y-102260809D01*
X109103013Y-102299990D01*
X97128417Y-102299990D01*
X96703426Y-101875000D01*
X121350000Y-101875000D01*
X121350000Y-102328205D01*
G36*
X141675001Y-89411804D02*
X141072996Y-89009557D01*
X140000000Y-88796125D01*
X138927003Y-89009557D01*
X138017361Y-89617362D01*
X137409557Y-90527004D01*
X137250000Y-91329153D01*
X137250000Y-92670848D01*
X137409557Y-93472997D01*
X138017362Y-94382639D01*
X138927004Y-94990443D01*
X140000000Y-95203875D01*
X141072997Y-94990443D01*
X141675001Y-94588196D01*
X141675001Y-108250000D01*
X129975287Y-108250000D01*
X130130617Y-107875000D01*
X134041548Y-107875000D01*
X134065350Y-107898802D01*
X134671795Y-108150000D01*
X135328205Y-108150000D01*
X135934650Y-107898802D01*
X136398802Y-107434650D01*
X136650000Y-106828205D01*
X136650000Y-106171795D01*
X136398802Y-105565350D01*
X135934650Y-105101198D01*
X135328205Y-104850000D01*
X134671795Y-104850000D01*
X134065350Y-105101198D01*
X134041548Y-105125000D01*
X130069544Y-105125000D01*
X128794544Y-103850000D01*
X129367988Y-103850000D01*
X130000000Y-103588213D01*
X130632012Y-103850000D01*
X131367988Y-103850000D01*
X132000000Y-103588213D01*
X132632012Y-103850000D01*
X133367988Y-103850000D01*
X134000000Y-103588213D01*
X134632012Y-103850000D01*
X135367988Y-103850000D01*
X136000000Y-103588213D01*
X136632012Y-103850000D01*
X137367988Y-103850000D01*
X138000000Y-103588213D01*
X138632012Y-103850000D01*
X139367988Y-103850000D01*
X140047941Y-103568355D01*
X140568355Y-103047941D01*
X140850000Y-102367988D01*
X140850000Y-101632012D01*
X140568355Y-100952059D01*
X140047941Y-100431645D01*
X139367988Y-100150000D01*
X138632012Y-100150000D01*
X138000000Y-100411787D01*
X137367988Y-100150000D01*
X136632012Y-100150000D01*
X136000000Y-100411787D01*
X135367988Y-100150000D01*
X134632012Y-100150000D01*
X134000000Y-100411787D01*
X133367988Y-100150000D01*
X132632012Y-100150000D01*
X132000000Y-100411787D01*
X131367988Y-100150000D01*
X130632012Y-100150000D01*
X130000000Y-100411787D01*
X129367988Y-100150000D01*
X128632012Y-100150000D01*
X127952059Y-100431645D01*
X127431645Y-100952059D01*
X127150000Y-101632012D01*
X127150000Y-102205457D01*
X124568030Y-99623487D01*
X124491319Y-99508681D01*
X124036498Y-99204779D01*
X123635422Y-99125000D01*
X123635417Y-99125000D01*
X123500000Y-99098064D01*
X123364583Y-99125000D01*
X112291251Y-99125000D01*
X112491319Y-98991319D01*
X112568030Y-98876513D01*
X116319543Y-95125000D01*
X117364583Y-95125000D01*
X117500000Y-95151936D01*
X117635417Y-95125000D01*
X117635422Y-95125000D01*
X118036498Y-95045221D01*
X118491319Y-94741319D01*
X118568030Y-94626513D01*
X119974543Y-93220000D01*
X120391857Y-93220000D01*
X121115916Y-92920086D01*
X121670086Y-92365916D01*
X121970000Y-91641857D01*
X121970000Y-91329153D01*
X125250000Y-91329153D01*
X125250000Y-92670848D01*
X125409557Y-93472997D01*
X126017362Y-94382639D01*
X126927004Y-94990443D01*
X128000000Y-95203875D01*
X129072997Y-94990443D01*
X129982639Y-94382639D01*
X130590443Y-93472996D01*
X130750000Y-92670847D01*
X130750000Y-91329152D01*
X130590443Y-90527003D01*
X129982638Y-89617361D01*
X129072996Y-89009557D01*
X128000000Y-88796125D01*
X126927003Y-89009557D01*
X126017361Y-89617362D01*
X125409557Y-90527004D01*
X125250000Y-91329153D01*
X121970000Y-91329153D01*
X121970000Y-90858143D01*
X121844035Y-90554035D01*
X122148143Y-90680000D01*
X122931857Y-90680000D01*
X123655916Y-90380086D01*
X124210086Y-89825916D01*
X124510000Y-89101857D01*
X124510000Y-88318143D01*
X124210086Y-87594084D01*
X123655916Y-87039914D01*
X122931857Y-86740000D01*
X122148143Y-86740000D01*
X121844035Y-86865965D01*
X121970000Y-86561857D01*
X121970000Y-85778143D01*
X121782303Y-85325000D01*
X141675001Y-85325000D01*
X141675001Y-89411804D01*
X141675001Y-89411804D01*
G37*
X141675001Y-89411804D02*
X141072996Y-89009557D01*
X140000000Y-88796125D01*
X138927003Y-89009557D01*
X138017361Y-89617362D01*
X137409557Y-90527004D01*
X137250000Y-91329153D01*
X137250000Y-92670848D01*
X137409557Y-93472997D01*
X138017362Y-94382639D01*
X138927004Y-94990443D01*
X140000000Y-95203875D01*
X141072997Y-94990443D01*
X141675001Y-94588196D01*
X141675001Y-108250000D01*
X129975287Y-108250000D01*
X130130617Y-107875000D01*
X134041548Y-107875000D01*
X134065350Y-107898802D01*
X134671795Y-108150000D01*
X135328205Y-108150000D01*
X135934650Y-107898802D01*
X136398802Y-107434650D01*
X136650000Y-106828205D01*
X136650000Y-106171795D01*
X136398802Y-105565350D01*
X135934650Y-105101198D01*
X135328205Y-104850000D01*
X134671795Y-104850000D01*
X134065350Y-105101198D01*
X134041548Y-105125000D01*
X130069544Y-105125000D01*
X128794544Y-103850000D01*
X129367988Y-103850000D01*
X130000000Y-103588213D01*
X130632012Y-103850000D01*
X131367988Y-103850000D01*
X132000000Y-103588213D01*
X132632012Y-103850000D01*
X133367988Y-103850000D01*
X134000000Y-103588213D01*
X134632012Y-103850000D01*
X135367988Y-103850000D01*
X136000000Y-103588213D01*
X136632012Y-103850000D01*
X137367988Y-103850000D01*
X138000000Y-103588213D01*
X138632012Y-103850000D01*
X139367988Y-103850000D01*
X140047941Y-103568355D01*
X140568355Y-103047941D01*
X140850000Y-102367988D01*
X140850000Y-101632012D01*
X140568355Y-100952059D01*
X140047941Y-100431645D01*
X139367988Y-100150000D01*
X138632012Y-100150000D01*
X138000000Y-100411787D01*
X137367988Y-100150000D01*
X136632012Y-100150000D01*
X136000000Y-100411787D01*
X135367988Y-100150000D01*
X134632012Y-100150000D01*
X134000000Y-100411787D01*
X133367988Y-100150000D01*
X132632012Y-100150000D01*
X132000000Y-100411787D01*
X131367988Y-100150000D01*
X130632012Y-100150000D01*
X130000000Y-100411787D01*
X129367988Y-100150000D01*
X128632012Y-100150000D01*
X127952059Y-100431645D01*
X127431645Y-100952059D01*
X127150000Y-101632012D01*
X127150000Y-102205457D01*
X124568030Y-99623487D01*
X124491319Y-99508681D01*
X124036498Y-99204779D01*
X123635422Y-99125000D01*
X123635417Y-99125000D01*
X123500000Y-99098064D01*
X123364583Y-99125000D01*
X112291251Y-99125000D01*
X112491319Y-98991319D01*
X112568030Y-98876513D01*
X116319543Y-95125000D01*
X117364583Y-95125000D01*
X117500000Y-95151936D01*
X117635417Y-95125000D01*
X117635422Y-95125000D01*
X118036498Y-95045221D01*
X118491319Y-94741319D01*
X118568030Y-94626513D01*
X119974543Y-93220000D01*
X120391857Y-93220000D01*
X121115916Y-92920086D01*
X121670086Y-92365916D01*
X121970000Y-91641857D01*
X121970000Y-91329153D01*
X125250000Y-91329153D01*
X125250000Y-92670848D01*
X125409557Y-93472997D01*
X126017362Y-94382639D01*
X126927004Y-94990443D01*
X128000000Y-95203875D01*
X129072997Y-94990443D01*
X129982639Y-94382639D01*
X130590443Y-93472996D01*
X130750000Y-92670847D01*
X130750000Y-91329152D01*
X130590443Y-90527003D01*
X129982638Y-89617361D01*
X129072996Y-89009557D01*
X128000000Y-88796125D01*
X126927003Y-89009557D01*
X126017361Y-89617362D01*
X125409557Y-90527004D01*
X125250000Y-91329153D01*
X121970000Y-91329153D01*
X121970000Y-90858143D01*
X121844035Y-90554035D01*
X122148143Y-90680000D01*
X122931857Y-90680000D01*
X123655916Y-90380086D01*
X124210086Y-89825916D01*
X124510000Y-89101857D01*
X124510000Y-88318143D01*
X124210086Y-87594084D01*
X123655916Y-87039914D01*
X122931857Y-86740000D01*
X122148143Y-86740000D01*
X121844035Y-86865965D01*
X121970000Y-86561857D01*
X121970000Y-85778143D01*
X121782303Y-85325000D01*
X141675001Y-85325000D01*
X141675001Y-89411804D01*
G36*
X103350000Y-97828205D02*
X103601198Y-98434650D01*
X104065350Y-98898802D01*
X104611440Y-99125000D01*
X101919543Y-99125000D01*
X103350000Y-97694544D01*
X103350000Y-97828205D01*
X103350000Y-97828205D01*
G37*
X103350000Y-97828205D02*
X103601198Y-98434650D01*
X104065350Y-98898802D01*
X104611440Y-99125000D01*
X101919543Y-99125000D01*
X103350000Y-97694544D01*
X103350000Y-97828205D01*
G04 #@! TO.N,+12V*
G36*
X141675000Y-146250000D02*
X134710240Y-146250000D01*
X134686111Y-146213889D01*
X133958397Y-145727646D01*
X133316678Y-145600000D01*
X131483322Y-145600000D01*
X130841603Y-145727646D01*
X130113889Y-146213889D01*
X130089760Y-146250000D01*
X129750000Y-146250000D01*
X129750000Y-139500000D01*
X129730970Y-139404329D01*
X129682764Y-139329420D01*
X122682764Y-131829420D01*
X122603574Y-131772464D01*
X122500000Y-131750000D01*
X101500000Y-131750000D01*
X101500000Y-129257717D01*
X104827940Y-129257717D01*
X105090716Y-129729765D01*
X106268425Y-130270977D01*
X107563599Y-130320303D01*
X108779061Y-129870232D01*
X108989284Y-129729765D01*
X109252060Y-129257717D01*
X107040000Y-127045657D01*
X104827940Y-129257717D01*
X101500000Y-129257717D01*
X101500000Y-127563599D01*
X103759697Y-127563599D01*
X104209768Y-128779061D01*
X104350235Y-128989284D01*
X104822283Y-129252060D01*
X107034343Y-127040000D01*
X107045657Y-127040000D01*
X109257717Y-129252060D01*
X109729765Y-128989284D01*
X110270977Y-127811575D01*
X110320303Y-126516401D01*
X109870232Y-125300939D01*
X109729765Y-125090716D01*
X109257717Y-124827940D01*
X107045657Y-127040000D01*
X107034343Y-127040000D01*
X104822283Y-124827940D01*
X104350235Y-125090716D01*
X103809023Y-126268425D01*
X103759697Y-127563599D01*
X101500000Y-127563599D01*
X101500000Y-124822283D01*
X104827940Y-124822283D01*
X107040000Y-127034343D01*
X109252060Y-124822283D01*
X108989284Y-124350235D01*
X107811575Y-123809023D01*
X106516401Y-123759697D01*
X105300939Y-124209768D01*
X105090716Y-124350235D01*
X104827940Y-124822283D01*
X101500000Y-124822283D01*
X101500000Y-116636275D01*
X130869382Y-116636275D01*
X130949669Y-116952463D01*
X131585454Y-117243845D01*
X132284350Y-117269743D01*
X132939956Y-117026213D01*
X133050331Y-116952463D01*
X133130618Y-116636275D01*
X137369382Y-116636275D01*
X137449669Y-116952463D01*
X138085454Y-117243845D01*
X138784350Y-117269743D01*
X139439956Y-117026213D01*
X139550331Y-116952463D01*
X139630618Y-116636275D01*
X138500000Y-115505657D01*
X137369382Y-116636275D01*
X133130618Y-116636275D01*
X132000000Y-115505657D01*
X130869382Y-116636275D01*
X101500000Y-116636275D01*
X101500000Y-112750000D01*
X114921573Y-112750000D01*
X117446501Y-115274928D01*
X117558081Y-115441919D01*
X118219639Y-115883959D01*
X118803018Y-116000000D01*
X118803022Y-116000000D01*
X118999999Y-116039181D01*
X119196976Y-116000000D01*
X122803023Y-116000000D01*
X123000000Y-116039181D01*
X123196977Y-116000000D01*
X123196982Y-116000000D01*
X123780361Y-115883959D01*
X123929436Y-115784350D01*
X130230257Y-115784350D01*
X130473787Y-116439956D01*
X130547537Y-116550331D01*
X130863725Y-116630618D01*
X131994343Y-115500000D01*
X132005657Y-115500000D01*
X133136275Y-116630618D01*
X133452463Y-116550331D01*
X133743845Y-115914546D01*
X133748669Y-115784350D01*
X136730257Y-115784350D01*
X136973787Y-116439956D01*
X137047537Y-116550331D01*
X137363725Y-116630618D01*
X138494343Y-115500000D01*
X138505657Y-115500000D01*
X139636275Y-116630618D01*
X139952463Y-116550331D01*
X140243845Y-115914546D01*
X140269743Y-115215650D01*
X140026213Y-114560044D01*
X139952463Y-114449669D01*
X139636275Y-114369382D01*
X138505657Y-115500000D01*
X138494343Y-115500000D01*
X137363725Y-114369382D01*
X137047537Y-114449669D01*
X136756155Y-115085454D01*
X136730257Y-115784350D01*
X133748669Y-115784350D01*
X133769743Y-115215650D01*
X133526213Y-114560044D01*
X133452463Y-114449669D01*
X133136275Y-114369382D01*
X132005657Y-115500000D01*
X131994343Y-115500000D01*
X130863725Y-114369382D01*
X130547537Y-114449669D01*
X130256155Y-115085454D01*
X130230257Y-115784350D01*
X123929436Y-115784350D01*
X124441919Y-115441919D01*
X124553501Y-115274925D01*
X125464701Y-114363725D01*
X130869382Y-114363725D01*
X132000000Y-115494343D01*
X133130618Y-114363725D01*
X137369382Y-114363725D01*
X138500000Y-115494343D01*
X139630618Y-114363725D01*
X139550331Y-114047537D01*
X138914546Y-113756155D01*
X138215650Y-113730257D01*
X137560044Y-113973787D01*
X137449669Y-114047537D01*
X137369382Y-114363725D01*
X133130618Y-114363725D01*
X133050331Y-114047537D01*
X132414546Y-113756155D01*
X131715650Y-113730257D01*
X131060044Y-113973787D01*
X130949669Y-114047537D01*
X130869382Y-114363725D01*
X125464701Y-114363725D01*
X126828428Y-113000000D01*
X130948893Y-113000000D01*
X131552447Y-113250000D01*
X132447553Y-113250000D01*
X133051107Y-113000000D01*
X137448893Y-113000000D01*
X138052447Y-113250000D01*
X138947553Y-113250000D01*
X139774523Y-112907458D01*
X140407458Y-112274523D01*
X140750000Y-111447553D01*
X140750000Y-110552447D01*
X140417616Y-109750000D01*
X141675001Y-109750000D01*
X141675000Y-146250000D01*
X141675000Y-146250000D01*
G37*
X141675000Y-146250000D02*
X134710240Y-146250000D01*
X134686111Y-146213889D01*
X133958397Y-145727646D01*
X133316678Y-145600000D01*
X131483322Y-145600000D01*
X130841603Y-145727646D01*
X130113889Y-146213889D01*
X130089760Y-146250000D01*
X129750000Y-146250000D01*
X129750000Y-139500000D01*
X129730970Y-139404329D01*
X129682764Y-139329420D01*
X122682764Y-131829420D01*
X122603574Y-131772464D01*
X122500000Y-131750000D01*
X101500000Y-131750000D01*
X101500000Y-129257717D01*
X104827940Y-129257717D01*
X105090716Y-129729765D01*
X106268425Y-130270977D01*
X107563599Y-130320303D01*
X108779061Y-129870232D01*
X108989284Y-129729765D01*
X109252060Y-129257717D01*
X107040000Y-127045657D01*
X104827940Y-129257717D01*
X101500000Y-129257717D01*
X101500000Y-127563599D01*
X103759697Y-127563599D01*
X104209768Y-128779061D01*
X104350235Y-128989284D01*
X104822283Y-129252060D01*
X107034343Y-127040000D01*
X107045657Y-127040000D01*
X109257717Y-129252060D01*
X109729765Y-128989284D01*
X110270977Y-127811575D01*
X110320303Y-126516401D01*
X109870232Y-125300939D01*
X109729765Y-125090716D01*
X109257717Y-124827940D01*
X107045657Y-127040000D01*
X107034343Y-127040000D01*
X104822283Y-124827940D01*
X104350235Y-125090716D01*
X103809023Y-126268425D01*
X103759697Y-127563599D01*
X101500000Y-127563599D01*
X101500000Y-124822283D01*
X104827940Y-124822283D01*
X107040000Y-127034343D01*
X109252060Y-124822283D01*
X108989284Y-124350235D01*
X107811575Y-123809023D01*
X106516401Y-123759697D01*
X105300939Y-124209768D01*
X105090716Y-124350235D01*
X104827940Y-124822283D01*
X101500000Y-124822283D01*
X101500000Y-116636275D01*
X130869382Y-116636275D01*
X130949669Y-116952463D01*
X131585454Y-117243845D01*
X132284350Y-117269743D01*
X132939956Y-117026213D01*
X133050331Y-116952463D01*
X133130618Y-116636275D01*
X137369382Y-116636275D01*
X137449669Y-116952463D01*
X138085454Y-117243845D01*
X138784350Y-117269743D01*
X139439956Y-117026213D01*
X139550331Y-116952463D01*
X139630618Y-116636275D01*
X138500000Y-115505657D01*
X137369382Y-116636275D01*
X133130618Y-116636275D01*
X132000000Y-115505657D01*
X130869382Y-116636275D01*
X101500000Y-116636275D01*
X101500000Y-112750000D01*
X114921573Y-112750000D01*
X117446501Y-115274928D01*
X117558081Y-115441919D01*
X118219639Y-115883959D01*
X118803018Y-116000000D01*
X118803022Y-116000000D01*
X118999999Y-116039181D01*
X119196976Y-116000000D01*
X122803023Y-116000000D01*
X123000000Y-116039181D01*
X123196977Y-116000000D01*
X123196982Y-116000000D01*
X123780361Y-115883959D01*
X123929436Y-115784350D01*
X130230257Y-115784350D01*
X130473787Y-116439956D01*
X130547537Y-116550331D01*
X130863725Y-116630618D01*
X131994343Y-115500000D01*
X132005657Y-115500000D01*
X133136275Y-116630618D01*
X133452463Y-116550331D01*
X133743845Y-115914546D01*
X133748669Y-115784350D01*
X136730257Y-115784350D01*
X136973787Y-116439956D01*
X137047537Y-116550331D01*
X137363725Y-116630618D01*
X138494343Y-115500000D01*
X138505657Y-115500000D01*
X139636275Y-116630618D01*
X139952463Y-116550331D01*
X140243845Y-115914546D01*
X140269743Y-115215650D01*
X140026213Y-114560044D01*
X139952463Y-114449669D01*
X139636275Y-114369382D01*
X138505657Y-115500000D01*
X138494343Y-115500000D01*
X137363725Y-114369382D01*
X137047537Y-114449669D01*
X136756155Y-115085454D01*
X136730257Y-115784350D01*
X133748669Y-115784350D01*
X133769743Y-115215650D01*
X133526213Y-114560044D01*
X133452463Y-114449669D01*
X133136275Y-114369382D01*
X132005657Y-115500000D01*
X131994343Y-115500000D01*
X130863725Y-114369382D01*
X130547537Y-114449669D01*
X130256155Y-115085454D01*
X130230257Y-115784350D01*
X123929436Y-115784350D01*
X124441919Y-115441919D01*
X124553501Y-115274925D01*
X125464701Y-114363725D01*
X130869382Y-114363725D01*
X132000000Y-115494343D01*
X133130618Y-114363725D01*
X137369382Y-114363725D01*
X138500000Y-115494343D01*
X139630618Y-114363725D01*
X139550331Y-114047537D01*
X138914546Y-113756155D01*
X138215650Y-113730257D01*
X137560044Y-113973787D01*
X137449669Y-114047537D01*
X137369382Y-114363725D01*
X133130618Y-114363725D01*
X133050331Y-114047537D01*
X132414546Y-113756155D01*
X131715650Y-113730257D01*
X131060044Y-113973787D01*
X130949669Y-114047537D01*
X130869382Y-114363725D01*
X125464701Y-114363725D01*
X126828428Y-113000000D01*
X130948893Y-113000000D01*
X131552447Y-113250000D01*
X132447553Y-113250000D01*
X133051107Y-113000000D01*
X137448893Y-113000000D01*
X138052447Y-113250000D01*
X138947553Y-113250000D01*
X139774523Y-112907458D01*
X140407458Y-112274523D01*
X140750000Y-111447553D01*
X140750000Y-110552447D01*
X140417616Y-109750000D01*
X141675001Y-109750000D01*
X141675000Y-146250000D01*
G36*
X94000001Y-131750000D02*
X83875000Y-131750000D01*
X83875000Y-129257717D01*
X86827940Y-129257717D01*
X87090716Y-129729765D01*
X88268425Y-130270977D01*
X89563599Y-130320303D01*
X90779061Y-129870232D01*
X90989284Y-129729765D01*
X91252060Y-129257717D01*
X89040000Y-127045657D01*
X86827940Y-129257717D01*
X83875000Y-129257717D01*
X83875000Y-127563599D01*
X85759697Y-127563599D01*
X86209768Y-128779061D01*
X86350235Y-128989284D01*
X86822283Y-129252060D01*
X89034343Y-127040000D01*
X89045657Y-127040000D01*
X91257717Y-129252060D01*
X91729765Y-128989284D01*
X92270977Y-127811575D01*
X92320303Y-126516401D01*
X91870232Y-125300939D01*
X91729765Y-125090716D01*
X91257717Y-124827940D01*
X89045657Y-127040000D01*
X89034343Y-127040000D01*
X86822283Y-124827940D01*
X86350235Y-125090716D01*
X85809023Y-126268425D01*
X85759697Y-127563599D01*
X83875000Y-127563599D01*
X83875000Y-124822283D01*
X86827940Y-124822283D01*
X89040000Y-127034343D01*
X91252060Y-124822283D01*
X90989284Y-124350235D01*
X89811575Y-123809023D01*
X88516401Y-123759697D01*
X87300939Y-124209768D01*
X87090716Y-124350235D01*
X86827940Y-124822283D01*
X83875000Y-124822283D01*
X83875000Y-112750000D01*
X94000000Y-112750000D01*
X94000001Y-131750000D01*
X94000001Y-131750000D01*
G37*
X94000001Y-131750000D02*
X83875000Y-131750000D01*
X83875000Y-129257717D01*
X86827940Y-129257717D01*
X87090716Y-129729765D01*
X88268425Y-130270977D01*
X89563599Y-130320303D01*
X90779061Y-129870232D01*
X90989284Y-129729765D01*
X91252060Y-129257717D01*
X89040000Y-127045657D01*
X86827940Y-129257717D01*
X83875000Y-129257717D01*
X83875000Y-127563599D01*
X85759697Y-127563599D01*
X86209768Y-128779061D01*
X86350235Y-128989284D01*
X86822283Y-129252060D01*
X89034343Y-127040000D01*
X89045657Y-127040000D01*
X91257717Y-129252060D01*
X91729765Y-128989284D01*
X92270977Y-127811575D01*
X92320303Y-126516401D01*
X91870232Y-125300939D01*
X91729765Y-125090716D01*
X91257717Y-124827940D01*
X89045657Y-127040000D01*
X89034343Y-127040000D01*
X86822283Y-124827940D01*
X86350235Y-125090716D01*
X85809023Y-126268425D01*
X85759697Y-127563599D01*
X83875000Y-127563599D01*
X83875000Y-124822283D01*
X86827940Y-124822283D01*
X89040000Y-127034343D01*
X91252060Y-124822283D01*
X90989284Y-124350235D01*
X89811575Y-123809023D01*
X88516401Y-123759697D01*
X87300939Y-124209768D01*
X87090716Y-124350235D01*
X86827940Y-124822283D01*
X83875000Y-124822283D01*
X83875000Y-112750000D01*
X94000000Y-112750000D01*
X94000001Y-131750000D01*
G04 #@! TD*
M02*
